G04*
G04 #@! TF.GenerationSoftware,Altium Limited,Altium Designer,24.9.1 (31)*
G04*
G04 Layer_Physical_Order=3*
G04 Layer_Color=36540*
%FSLAX44Y44*%
%MOMM*%
G71*
G04*
G04 #@! TF.SameCoordinates,22428939-7FEC-4B67-BCAF-D19850B6772B*
G04*
G04*
G04 #@! TF.FilePolarity,Positive*
G04*
G01*
G75*
%ADD10C,0.1500*%
%ADD14C,0.1000*%
%ADD68C,0.3000*%
%ADD69C,0.1200*%
%ADD71C,0.7000*%
%ADD73C,0.5000*%
%ADD76C,1.0100*%
%ADD78C,0.5000*%
%ADD79C,0.7000*%
G36*
X1078000Y658500D02*
Y651803D01*
X1077982Y651774D01*
X1077903Y651633D01*
X1077831Y651488D01*
X1077766Y651340D01*
X1077707Y651189D01*
X1077656Y651036D01*
X1077611Y650880D01*
X1077574Y650723D01*
X1077545Y650564D01*
X1077522Y650403D01*
X1077507Y650242D01*
X1077500Y650081D01*
Y649919D01*
X1077507Y649758D01*
X1077522Y649596D01*
X1077545Y649436D01*
X1077574Y649277D01*
X1077611Y649120D01*
X1077656Y648964D01*
X1077707Y648811D01*
X1077766Y648660D01*
X1077831Y648512D01*
X1077903Y648367D01*
X1077982Y648226D01*
X1078000Y648197D01*
Y647500D01*
X1076500Y646000D01*
X1062500D01*
Y653500D01*
X1068000Y659000D01*
X1076954D01*
X1078000Y658500D01*
D02*
G37*
G36*
X1178000Y888000D02*
X1178112D01*
X1178210Y887972D01*
X1178373Y887892D01*
X1178447Y887837D01*
X1178611Y887662D01*
X1179000Y887081D01*
Y886919D01*
X1179007Y886758D01*
X1179022Y886597D01*
X1179045Y886436D01*
X1179074Y886277D01*
X1179111Y886120D01*
X1179156Y885964D01*
X1179207Y885811D01*
X1179266Y885660D01*
X1179331Y885512D01*
X1179403Y885368D01*
X1179482Y885226D01*
X1179567Y885089D01*
X1179658Y884955D01*
X1179756Y884826D01*
X1179859Y884702D01*
X1179968Y884582D01*
X1180082Y884468D01*
X1180202Y884359D01*
X1180326Y884256D01*
X1180455Y884158D01*
X1180589Y884067D01*
X1180726Y883982D01*
X1180867Y883903D01*
X1181012Y883831D01*
X1181160Y883765D01*
X1181311Y883707D01*
X1181464Y883656D01*
X1181620Y883612D01*
X1181777Y883574D01*
X1181936Y883545D01*
X1182096Y883522D01*
X1182258Y883508D01*
X1182419Y883500D01*
X1182581D01*
X1182742Y883508D01*
X1182904Y883522D01*
X1183064Y883545D01*
X1183223Y883574D01*
X1183380Y883612D01*
X1183536Y883656D01*
X1183689Y883707D01*
X1183840Y883765D01*
X1183988Y883831D01*
X1184133Y883903D01*
X1184274Y883982D01*
X1184411Y884067D01*
X1184545Y884158D01*
X1184674Y884256D01*
X1184798Y884359D01*
X1184918Y884468D01*
X1185032Y884582D01*
X1185141Y884702D01*
X1185244Y884826D01*
X1185342Y884955D01*
X1185433Y885089D01*
X1185518Y885226D01*
X1185597Y885368D01*
X1185669Y885512D01*
X1185734Y885660D01*
X1185793Y885811D01*
X1185844Y885964D01*
X1185889Y886120D01*
X1185926Y886277D01*
X1185955Y886436D01*
X1185978Y886597D01*
X1185993Y886758D01*
X1186000Y886919D01*
Y887081D01*
X1186389Y887662D01*
X1186553Y887837D01*
X1186627Y887892D01*
X1186790Y887972D01*
X1186888Y888000D01*
X1225500D01*
Y844000D01*
X1178000D01*
X1166837Y855163D01*
X1166865Y855220D01*
X1166906Y855319D01*
X1166940Y855420D01*
X1166967Y855524D01*
X1166986Y855630D01*
X1166997Y855736D01*
X1167001Y855843D01*
Y859157D01*
X1166997Y859264D01*
X1166986Y859370D01*
X1166967Y859476D01*
X1166940Y859580D01*
X1166906Y859681D01*
X1166865Y859780D01*
X1166817Y859876D01*
X1166763Y859968D01*
X1166702Y860056D01*
X1166678Y860086D01*
X1166634Y860140D01*
X1166561Y860218D01*
X1164218Y862561D01*
X1164140Y862634D01*
X1164086Y862678D01*
X1164056Y862702D01*
X1163968Y862763D01*
X1163876Y862817D01*
X1163780Y862865D01*
X1163681Y862906D01*
X1163580Y862940D01*
X1163476Y862967D01*
X1163370Y862986D01*
X1163264Y862997D01*
X1163157Y863001D01*
X1158999D01*
X1147000Y875000D01*
Y900000D01*
X1178000D01*
Y888000D01*
D02*
G37*
G36*
X1343500Y873000D02*
X1311000Y840500D01*
Y829500D01*
X1275000D01*
Y875000D01*
X1305000Y905000D01*
X1343500D01*
Y873000D01*
D02*
G37*
%LPC*%
G36*
X1205582Y881750D02*
X1205418D01*
X1205255Y881743D01*
X1205092Y881729D01*
X1204929Y881707D01*
X1204768Y881679D01*
X1204609Y881643D01*
X1204450Y881601D01*
X1204294Y881552D01*
X1204140Y881496D01*
X1203989Y881433D01*
X1203841Y881364D01*
X1203696Y881289D01*
X1203554Y881207D01*
X1203416Y881119D01*
X1203282Y881025D01*
X1203152Y880925D01*
X1203027Y880820D01*
X1202906Y880710D01*
X1202791Y880594D01*
X1202680Y880473D01*
X1202575Y880348D01*
X1202475Y880218D01*
X1202381Y880084D01*
X1202293Y879946D01*
X1202212Y879804D01*
X1202136Y879659D01*
X1202067Y879511D01*
X1202004Y879360D01*
X1201941Y879201D01*
X1201739Y879073D01*
X1201550Y879101D01*
X1201392Y879143D01*
X1201232Y879179D01*
X1201071Y879207D01*
X1200908Y879229D01*
X1200745Y879243D01*
X1200582Y879250D01*
X1200418D01*
X1200255Y879243D01*
X1200092Y879229D01*
X1199929Y879207D01*
X1199768Y879179D01*
X1199609Y879143D01*
X1199450Y879101D01*
X1199294Y879052D01*
X1199141Y878996D01*
X1198989Y878933D01*
X1198841Y878864D01*
X1198696Y878789D01*
X1198554Y878707D01*
X1198416Y878619D01*
X1198282Y878525D01*
X1198152Y878425D01*
X1198027Y878320D01*
X1197906Y878210D01*
X1197791Y878094D01*
X1197680Y877973D01*
X1197575Y877848D01*
X1197475Y877718D01*
X1197381Y877584D01*
X1197293Y877446D01*
X1197212Y877304D01*
X1197136Y877159D01*
X1197067Y877011D01*
X1197004Y876860D01*
X1196948Y876706D01*
X1196899Y876550D01*
X1196857Y876392D01*
X1196821Y876232D01*
X1196793Y876071D01*
X1196771Y875908D01*
X1196757Y875745D01*
X1196750Y875582D01*
Y875418D01*
X1196757Y875255D01*
X1196771Y875092D01*
X1196793Y874929D01*
X1196821Y874768D01*
X1196857Y874609D01*
X1196899Y874450D01*
X1196948Y874294D01*
X1197004Y874140D01*
X1197067Y873989D01*
X1197136Y873841D01*
X1197212Y873696D01*
X1197293Y873554D01*
X1197381Y873416D01*
X1197475Y873282D01*
X1197575Y873152D01*
X1197680Y873027D01*
X1197877Y872750D01*
X1197680Y872473D01*
X1197575Y872348D01*
X1197475Y872218D01*
X1197381Y872084D01*
X1197293Y871946D01*
X1197212Y871804D01*
X1197136Y871659D01*
X1197067Y871511D01*
X1197004Y871359D01*
X1196948Y871206D01*
X1196899Y871050D01*
X1196857Y870892D01*
X1196821Y870732D01*
X1196793Y870571D01*
X1196771Y870408D01*
X1196757Y870245D01*
X1196750Y870082D01*
Y869918D01*
X1196757Y869755D01*
X1196771Y869592D01*
X1196793Y869429D01*
X1196821Y869268D01*
X1196857Y869109D01*
X1196899Y868950D01*
X1196948Y868794D01*
X1197004Y868641D01*
X1197067Y868489D01*
X1197136Y868341D01*
X1197212Y868196D01*
X1197293Y868054D01*
X1197381Y867916D01*
X1197475Y867782D01*
X1197575Y867652D01*
X1197680Y867527D01*
X1197791Y867406D01*
X1197906Y867290D01*
X1198027Y867180D01*
X1198152Y867075D01*
X1198282Y866975D01*
X1198416Y866881D01*
X1198554Y866793D01*
X1198696Y866712D01*
X1198841Y866636D01*
X1198989Y866567D01*
X1199141Y866504D01*
X1199294Y866448D01*
X1199450Y866399D01*
X1199609Y866357D01*
X1199768Y866321D01*
X1199929Y866293D01*
X1200092Y866271D01*
X1200255Y866257D01*
X1200418Y866250D01*
X1200582D01*
X1200745Y866257D01*
X1200908Y866271D01*
X1201071Y866293D01*
X1201232Y866321D01*
X1201392Y866357D01*
X1201550Y866399D01*
X1201706Y866448D01*
X1201860Y866504D01*
X1202011Y866567D01*
X1202159Y866636D01*
X1202304Y866712D01*
X1202446Y866793D01*
X1202584Y866881D01*
X1202718Y866975D01*
X1202848Y867075D01*
X1202973Y867180D01*
X1203094Y867290D01*
X1203210Y867406D01*
X1203320Y867527D01*
X1203425Y867652D01*
X1203525Y867782D01*
X1203619Y867916D01*
X1203707Y868054D01*
X1203789Y868196D01*
X1203864Y868341D01*
X1203933Y868489D01*
X1203996Y868641D01*
X1204052Y868794D01*
X1204101Y868950D01*
X1204143Y869109D01*
X1204179Y869268D01*
X1204207Y869429D01*
X1204229Y869592D01*
X1204243Y869755D01*
X1204250Y869918D01*
Y870082D01*
X1204243Y870245D01*
X1204229Y870408D01*
X1204207Y870571D01*
X1204179Y870732D01*
X1204143Y870892D01*
X1204101Y871050D01*
X1204052Y871206D01*
X1203996Y871359D01*
X1203933Y871511D01*
X1203864Y871659D01*
X1203789Y871804D01*
X1203707Y871946D01*
X1203619Y872084D01*
X1203525Y872218D01*
X1203425Y872348D01*
X1203320Y872473D01*
X1203123Y872750D01*
X1203320Y873027D01*
X1203425Y873152D01*
X1203525Y873282D01*
X1203619Y873416D01*
X1203707Y873554D01*
X1203789Y873696D01*
X1203864Y873841D01*
X1203933Y873989D01*
X1203996Y874140D01*
X1204059Y874299D01*
X1204261Y874427D01*
X1204450Y874399D01*
X1204609Y874357D01*
X1204768Y874321D01*
X1204929Y874293D01*
X1205092Y874271D01*
X1205255Y874257D01*
X1205418Y874250D01*
X1205582D01*
X1205745Y874257D01*
X1205908Y874271D01*
X1206071Y874293D01*
X1206232Y874321D01*
X1206392Y874357D01*
X1206550Y874399D01*
X1206706Y874448D01*
X1206860Y874504D01*
X1207011Y874567D01*
X1207159Y874636D01*
X1207304Y874712D01*
X1207446Y874793D01*
X1207584Y874881D01*
X1207718Y874975D01*
X1207848Y875075D01*
X1207973Y875180D01*
X1208094Y875291D01*
X1208210Y875406D01*
X1208320Y875527D01*
X1208425Y875652D01*
X1208525Y875782D01*
X1208619Y875916D01*
X1208707Y876054D01*
X1208789Y876196D01*
X1208864Y876341D01*
X1208933Y876489D01*
X1208996Y876640D01*
X1209052Y876794D01*
X1209101Y876950D01*
X1209143Y877109D01*
X1209179Y877268D01*
X1209207Y877429D01*
X1209229Y877592D01*
X1209243Y877755D01*
X1209250Y877918D01*
Y878082D01*
X1209243Y878245D01*
X1209229Y878408D01*
X1209207Y878571D01*
X1209179Y878732D01*
X1209143Y878892D01*
X1209101Y879050D01*
X1209052Y879206D01*
X1208996Y879360D01*
X1208933Y879511D01*
X1208864Y879659D01*
X1208789Y879804D01*
X1208707Y879946D01*
X1208619Y880084D01*
X1208525Y880218D01*
X1208425Y880348D01*
X1208320Y880473D01*
X1208210Y880594D01*
X1208094Y880710D01*
X1207973Y880820D01*
X1207848Y880925D01*
X1207718Y881025D01*
X1207584Y881119D01*
X1207446Y881207D01*
X1207304Y881289D01*
X1207159Y881364D01*
X1207011Y881433D01*
X1206860Y881496D01*
X1206706Y881552D01*
X1206550Y881601D01*
X1206392Y881643D01*
X1206232Y881679D01*
X1206071Y881707D01*
X1205908Y881729D01*
X1205745Y881743D01*
X1205582Y881750D01*
D02*
G37*
G36*
X1172582Y862750D02*
X1172418D01*
X1172255Y862743D01*
X1172092Y862729D01*
X1171929Y862707D01*
X1171768Y862679D01*
X1171609Y862643D01*
X1171450Y862601D01*
X1171294Y862552D01*
X1171141Y862496D01*
X1170989Y862433D01*
X1170841Y862364D01*
X1170696Y862289D01*
X1170554Y862207D01*
X1170416Y862119D01*
X1170282Y862025D01*
X1170152Y861925D01*
X1170027Y861820D01*
X1169906Y861710D01*
X1169790Y861594D01*
X1169680Y861473D01*
X1169575Y861348D01*
X1169475Y861218D01*
X1169381Y861084D01*
X1169293Y860946D01*
X1169212Y860804D01*
X1169136Y860659D01*
X1169067Y860511D01*
X1169004Y860359D01*
X1168948Y860206D01*
X1168899Y860050D01*
X1168857Y859892D01*
X1168821Y859732D01*
X1168793Y859571D01*
X1168771Y859408D01*
X1168757Y859245D01*
X1168750Y859082D01*
Y858918D01*
X1168757Y858755D01*
X1168771Y858592D01*
X1168793Y858429D01*
X1168821Y858268D01*
X1168857Y858109D01*
X1168899Y857950D01*
X1168948Y857794D01*
X1169004Y857641D01*
X1169067Y857489D01*
X1169136Y857341D01*
X1169212Y857196D01*
X1169293Y857054D01*
X1169381Y856916D01*
X1169475Y856782D01*
X1169575Y856652D01*
X1169680Y856527D01*
X1169790Y856406D01*
X1169906Y856291D01*
X1170027Y856180D01*
X1170152Y856075D01*
X1170282Y855975D01*
X1170416Y855881D01*
X1170554Y855793D01*
X1170696Y855712D01*
X1170841Y855636D01*
X1170989Y855567D01*
X1171141Y855504D01*
X1171294Y855448D01*
X1171450Y855399D01*
X1171609Y855357D01*
X1171768Y855321D01*
X1171929Y855293D01*
X1172092Y855271D01*
X1172255Y855257D01*
X1172418Y855250D01*
X1172582D01*
X1172745Y855257D01*
X1172908Y855271D01*
X1173071Y855293D01*
X1173232Y855321D01*
X1173391Y855357D01*
X1173550Y855399D01*
X1173706Y855448D01*
X1173859Y855504D01*
X1174011Y855567D01*
X1174159Y855636D01*
X1174304Y855712D01*
X1174446Y855793D01*
X1174584Y855881D01*
X1174718Y855975D01*
X1174848Y856075D01*
X1174973Y856180D01*
X1175094Y856291D01*
X1175210Y856406D01*
X1175320Y856527D01*
X1175425Y856652D01*
X1175525Y856782D01*
X1175619Y856916D01*
X1175707Y857054D01*
X1175788Y857196D01*
X1175864Y857341D01*
X1175933Y857489D01*
X1175996Y857641D01*
X1176052Y857794D01*
X1176101Y857950D01*
X1176143Y858109D01*
X1176179Y858268D01*
X1176207Y858429D01*
X1176229Y858592D01*
X1176243Y858755D01*
X1176250Y858918D01*
Y859082D01*
X1176243Y859245D01*
X1176229Y859408D01*
X1176207Y859571D01*
X1176179Y859732D01*
X1176143Y859892D01*
X1176101Y860050D01*
X1176052Y860206D01*
X1175996Y860359D01*
X1175933Y860511D01*
X1175864Y860659D01*
X1175788Y860804D01*
X1175707Y860946D01*
X1175619Y861084D01*
X1175525Y861218D01*
X1175425Y861348D01*
X1175320Y861473D01*
X1175210Y861594D01*
X1175094Y861710D01*
X1174973Y861820D01*
X1174848Y861925D01*
X1174718Y862025D01*
X1174584Y862119D01*
X1174446Y862207D01*
X1174304Y862289D01*
X1174159Y862364D01*
X1174011Y862433D01*
X1173859Y862496D01*
X1173706Y862552D01*
X1173550Y862601D01*
X1173391Y862643D01*
X1173232Y862679D01*
X1173071Y862707D01*
X1172908Y862729D01*
X1172745Y862743D01*
X1172582Y862750D01*
D02*
G37*
G36*
X1317582Y889250D02*
X1317418D01*
X1317255Y889243D01*
X1317092Y889229D01*
X1316929Y889207D01*
X1316768Y889179D01*
X1316608Y889143D01*
X1316450Y889101D01*
X1316294Y889052D01*
X1316140Y888996D01*
X1315989Y888933D01*
X1315841Y888864D01*
X1315696Y888789D01*
X1315554Y888707D01*
X1315416Y888619D01*
X1315282Y888525D01*
X1315152Y888425D01*
X1315027Y888320D01*
X1314906Y888210D01*
X1314790Y888094D01*
X1314680Y887973D01*
X1314575Y887848D01*
X1314475Y887718D01*
X1314381Y887584D01*
X1314293Y887446D01*
X1314108Y887389D01*
X1313750Y887352D01*
X1313392Y887389D01*
X1313207Y887446D01*
X1313119Y887584D01*
X1313025Y887718D01*
X1312925Y887848D01*
X1312820Y887973D01*
X1312710Y888094D01*
X1312594Y888210D01*
X1312473Y888320D01*
X1312348Y888425D01*
X1312218Y888525D01*
X1312084Y888619D01*
X1311946Y888707D01*
X1311804Y888789D01*
X1311659Y888864D01*
X1311511Y888933D01*
X1311360Y888996D01*
X1311206Y889052D01*
X1311050Y889101D01*
X1310892Y889143D01*
X1310732Y889179D01*
X1310571Y889207D01*
X1310408Y889229D01*
X1310245Y889243D01*
X1310082Y889250D01*
X1309918D01*
X1309755Y889243D01*
X1309592Y889229D01*
X1309429Y889207D01*
X1309268Y889179D01*
X1309108Y889143D01*
X1308950Y889101D01*
X1308794Y889052D01*
X1308640Y888996D01*
X1308489Y888933D01*
X1308341Y888864D01*
X1308196Y888789D01*
X1308054Y888707D01*
X1307916Y888619D01*
X1307782Y888525D01*
X1307652Y888425D01*
X1307527Y888320D01*
X1307406Y888210D01*
X1307290Y888094D01*
X1307180Y887973D01*
X1307075Y887848D01*
X1306975Y887718D01*
X1306881Y887584D01*
X1306793Y887446D01*
X1306608Y887389D01*
X1306250Y887352D01*
X1305892Y887389D01*
X1305707Y887446D01*
X1305619Y887584D01*
X1305525Y887718D01*
X1305425Y887848D01*
X1305320Y887973D01*
X1305210Y888094D01*
X1305094Y888210D01*
X1304973Y888320D01*
X1304848Y888425D01*
X1304718Y888525D01*
X1304584Y888619D01*
X1304446Y888707D01*
X1304304Y888789D01*
X1304159Y888864D01*
X1304011Y888933D01*
X1303859Y888996D01*
X1303706Y889052D01*
X1303550Y889101D01*
X1303392Y889143D01*
X1303232Y889179D01*
X1303071Y889207D01*
X1302908Y889229D01*
X1302745Y889243D01*
X1302582Y889250D01*
X1302418D01*
X1302255Y889243D01*
X1302092Y889229D01*
X1301929Y889207D01*
X1301768Y889179D01*
X1301608Y889143D01*
X1301450Y889101D01*
X1301294Y889052D01*
X1301140Y888996D01*
X1300989Y888933D01*
X1300841Y888864D01*
X1300696Y888789D01*
X1300554Y888707D01*
X1300416Y888619D01*
X1300282Y888525D01*
X1300152Y888425D01*
X1300027Y888320D01*
X1299906Y888210D01*
X1299790Y888094D01*
X1299680Y887973D01*
X1299575Y887848D01*
X1299475Y887718D01*
X1299381Y887584D01*
X1299293Y887446D01*
X1299211Y887304D01*
X1299136Y887159D01*
X1299067Y887011D01*
X1299004Y886859D01*
X1298948Y886706D01*
X1298899Y886550D01*
X1298857Y886392D01*
X1298821Y886232D01*
X1298793Y886071D01*
X1298771Y885908D01*
X1298757Y885745D01*
X1298750Y885582D01*
Y885418D01*
X1298757Y885255D01*
X1298771Y885092D01*
X1298793Y884929D01*
X1298821Y884768D01*
X1298857Y884608D01*
X1298899Y884450D01*
X1298948Y884294D01*
X1299004Y884140D01*
X1299067Y883989D01*
X1299136Y883841D01*
X1299211Y883696D01*
X1299293Y883554D01*
X1299381Y883416D01*
X1299475Y883282D01*
X1299575Y883152D01*
X1299680Y883027D01*
X1299790Y882906D01*
X1299906Y882791D01*
X1300027Y882680D01*
X1300152Y882575D01*
X1300282Y882475D01*
X1300416Y882381D01*
X1300554Y882293D01*
X1300696Y882212D01*
X1300841Y882136D01*
X1300989Y882067D01*
X1301140Y882004D01*
X1301294Y881948D01*
X1301450Y881899D01*
X1301608Y881857D01*
X1301768Y881821D01*
X1301929Y881793D01*
X1302092Y881771D01*
X1302255Y881757D01*
X1302418Y881750D01*
X1302582D01*
X1302745Y881757D01*
X1302908Y881771D01*
X1303071Y881793D01*
X1303232Y881821D01*
X1303392Y881857D01*
X1303550Y881899D01*
X1303706Y881948D01*
X1303859Y882004D01*
X1304011Y882067D01*
X1304159Y882136D01*
X1304304Y882212D01*
X1304446Y882293D01*
X1304584Y882381D01*
X1304718Y882475D01*
X1304848Y882575D01*
X1304973Y882680D01*
X1305094Y882791D01*
X1305210Y882906D01*
X1305320Y883027D01*
X1305425Y883152D01*
X1305525Y883282D01*
X1305619Y883416D01*
X1305707Y883554D01*
X1305892Y883611D01*
X1306250Y883648D01*
X1306608Y883611D01*
X1306793Y883554D01*
X1306881Y883416D01*
X1306975Y883282D01*
X1307075Y883152D01*
X1307180Y883027D01*
X1307290Y882906D01*
X1307406Y882791D01*
X1307527Y882680D01*
X1307652Y882575D01*
X1307782Y882475D01*
X1307916Y882381D01*
X1308054Y882293D01*
X1308196Y882212D01*
X1308341Y882136D01*
X1308489Y882067D01*
X1308640Y882004D01*
X1308794Y881948D01*
X1308950Y881899D01*
X1309108Y881857D01*
X1309268Y881821D01*
X1309429Y881793D01*
X1309592Y881771D01*
X1309755Y881757D01*
X1309918Y881750D01*
X1310082D01*
X1310245Y881757D01*
X1310408Y881771D01*
X1310571Y881793D01*
X1310732Y881821D01*
X1310892Y881857D01*
X1311050Y881899D01*
X1311206Y881948D01*
X1311360Y882004D01*
X1311511Y882067D01*
X1311659Y882136D01*
X1311804Y882212D01*
X1311946Y882293D01*
X1312084Y882381D01*
X1312218Y882475D01*
X1312348Y882575D01*
X1312473Y882680D01*
X1312594Y882791D01*
X1312710Y882906D01*
X1312820Y883027D01*
X1312925Y883152D01*
X1313025Y883282D01*
X1313119Y883416D01*
X1313207Y883554D01*
X1313392Y883611D01*
X1313750Y883648D01*
X1314108Y883611D01*
X1314293Y883554D01*
X1314381Y883416D01*
X1314475Y883282D01*
X1314575Y883152D01*
X1314680Y883027D01*
X1314790Y882906D01*
X1314906Y882791D01*
X1315027Y882680D01*
X1315152Y882575D01*
X1315282Y882475D01*
X1315416Y882381D01*
X1315554Y882293D01*
X1315696Y882212D01*
X1315841Y882136D01*
X1315989Y882067D01*
X1316140Y882004D01*
X1316294Y881948D01*
X1316450Y881899D01*
X1316608Y881857D01*
X1316768Y881821D01*
X1316929Y881793D01*
X1317092Y881771D01*
X1317255Y881757D01*
X1317418Y881750D01*
X1317582D01*
X1317745Y881757D01*
X1317908Y881771D01*
X1318071Y881793D01*
X1318232Y881821D01*
X1318392Y881857D01*
X1318550Y881899D01*
X1318706Y881948D01*
X1318859Y882004D01*
X1319011Y882067D01*
X1319159Y882136D01*
X1319304Y882212D01*
X1319446Y882293D01*
X1319584Y882381D01*
X1319718Y882475D01*
X1319848Y882575D01*
X1319973Y882680D01*
X1320094Y882791D01*
X1320210Y882906D01*
X1320320Y883027D01*
X1320425Y883152D01*
X1320525Y883282D01*
X1320619Y883416D01*
X1320707Y883554D01*
X1320789Y883696D01*
X1320864Y883841D01*
X1320933Y883989D01*
X1320996Y884140D01*
X1321052Y884294D01*
X1321101Y884450D01*
X1321143Y884608D01*
X1321179Y884768D01*
X1321207Y884929D01*
X1321228Y885092D01*
X1321243Y885255D01*
X1321250Y885418D01*
Y885582D01*
X1321243Y885745D01*
X1321228Y885908D01*
X1321207Y886071D01*
X1321179Y886232D01*
X1321143Y886392D01*
X1321101Y886550D01*
X1321052Y886706D01*
X1320996Y886859D01*
X1320933Y887011D01*
X1320864Y887159D01*
X1320789Y887304D01*
X1320707Y887446D01*
X1320619Y887584D01*
X1320525Y887718D01*
X1320425Y887848D01*
X1320320Y887973D01*
X1320210Y888094D01*
X1320094Y888210D01*
X1319973Y888320D01*
X1319848Y888425D01*
X1319718Y888525D01*
X1319584Y888619D01*
X1319446Y888707D01*
X1319304Y888789D01*
X1319159Y888864D01*
X1319011Y888933D01*
X1318859Y888996D01*
X1318706Y889052D01*
X1318550Y889101D01*
X1318392Y889143D01*
X1318232Y889179D01*
X1318071Y889207D01*
X1317908Y889229D01*
X1317745Y889243D01*
X1317582Y889250D01*
D02*
G37*
G36*
X1313081Y869500D02*
X1312919D01*
X1312758Y869492D01*
X1312596Y869478D01*
X1312436Y869455D01*
X1312277Y869426D01*
X1312120Y869389D01*
X1311964Y869344D01*
X1311811Y869293D01*
X1311660Y869234D01*
X1311512Y869169D01*
X1311367Y869097D01*
X1311226Y869018D01*
X1311089Y868933D01*
X1310955Y868842D01*
X1310826Y868744D01*
X1310702Y868641D01*
X1310582Y868532D01*
X1310468Y868418D01*
X1310359Y868298D01*
X1310256Y868174D01*
X1310158Y868045D01*
X1310067Y867911D01*
X1309982Y867774D01*
X1309903Y867632D01*
X1309831Y867488D01*
X1309766Y867340D01*
X1309707Y867189D01*
X1309656Y867036D01*
X1309612Y866880D01*
X1309574Y866723D01*
X1309545Y866564D01*
X1309522Y866403D01*
X1309507Y866242D01*
X1309500Y866081D01*
Y865919D01*
X1309507Y865758D01*
X1309522Y865596D01*
X1309545Y865436D01*
X1309574Y865277D01*
X1309612Y865120D01*
X1309656Y864964D01*
X1309707Y864811D01*
X1309766Y864660D01*
X1309831Y864512D01*
X1309903Y864368D01*
X1309982Y864226D01*
X1310067Y864089D01*
X1310158Y863955D01*
X1310256Y863826D01*
X1310256Y863826D01*
X1310359Y863702D01*
X1310486Y863493D01*
X1310537Y863250D01*
X1310486Y863007D01*
X1310359Y862798D01*
X1310256Y862674D01*
X1310256Y862674D01*
X1310158Y862545D01*
X1310067Y862411D01*
X1309982Y862274D01*
X1309903Y862132D01*
X1309831Y861988D01*
X1309766Y861840D01*
X1309707Y861689D01*
X1309656Y861536D01*
X1309612Y861380D01*
X1309574Y861223D01*
X1309545Y861064D01*
X1309522Y860903D01*
X1309507Y860742D01*
X1309500Y860581D01*
Y860419D01*
X1309507Y860258D01*
X1309522Y860097D01*
X1309545Y859936D01*
X1309574Y859777D01*
X1309612Y859620D01*
X1309656Y859464D01*
X1309707Y859311D01*
X1309766Y859160D01*
X1309831Y859012D01*
X1309903Y858867D01*
X1309982Y858726D01*
X1310067Y858589D01*
X1310158Y858455D01*
X1310256Y858326D01*
X1310359Y858202D01*
X1310468Y858082D01*
X1310582Y857968D01*
X1310702Y857859D01*
X1310826Y857756D01*
X1310955Y857658D01*
X1311089Y857567D01*
X1311226Y857482D01*
X1311367Y857403D01*
X1311512Y857331D01*
X1311660Y857265D01*
X1311811Y857207D01*
X1311964Y857156D01*
X1312120Y857112D01*
X1312277Y857074D01*
X1312436Y857045D01*
X1312596Y857022D01*
X1312758Y857008D01*
X1312919Y857000D01*
X1313081D01*
X1313242Y857008D01*
X1313403Y857022D01*
X1313564Y857045D01*
X1313723Y857074D01*
X1313880Y857112D01*
X1314036Y857156D01*
X1314189Y857207D01*
X1314340Y857265D01*
X1314488Y857331D01*
X1314632Y857403D01*
X1314774Y857482D01*
X1314911Y857567D01*
X1315045Y857658D01*
X1315174Y857756D01*
X1315298Y857859D01*
X1315418Y857968D01*
X1315532Y858082D01*
X1315641Y858202D01*
X1315744Y858326D01*
X1315842Y858455D01*
X1315933Y858589D01*
X1316018Y858726D01*
X1316097Y858867D01*
X1316169Y859012D01*
X1316234Y859160D01*
X1316293Y859311D01*
X1316344Y859464D01*
X1316389Y859620D01*
X1316425Y859777D01*
X1316455Y859936D01*
X1316478Y860097D01*
X1316492Y860258D01*
X1316500Y860419D01*
Y860581D01*
X1316492Y860742D01*
X1316478Y860903D01*
X1316455Y861064D01*
X1316425Y861223D01*
X1316389Y861380D01*
X1316344Y861536D01*
X1316293Y861689D01*
X1316234Y861840D01*
X1316169Y861988D01*
X1316097Y862132D01*
X1316018Y862274D01*
X1315933Y862411D01*
X1315842Y862545D01*
X1315744Y862674D01*
X1315744Y862674D01*
X1315641Y862798D01*
X1315514Y863007D01*
X1315463Y863250D01*
X1315514Y863493D01*
X1315641Y863702D01*
X1315744Y863826D01*
X1315744Y863826D01*
X1315842Y863955D01*
X1315933Y864089D01*
X1316018Y864226D01*
X1316097Y864368D01*
X1316169Y864512D01*
X1316234Y864660D01*
X1316293Y864811D01*
X1316344Y864964D01*
X1316389Y865120D01*
X1316425Y865277D01*
X1316455Y865436D01*
X1316478Y865596D01*
X1316492Y865758D01*
X1316500Y865919D01*
Y866081D01*
X1316492Y866242D01*
X1316478Y866403D01*
X1316455Y866564D01*
X1316425Y866723D01*
X1316389Y866880D01*
X1316344Y867036D01*
X1316293Y867189D01*
X1316234Y867340D01*
X1316169Y867488D01*
X1316097Y867632D01*
X1316018Y867774D01*
X1315933Y867911D01*
X1315842Y868045D01*
X1315744Y868174D01*
X1315641Y868298D01*
X1315532Y868418D01*
X1315418Y868532D01*
X1315298Y868641D01*
X1315174Y868744D01*
X1315045Y868842D01*
X1314911Y868933D01*
X1314774Y869018D01*
X1314632Y869097D01*
X1314488Y869169D01*
X1314340Y869234D01*
X1314189Y869293D01*
X1314036Y869344D01*
X1313880Y869389D01*
X1313723Y869426D01*
X1313564Y869455D01*
X1313403Y869478D01*
X1313242Y869492D01*
X1313081Y869500D01*
D02*
G37*
G36*
X1284581Y855500D02*
X1284419D01*
X1284258Y855492D01*
X1284097Y855478D01*
X1283936Y855455D01*
X1283777Y855425D01*
X1283620Y855388D01*
X1283464Y855344D01*
X1283311Y855293D01*
X1283160Y855234D01*
X1283012Y855169D01*
X1282867Y855097D01*
X1282726Y855018D01*
X1282589Y854933D01*
X1282455Y854842D01*
X1282326Y854744D01*
X1282202Y854641D01*
X1282082Y854532D01*
X1281968Y854418D01*
X1281859Y854298D01*
X1281756Y854174D01*
X1281658Y854045D01*
X1281567Y853911D01*
X1281482Y853774D01*
X1281403Y853633D01*
X1281331Y853488D01*
X1281266Y853340D01*
X1281207Y853189D01*
X1281156Y853036D01*
X1281111Y852880D01*
X1281075Y852723D01*
X1281045Y852564D01*
X1281022Y852403D01*
X1281008Y852242D01*
X1281000Y852081D01*
Y851919D01*
X1281008Y851758D01*
X1281022Y851597D01*
X1281045Y851436D01*
X1281075Y851277D01*
X1281111Y851120D01*
X1281156Y850964D01*
X1281207Y850811D01*
X1281266Y850660D01*
X1281331Y850512D01*
X1281403Y850368D01*
X1281482Y850226D01*
X1281567Y850089D01*
X1281658Y849955D01*
X1281756Y849826D01*
X1281859Y849702D01*
X1281968Y849582D01*
X1282082Y849468D01*
X1282202Y849359D01*
X1282326Y849256D01*
X1282455Y849158D01*
X1282589Y849067D01*
X1282726Y848982D01*
X1282867Y848903D01*
X1283012Y848831D01*
X1283160Y848766D01*
X1283311Y848707D01*
X1283464Y848656D01*
X1283620Y848612D01*
X1283777Y848575D01*
X1283936Y848545D01*
X1284097Y848522D01*
X1284258Y848508D01*
X1284419Y848500D01*
X1284581D01*
X1284742Y848508D01*
X1284903Y848522D01*
X1285064Y848545D01*
X1285223Y848575D01*
X1285380Y848612D01*
X1285536Y848656D01*
X1285689Y848707D01*
X1285840Y848766D01*
X1285988Y848831D01*
X1286133Y848903D01*
X1286274Y848982D01*
X1286411Y849067D01*
X1286545Y849158D01*
X1286674Y849256D01*
X1286798Y849359D01*
X1286918Y849468D01*
X1287032Y849582D01*
X1287141Y849702D01*
X1287244Y849826D01*
X1287342Y849955D01*
X1287433Y850089D01*
X1287518Y850226D01*
X1287597Y850368D01*
X1287669Y850512D01*
X1287734Y850660D01*
X1287793Y850811D01*
X1287844Y850964D01*
X1287888Y851120D01*
X1287926Y851277D01*
X1287955Y851436D01*
X1287978Y851597D01*
X1287993Y851758D01*
X1288000Y851919D01*
Y852081D01*
X1287993Y852242D01*
X1287978Y852403D01*
X1287955Y852564D01*
X1287926Y852723D01*
X1287888Y852880D01*
X1287844Y853036D01*
X1287793Y853189D01*
X1287734Y853340D01*
X1287669Y853488D01*
X1287597Y853633D01*
X1287518Y853774D01*
X1287433Y853911D01*
X1287342Y854045D01*
X1287244Y854174D01*
X1287141Y854298D01*
X1287032Y854418D01*
X1286918Y854532D01*
X1286798Y854641D01*
X1286674Y854744D01*
X1286545Y854842D01*
X1286411Y854933D01*
X1286274Y855018D01*
X1286133Y855097D01*
X1285988Y855169D01*
X1285840Y855234D01*
X1285689Y855293D01*
X1285536Y855344D01*
X1285380Y855388D01*
X1285223Y855425D01*
X1285064Y855455D01*
X1284903Y855478D01*
X1284742Y855492D01*
X1284581Y855500D01*
D02*
G37*
%LPD*%
D10*
X1375500Y889500D02*
X1378000Y887000D01*
X1378000D01*
D14*
X1178000Y599500D02*
Y604500D01*
X1170500Y612000D02*
X1178000Y604500D01*
X1177500Y599000D02*
X1178000Y599500D01*
X1161263Y612000D02*
X1170500D01*
X1153157Y609500D02*
X1157000Y605657D01*
Y584500D02*
Y605657D01*
X1154192Y612000D02*
X1159500Y606692D01*
Y585965D02*
Y606692D01*
X1162000Y587000D02*
Y607728D01*
X1155228Y614500D02*
X1162000Y607728D01*
X1213500Y788500D02*
X1217000Y792000D01*
X1244000D02*
X1261800Y774200D01*
X1217000Y792000D02*
X1244000D01*
X1257500Y767206D02*
X1265511Y759195D01*
X1257500Y767206D02*
Y772500D01*
X1249500Y780500D02*
X1257500Y772500D01*
X1243000Y780500D02*
X1249500D01*
X1057500Y871500D02*
Y971500D01*
Y871500D02*
X1088759Y840241D01*
X1105500D01*
X1054000Y867000D02*
Y972223D01*
Y867000D02*
X1085000Y836000D01*
X1105500D01*
X1060500Y878500D02*
X1095000Y844000D01*
X1060500Y938500D02*
X1079293Y957293D01*
X1060500Y878500D02*
Y938500D01*
X1140500Y700000D02*
X1142000Y698500D01*
X1140500Y700000D02*
Y756237D01*
X1137250Y774750D02*
X1142000Y770000D01*
Y758272D02*
Y770000D01*
X1137250Y774750D02*
Y784250D01*
X1132250Y772466D02*
X1132250Y772466D01*
X1134750Y773250D02*
Y782250D01*
X1132250Y772466D02*
Y780830D01*
X1127250Y770144D02*
X1131000Y766394D01*
Y755130D02*
Y766394D01*
X1136000Y757201D02*
Y768465D01*
X1127250Y770144D02*
Y774537D01*
X1127000Y762500D02*
Y766858D01*
X1133500Y756166D02*
Y767429D01*
X1139500Y757237D02*
X1140500Y756237D01*
X1132250Y772215D02*
Y772466D01*
X1139500Y757237D02*
Y768500D01*
X1134750Y773250D02*
X1139500Y768500D01*
X1129750Y771179D02*
Y773502D01*
X1124750Y769108D02*
X1127000Y766858D01*
X1129750Y771179D02*
X1133500Y767429D01*
X1132250Y772215D02*
X1136000Y768465D01*
X1145693Y735615D02*
Y775842D01*
X1176351Y806500D01*
X1145693Y735615D02*
X1150308Y731000D01*
X1176351Y806500D02*
X1237000D01*
X1114750Y741919D02*
Y773581D01*
X1110000Y781867D02*
X1117250Y774617D01*
X1120000Y786009D02*
X1127250Y778759D01*
X1097000Y784260D02*
X1109750Y771510D01*
X1125000Y788080D02*
X1132250Y780830D01*
X1107500Y780831D02*
X1114750Y773581D01*
X1112250Y742954D02*
Y772546D01*
X1117250Y740883D02*
Y774617D01*
X1124750Y775573D02*
Y777723D01*
X1127250Y774537D02*
X1127250Y774537D01*
X1124750Y775573D02*
X1124750Y775573D01*
X1127500Y789500D02*
X1134750Y782250D01*
X1112500Y782902D02*
X1119750Y775652D01*
X1109750Y743990D02*
Y771510D01*
X1106500Y740740D02*
X1109750Y743990D01*
X1117500Y784974D02*
X1124750Y777723D01*
X1124750Y769108D02*
Y775573D01*
X1122500Y787045D02*
X1129750Y779794D01*
X1119750Y739848D02*
Y775652D01*
X1130250Y791250D02*
X1137250Y784250D01*
X1129750Y773502D02*
Y779794D01*
X1104500Y780296D02*
X1112250Y772546D01*
X1122250Y760250D02*
Y776688D01*
X1127250Y774537D02*
Y778759D01*
X1115000Y783938D02*
X1122250Y776688D01*
X1127500Y789500D02*
Y809578D01*
X1130250Y791250D02*
Y808793D01*
X1154500Y747000D02*
Y759843D01*
X1150500Y743000D02*
X1154500Y747000D01*
Y759843D02*
X1155500Y760843D01*
X1157000Y758808D02*
X1158000Y759808D01*
X1157000Y743500D02*
Y758808D01*
X1197500Y763000D02*
X1198429Y762071D01*
X1201061Y756414D02*
Y759728D01*
X1198429Y762071D02*
X1198718D01*
X1197500Y763000D02*
Y773192D01*
X1198718Y762071D02*
X1201061Y759728D01*
X1195000Y760657D02*
Y772157D01*
X1197061Y758071D02*
Y758595D01*
X1195000Y760657D02*
X1197061Y758595D01*
X1167113Y789000D02*
X1178157D01*
X1166078Y791500D02*
X1179192D01*
X1197500Y773192D01*
X1178157Y789000D02*
X1195000Y772157D01*
X1201000Y743500D02*
X1203500Y741000D01*
X1201000Y743500D02*
Y756353D01*
X1203500Y737500D02*
Y741000D01*
X1158000Y759808D02*
Y779887D01*
X1155500Y760843D02*
Y780922D01*
X1158000Y779887D02*
X1167113Y789000D01*
X1201000Y756353D02*
X1201061Y756414D01*
X1155500Y780922D02*
X1166078Y791500D01*
X1138000Y732701D02*
Y755201D01*
X1135500Y733737D02*
Y754166D01*
X1133000Y734772D02*
Y753130D01*
X1136000Y757201D02*
X1138000Y755201D01*
X1142000Y758272D02*
X1143000Y757272D01*
X1131000Y755130D02*
X1133000Y753130D01*
X1143000Y706500D02*
Y757272D01*
X1133500Y756166D02*
X1135500Y754166D01*
X1130500Y735808D02*
Y752000D01*
X1122250Y760250D02*
X1130500Y752000D01*
X1157000Y743500D02*
X1157500Y743000D01*
X1182000Y772000D02*
X1191000Y763000D01*
X1221500Y535703D02*
X1224203Y533000D01*
X1225843Y545500D02*
X1236000D01*
X1221500Y535703D02*
Y541157D01*
X1225843Y545500D01*
X1224203Y533000D02*
X1234972D01*
X1276500Y599000D02*
Y609077D01*
Y612100D01*
X1275800Y612800D02*
X1276500Y612100D01*
X1269008Y612800D02*
X1275800D01*
X1268308Y613500D02*
X1269008Y612800D01*
X1268308Y613500D02*
Y615600D01*
X1269008Y616300D01*
X1276149D01*
X1276849Y617000D01*
Y619100D01*
X1276149Y619800D02*
X1276849Y619100D01*
X1269008Y619800D02*
X1276149D01*
X1268308Y620500D02*
X1269008Y619800D01*
X1268308Y620500D02*
Y622600D01*
X1269008Y623300D01*
X1275800D01*
X1276500Y624000D01*
Y628000D01*
Y649500D01*
X1283191Y613000D02*
Y619100D01*
X1283891Y619800D01*
X1296133D01*
X1296833Y620500D01*
Y622600D01*
X1296133Y623300D02*
X1296833Y622600D01*
X1283891Y623300D02*
X1296133D01*
X1283191Y624000D02*
X1283891Y623300D01*
X1283191Y624000D02*
Y624500D01*
Y649309D01*
Y601309D02*
Y613000D01*
X1290500Y551000D02*
Y562657D01*
X1287157Y566000D02*
X1290500Y562657D01*
X1280500Y572657D02*
X1287157Y566000D01*
X1287157D01*
X1280500Y572657D02*
Y587500D01*
X1276500Y599000D02*
X1288000Y587500D01*
Y570343D02*
Y587500D01*
Y570343D02*
X1297000Y561343D01*
X1260500Y607500D02*
X1280500Y587500D01*
X1283191Y601309D02*
X1305500Y579000D01*
Y548918D02*
Y579000D01*
X1274500Y651500D02*
X1276500Y649500D01*
X1137500Y828510D02*
Y858500D01*
X1111500Y884500D02*
Y969984D01*
Y884500D02*
X1137500Y858500D01*
X1114526Y888474D02*
Y969474D01*
Y888474D02*
X1147000Y856000D01*
X1150657D01*
X1267500Y505500D02*
X1275500D01*
X1258500Y514500D02*
Y519000D01*
Y514500D02*
X1267500Y505500D01*
X1251500Y526000D02*
Y582000D01*
Y526000D02*
X1258500Y519000D01*
X1247500Y552500D02*
Y579157D01*
X1219917Y606740D02*
X1247500Y579157D01*
X1219917Y606740D02*
Y628333D01*
X1229000Y622388D02*
Y624000D01*
Y622388D02*
X1229700Y621688D01*
X1254800D01*
X1255500Y620988D01*
Y618888D02*
Y620988D01*
X1254800Y618188D02*
X1255500Y618888D01*
X1229700Y618188D02*
X1254800D01*
X1229000Y617488D02*
X1229700Y618188D01*
X1229000Y613488D02*
Y617488D01*
X1253500Y746500D02*
Y747000D01*
Y756000D01*
Y765648D01*
Y746500D02*
Y756000D01*
X1249000Y770148D02*
X1253500Y765648D01*
X1221476Y770148D02*
X1249000D01*
X1221312Y770312D02*
X1221476Y770148D01*
X1164000Y707000D02*
X1176500Y694500D01*
X1181500D01*
X1224500Y609000D02*
Y651500D01*
X1181500Y694500D02*
X1224500Y651500D01*
X1180157Y692000D02*
X1218000Y654157D01*
X1167000Y692000D02*
X1180157D01*
X1218000Y637000D02*
Y654157D01*
X1261350Y727350D02*
X1289192D01*
X1248000Y706492D02*
Y714000D01*
X1261350Y727350D01*
X1250530Y712587D02*
X1262793Y724850D01*
X1250530Y705486D02*
Y712587D01*
X1262793Y724850D02*
X1287115D01*
X1235008Y693500D02*
X1248000Y706492D01*
X1250500Y705457D02*
X1250530Y705486D01*
X1250500Y692570D02*
Y705457D01*
X1293000Y722500D02*
Y723542D01*
X1289192Y727350D02*
X1293000Y723542D01*
X1287115Y724850D02*
X1288157D01*
X1328000Y687500D02*
X1344157D01*
X1288157Y724850D02*
X1290500Y722507D01*
X1293000Y722500D02*
X1328000Y687500D01*
X1290500Y720500D02*
Y721464D01*
Y722507D01*
X1346414Y685000D02*
X1352500Y691086D01*
X1326000Y685000D02*
X1346414D01*
X1352500Y691086D02*
Y798949D01*
X1290500Y720500D02*
X1326000Y685000D01*
X1233915Y706849D02*
X1238914D01*
X1239500Y707435D01*
Y718000D01*
X1240571Y702849D02*
X1243500Y705778D01*
Y716343D01*
X1257007Y729850D01*
X1291885Y733850D02*
X1327735Y698000D01*
X1332657D01*
X1255350Y733850D02*
X1291885D01*
X1332657Y698000D02*
X1342980Y708323D01*
X1239500Y718000D02*
X1255350Y733850D01*
X1257007Y729850D02*
X1288571D01*
X1290228D01*
X1326078Y694000D02*
X1334314D01*
X1290228Y729850D02*
X1326078Y694000D01*
X1334314D02*
X1346980Y706666D01*
X1231556Y702849D02*
X1240571D01*
X1246000Y665481D02*
X1250043Y669525D01*
X1246000Y645500D02*
Y665481D01*
X1236500Y667500D02*
X1243500Y674500D01*
X1236500Y645500D02*
Y667500D01*
X1364770Y614500D02*
X1406810Y656541D01*
X1353167Y614500D02*
X1364770D01*
X1404819Y608650D02*
X1407170Y611000D01*
X1359268Y608650D02*
X1404819D01*
X1447000Y555000D02*
X1483000D01*
X1431000Y571000D02*
X1447000Y555000D01*
X1376000Y571000D02*
X1431000D01*
X1489250Y570250D02*
X1494000D01*
X1486500Y558500D02*
Y567500D01*
X1489250Y570250D01*
X1483000Y555000D02*
X1486500Y558500D01*
X1479250Y729500D02*
X1480750Y731000D01*
X1483250Y733500D02*
X1494000Y744250D01*
X1451000Y720500D02*
X1460000Y729500D01*
X1480750Y731000D02*
X1480760D01*
X1460000Y729500D02*
X1479250D01*
X1480760Y731000D02*
X1483250Y733490D01*
Y733500D01*
X1397500Y720500D02*
X1451000D01*
X1392500Y725500D02*
X1397500Y720500D01*
X1167500Y711500D02*
X1172500Y706500D01*
X1182500D01*
X1184000Y705000D01*
X1167500Y711500D02*
Y717500D01*
X1229000Y612000D02*
Y613488D01*
X1304000Y641000D02*
Y674811D01*
Y676100D01*
X1303300Y676800D02*
X1304000Y676100D01*
X1298813Y676800D02*
X1303300D01*
X1298113Y677500D02*
X1298813Y676800D01*
X1298113Y677500D02*
Y679600D01*
X1298813Y680300D01*
X1313136D01*
X1313837Y681000D01*
Y683100D01*
X1313136Y683800D02*
X1313837Y683100D01*
X1304700Y683800D02*
X1313136D01*
X1304000Y684500D02*
X1304700Y683800D01*
X1304000Y684500D02*
Y685000D01*
Y699500D01*
X1229000Y624000D02*
Y652500D01*
X1224500Y609000D02*
X1241000Y592500D01*
Y591000D02*
X1248000Y584000D01*
X1241000Y591000D02*
Y592500D01*
X1248000Y584000D02*
X1249500D01*
X1251500Y582000D01*
X1246000Y590843D02*
Y595000D01*
Y590843D02*
X1248343Y588500D01*
X1252500D01*
X1229000Y612000D02*
X1246000Y595000D01*
X1252500Y588500D02*
X1255500Y585500D01*
Y537000D02*
Y585500D01*
X1184000Y697500D02*
X1229000Y652500D01*
X1284000Y654500D02*
Y670500D01*
X1286000Y672500D02*
Y709000D01*
X1284000Y670500D02*
X1286000Y672500D01*
X1294500Y709000D02*
X1304000Y699500D01*
X1165000Y762500D02*
X1165500Y762000D01*
Y738500D02*
Y762000D01*
X1057500Y971500D02*
X1063000Y977000D01*
X1051108Y975115D02*
X1054000Y972223D01*
X1051108Y975115D02*
Y978635D01*
X1054473Y982000D01*
X1054500D01*
X1062902Y990402D01*
X1039500Y832000D02*
X1051000Y820500D01*
X1094414D01*
X1033500Y822000D02*
X1038000Y817500D01*
X1033500Y822000D02*
Y825500D01*
X1038000Y817500D02*
X1076000D01*
X1014000Y788500D02*
Y811000D01*
X1006000Y780500D02*
X1014000Y788500D01*
X1006000Y779750D02*
Y780500D01*
X1096000Y934000D02*
Y941000D01*
X1087500Y949500D02*
X1096000Y941000D01*
X1090500Y935500D02*
Y942000D01*
X1087750Y922250D02*
Y932750D01*
X1090500Y935500D01*
X1097000Y856000D02*
Y913000D01*
X1087750Y922250D02*
X1097000Y913000D01*
Y856000D02*
X1117500Y835500D01*
X1102000Y855500D02*
Y940500D01*
Y855500D02*
X1120000Y837500D01*
X1091500Y951000D02*
X1102000Y940500D01*
X1083500Y949000D02*
X1090500Y942000D01*
X1083500Y949000D02*
Y980000D01*
X1087500Y949500D02*
Y980073D01*
X1083647Y983926D02*
Y994500D01*
Y983926D02*
X1087500Y980073D01*
X1078573Y984927D02*
X1083500Y980000D01*
X1078573Y984927D02*
Y991298D01*
X1076000Y817500D02*
X1090500Y803000D01*
X1096235Y820735D02*
X1097000Y821500D01*
X1094649Y820735D02*
X1096235D01*
X1094414Y820500D02*
X1094649Y820735D01*
X1127500Y831000D02*
Y855500D01*
X1197000Y953000D02*
X1319018D01*
X1198036Y950500D02*
X1434510D01*
X1183536Y936000D02*
X1198036Y950500D01*
X1156750Y939750D02*
X1183750D01*
X1197000Y953000D01*
X1156000Y936000D02*
X1183536D01*
X1134250Y825260D02*
X1137500Y828510D01*
X1130250Y808793D02*
X1135957Y814500D01*
X1146796D01*
X1134921Y817000D02*
X1145760D01*
X1125000Y811500D02*
X1134331Y820831D01*
X1146796Y814500D02*
X1153250Y820954D01*
X1145760Y817000D02*
X1150750Y821990D01*
X1127500Y809578D02*
X1134921Y817000D01*
X1153250Y820954D02*
Y826546D01*
X1134331Y820831D02*
Y821659D01*
X1134250Y821740D02*
X1134331Y821659D01*
X1134250Y821740D02*
Y825260D01*
X1125000Y788080D02*
Y811500D01*
X1161843Y853500D02*
X1163157D01*
X1165500Y855843D02*
Y859157D01*
X1150000Y841657D02*
X1161843Y853500D01*
X1163157D02*
X1165500Y855843D01*
X1150000Y829796D02*
Y841657D01*
X1147500Y828760D02*
Y843500D01*
X1150000Y829796D02*
X1153250Y826546D01*
X1147500Y843500D02*
X1161500Y857500D01*
X1147500Y828760D02*
X1150750Y825510D01*
Y821990D02*
Y825510D01*
X1237000Y806500D02*
X1266500Y777000D01*
X1104265Y797149D02*
Y798735D01*
X1103500Y799500D02*
X1104265Y798735D01*
Y797149D02*
X1104500Y796914D01*
Y780296D02*
Y796914D01*
X1107500Y780831D02*
Y808500D01*
X1103500Y812500D02*
X1107500Y808500D01*
X1097000Y784260D02*
Y803000D01*
X1097500Y803500D01*
X1090500Y761157D02*
Y803000D01*
X1093000Y808000D02*
X1104000Y819000D01*
X1093000Y762192D02*
X1095500Y759692D01*
X1090500Y761157D02*
X1093000Y758657D01*
Y762192D02*
Y808000D01*
X1089250Y737260D02*
X1093000Y741010D01*
X1112500Y782902D02*
Y833241D01*
X1117500Y784974D02*
Y835500D01*
X1120000Y786009D02*
Y837500D01*
X1110000Y781867D02*
Y831500D01*
X1115000Y783938D02*
Y834464D01*
X1122500Y787045D02*
Y840000D01*
X1129750Y773502D02*
X1129750Y773502D01*
X1136500Y691642D02*
Y731201D01*
X1138000Y732701D01*
X1134000Y732237D02*
X1135500Y733737D01*
X1131500Y733272D02*
X1133000Y734772D01*
X1112250Y739419D02*
X1114750Y741919D01*
X1109500Y740204D02*
X1112250Y742954D01*
X1109000Y730500D02*
X1109500Y731000D01*
Y740204D01*
X1114750Y738383D02*
X1117250Y740883D01*
X1114750Y725093D02*
Y738383D01*
X1119000Y734000D02*
Y739098D01*
X1119750Y739848D01*
X1112250Y724058D02*
Y739419D01*
X1114750Y725093D02*
X1116843Y723000D01*
X1112250Y724058D02*
X1116447Y719861D01*
X1116843Y723000D02*
X1123000D01*
X1109000Y723772D02*
Y730500D01*
Y723772D02*
X1121500Y711272D01*
X1106000Y731036D02*
X1107000Y732036D01*
X1106500Y738192D02*
Y740740D01*
X1103500Y717071D02*
Y732343D01*
X1104000Y737157D02*
X1104500Y736657D01*
X1106500Y738192D02*
X1107000Y737692D01*
X1104000Y737157D02*
Y741240D01*
X1103500Y732343D02*
X1104500Y733343D01*
X1107000Y732036D02*
Y737692D01*
X1095500Y749740D02*
X1104000Y741240D01*
X1104500Y733343D02*
Y736657D01*
X1100500Y716535D02*
Y735000D01*
X1103500Y717071D02*
X1116500Y704071D01*
X1100500Y716535D02*
X1114000Y703036D01*
X1106000Y718107D02*
X1119000Y705107D01*
X1106000Y718107D02*
Y731036D01*
X1111500Y666701D02*
Y701831D01*
X1089250Y724081D02*
X1111500Y701831D01*
X1121500Y670843D02*
Y711272D01*
X1119000Y669808D02*
Y705107D01*
X1089250Y724081D02*
Y737260D01*
X1116500Y668772D02*
Y704071D01*
X1114000Y667737D02*
Y703036D01*
X1116500Y668772D02*
X1119000Y666272D01*
X1114000Y667737D02*
X1116500Y665237D01*
X1111500Y666701D02*
X1114000Y664201D01*
X1121500Y670843D02*
X1124500Y667843D01*
X1119000Y623500D02*
Y666272D01*
X1121500Y629500D02*
Y667308D01*
X1114000Y578500D02*
Y664201D01*
X1116500Y621000D02*
Y665237D01*
X1119000Y669808D02*
X1121500Y667308D01*
X1116447Y719861D02*
X1120053D01*
X1125500Y691464D02*
Y714414D01*
X1120053Y719861D02*
X1125500Y714414D01*
Y691464D02*
X1126500Y690464D01*
Y687500D02*
Y690464D01*
X1136500Y691642D02*
X1146500Y681642D01*
X1134000Y690607D02*
Y699429D01*
X1126500Y687500D02*
X1136500Y677500D01*
X1131500Y689571D02*
Y698393D01*
X1134000Y690607D02*
X1144000Y680607D01*
X1131500Y689571D02*
X1141500Y679571D01*
X1129000Y688536D02*
Y697358D01*
Y688536D02*
X1139000Y678536D01*
X1105500Y669000D02*
X1110000Y664500D01*
Y644500D02*
Y664500D01*
X1105500Y669000D02*
Y672500D01*
X1100500Y668000D02*
Y693990D01*
X1105000Y602010D02*
Y663500D01*
X1100500Y668000D02*
X1105000Y663500D01*
X1136000Y619500D02*
X1141192D01*
X1124500Y631000D02*
X1136000Y619500D01*
X1141192D02*
X1143692Y617000D01*
X1140157D02*
X1142657Y614500D01*
X1134000Y617000D02*
X1140157D01*
X1121500Y629500D02*
X1134000Y617000D01*
X1124500Y631000D02*
Y667843D01*
X1133500Y628535D02*
Y663956D01*
X1144728Y619500D02*
X1157500D01*
X1139500Y612000D02*
X1154192D01*
X1138018Y624018D02*
X1140210D01*
X1144728Y619500D01*
X1142657Y614500D02*
X1155228D01*
X1156263Y617000D02*
X1161263Y612000D01*
X1147000Y609500D02*
X1153157D01*
X1133500Y628535D02*
X1138018Y624018D01*
X1144500Y607000D02*
X1147000Y609500D01*
X1143692Y617000D02*
X1156263D01*
X1162500Y614500D02*
X1205500D01*
X1157500Y619500D02*
X1162500Y614500D01*
X1145035Y604000D02*
X1146535Y605500D01*
X1133500Y604000D02*
X1145035D01*
X1146535Y605500D02*
X1151500D01*
X1157000Y584500D02*
X1169000Y572500D01*
X1154500Y625000D02*
X1158500D01*
X1154000Y624500D02*
X1154500Y625000D01*
X1158500D02*
X1159500Y626000D01*
X1150308Y731000D02*
X1156157D01*
X1159000Y728157D01*
X1154500Y696000D02*
X1159000Y700500D01*
Y728157D01*
X1150000Y696000D02*
X1154500D01*
X1147500Y702000D02*
X1153500D01*
X1143000Y706500D02*
X1147500Y702000D01*
X1149500Y695500D02*
X1150000Y696000D01*
X1129000Y734308D02*
X1130500Y735808D01*
X1142000Y698500D02*
X1142157D01*
X1127500Y736343D02*
Y739657D01*
X1126500Y735343D02*
X1127500Y736343D01*
X1134000Y699429D02*
X1134000Y699429D01*
X1134000Y699429D02*
Y732237D01*
X1131500Y698393D02*
X1131500Y698393D01*
X1131500Y698393D02*
Y733272D01*
X1150657Y856000D02*
X1156157Y861500D01*
X1163157D01*
X1165500Y859157D01*
X1167500Y717500D02*
X1175500Y725500D01*
X1176000D01*
X1184000Y697500D02*
Y705000D01*
X1156500Y680500D02*
X1161500Y675500D01*
Y675500D02*
Y675500D01*
X1156500Y680500D02*
Y687500D01*
X1161500Y675500D02*
X1161500Y675500D01*
X1189000D01*
X1152500Y680965D02*
Y690000D01*
X1161464Y672000D02*
X1188000D01*
X1152500Y680965D02*
X1161464Y672000D01*
X1126500Y743500D02*
X1127265Y742735D01*
Y739892D02*
Y742735D01*
X1129000Y697358D02*
X1129000Y697358D01*
X1127265Y739892D02*
X1127500Y739657D01*
X1129000Y697358D02*
Y734308D01*
X1150000Y666000D02*
X1159500Y656500D01*
X1172000D01*
X1208000Y620500D01*
X1145500Y687500D02*
X1150000Y683000D01*
Y666000D02*
Y683000D01*
X1145500Y687500D02*
Y695157D01*
X1105500Y840241D02*
X1112500Y833241D01*
X1105464Y844000D02*
X1115000Y834464D01*
X1105500Y836000D02*
X1110000Y831500D01*
X1119750Y842750D02*
X1122500Y840000D01*
X1142157Y698500D02*
X1145500Y695157D01*
X1118000Y972949D02*
Y973000D01*
X1119000Y974000D01*
X1114526Y969474D02*
X1118000Y972949D01*
X1119000Y974000D02*
Y983521D01*
X1127500Y992021D02*
Y994500D01*
X1119000Y983521D02*
X1127500Y992021D01*
X1120922Y993922D02*
X1121500Y994500D01*
X1120922Y991422D02*
Y993922D01*
X1115500Y986000D02*
X1120922Y991422D01*
X1115500Y973984D02*
Y986000D01*
X1111500Y969984D02*
X1115500Y973984D01*
X1112500Y974520D02*
Y991500D01*
X1115500Y994500D01*
X1109000Y971020D02*
X1112500Y974520D01*
X1177157Y783000D02*
X1179500Y780657D01*
X1175082Y785000D02*
X1177082Y783000D01*
X1182000Y772000D02*
Y778082D01*
X1179500Y780582D02*
X1182000Y778082D01*
X1179500Y780582D02*
Y780657D01*
X1177082Y783000D02*
X1177157D01*
X1174000Y785000D02*
X1175082D01*
X1198751Y903251D02*
Y911249D01*
X1198500Y911500D02*
X1198751Y911249D01*
X1199002Y975002D02*
Y982998D01*
X1198500Y983500D02*
X1199002Y982998D01*
X1144000Y658760D02*
Y680607D01*
X1141500Y668420D02*
Y679571D01*
X1146500Y661000D02*
Y681642D01*
X1139000Y669456D02*
Y678536D01*
X1136500Y670491D02*
Y677500D01*
X1341993Y823493D02*
X1342000Y823500D01*
X1341993Y822664D02*
X1342000Y822657D01*
Y819343D02*
Y822657D01*
X1301000Y782500D02*
X1335500Y817000D01*
X1339657D01*
X1301000Y774000D02*
Y782500D01*
X1342000Y823500D02*
Y854000D01*
X1339657Y817000D02*
X1342000Y819343D01*
X1341993Y822664D02*
Y823493D01*
X1307500Y795000D02*
X1321265Y808765D01*
X1293500Y795000D02*
X1307500D01*
X1321265Y808765D02*
Y810351D01*
X1321500Y810586D01*
Y839157D02*
X1359843Y877500D01*
X1321500Y810586D02*
Y839157D01*
X1314000Y840849D02*
X1365979Y892828D01*
X1372172D01*
X1318000Y839192D02*
X1367636Y888828D01*
X1296243Y815000D02*
X1308500D01*
X1318000Y824500D01*
X1306843Y819000D02*
X1314000Y826157D01*
Y840849D01*
X1318000Y824500D02*
Y839192D01*
X1350000Y809177D02*
Y849181D01*
X1353175Y852355D01*
X1354000Y847524D02*
X1357175Y850698D01*
X1354000Y807520D02*
Y847524D01*
X1350000Y693343D02*
Y799984D01*
X1356500Y806484D02*
Y846488D01*
X1336500Y707500D02*
X1340480Y711480D01*
X1350000Y799984D02*
X1356500Y806484D01*
X1359500Y805949D02*
Y829630D01*
X1342980Y708323D02*
Y802157D01*
X1350000Y809177D01*
X1346980Y800500D02*
X1354000Y807520D01*
X1346980Y706666D02*
Y800500D01*
X1332500Y750500D02*
X1340480Y742520D01*
Y711480D02*
Y742520D01*
X1352500Y798949D02*
X1359500Y805949D01*
X1359000Y687500D02*
Y761558D01*
X1366000Y768558D01*
X1355000Y689157D02*
Y763214D01*
X1366000Y768558D02*
Y826938D01*
X1362000Y770214D02*
Y828595D01*
X1355000Y763214D02*
X1362000Y770214D01*
X1344157Y687500D02*
X1350000Y693343D01*
X1334500Y663000D02*
X1359000Y687500D01*
X1330500Y664657D02*
X1355000Y689157D01*
X1130500Y961500D02*
X1156000Y936000D01*
X1130500Y961500D02*
Y983000D01*
X1140997Y978997D02*
X1144500Y982500D01*
X1137987Y978997D02*
X1140997D01*
X1135250Y976260D02*
X1137987Y978997D01*
X1182500Y921000D02*
X1271148D01*
X1144000Y658760D02*
X1150750Y652010D01*
X1153500Y642586D02*
X1155500Y640586D01*
X1146500Y661000D02*
X1153500Y654000D01*
X1155500Y640000D02*
Y640586D01*
X1153500Y642586D02*
Y654000D01*
X1150750Y639093D02*
X1154343Y635500D01*
X1150750Y639093D02*
Y652010D01*
X1152500Y690000D02*
X1161500Y699000D01*
X1119000Y623500D02*
X1135500Y607000D01*
X1114000Y578500D02*
X1128000Y564500D01*
X1116500Y621000D02*
X1133500Y604000D01*
X1133500Y663956D02*
X1139000Y669456D01*
X1136500Y663420D02*
X1141500Y668420D01*
X1128500Y662491D02*
X1136500Y670491D01*
X1445500Y882000D02*
Y909808D01*
X1439000Y875500D02*
X1445500Y882000D01*
X1430500Y875500D02*
X1439000D01*
X1452500Y852500D02*
X1468500Y868500D01*
X1471000Y917414D02*
X1471586Y918000D01*
X1468500Y868500D02*
Y899147D01*
X1466414Y918000D02*
X1467000Y917414D01*
Y900647D02*
X1468500Y899147D01*
X1454157Y848500D02*
X1472500Y866843D01*
X1471000Y902304D02*
X1472500Y900804D01*
X1467000Y900647D02*
Y917414D01*
X1463000Y918000D02*
X1466414D01*
X1471586D02*
X1475000D01*
X1471000Y902304D02*
Y917414D01*
X1472500Y866843D02*
Y900804D01*
X1398000Y871686D02*
Y883843D01*
X1394000Y873343D02*
Y885500D01*
X1422000Y913500D01*
X1385157Y864500D02*
X1394000Y873343D01*
X1398000Y883843D02*
X1426000Y911843D01*
X1386814Y860500D02*
X1398000Y871686D01*
X1426000Y911843D02*
Y917664D01*
X1422000Y913500D02*
Y917664D01*
X1419000Y880500D02*
X1435500D01*
X1400593Y869250D02*
X1407750D01*
X1419000Y880500D01*
X1365319Y864500D02*
X1385157D01*
X1366976Y860500D02*
X1386814D01*
X1389343Y858000D02*
X1400593Y869250D01*
X1368012Y858000D02*
X1389343D01*
X1135250Y961250D02*
X1156750Y939750D01*
X1135250Y961250D02*
Y976260D01*
X1319018Y953000D02*
X1319518Y953500D01*
X1435046D01*
X1444750Y910558D02*
X1445500Y909808D01*
X1435046Y953500D02*
X1447250Y941296D01*
Y911593D02*
X1448000Y910843D01*
Y876000D02*
Y910843D01*
X1434510Y950500D02*
X1444750Y940260D01*
X1439500Y867500D02*
X1448000Y876000D01*
X1444750Y910558D02*
Y940260D01*
X1447250Y911593D02*
Y941296D01*
X1418000Y863000D02*
X1430500Y875500D01*
X1435500Y880500D02*
X1441000Y886000D01*
X1371240Y848500D02*
X1454157D01*
X1369583Y852500D02*
X1452500D01*
X1368675Y845935D02*
X1371240Y848500D01*
X1364675Y847592D02*
X1369583Y852500D01*
X1359750Y849738D02*
X1368012Y858000D01*
X1369047Y855500D02*
X1401000D01*
X1364675Y831269D02*
Y847592D01*
X1362175Y848627D02*
X1369047Y855500D01*
X1357175Y850698D02*
X1366976Y860500D01*
X1353175Y852355D02*
X1365319Y864500D01*
X1353175Y852355D02*
Y852355D01*
X1357175Y850698D02*
Y850698D01*
X1356500Y846488D02*
X1359750Y849738D01*
X1366000Y826938D02*
X1368675Y829612D01*
Y845935D01*
X1362175Y832305D02*
Y848627D01*
X1362000Y828595D02*
X1364675Y831269D01*
X1359500Y829630D02*
X1362175Y832305D01*
X1359750Y849738D02*
Y849738D01*
X1359843Y877500D02*
X1371000D01*
X1342000Y854000D02*
X1361500Y873500D01*
X1371000Y877500D02*
X1379000Y869500D01*
X1379500D01*
X1367636Y888828D02*
X1373828D01*
X1375000Y890000D02*
X1380500Y895500D01*
X1373828Y888828D02*
X1375000Y890000D01*
X1401000Y855500D02*
X1404500Y859000D01*
X1109000Y874000D02*
X1127500Y855500D01*
X1109000Y874000D02*
Y971020D01*
X1123000Y723000D02*
X1126500Y726500D01*
Y735343D01*
X1159500Y626000D02*
Y634000D01*
X1158000Y635500D02*
X1159500Y634000D01*
X1154343Y635500D02*
X1158000D01*
X1095500Y749740D02*
Y759692D01*
X1093000Y741010D02*
Y758657D01*
X1105500Y857000D02*
Y941500D01*
Y857000D02*
X1117250Y845250D01*
X1100750Y946250D02*
X1105500Y941500D01*
X1119740Y842750D02*
X1119750D01*
X1117250Y845240D02*
X1119740Y842750D01*
X1117250Y845240D02*
Y845250D01*
X1095000Y844000D02*
X1105464D01*
X1128500Y650500D02*
Y662491D01*
X1136500Y638500D02*
X1141250Y633750D01*
X1136500Y638500D02*
Y663420D01*
X1086000Y723796D02*
X1100250Y709546D01*
X1086000Y742000D02*
X1089000Y745000D01*
X1086000Y723796D02*
Y742000D01*
X1100250Y694240D02*
Y709546D01*
X1094157Y695000D02*
X1095250Y696093D01*
X1094157Y691657D02*
Y695000D01*
X1095250Y696093D02*
Y701250D01*
X1093500Y703000D02*
X1095250Y701250D01*
X1093500Y691000D02*
X1094157Y691657D01*
X1100250Y694240D02*
X1100500Y693990D01*
X1089000Y703000D02*
X1093500D01*
X1188000Y672000D02*
X1208500Y651500D01*
X1279500Y745000D02*
Y752000D01*
X1238288Y738586D02*
X1273086D01*
X1279500Y745000D01*
X1215553Y715851D02*
X1238288Y738586D01*
X1301000Y758735D02*
Y759500D01*
X1290127Y758735D02*
X1300617D01*
X1301000Y758352D02*
Y758735D01*
X1287392Y756000D02*
X1290127Y758735D01*
X1301000Y748500D02*
Y758352D01*
X1285413Y763500D02*
X1302716D01*
X1300617Y758735D02*
X1301000Y758352D01*
X1281108Y759195D02*
X1285413Y763500D01*
X1302716D02*
X1307540Y758676D01*
X1254000Y756000D02*
X1287392D01*
X1265511Y759195D02*
X1281108D01*
X1363000Y730657D02*
Y741657D01*
X1365500Y727500D02*
Y728157D01*
X1363000Y730657D02*
X1365500Y728157D01*
X1372500Y739500D02*
X1398463D01*
X1367000Y734000D02*
X1372500Y739500D01*
X1363000Y741657D02*
X1365100Y743757D01*
X1370457Y743200D02*
X1395516D01*
X1367757Y740500D02*
X1370457Y743200D01*
X1365100Y743757D02*
Y758166D01*
X1367500Y740500D02*
X1367757D01*
X1365100Y758166D02*
X1368500Y761566D01*
X1336000Y722500D02*
Y722500D01*
X1324117Y734383D02*
X1336000Y722500D01*
X1243430Y685500D02*
X1250500Y692570D01*
X1231006Y685500D02*
X1243430D01*
X1227506Y689000D02*
X1231006Y685500D01*
X1223343Y689000D02*
X1227506D01*
X1219343Y693000D02*
X1223343Y689000D01*
X1210000Y693000D02*
X1219343D01*
X1224000Y699343D02*
Y713000D01*
X1221157Y696500D02*
X1224000Y699343D01*
X1214347Y696500D02*
X1221157D01*
X1213158Y697689D02*
X1214347Y696500D01*
X1224500Y693500D02*
X1235008D01*
X1211657Y700500D02*
X1214500Y703343D01*
Y707414D01*
X1201811Y697689D02*
X1213158D01*
X1204500Y700500D02*
X1211657D01*
X1294586Y819000D02*
X1306843D01*
X1372172Y892828D02*
X1376500Y897157D01*
X1315117Y734383D02*
X1324117D01*
X1301000Y748500D02*
X1315117Y734383D01*
X1332500Y750500D02*
Y792000D01*
X1318751Y772251D02*
X1319000Y772500D01*
X1310999Y772251D02*
X1318751D01*
X1229789Y701082D02*
X1231556Y702849D01*
X1233415Y707349D02*
X1233915Y706849D01*
X1186000Y713500D02*
X1201811Y697689D01*
X1212500Y635750D02*
Y652000D01*
X1189000Y675500D02*
X1212500Y652000D01*
X1208500Y634000D02*
Y651500D01*
X1101250Y598260D02*
X1105000Y602010D01*
X1186000Y747000D02*
Y762582D01*
X1185000Y763582D02*
X1186000Y762582D01*
X1185000Y763582D02*
Y763657D01*
X1184295Y764362D02*
X1185000Y763657D01*
X1182657Y766000D02*
X1184295Y764362D01*
X1186000Y713500D02*
Y747000D01*
X1282425Y793408D02*
Y806839D01*
X1286425Y791751D02*
Y805182D01*
X1274554Y786935D02*
X1275636D01*
X1276765Y788064D01*
X1286425Y805182D02*
X1296243Y815000D01*
X1280432Y785759D02*
X1286425Y791751D01*
X1280432Y783298D02*
Y785759D01*
X1373000Y918000D02*
X1376500Y914500D01*
Y897157D02*
Y914500D01*
X1279667Y782533D02*
X1280432Y783298D01*
X1276765Y788064D02*
X1277081D01*
X1282425Y806839D02*
X1294586Y819000D01*
X1277081Y788064D02*
X1282425Y793408D01*
X1228971Y701082D02*
X1229789D01*
X1280765Y527149D02*
X1281000Y526914D01*
X1426586Y918250D02*
X1429750D01*
X1430000Y918500D01*
X1285235Y528735D02*
X1286000Y529500D01*
X1281000Y524291D02*
Y526914D01*
X1285235Y527149D02*
Y528735D01*
X1286291Y519000D02*
X1312500D01*
X1285000Y525948D02*
Y526914D01*
X1287948Y523000D02*
X1310843D01*
X1317000Y559000D02*
X1334500Y576500D01*
X1285000Y526914D02*
X1285235Y527149D01*
X1334500Y576500D02*
Y663000D01*
X1313000Y560657D02*
X1330500Y578157D01*
X1421414Y918250D02*
X1422000Y917664D01*
X1418250Y918250D02*
X1421414D01*
X1313000Y525157D02*
Y560657D01*
X1330500Y578157D02*
Y664657D01*
X1418000Y918000D02*
X1418250Y918250D01*
X1310843Y523000D02*
X1313000Y525157D01*
X1281000Y524291D02*
X1286291Y519000D01*
X1280765Y527149D02*
Y528735D01*
X1312500Y519000D02*
X1317000Y523500D01*
X1285000Y525948D02*
X1287948Y523000D01*
X1280000Y529500D02*
X1280765Y528735D01*
X1426000Y917664D02*
X1426586Y918250D01*
X1054000Y651500D02*
X1079000Y626500D01*
Y526500D02*
Y626500D01*
X1038500Y653000D02*
X1064750Y626750D01*
X1067750Y623750D02*
X1075500Y616000D01*
X1064750Y626750D02*
X1065260D01*
X1032500Y653000D02*
X1038500D01*
X1075500Y524343D02*
Y616000D01*
X1065260Y626750D02*
X1067750Y624260D01*
Y623750D02*
Y624260D01*
X1154672Y631500D02*
X1155000D01*
X1141250Y633750D02*
X1152422D01*
X1154672Y631500D01*
X1021500Y626200D02*
X1036200Y611500D01*
X1046500D02*
X1051000Y607000D01*
X1036200Y611500D02*
X1046500D01*
X1036500Y600500D02*
X1045000D01*
X1056422Y589078D01*
X1032500Y604500D02*
X1036500Y600500D01*
X1032500Y604500D02*
Y611500D01*
X1019000Y625000D02*
X1032500Y611500D01*
X1056839Y589078D02*
X1057918Y588000D01*
X1056422Y589078D02*
X1056839D01*
X1057918Y588000D02*
X1059000D01*
X1019000Y625000D02*
Y650318D01*
X1021500Y626200D02*
Y649000D01*
X1051000Y602500D02*
Y607000D01*
X1214500Y603000D02*
X1226000Y591500D01*
X1208500Y634000D02*
X1214500Y628000D01*
Y603000D02*
Y628000D01*
X1212500Y635750D02*
X1219917Y628333D01*
X1210000Y551000D02*
X1218500D01*
X1197500Y538500D02*
X1210000Y551000D01*
X1062902Y990402D02*
Y993941D01*
X1091500Y951000D02*
Y980835D01*
X1088380Y983955D02*
X1091500Y980835D01*
X1100750Y946250D02*
Y980740D01*
X1093078Y988412D02*
Y994500D01*
Y988412D02*
X1100750Y980740D01*
X1088380Y983955D02*
Y990768D01*
X1135500Y607000D02*
X1144500D01*
X1164000Y729566D02*
X1169284Y734850D01*
X1164000Y707000D02*
Y729566D01*
X1161500Y699000D02*
Y734500D01*
X1165500Y738500D01*
X1223000Y567000D02*
X1236000Y580000D01*
X1195000Y575500D02*
X1203500Y567000D01*
X1223000D01*
X1169965Y575500D02*
X1195000D01*
X1236202Y564500D02*
X1241500Y559202D01*
X1196000Y570000D02*
X1201500Y564500D01*
X1236202D01*
X1159500Y585965D02*
X1169965Y575500D01*
X1162000Y587000D02*
X1171000Y578000D01*
X1210000D01*
X1217000Y571000D02*
X1226000Y580000D01*
X1207765Y571235D02*
X1209351D01*
X1209586Y571000D02*
X1217000D01*
X1209351Y571235D02*
X1209586Y571000D01*
X1207000Y572000D02*
X1207765Y571235D01*
X1196000Y570000D02*
Y570157D01*
X1169000Y572500D02*
X1193657D01*
X1196000Y570157D01*
X1210000Y578000D02*
X1212500Y575500D01*
X1080000Y712000D02*
Y777500D01*
Y712000D02*
X1089000Y703000D01*
X1262500Y574500D02*
X1269500Y581500D01*
X1276000D01*
X1262500Y567000D02*
Y574500D01*
X1191000Y714000D02*
Y763000D01*
Y714000D02*
X1204500Y700500D01*
X1182582Y766000D02*
X1182657D01*
X1170582Y778000D02*
X1182582Y766000D01*
X1169500Y778000D02*
X1170582D01*
X1017000Y861500D02*
X1040000Y884500D01*
Y982000D01*
X1079293Y957293D02*
Y975788D01*
X1398463Y739500D02*
X1409463Y750500D01*
X1073000Y813500D02*
X1087500Y799000D01*
Y785000D02*
Y799000D01*
X1080000Y777500D02*
X1087500Y785000D01*
X1062902Y993941D02*
X1063461Y994500D01*
X1040000Y982000D02*
X1052500Y994500D01*
X1234964Y643964D02*
X1236500Y645500D01*
X1368500Y761566D02*
Y790500D01*
X1051000Y602500D02*
X1063000Y590500D01*
Y579500D02*
Y590500D01*
X1075500Y524343D02*
X1083634Y516209D01*
X1079000Y526500D02*
X1085291Y520209D01*
X1101250Y560750D02*
Y598260D01*
Y560750D02*
X1120000Y542000D01*
X1031500Y659000D02*
X1050500D01*
X1064000Y672500D01*
X1105990Y537000D02*
X1170000D01*
X1083634Y516209D02*
X1091720D01*
X1098855Y523344D02*
Y529865D01*
X1091720Y516209D02*
X1098855Y523344D01*
Y529865D02*
X1105990Y537000D01*
X1059500Y576000D02*
X1063000Y579500D01*
X1059000Y576000D02*
X1059500D01*
X1159500Y561500D02*
X1216000D01*
X1217500Y560000D01*
X1156500Y564500D02*
X1159500Y561500D01*
X1202000Y534500D02*
X1210000Y542500D01*
X1177500Y534500D02*
X1202000D01*
X1217500Y560000D02*
X1226000D01*
X1205000Y531000D02*
X1223000Y549000D01*
X1226157D01*
X1231500Y554343D01*
X1176000Y531000D02*
X1205000D01*
X1231500Y554343D02*
Y554500D01*
X1170000Y537000D02*
X1176000Y531000D01*
X1170000Y542000D02*
X1177500Y534500D01*
X1179000Y538500D02*
X1197500D01*
X1172000Y545500D02*
X1179000Y538500D01*
X1137500Y545500D02*
X1172000D01*
X1120000Y542000D02*
X1170000D01*
X1120500Y562500D02*
X1137500Y545500D01*
X1241500Y551000D02*
Y559202D01*
X1106500Y562500D02*
X1120500D01*
X1128000Y564500D02*
X1156500D01*
X1205000Y709000D02*
X1211851Y715851D01*
X1215553D01*
X1214735Y707649D02*
Y709235D01*
X1214500Y707414D02*
X1214735Y707649D01*
Y709235D02*
X1215500Y710000D01*
X1235500Y540500D02*
X1247500Y552500D01*
X1232000Y540500D02*
X1235500D01*
X1226000Y580000D02*
Y591500D01*
X1185250Y547750D02*
X1195750D01*
X1196000Y547500D01*
X1185000Y548000D02*
X1185250Y547750D01*
X1236000Y545500D02*
X1241500Y551000D01*
X1237472Y535500D02*
X1238500D01*
X1234972Y533000D02*
X1237472Y535500D01*
X1016500Y813500D02*
X1073000D01*
X1022500Y669557D02*
X1034750Y681807D01*
Y736704D01*
X1014000Y811000D02*
X1016500Y813500D01*
X1255500Y537000D02*
X1260500Y532000D01*
X1287500Y548000D02*
X1290500Y551000D01*
X1287500Y540000D02*
Y548000D01*
Y540000D02*
X1292850Y534650D01*
X1298082Y541500D02*
X1305500Y548918D01*
X1297000Y550000D02*
Y561343D01*
X1317000Y523500D02*
Y559000D01*
X1297000Y541500D02*
X1298082D01*
X1292850Y534650D02*
X1299650D01*
X1305000Y540000D01*
X1306000D01*
X1254500Y699500D02*
X1270500Y683500D01*
X1254500Y699500D02*
Y705000D01*
X1260500Y607500D02*
Y645500D01*
X1279500Y653000D02*
X1283191Y649309D01*
X1279500Y653000D02*
Y689500D01*
X1260500Y645500D02*
X1270500Y655500D01*
Y683500D01*
X1274500Y651500D02*
Y684500D01*
X1325500Y545500D02*
X1341000D01*
X1336068Y510850D02*
X1337418Y509500D01*
X1311284Y510850D02*
X1336068D01*
X1337418Y509500D02*
X1338500D01*
X1307742Y507308D02*
X1311284Y510850D01*
X1026250Y679833D02*
Y738260D01*
X1028740Y740750D01*
X1032260D01*
X1052260Y760750D02*
X1059500D01*
X1032260Y740750D02*
X1052260Y760750D01*
X1021500Y649000D02*
X1031500Y659000D01*
X1016500Y617000D02*
Y651500D01*
X1035000Y670000D01*
X1019000Y650318D02*
X1030682Y662000D01*
X1040000D02*
X1051050Y673050D01*
X1030682Y662000D02*
X1040000D01*
X1006000Y606500D02*
X1016500Y617000D01*
X1457500Y678500D02*
X1481000Y702000D01*
X1412000Y678500D02*
X1457500D01*
X1481000Y702000D02*
Y716750D01*
X1026250Y749750D02*
X1034500Y758000D01*
X1023750Y739796D02*
X1026250Y742296D01*
Y749750D01*
X1023750Y687750D02*
Y739796D01*
X1034750Y736704D02*
X1046546Y748500D01*
X1059000D01*
X1007000Y671000D02*
X1023750Y687750D01*
X1016400Y669983D02*
X1026250Y679833D01*
X1034500Y758000D02*
Y789000D01*
X1020500Y664500D02*
Y665086D01*
X1022500Y667086D01*
Y669557D01*
X1007235Y665765D02*
Y668848D01*
X1007000Y669082D02*
Y671000D01*
X1007235Y665765D02*
X1008000Y665000D01*
X1007000Y669082D02*
X1007235Y668848D01*
X1260578Y698422D02*
X1274500Y684500D01*
X1268000Y701000D02*
X1279500Y689500D01*
X1284000Y654500D02*
X1313150Y625350D01*
X1260000Y701500D02*
X1260578Y700922D01*
Y698422D02*
Y700922D01*
X1313150Y587850D02*
Y625350D01*
X1320000Y590000D02*
Y625000D01*
X1304000Y641000D02*
X1320000Y625000D01*
X1222000Y746500D02*
X1253500D01*
X1279700Y775000D02*
X1290025Y785325D01*
X1269000Y769000D02*
X1277000D01*
X1279451Y771451D01*
X1267053Y764300D02*
X1279566D01*
X1279451Y771451D02*
Y774399D01*
X1279566Y764300D02*
X1282966Y767700D01*
X1266500Y771500D02*
X1269000Y769000D01*
X1261800Y769553D02*
X1267053Y764300D01*
X1266500Y771500D02*
Y777000D01*
X1261800Y769553D02*
Y774200D01*
X1290025Y785325D02*
Y791525D01*
X1293500Y795000D01*
X1481000Y536500D02*
Y542750D01*
X1307493Y505988D02*
X1307742Y506236D01*
Y507308D01*
X1442815Y588249D02*
X1447000Y592434D01*
Y603000D01*
X1441000Y588000D02*
X1441249Y588249D01*
X1408200Y576500D02*
X1431949Y600249D01*
X1441249Y588249D02*
X1442815D01*
X1439000Y611000D02*
X1447000Y603000D01*
X1440751Y600249D02*
X1441000Y600000D01*
X1344533Y613779D02*
X1350603Y619850D01*
X1174025Y734850D02*
X1177452Y731423D01*
X1169284Y734850D02*
X1174025D01*
X1406810Y656541D02*
X1414709D01*
X1353167Y601500D02*
X1359000D01*
X1344533Y582987D02*
X1404270Y523250D01*
X1351000Y603667D02*
X1353167Y601500D01*
X1350603Y619850D02*
X1359500D01*
X1351000Y603667D02*
Y612333D01*
X1453934Y523250D02*
X1453967Y523283D01*
X1441584Y971000D02*
X1443751Y968833D01*
X1369500Y974000D02*
X1398609D01*
X1363500D02*
X1363749Y974249D01*
Y977749D02*
X1367700Y981700D01*
X1363749Y974249D02*
Y977749D01*
X1402260Y970350D02*
X1426150D01*
X1398609Y974000D02*
X1402260Y970350D01*
X1422300Y981700D02*
X1433000Y971000D01*
X1441584D01*
X1367700Y981700D02*
X1422300D01*
X1427316Y775000D02*
X1441000D01*
X1395516Y743200D02*
X1427316Y775000D01*
X1207749Y732249D02*
X1222000Y746500D01*
X1475500Y972000D02*
X1492500D01*
X1468500Y965000D02*
X1475500Y972000D01*
X1182000Y993000D02*
X1271648D01*
X1274148Y990500D02*
X1274500D01*
X1271648Y993000D02*
X1274148Y990500D01*
X1183000Y959000D02*
X1199002Y975002D01*
X1182500Y887000D02*
X1198751Y903251D01*
X1274148Y918000D02*
X1274500D01*
X1271148Y921000D02*
X1274148Y918000D01*
X1426150Y970350D02*
X1431500Y965000D01*
X1437919D01*
X1437959Y965041D01*
X1443751Y965249D02*
X1444000Y965000D01*
X1443751Y965249D02*
Y968833D01*
X1431949Y600249D02*
X1440751D01*
X1322031Y582383D02*
X1324148Y584500D01*
X1313150Y587850D02*
X1318617Y582383D01*
X1322031D01*
X1359000Y588000D02*
X1376000Y571000D01*
X1383000Y576500D02*
X1408200D01*
X1407170Y611000D02*
X1439000D01*
X1368500Y790500D02*
X1371500Y793500D01*
X1377500Y538500D02*
X1401000Y515000D01*
X1392500Y687000D02*
Y697000D01*
X1403500Y684500D02*
Y696500D01*
X1344533Y582987D02*
Y613779D01*
X1351000Y612333D02*
X1353167Y614500D01*
X1404270Y523250D02*
X1453934D01*
X1359000Y594500D02*
X1359249Y594251D01*
X1307540Y747959D02*
Y758676D01*
X1306448Y767700D02*
X1310999Y772251D01*
X1282966Y767700D02*
X1306448D01*
X1414461Y830292D02*
X1414709Y830540D01*
X1398500Y815816D02*
X1412976Y830292D01*
X1398500Y804000D02*
Y815816D01*
X1412976Y830292D02*
X1414461D01*
X1401000Y515000D02*
X1459500D01*
X1348000Y538500D02*
X1377500D01*
X1459500Y515000D02*
X1481000Y536500D01*
X1341000Y545500D02*
X1348000Y538500D01*
X1428500Y750500D02*
X1441000Y763000D01*
X1409463Y750500D02*
X1428500D01*
X1388000Y793500D02*
X1398500Y804000D01*
X1371500Y793500D02*
X1388000D01*
X1324148Y584500D02*
X1324500D01*
X1359249Y594251D02*
X1365249D01*
X1383000Y576500D01*
X1380500Y895500D02*
Y913500D01*
X1385000Y918000D01*
D68*
X1213425Y916500D02*
X1234500Y895425D01*
X1196429Y916500D02*
X1213425D01*
X1195929Y916000D02*
X1196429Y916500D01*
X1177500Y918929D02*
X1180429Y916000D01*
X1195929D01*
X1317000Y792500D02*
X1336000Y811500D01*
X1317000Y792000D02*
Y792500D01*
X1336000Y811500D02*
X1345000D01*
X1125500Y985071D02*
X1128929Y988500D01*
X1125500Y957500D02*
Y985071D01*
X1128929Y988500D02*
X1134000D01*
X1151500Y931500D02*
X1172071D01*
X1125500Y957500D02*
X1151500Y931500D01*
X1172071D02*
X1177500Y926071D01*
Y918929D02*
Y926071D01*
X1134000Y988500D02*
X1140000Y994500D01*
X1234500Y842429D02*
Y895425D01*
X1231000Y838929D02*
X1234500Y842429D01*
X1231000Y829000D02*
Y838929D01*
D69*
X1150500Y742500D02*
Y743000D01*
X1031500Y867000D02*
X1049500Y885000D01*
Y939500D01*
X1031500Y831500D02*
Y867000D01*
X1164000Y567000D02*
X1185500D01*
X1159000Y572000D02*
X1164000Y567000D01*
X1129500Y572000D02*
X1159000D01*
X1046000Y653500D02*
X1046087D01*
X1048587Y656000D02*
X1060000D01*
X1046087Y653500D02*
X1048587Y656000D01*
X1060000D02*
X1077000Y673000D01*
D71*
X1043500Y632000D02*
X1069000Y606500D01*
X1040000Y632000D02*
X1043500D01*
X1070724Y654746D02*
X1092500Y676522D01*
Y682250D01*
X1077750D02*
X1092500D01*
X1069000Y572500D02*
Y606500D01*
X1067750Y692250D02*
Y739250D01*
Y692250D02*
X1077750Y682250D01*
X1062883Y566383D02*
X1069000Y572500D01*
X1055000Y566000D02*
X1055383Y566383D01*
X1062883D01*
X1055000Y566000D02*
X1055000Y566000D01*
X1079959Y507000D02*
X1080076Y507117D01*
X1090617D02*
X1091000Y507500D01*
X1080076Y507117D02*
X1090617D01*
X1071000Y507000D02*
X1079959D01*
X1042000Y536000D02*
X1071000Y507000D01*
X1055000Y739250D02*
X1067750D01*
Y795000D01*
X1057250Y805500D02*
X1067750Y795000D01*
X1032000Y805500D02*
X1057250D01*
X1046500Y566000D02*
X1055000D01*
X1042000Y561500D02*
X1046500Y566000D01*
X1042000Y536000D02*
Y561500D01*
D73*
X1171000Y809500D02*
X1180706Y819206D01*
X1187500Y825945D02*
Y826000D01*
X1180761Y819206D02*
X1187500Y825945D01*
X1138661Y809500D02*
X1171000D01*
X1180706Y819206D02*
X1180761D01*
X1134750Y805589D02*
X1138661Y809500D01*
X1134750Y800411D02*
Y805589D01*
X1135617Y794883D02*
Y799544D01*
Y794883D02*
X1136000Y794500D01*
X1134750Y800411D02*
X1135617Y799544D01*
X1383000Y714500D02*
X1383306Y714194D01*
X1467444D01*
X1472000Y718750D01*
X1383000Y686735D02*
Y714500D01*
Y729571D01*
X1449000Y610750D02*
X1449383Y611133D01*
X1452633D02*
X1458000Y616500D01*
Y640750D01*
X1449383Y611133D02*
X1452633D01*
X1430750Y841750D02*
X1439500Y833000D01*
X1407500Y841750D02*
X1430750D01*
X1439500Y833000D02*
X1457900D01*
Y784750D02*
Y833000D01*
Y841400D01*
X1479000Y862500D01*
X1359500Y627000D02*
X1400250Y667750D01*
X1383000Y686735D02*
X1401117Y668617D01*
X1407617D01*
X1408000Y669000D01*
X1429750D02*
X1458000Y640750D01*
X1408000Y669000D02*
X1429750D01*
X1358500Y578000D02*
X1391750Y544750D01*
X1472000D01*
X1445000Y784750D02*
X1458000D01*
Y769589D02*
Y784750D01*
X1445000Y784750D02*
X1445000Y784750D01*
X1383000Y729571D02*
X1385929Y732500D01*
X1403000D02*
X1410500Y740000D01*
X1385929Y732500D02*
X1403000D01*
X1410500Y740000D02*
X1437500D01*
X1447750Y750250D01*
Y759339D01*
X1458000Y769589D01*
D76*
X1247900Y513000D02*
D03*
X1235200D02*
D03*
X1222500D02*
D03*
X1209800D02*
D03*
X1197100D02*
D03*
X1184400D02*
D03*
X1171700D02*
D03*
X1159000D02*
D03*
D78*
X1196000Y547500D02*
D03*
X1165000Y762500D02*
D03*
X1216500Y879500D02*
D03*
X1221500D02*
D03*
X1049500Y939500D02*
D03*
X1031500Y831500D02*
D03*
X1033500Y825500D02*
D03*
X1096000Y934000D02*
D03*
X1127500Y831000D02*
D03*
X1103500Y812500D02*
D03*
X1097500Y803500D02*
D03*
X1103500Y799500D02*
D03*
X1119000Y734000D02*
D03*
X1105500Y672500D02*
D03*
X1151500Y605500D02*
D03*
X1154000Y624500D02*
D03*
X1157500Y743000D02*
D03*
X1150500Y742500D02*
D03*
X1126500Y743500D02*
D03*
X1198500Y911500D02*
D03*
Y983500D02*
D03*
X1317000Y792000D02*
D03*
X1320500Y808000D02*
D03*
X1345000Y811500D02*
D03*
X1130500Y983000D02*
D03*
X1144500Y982500D02*
D03*
X1439500Y867500D02*
D03*
X1418000Y863000D02*
D03*
X1441000Y886000D02*
D03*
X1361500Y873500D02*
D03*
X1379500Y869500D02*
D03*
X1404500Y859000D02*
D03*
X1155500Y640000D02*
D03*
X1097000Y821500D02*
D03*
X1128500Y650500D02*
D03*
X1110000Y644500D02*
D03*
X1100500Y735000D02*
D03*
X1301000Y759500D02*
D03*
X1279500Y752000D02*
D03*
X1365500Y727500D02*
D03*
X1367000Y734000D02*
D03*
X1367500Y740500D02*
D03*
X1336000Y722500D02*
D03*
X1319000Y772500D02*
D03*
X1210000Y693000D02*
D03*
X1224500Y693500D02*
D03*
X1067500Y650000D02*
D03*
X1074000D02*
D03*
X1280000Y529500D02*
D03*
X1286000D02*
D03*
X1104000Y819000D02*
D03*
X1161500Y857500D02*
D03*
X1208000Y620500D02*
D03*
X1155000Y631500D02*
D03*
X1127000Y762500D02*
D03*
X1156500Y687500D02*
D03*
X1153500Y702000D02*
D03*
X1149500Y695500D02*
D03*
X1139500Y612000D02*
D03*
X1205500Y614500D02*
D03*
X1177500Y599000D02*
D03*
X1207000Y572000D02*
D03*
X1262500Y567000D02*
D03*
X1236000Y580000D02*
D03*
X1017000Y861500D02*
D03*
X1039500Y832000D02*
D03*
X1093500Y691000D02*
D03*
X1063000Y977000D02*
D03*
X1246000Y645500D02*
D03*
X1236500D02*
D03*
X1167000Y692000D02*
D03*
X1378000Y887000D02*
D03*
X1479000Y862500D02*
D03*
X1046000Y653500D02*
D03*
X1054000Y651500D02*
D03*
X1210000Y542500D02*
D03*
X1218500Y551000D02*
D03*
X1231500Y554500D02*
D03*
X1226000Y560000D02*
D03*
X1205000Y709000D02*
D03*
X1218000Y637000D02*
D03*
X1212500Y575500D02*
D03*
X1185500Y567000D02*
D03*
X1129500Y572000D02*
D03*
X1232000Y540500D02*
D03*
X1238500Y535500D02*
D03*
X1185000Y548000D02*
D03*
X1106500Y562500D02*
D03*
X1034500Y789000D02*
D03*
X1089000Y745000D02*
D03*
X1297000Y541500D02*
D03*
Y550000D02*
D03*
X1325500Y545500D02*
D03*
X1306000Y540000D02*
D03*
X1275500Y505500D02*
D03*
X1338500Y509500D02*
D03*
X1077000Y673000D02*
D03*
X1064000Y672500D02*
D03*
X1032500Y653000D02*
D03*
X1051050Y673050D02*
D03*
X1035000Y670000D02*
D03*
X1008000Y665000D02*
D03*
X1016400Y669983D02*
D03*
X1020500Y664500D02*
D03*
X1093078Y994500D02*
D03*
X1088380Y990768D02*
D03*
X1250043Y669525D02*
D03*
X1243500Y674500D02*
D03*
X1233415Y707349D02*
D03*
X1228971Y701082D02*
D03*
X1260000Y701500D02*
D03*
X1224000Y713000D02*
D03*
X1286000Y709000D02*
D03*
X1294500D02*
D03*
X1253500Y746500D02*
D03*
X1052500Y994500D02*
D03*
X1276000Y581500D02*
D03*
X1324500Y584500D02*
D03*
X1307493Y505988D02*
D03*
X1392500Y697000D02*
D03*
X1403500Y696500D02*
D03*
X1392500Y687000D02*
D03*
X1403500Y684000D02*
D03*
X1412000Y678500D02*
D03*
X1453967Y523283D02*
D03*
X1359500Y619850D02*
D03*
X1359268Y608650D02*
D03*
X1359000Y601500D02*
D03*
Y588000D02*
D03*
Y594500D02*
D03*
X1254500Y705000D02*
D03*
X1268000Y701000D02*
D03*
X1392500Y725500D02*
D03*
X1332500Y792000D02*
D03*
X1336500Y707500D02*
D03*
X1441000Y600000D02*
D03*
Y588000D02*
D03*
X1414709Y656541D02*
D03*
X1260500Y532000D02*
D03*
X1320000Y590000D02*
D03*
X1215500Y710000D02*
D03*
X1177452Y731423D02*
D03*
X1176000Y725500D02*
D03*
X1279667Y782533D02*
D03*
X1249000Y770500D02*
D03*
X1274554Y786935D02*
D03*
X1279700Y775000D02*
D03*
X1169500Y778000D02*
D03*
X1174000Y785000D02*
D03*
X1203500Y737500D02*
D03*
X1221312Y770312D02*
D03*
X1197061Y758071D02*
D03*
X1207500Y732000D02*
D03*
X1307540Y747959D02*
D03*
X1301000Y774000D02*
D03*
X1243000Y780500D02*
D03*
X1213500Y788500D02*
D03*
X1231000Y829000D02*
D03*
X1209000Y869000D02*
D03*
X1441000Y763000D02*
D03*
Y775000D02*
D03*
X1369500Y974000D02*
D03*
X1437959Y965041D02*
D03*
X1363500Y974000D02*
D03*
X1492500Y972000D02*
D03*
X1475000Y918000D02*
D03*
X1463000D02*
D03*
X1430000Y918500D02*
D03*
X1385000Y918000D02*
D03*
X1418000D02*
D03*
X1373000D02*
D03*
X1274500Y918000D02*
D03*
X1140000Y994500D02*
D03*
X1127500Y994500D02*
D03*
X1121500D02*
D03*
X1115500Y994500D02*
D03*
X1444000Y965000D02*
D03*
X1468500D02*
D03*
X1079293Y975788D02*
D03*
X1182500Y880500D02*
D03*
X1006000Y606500D02*
D03*
Y779750D02*
D03*
X1059500Y760750D02*
D03*
X1472000Y544750D02*
D03*
X1481000Y542750D02*
D03*
X1494000Y570250D02*
D03*
X1481000Y716750D02*
D03*
X1472000Y718750D02*
D03*
X1494000Y744250D02*
D03*
X1414709Y830540D02*
D03*
X1059000Y588000D02*
D03*
Y576000D02*
D03*
Y748500D02*
D03*
X1085291Y520209D02*
D03*
X1182500Y887000D02*
D03*
Y921000D02*
D03*
X1182000Y993000D02*
D03*
X1274500Y990500D02*
D03*
X1183000Y959000D02*
D03*
X1063461Y994500D02*
D03*
X1078573Y991298D02*
D03*
X1083647Y994500D02*
D03*
D79*
X1040000Y632000D02*
D03*
X1136000Y794500D02*
D03*
X1187500Y826000D02*
D03*
X1307000Y834000D02*
D03*
X1300500D02*
D03*
X1091000Y507500D02*
D03*
X1032000Y805500D02*
D03*
X1092500Y682250D02*
D03*
X1359500Y627000D02*
D03*
X1408000Y669000D02*
D03*
X1358500Y578000D02*
D03*
X1449000Y610750D02*
D03*
X1329500Y893500D02*
D03*
X1336500D02*
D03*
X1339000Y900500D02*
D03*
X1293500Y834000D02*
D03*
X1055000Y566000D02*
D03*
Y739250D02*
D03*
X1407500Y841750D02*
D03*
X1445000Y784750D02*
D03*
X1149956Y890639D02*
D03*
X1156956D02*
D03*
X1163956D02*
D03*
X1160456Y896639D02*
D03*
X1153456D02*
D03*
M02*
