M48
;Layer_Color=9474304
;FILE_FORMAT=4:4
METRIC,LZ
;TYPE=PLATED
T01F00S00C0.3000
T02F00S00C0.3500
T03F00S00C0.6600
%
T01
X011925Y005425
X01196Y005475
X012015Y005575
X01207Y00572
X012125Y005755
X012155Y00593
X01208Y005945
X012055Y006145
X01208Y006205
X012035Y00633
X01203801Y00642598
X01204464Y006489
X01218Y00637
X012365Y006455
X012415Y0065
X01246Y006455
X012455Y00637
X01246Y00631
X012653Y00629
X012655Y00644
X012715Y006445
X01289077Y00656559
X01289039Y00662559
X01289503Y00668541
X01295082Y006655
X01295Y006595
Y006535
X01321Y006525
X013265Y006494
Y006245
X013395Y00626
X013595Y0061985
X01359268Y0060865
X01359Y006015
Y005945
Y00588
X01353Y00561
X0135Y00555
X01352Y0054675
X013585Y00547
X01362Y00552
X013255Y005455
X01324Y00539
Y00533
X01305Y00534
X01306Y0054
X01297Y005415
X012925Y005455
X01297Y0055
X012835Y00556
X012855Y00562
X012795Y00563
X01271Y00565
X01268Y005705
X012625Y00567
X012665Y005455
X01275Y005475
X01283Y00535
X0128Y005295
X01286
X012715Y005285
X012655
X012605Y00532
X012575Y00526
X012385Y005355
X01232Y005405
X012255Y005395
X012255Y00554
X012315Y005545
X01226Y0056
X012185Y00551
X01214Y00547
X0121Y005425
X01192Y005685
X01236Y0058
X01235Y00586
X0125Y005925
X012585Y005915
X01276Y005815
X01295Y005765
Y0057
X013015Y00576
X013005Y005905
X013065
X0132Y0059
X013265Y00591
X013245Y005845
X013375Y00521
X013405Y005155
X013385Y005095
X01333Y00506
X013265
X013195Y005055
X013135Y005055
X01307493Y00505988
X012935Y005055
X012815
X012755
X01301Y00528
X01453967Y00523283
X01472Y0054475
X01481Y0054275
X014885Y0053175
X014935Y0055625
Y0056375
X01494Y0057025
Y0057675
X01441Y00588
Y00594
Y006
X01412Y0059325
X014075Y005975
X01409026Y0065119
X01414867Y00649818
X01414709Y00656541
X01412Y006785
X014035Y00684
Y006965
X013925Y00697
Y00687
Y007255
X013655Y007275
X01367Y00734
X013675Y007405
X013735Y007555
X01363Y007195
X01336Y007225
X013365Y007075
X013295Y00702
X01338242Y006915
X013445Y006935
X013235Y007175
X01307Y00726
X0130754Y00747959
X01319Y007525
X01319031Y00760424
X01319138Y00766423
X01319Y007725
X01301Y00774
X01292Y00772
X012855
X012797Y00775
X01273121Y0077435
X012735Y007805
X01274554Y00786935
X01279667Y00782533
X01298967Y00788533
X01317Y00792
X013325
X01301Y007595
X01295054Y00752014
X01289249Y007505
X012795Y00752
X012745Y00748
X012685Y00746
X01262
X012535Y007465
X01249Y007705
X01243Y007805
X01216Y007825
X012135Y007885
X01191683Y00784866
X01191Y007705
X01197061Y00758071
X01208Y007555
X01205Y0075
X012035Y007375
X01197Y0074
X0119805Y00733
X012075Y00732
X01207929Y00724072
X01213277Y00719951
X012245Y00719
X01224Y00713
X012155Y0071
X012105Y00705
X01205Y00709
X0121Y00693
X01212Y00684
X01206Y006835
X01218
X01224Y00685
X012245Y006935
X01228971Y00701082
X012347Y00698849
X01235Y006895
X01241773
X012435Y006745
X012495Y006755
X01250043Y00669525
X01257Y0067
X01264Y006699
X012615Y00676
X0126Y007015
X01268Y00701
X01274828Y00699828
X01277467Y00709533
X01270423Y0070929
X012725Y00714919
X012895Y007145
X01286Y00709
X012945
X01295Y00694
X01292Y006885
X012865Y0072085
X012556Y00712
X012545Y00705
X01233415Y00707349
X012175Y007005
X012315Y006779
X01233Y007595
X01221312Y00770312
X01408Y00772
X01412Y0076725
X01441Y00769
Y00775
Y00763
X01494Y0075075
Y0074425
X014935Y0073775
Y0073025
X01481Y0071675
X01472Y0071875
X01464475Y00720194
X01454Y0069725
Y006905
X014725Y00686
Y006795
X014885Y0070575
X0118Y007005
Y006865
X01174
X011675Y00686
X01167Y00692
X011625Y00688
X011565Y006875
X01162Y00682
X011495Y006955
X011405Y006945
X011535Y00702
Y007085
X01154Y007145
X01153Y007205
X01155Y007265
X011485Y00727
X011545Y007375
X011575Y00743
X011505Y007425
X01151Y00762
X01165Y007625
X01161Y007565
X01181Y007605
X01179891Y00742452
X0118065Y007365
X01177452Y00731423
X01176Y007255
X0117626Y007185
X01177Y00712
X011715Y007145
X01171517Y007295
X011695Y00778
X011755Y00779
X01174Y00785
X01163885Y00780115
X011485Y007845
Y007915
X011435Y00788
X01127Y007625
X011265Y007435
X011235Y00738
X01119Y00734
Y00728
X011005Y00735
X01089Y00745
Y00751
Y00757
X010595Y007545
Y0076075
X01059Y007485
X010345Y00789
X01005976Y00786774
X01006Y0077975
Y0077325
X01008Y00665
X01013994Y00664486
X010205Y006645
X010164Y00669983
X01029Y006704
X01035Y0067
X0105105Y0067305
X01064Y006725
X0107Y00673
X01077
X01074Y0065
X010675
X01081
X01054Y006515
X01046Y006535
X010325Y00653
Y00632
X01041Y006165
X01006321Y00612821
X01006Y006065
Y006
X010065Y006205
X010115Y00645
X0111Y006445
Y006375
X011285Y006505
X011405
X011555Y0064
X01155Y006315
X01154Y006245
X011515Y006055
X011685Y00606
X01171Y00599
X011775
X01176Y005825
X01168Y00588
X011855Y00567
X01188Y005535
X01185Y00548
X011535Y005495
Y005605
X011425
Y005495
X011205Y00552
X01115Y00555
X011065Y005625
X01091Y00578
X01086Y005815
X01059Y00582
Y00588
Y00576
X011295Y00578
Y00572
X011335Y00584
X011395Y00612
X011835Y006245
X011745Y006455
X011675Y0065
X011315Y00674
X011255Y006725
X011055
X010935Y00691
X01091Y006975
X010855Y005265
X01085291Y00520209
X011275Y005315
X011395Y005155
X011655Y00533
X011695Y00843
X01157
X011615Y008575
X01149Y0086
X011105Y00864
X011275Y00831
Y008245
X011335Y008305
X01104Y00819
X011035Y008125
Y008065
Y007995
X010975Y008035
X01097Y008215
X01058Y00825
X010395Y008235
X010335Y008255
X010315Y008315
X010395Y00832
X010245Y008055
X010115Y0081825
X010065Y0079375
X01017Y008615
X010495Y009395
X01047Y00977
X01063
X01068771Y00979446
X0107477Y0097993
X01079293Y00975788
X01078573Y00991298
X01073499Y009945
X0106848Y00991212
X01063461Y009945
X0105778Y009915
X010525Y009945
X01083647Y009945
X0108838Y00990768
X01093078Y009945
X01099Y009935
X011155Y009945
X011215Y009945
X011275
X0114Y009945
X011445Y009825
X011305Y00983
X01182Y00993
X01181502Y00966994
X01183Y00959
Y009525
X011825Y00921
X011815Y00895
X011825Y00887
Y008805
X011325Y009025
X01096Y00934
X012085Y00936
Y009415
Y009305
X011985Y009115
X012165Y008795
X012215
X01209Y00869
X012295Y008505
Y008445
X01231Y00829
X012315Y008135
X012135Y008205
X01209Y008275
X01195519Y00827565
X01269352Y00830553
X012685Y00852
X012845
X01313Y008605
Y00866
X0133065Y00836
X013375Y00827
X01338Y00821
X01345Y008115
X013325Y007995
X013205Y00808
X01313505Y00808495
X01371Y00809
X014145Y0082425
X01414709Y0083054
X01418Y00863
X014045Y00859
X013985Y008615
X01386Y00871
X013795Y008695
X01369Y008715
X013615Y008735
X01361Y00867
X01377Y008805
X01378Y00887
X0141Y00885
X014055Y00877
X014395Y008675
X014455Y00865
X014545Y008625
X01455Y00879
X01454Y00886
X014645
X01479
X01492Y00892
X014925Y00898
X01475Y00918
X01463
X014515Y00913
X014545Y009075
X01441Y00886
X0143Y009185
X01418Y00918
X01385
X01373
X013695Y00974
X013635
X01412959Y00964959
X01419Y00965
X01437959Y00965041
X01444Y00965
X014625
X014685
X0146825Y00991
X01462086Y00991099
X01456Y009915
X014495
X014435Y00991
X01437495Y00991005
X01431Y009915
X014255
X0141925Y00991
X0141325
X01407Y009915
X014745
X014925Y00972
X01479Y008625
X01313002Y00932494
Y00937994
X012745Y00918
X012745Y009905
X011985Y009835
X01253Y00807
Y00801
T02
X013535Y0052625
X01361Y0052625
X0137Y00524
X01379Y005245
X014175Y0055325
X01425
X014215Y0056075
X014405Y0057675
X01459Y0058075
Y0058775
Y0057025
X01479Y0056975
Y0056125
Y0058925
Y0059975
X01469Y006055
X01469Y0061275
Y006196
X014485Y0061975
X014405
X01449Y0061075
X014935Y0061325
Y0060575
Y0059425
Y0058675
Y0062125
X01493Y0063525
Y0064275
Y0065075
Y0065875
Y0066725
X014435Y0066825
X01408Y00669
X01402968Y00661361
X014076Y0064225
X014035Y0061525
X013945Y006024
Y0059625
Y005896
X0139421Y0058221
X013585Y00578
X013595Y00627
X01372206Y00648544
X01373Y0065525
Y0066275
Y0067025
X013705Y006975
X01376
X01365
X014175Y0072725
X01425
X014215Y00732717
X01439956Y00751294
X01459Y0075475
Y0076175
Y0074425
X01479Y0074375
Y0073525
Y0076325
Y0077375
X01469Y0077925
Y0078675
Y007936
X014935Y0078725
Y0077975
Y0076825
Y0076075
X01445Y0078475
X014035Y0078925
X013945Y0077825
Y0077025
Y0076225
Y0075425
X01221Y007875
X011055Y0076975
Y0076175
Y0075375
Y0074575
X010935Y007355
X010925Y0070775
X011045Y00702
Y00696
X01105Y006875
X010925Y0068225
X010865Y006915
X01055Y006795
X01007Y0068275
Y0069125
Y0069925
Y0070725
Y0071475
X010065Y0072875
Y0073675
Y0074425
Y0075575
Y0076325
X01021Y0076075
X010215Y007475
X010305Y00745
Y007365
Y0073
X010515Y0073025
X010595
X01055Y0073925
X01041Y0076225
Y0076925
Y0077975
X01021Y0078025
Y00789
X010595Y0077325
X010785Y0078925
X010635Y006225
X01059Y00601
X01041Y00596
Y00589
Y006065
X01021Y00607
Y006155
Y005875
Y00577
X01031Y005715
Y00564
Y0055715
X010515Y00557
X010595
X01055Y00566
X01096Y005615
X011055Y005725
Y005805
Y005885
Y005965
X010975Y006185
Y006265
X01139Y006295
X011465Y006295
Y0065025
X0104Y00632
X010065Y0059
Y005825
Y00571
Y005635
Y005555
X01007Y005415
Y00534
Y00526
Y00518
Y005095
X010565Y005085
X01091Y005075
X01092Y005225
X010925Y005345
X01104Y00529
Y005215
Y00514
X010825Y0079675
X01075
X01073Y0083025
X010805
X01088
X010945Y0083
X011005
X011215Y00847
X011385Y008235
X01146
X01163Y00825
X01178172Y00825456
X011875Y00826
X011725Y00859
X01163956Y00890639
X01156956
X01149956
X01153456Y00896639
X01160456
X01163956Y00915639
X01156956
X01149956
X011535Y009215
X01160456Y00921639
X011635Y00944
X011715
X011795
X011625Y009745
X011545
X01147
X011395
X01108Y0097603
X010965Y009785
X011025Y00985
X01055358Y00976875
X010625Y0096453
X010675Y009595
X010715Y009385
Y009315
X010785
Y009385
X010855
X01092Y009275
X01022Y0092
X010145
X01007
Y00928
X010065Y009625
Y009695
Y009765
X010325Y00977
X010145Y008725
X01007
Y00865
X01032Y008055
X01141Y00803
X011465
X01136Y007945
X0120225Y00825645
X012005Y0087
Y008755
X012055Y00878
X012125Y0091
X01201002Y00931494
Y00938494
Y00945494
X01212502Y00981994
X01302002Y00983494
X01309502
X01317002
X013265Y00984
Y00992
X0136
X01367
X01399Y009912
X01416641Y009761
X0144108Y00978346
X014655Y009785
X014825Y009905
X01484Y009395
X0147255Y009335
X01464114Y00933848
X014405Y009385
X01428018Y00933518
X0141955Y009335
X01397Y009385
X013825Y009335
X01374092Y00933779
X01339Y009005
X013365Y008935
X013295
X013175Y008855
X0131
X013025
X01302Y009115
X013095
X01317
X01307Y00834
X013005
X012935
X01373Y0083675
Y0084425
Y0082925
X01373Y008225
X014075Y0081625
X014045Y00834
X014075Y0084175
X014435Y0084225
X01493Y0084125
Y0083275
Y0082475
Y0081675
Y0080925
X014935Y0079525
X014485Y0079375
X014405
T03
X011971Y00513
X012098
X012225
X012352
X012479
X011844
X011717
X01159
M30
