G04*
G04 #@! TF.GenerationSoftware,Altium Limited,Altium Designer,24.9.1 (31)*
G04*
G04 Layer_Physical_Order=1*
G04 Layer_Color=255*
%FSLAX44Y44*%
%MOMM*%
G71*
G04*
G04 #@! TF.SameCoordinates,22428939-7FEC-4B67-BCAF-D19850B6772B*
G04*
G04*
G04 #@! TF.FilePolarity,Positive*
G04*
G01*
G75*
%ADD10C,0.1500*%
%ADD11C,0.2000*%
%ADD14C,0.1000*%
G04:AMPARAMS|DCode=15|XSize=0.7mm|YSize=0.9mm|CornerRadius=0.035mm|HoleSize=0mm|Usage=FLASHONLY|Rotation=180.000|XOffset=0mm|YOffset=0mm|HoleType=Round|Shape=RoundedRectangle|*
%AMROUNDEDRECTD15*
21,1,0.7000,0.8300,0,0,180.0*
21,1,0.6300,0.9000,0,0,180.0*
1,1,0.0700,-0.3150,0.4150*
1,1,0.0700,0.3150,0.4150*
1,1,0.0700,0.3150,-0.4150*
1,1,0.0700,-0.3150,-0.4150*
%
%ADD15ROUNDEDRECTD15*%
G04:AMPARAMS|DCode=16|XSize=3.3mm|YSize=1.3mm|CornerRadius=0.065mm|HoleSize=0mm|Usage=FLASHONLY|Rotation=180.000|XOffset=0mm|YOffset=0mm|HoleType=Round|Shape=RoundedRectangle|*
%AMROUNDEDRECTD16*
21,1,3.3000,1.1700,0,0,180.0*
21,1,3.1700,1.3000,0,0,180.0*
1,1,0.1300,-1.5850,0.5850*
1,1,0.1300,1.5850,0.5850*
1,1,0.1300,1.5850,-0.5850*
1,1,0.1300,-1.5850,-0.5850*
%
%ADD16ROUNDEDRECTD16*%
G04:AMPARAMS|DCode=17|XSize=0.3mm|YSize=0.67mm|CornerRadius=0.0375mm|HoleSize=0mm|Usage=FLASHONLY|Rotation=270.000|XOffset=0mm|YOffset=0mm|HoleType=Round|Shape=RoundedRectangle|*
%AMROUNDEDRECTD17*
21,1,0.3000,0.5950,0,0,270.0*
21,1,0.2250,0.6700,0,0,270.0*
1,1,0.0750,-0.2975,-0.1125*
1,1,0.0750,-0.2975,0.1125*
1,1,0.0750,0.2975,0.1125*
1,1,0.0750,0.2975,-0.1125*
%
%ADD17ROUNDEDRECTD17*%
G04:AMPARAMS|DCode=18|XSize=0.8128mm|YSize=0.9mm|CornerRadius=0.0406mm|HoleSize=0mm|Usage=FLASHONLY|Rotation=180.000|XOffset=0mm|YOffset=0mm|HoleType=Round|Shape=RoundedRectangle|*
%AMROUNDEDRECTD18*
21,1,0.8128,0.8187,0,0,180.0*
21,1,0.7315,0.9000,0,0,180.0*
1,1,0.0813,-0.3658,0.4094*
1,1,0.0813,0.3658,0.4094*
1,1,0.0813,0.3658,-0.4094*
1,1,0.0813,-0.3658,-0.4094*
%
%ADD18ROUNDEDRECTD18*%
G04:AMPARAMS|DCode=19|XSize=0.8128mm|YSize=0.9mm|CornerRadius=0.0406mm|HoleSize=0mm|Usage=FLASHONLY|Rotation=90.000|XOffset=0mm|YOffset=0mm|HoleType=Round|Shape=RoundedRectangle|*
%AMROUNDEDRECTD19*
21,1,0.8128,0.8187,0,0,90.0*
21,1,0.7315,0.9000,0,0,90.0*
1,1,0.0813,0.4094,0.3658*
1,1,0.0813,0.4094,-0.3658*
1,1,0.0813,-0.4094,-0.3658*
1,1,0.0813,-0.4094,0.3658*
%
%ADD19ROUNDEDRECTD19*%
G04:AMPARAMS|DCode=20|XSize=3.3mm|YSize=1.3mm|CornerRadius=0.065mm|HoleSize=0mm|Usage=FLASHONLY|Rotation=90.000|XOffset=0mm|YOffset=0mm|HoleType=Round|Shape=RoundedRectangle|*
%AMROUNDEDRECTD20*
21,1,3.3000,1.1700,0,0,90.0*
21,1,3.1700,1.3000,0,0,90.0*
1,1,0.1300,0.5850,1.5850*
1,1,0.1300,0.5850,-1.5850*
1,1,0.1300,-0.5850,-1.5850*
1,1,0.1300,-0.5850,1.5850*
%
%ADD20ROUNDEDRECTD20*%
G04:AMPARAMS|DCode=21|XSize=1.15mm|YSize=1.9mm|CornerRadius=0.0575mm|HoleSize=0mm|Usage=FLASHONLY|Rotation=270.000|XOffset=0mm|YOffset=0mm|HoleType=Round|Shape=RoundedRectangle|*
%AMROUNDEDRECTD21*
21,1,1.1500,1.7850,0,0,270.0*
21,1,1.0350,1.9000,0,0,270.0*
1,1,0.1150,-0.8925,-0.5175*
1,1,0.1150,-0.8925,0.5175*
1,1,0.1150,0.8925,0.5175*
1,1,0.1150,0.8925,-0.5175*
%
%ADD21ROUNDEDRECTD21*%
G04:AMPARAMS|DCode=22|XSize=1.3mm|YSize=1.1mm|CornerRadius=0.055mm|HoleSize=0mm|Usage=FLASHONLY|Rotation=180.000|XOffset=0mm|YOffset=0mm|HoleType=Round|Shape=RoundedRectangle|*
%AMROUNDEDRECTD22*
21,1,1.3000,0.9900,0,0,180.0*
21,1,1.1900,1.1000,0,0,180.0*
1,1,0.1100,-0.5950,0.4950*
1,1,0.1100,0.5950,0.4950*
1,1,0.1100,0.5950,-0.4950*
1,1,0.1100,-0.5950,-0.4950*
%
%ADD22ROUNDEDRECTD22*%
G04:AMPARAMS|DCode=23|XSize=0.6mm|YSize=1.45mm|CornerRadius=0.075mm|HoleSize=0mm|Usage=FLASHONLY|Rotation=90.000|XOffset=0mm|YOffset=0mm|HoleType=Round|Shape=RoundedRectangle|*
%AMROUNDEDRECTD23*
21,1,0.6000,1.3000,0,0,90.0*
21,1,0.4500,1.4500,0,0,90.0*
1,1,0.1500,0.6500,0.2250*
1,1,0.1500,0.6500,-0.2250*
1,1,0.1500,-0.6500,-0.2250*
1,1,0.1500,-0.6500,0.2250*
%
%ADD23ROUNDEDRECTD23*%
G04:AMPARAMS|DCode=24|XSize=0.55mm|YSize=0.8mm|CornerRadius=0.0688mm|HoleSize=0mm|Usage=FLASHONLY|Rotation=0.000|XOffset=0mm|YOffset=0mm|HoleType=Round|Shape=RoundedRectangle|*
%AMROUNDEDRECTD24*
21,1,0.5500,0.6625,0,0,0.0*
21,1,0.4125,0.8000,0,0,0.0*
1,1,0.1375,0.2063,-0.3313*
1,1,0.1375,-0.2063,-0.3313*
1,1,0.1375,-0.2063,0.3313*
1,1,0.1375,0.2063,0.3313*
%
%ADD24ROUNDEDRECTD24*%
G04:AMPARAMS|DCode=25|XSize=1.47mm|YSize=0.3mm|CornerRadius=0.0375mm|HoleSize=0mm|Usage=FLASHONLY|Rotation=90.000|XOffset=0mm|YOffset=0mm|HoleType=Round|Shape=RoundedRectangle|*
%AMROUNDEDRECTD25*
21,1,1.4700,0.2250,0,0,90.0*
21,1,1.3950,0.3000,0,0,90.0*
1,1,0.0750,0.1125,0.6975*
1,1,0.0750,0.1125,-0.6975*
1,1,0.0750,-0.1125,-0.6975*
1,1,0.0750,-0.1125,0.6975*
%
%ADD25ROUNDEDRECTD25*%
G04:AMPARAMS|DCode=26|XSize=0.3mm|YSize=1.47mm|CornerRadius=0.0375mm|HoleSize=0mm|Usage=FLASHONLY|Rotation=90.000|XOffset=0mm|YOffset=0mm|HoleType=Round|Shape=RoundedRectangle|*
%AMROUNDEDRECTD26*
21,1,0.3000,1.3950,0,0,90.0*
21,1,0.2250,1.4700,0,0,90.0*
1,1,0.0750,0.6975,0.1125*
1,1,0.0750,0.6975,-0.1125*
1,1,0.0750,-0.6975,-0.1125*
1,1,0.0750,-0.6975,0.1125*
%
%ADD26ROUNDEDRECTD26*%
%ADD27R,1.0000X1.6000*%
%ADD28R,1.4000X0.9000*%
%ADD29R,0.9000X1.4000*%
G04:AMPARAMS|DCode=30|XSize=0.7mm|YSize=0.9mm|CornerRadius=0.035mm|HoleSize=0mm|Usage=FLASHONLY|Rotation=90.000|XOffset=0mm|YOffset=0mm|HoleType=Round|Shape=RoundedRectangle|*
%AMROUNDEDRECTD30*
21,1,0.7000,0.8300,0,0,90.0*
21,1,0.6300,0.9000,0,0,90.0*
1,1,0.0700,0.4150,0.3150*
1,1,0.0700,0.4150,-0.3150*
1,1,0.0700,-0.4150,-0.3150*
1,1,0.0700,-0.4150,0.3150*
%
%ADD30ROUNDEDRECTD30*%
G04:AMPARAMS|DCode=31|XSize=0.8mm|YSize=1mm|CornerRadius=0.04mm|HoleSize=0mm|Usage=FLASHONLY|Rotation=270.000|XOffset=0mm|YOffset=0mm|HoleType=Round|Shape=RoundedRectangle|*
%AMROUNDEDRECTD31*
21,1,0.8000,0.9200,0,0,270.0*
21,1,0.7200,1.0000,0,0,270.0*
1,1,0.0800,-0.4600,-0.3600*
1,1,0.0800,-0.4600,0.3600*
1,1,0.0800,0.4600,0.3600*
1,1,0.0800,0.4600,-0.3600*
%
%ADD31ROUNDEDRECTD31*%
G04:AMPARAMS|DCode=32|XSize=6.2mm|YSize=1.8mm|CornerRadius=0.225mm|HoleSize=0mm|Usage=FLASHONLY|Rotation=90.000|XOffset=0mm|YOffset=0mm|HoleType=Round|Shape=RoundedRectangle|*
%AMROUNDEDRECTD32*
21,1,6.2000,1.3500,0,0,90.0*
21,1,5.7500,1.8000,0,0,90.0*
1,1,0.4500,0.6750,2.8750*
1,1,0.4500,0.6750,-2.8750*
1,1,0.4500,-0.6750,-2.8750*
1,1,0.4500,-0.6750,2.8750*
%
%ADD32ROUNDEDRECTD32*%
G04:AMPARAMS|DCode=33|XSize=6.2mm|YSize=1.8mm|CornerRadius=0.225mm|HoleSize=0mm|Usage=FLASHONLY|Rotation=180.000|XOffset=0mm|YOffset=0mm|HoleType=Round|Shape=RoundedRectangle|*
%AMROUNDEDRECTD33*
21,1,6.2000,1.3500,0,0,180.0*
21,1,5.7500,1.8000,0,0,180.0*
1,1,0.4500,-2.8750,0.6750*
1,1,0.4500,2.8750,0.6750*
1,1,0.4500,2.8750,-0.6750*
1,1,0.4500,-2.8750,-0.6750*
%
%ADD33ROUNDEDRECTD33*%
G04:AMPARAMS|DCode=34|XSize=0.76mm|YSize=2.4mm|CornerRadius=0.095mm|HoleSize=0mm|Usage=FLASHONLY|Rotation=0.000|XOffset=0mm|YOffset=0mm|HoleType=Round|Shape=RoundedRectangle|*
%AMROUNDEDRECTD34*
21,1,0.7600,2.2100,0,0,0.0*
21,1,0.5700,2.4000,0,0,0.0*
1,1,0.1900,0.2850,-1.1050*
1,1,0.1900,-0.2850,-1.1050*
1,1,0.1900,-0.2850,1.1050*
1,1,0.1900,0.2850,1.1050*
%
%ADD34ROUNDEDRECTD34*%
G04:AMPARAMS|DCode=35|XSize=0.8mm|YSize=0.9mm|CornerRadius=0.04mm|HoleSize=0mm|Usage=FLASHONLY|Rotation=90.000|XOffset=0mm|YOffset=0mm|HoleType=Round|Shape=RoundedRectangle|*
%AMROUNDEDRECTD35*
21,1,0.8000,0.8200,0,0,90.0*
21,1,0.7200,0.9000,0,0,90.0*
1,1,0.0800,0.4100,0.3600*
1,1,0.0800,0.4100,-0.3600*
1,1,0.0800,-0.4100,-0.3600*
1,1,0.0800,-0.4100,0.3600*
%
%ADD35ROUNDEDRECTD35*%
G04:AMPARAMS|DCode=36|XSize=1.6mm|YSize=1.9mm|CornerRadius=0.2mm|HoleSize=0mm|Usage=FLASHONLY|Rotation=90.000|XOffset=0mm|YOffset=0mm|HoleType=Round|Shape=RoundedRectangle|*
%AMROUNDEDRECTD36*
21,1,1.6000,1.5000,0,0,90.0*
21,1,1.2000,1.9000,0,0,90.0*
1,1,0.4000,0.7500,0.6000*
1,1,0.4000,0.7500,-0.6000*
1,1,0.4000,-0.7500,-0.6000*
1,1,0.4000,-0.7500,0.6000*
%
%ADD36ROUNDEDRECTD36*%
G04:AMPARAMS|DCode=37|XSize=1.1mm|YSize=2mm|CornerRadius=0.055mm|HoleSize=0mm|Usage=FLASHONLY|Rotation=0.000|XOffset=0mm|YOffset=0mm|HoleType=Round|Shape=RoundedRectangle|*
%AMROUNDEDRECTD37*
21,1,1.1000,1.8900,0,0,0.0*
21,1,0.9900,2.0000,0,0,0.0*
1,1,0.1100,0.4950,-0.9450*
1,1,0.1100,-0.4950,-0.9450*
1,1,0.1100,-0.4950,0.9450*
1,1,0.1100,0.4950,0.9450*
%
%ADD37ROUNDEDRECTD37*%
G04:AMPARAMS|DCode=38|XSize=1.1mm|YSize=2mm|CornerRadius=0.055mm|HoleSize=0mm|Usage=FLASHONLY|Rotation=270.000|XOffset=0mm|YOffset=0mm|HoleType=Round|Shape=RoundedRectangle|*
%AMROUNDEDRECTD38*
21,1,1.1000,1.8900,0,0,270.0*
21,1,0.9900,2.0000,0,0,270.0*
1,1,0.1100,-0.9450,-0.4950*
1,1,0.1100,-0.9450,0.4950*
1,1,0.1100,0.9450,0.4950*
1,1,0.1100,0.9450,-0.4950*
%
%ADD38ROUNDEDRECTD38*%
G04:AMPARAMS|DCode=65|XSize=1.4mm|YSize=0.25mm|CornerRadius=0.05mm|HoleSize=0mm|Usage=FLASHONLY|Rotation=180.000|XOffset=0mm|YOffset=0mm|HoleType=Round|Shape=RoundedRectangle|*
%AMROUNDEDRECTD65*
21,1,1.4000,0.1500,0,0,180.0*
21,1,1.3000,0.2500,0,0,180.0*
1,1,0.1000,-0.6500,0.0750*
1,1,0.1000,0.6500,0.0750*
1,1,0.1000,0.6500,-0.0750*
1,1,0.1000,-0.6500,-0.0750*
%
%ADD65ROUNDEDRECTD65*%
G04:AMPARAMS|DCode=66|XSize=0.6mm|YSize=0.25mm|CornerRadius=0.05mm|HoleSize=0mm|Usage=FLASHONLY|Rotation=180.000|XOffset=0mm|YOffset=0mm|HoleType=Round|Shape=RoundedRectangle|*
%AMROUNDEDRECTD66*
21,1,0.6000,0.1500,0,0,180.0*
21,1,0.5000,0.2500,0,0,180.0*
1,1,0.1000,-0.2500,0.0750*
1,1,0.1000,0.2500,0.0750*
1,1,0.1000,0.2500,-0.0750*
1,1,0.1000,-0.2500,-0.0750*
%
%ADD66ROUNDEDRECTD66*%
G04:AMPARAMS|DCode=67|XSize=0.25mm|YSize=0.6mm|CornerRadius=0.05mm|HoleSize=0mm|Usage=FLASHONLY|Rotation=180.000|XOffset=0mm|YOffset=0mm|HoleType=Round|Shape=RoundedRectangle|*
%AMROUNDEDRECTD67*
21,1,0.2500,0.5000,0,0,180.0*
21,1,0.1500,0.6000,0,0,180.0*
1,1,0.1000,-0.0750,0.2500*
1,1,0.1000,0.0750,0.2500*
1,1,0.1000,0.0750,-0.2500*
1,1,0.1000,-0.0750,-0.2500*
%
%ADD67ROUNDEDRECTD67*%
%ADD68C,0.3000*%
%ADD69C,0.1200*%
%ADD70C,0.1100*%
%ADD71C,0.7000*%
%ADD72C,0.6000*%
%ADD73C,0.5000*%
%ADD74C,0.1600*%
%ADD75C,1.0000*%
%ADD76C,1.0100*%
%ADD77R,1.0100X1.0100*%
%ADD78C,0.5000*%
%ADD79C,0.7000*%
G36*
X1370500Y994793D02*
X1370500Y993000D01*
X1377500Y986000D01*
Y984500D01*
X1355500D01*
Y995500D01*
X1369793D01*
X1370500Y994793D01*
D02*
G37*
G36*
X1049032Y994968D02*
X1049022Y994903D01*
X1049007Y994742D01*
X1049000Y994581D01*
Y994419D01*
X1049007Y994258D01*
X1049022Y994097D01*
X1049045Y993936D01*
X1049074Y993777D01*
X1049111Y993620D01*
X1049156Y993464D01*
X1049207Y993311D01*
X1049266Y993160D01*
X1049331Y993012D01*
X1049403Y992868D01*
X1049482Y992726D01*
X1049567Y992589D01*
X1049658Y992455D01*
X1049756Y992326D01*
X1049859Y992202D01*
X1049968Y992082D01*
X1050082Y991968D01*
X1050202Y991859D01*
X1050326Y991756D01*
X1050455Y991658D01*
X1050589Y991567D01*
X1050726Y991482D01*
X1050867Y991403D01*
X1051012Y991331D01*
X1051160Y991266D01*
X1051311Y991207D01*
X1051464Y991156D01*
X1051620Y991112D01*
X1051777Y991074D01*
X1051936Y991045D01*
X1052096Y991022D01*
X1052258Y991008D01*
X1052419Y991000D01*
X1052581D01*
X1052742Y991008D01*
X1052904Y991022D01*
X1052969Y991031D01*
X1060000Y984000D01*
Y978803D01*
X1059982Y978774D01*
X1059903Y978633D01*
X1059831Y978488D01*
X1059766Y978340D01*
X1059707Y978189D01*
X1059656Y978036D01*
X1059612Y977880D01*
X1059575Y977723D01*
X1059545Y977564D01*
X1059522Y977403D01*
X1059508Y977242D01*
X1059500Y977081D01*
Y976919D01*
X1059508Y976758D01*
X1059522Y976597D01*
X1059545Y976436D01*
X1059575Y976277D01*
X1059612Y976120D01*
X1059656Y975964D01*
X1059707Y975811D01*
X1059766Y975660D01*
X1059831Y975512D01*
X1059903Y975368D01*
X1059982Y975226D01*
X1060000Y975197D01*
Y972500D01*
X1051500D01*
X1049475Y974525D01*
X1049532Y974582D01*
X1049641Y974702D01*
X1049744Y974826D01*
X1049842Y974955D01*
X1049933Y975089D01*
X1050018Y975226D01*
X1050097Y975368D01*
X1050169Y975512D01*
X1050234Y975660D01*
X1050293Y975811D01*
X1050344Y975964D01*
X1050388Y976120D01*
X1050425Y976277D01*
X1050455Y976436D01*
X1050478Y976597D01*
X1050492Y976758D01*
X1050500Y976919D01*
Y977081D01*
X1050492Y977242D01*
X1050478Y977403D01*
X1050455Y977564D01*
X1050425Y977723D01*
X1050388Y977880D01*
X1050344Y978036D01*
X1050293Y978189D01*
X1050234Y978340D01*
X1050169Y978488D01*
X1050097Y978633D01*
X1050018Y978774D01*
X1049933Y978911D01*
X1049842Y979045D01*
X1049744Y979174D01*
X1049641Y979298D01*
X1049532Y979418D01*
X1049418Y979532D01*
X1049298Y979641D01*
X1049174Y979744D01*
X1049045Y979842D01*
X1048911Y979933D01*
X1048774Y980018D01*
X1048632Y980097D01*
X1048488Y980169D01*
X1048340Y980234D01*
X1048189Y980293D01*
X1048036Y980344D01*
X1047880Y980388D01*
X1047723Y980425D01*
X1047564Y980455D01*
X1047403Y980478D01*
X1047242Y980492D01*
X1047081Y980500D01*
X1046919D01*
X1046758Y980492D01*
X1046597Y980478D01*
X1046436Y980455D01*
X1046277Y980425D01*
X1046120Y980388D01*
X1045964Y980344D01*
X1045811Y980293D01*
X1045660Y980234D01*
X1045512Y980169D01*
X1045368Y980097D01*
X1045226Y980018D01*
X1045089Y979933D01*
X1044955Y979842D01*
X1044826Y979744D01*
X1044702Y979641D01*
X1044582Y979532D01*
X1044525Y979475D01*
X1042500Y981500D01*
X1009000D01*
Y996000D01*
X1048000D01*
X1049032Y994968D01*
D02*
G37*
G36*
X1321502Y967994D02*
X1298502D01*
Y987994D01*
X1321502D01*
Y967994D01*
D02*
G37*
G36*
X1232002D02*
X1227002D01*
X1222996Y972000D01*
X1216000D01*
Y976000D01*
X1223008D01*
X1227002Y979994D01*
X1232002D01*
Y967994D01*
D02*
G37*
G36*
X1350500Y966652D02*
X1328848D01*
X1323000Y972500D01*
Y994000D01*
X1325500Y996500D01*
X1350500D01*
X1350500Y966652D01*
D02*
G37*
G36*
X1223502Y977909D02*
X1222593Y977001D01*
X1216000D01*
X1215913Y976997D01*
X1215826Y976986D01*
X1215741Y976967D01*
X1215658Y976941D01*
X1215577Y976907D01*
X1215499Y976867D01*
X1215426Y976820D01*
X1215357Y976767D01*
X1215292Y976708D01*
X1215233Y976643D01*
X1215180Y976574D01*
X1215133Y976500D01*
X1215093Y976423D01*
X1215059Y976342D01*
X1215033Y976259D01*
X1215014Y976174D01*
X1215003Y976087D01*
X1214999Y976000D01*
Y972000D01*
X1215002Y971938D01*
Y971061D01*
X1214999Y970999D01*
Y964991D01*
X1213002Y962994D01*
Y954994D01*
X1208502Y950494D01*
Y945501D01*
X1205500D01*
X1205413Y945497D01*
X1205326Y945486D01*
X1205241Y945467D01*
X1205158Y945441D01*
X1205077Y945407D01*
X1204999Y945367D01*
X1204926Y945320D01*
X1204857Y945267D01*
X1204792Y945208D01*
X1204733Y945143D01*
X1204680Y945074D01*
X1204633Y945001D01*
X1204593Y944923D01*
X1204559Y944842D01*
X1204533Y944759D01*
X1204514Y944674D01*
X1204503Y944587D01*
X1204499Y944500D01*
Y938628D01*
X1204500Y938607D01*
X1204500Y938587D01*
X1204501Y938566D01*
Y938421D01*
X1204500Y938401D01*
X1204500Y938381D01*
X1204499Y938360D01*
Y931628D01*
X1204500Y931607D01*
X1204500Y931587D01*
X1204501Y931566D01*
Y931421D01*
X1204500Y931401D01*
X1204500Y931380D01*
X1204499Y931360D01*
Y927500D01*
X1204493Y927494D01*
X1185002D01*
X1184502Y927994D01*
Y948994D01*
X1194814D01*
X1195999Y950579D01*
X1196001Y961993D01*
X1200002Y965994D01*
X1207709Y965994D01*
X1208002Y965994D01*
X1208502Y966494D01*
X1208502Y966851D01*
X1208550Y966896D01*
X1208616Y966968D01*
X1208678Y967044D01*
X1208734Y967125D01*
X1208784Y967209D01*
X1208828Y967297D01*
X1208866Y967388D01*
X1208897Y967481D01*
X1208921Y967576D01*
X1208939Y967673D01*
X1208949Y967771D01*
X1208953Y967869D01*
Y970119D01*
X1208949Y970217D01*
X1208939Y970315D01*
X1208921Y970411D01*
X1208897Y970507D01*
X1208866Y970600D01*
X1208828Y970690D01*
X1208784Y970778D01*
X1208734Y970863D01*
X1208678Y970943D01*
X1208616Y971020D01*
X1208550Y971896D01*
X1208616Y971968D01*
X1208678Y972044D01*
X1208734Y972125D01*
X1208784Y972209D01*
X1208828Y972297D01*
X1208866Y972388D01*
X1208897Y972481D01*
X1208921Y972576D01*
X1208939Y972673D01*
X1208949Y972771D01*
X1208953Y972869D01*
Y975119D01*
X1208949Y975217D01*
X1208939Y975315D01*
X1208921Y975411D01*
X1208897Y975507D01*
X1208866Y975600D01*
X1208828Y975690D01*
X1208784Y975778D01*
X1208734Y975863D01*
X1208678Y975943D01*
X1208616Y976020D01*
X1208550Y976896D01*
X1208616Y976968D01*
X1208678Y977044D01*
X1208734Y977125D01*
X1208784Y977209D01*
X1208828Y977297D01*
X1208866Y977388D01*
X1208897Y977481D01*
X1208921Y977576D01*
X1208939Y977673D01*
X1208949Y977771D01*
X1208953Y977869D01*
Y980119D01*
X1208949Y980217D01*
X1208939Y980315D01*
X1208921Y980411D01*
X1208897Y980506D01*
X1208866Y980600D01*
X1208828Y980690D01*
X1208784Y980778D01*
X1208734Y980863D01*
X1208678Y980943D01*
X1208616Y981020D01*
X1208550Y981092D01*
X1208502Y981136D01*
Y985500D01*
X1223502D01*
Y977909D01*
D02*
G37*
G36*
X1168500Y957000D02*
X1135500D01*
Y977736D01*
X1136264Y978500D01*
X1168500D01*
Y957000D01*
D02*
G37*
G36*
X1321502Y961000D02*
X1350000D01*
Y940000D01*
X1328000D01*
X1326000Y942000D01*
X1321502D01*
Y941995D01*
X1319979D01*
X1319962Y941994D01*
X1319944Y941994D01*
X1319934Y941994D01*
X1309502D01*
X1309415Y941990D01*
X1309328Y941979D01*
X1309243Y941960D01*
X1309159Y941933D01*
X1309079Y941900D01*
X1309001Y941860D01*
X1308928Y941813D01*
X1308858Y941760D01*
X1308794Y941701D01*
X1308735Y941636D01*
X1308682Y941567D01*
X1308635Y941494D01*
D01*
X1308635Y941493D01*
X1308595Y941416D01*
X1308561Y941335D01*
X1308535Y941252D01*
X1308516Y941167D01*
X1308505Y941080D01*
X1308501Y940993D01*
Y928994D01*
X1278002D01*
Y943494D01*
X1291502D01*
Y963494D01*
X1321502D01*
Y961000D01*
D02*
G37*
G36*
X1106000Y928500D02*
Y920500D01*
X1094000D01*
X1089500Y925000D01*
X1088000D01*
Y930236D01*
X1089264Y931500D01*
X1093550D01*
X1093582Y931468D01*
X1093702Y931359D01*
X1093826Y931256D01*
X1093955Y931158D01*
X1094089Y931067D01*
X1094226Y930982D01*
X1094368Y930903D01*
X1094512Y930831D01*
X1094660Y930766D01*
X1094811Y930707D01*
X1094964Y930656D01*
X1095120Y930611D01*
X1095277Y930574D01*
X1095436Y930545D01*
X1095596Y930522D01*
X1095758Y930508D01*
X1095919Y930500D01*
X1096081D01*
X1096242Y930508D01*
X1096403Y930522D01*
X1096564Y930545D01*
X1096723Y930574D01*
X1096880Y930611D01*
X1097036Y930656D01*
X1097189Y930707D01*
X1097340Y930766D01*
X1097488Y930831D01*
X1097633Y930903D01*
X1097774Y930982D01*
X1097911Y931067D01*
X1098045Y931158D01*
X1098174Y931256D01*
X1098298Y931359D01*
X1098418Y931468D01*
X1098450Y931500D01*
X1103000D01*
X1106000Y928500D01*
D02*
G37*
G36*
X1008776Y979985D02*
X1008878Y979878D01*
X1008985Y979777D01*
X1009096Y979680D01*
X1009212Y979590D01*
X1009333Y979505D01*
X1009457Y979426D01*
X1009585Y979353D01*
X1009717Y979287D01*
X1009852Y979228D01*
X1009989Y979174D01*
X1010129Y979128D01*
X1010271Y979089D01*
X1010415Y979057D01*
X1010560Y979032D01*
X1010706Y979014D01*
X1010853Y979003D01*
X1011000Y978999D01*
X1021501D01*
X1036000Y964500D01*
X1047500D01*
Y971000D01*
X1110000D01*
X1125500Y955500D01*
X1164000D01*
X1171000Y948500D01*
X1183501D01*
Y930000D01*
X1106000D01*
X1093000Y943000D01*
X1084000D01*
Y943049D01*
X1035000Y943000D01*
X1029001Y948999D01*
Y954000D01*
X1029000Y954036D01*
Y955216D01*
X1028347Y955869D01*
X1028320Y955904D01*
X1028223Y956015D01*
X1028122Y956122D01*
X1028015Y956224D01*
X1027904Y956320D01*
X1027869Y956347D01*
X1026716Y957500D01*
X1003500D01*
X1003001Y957999D01*
Y980000D01*
X1008763D01*
X1008776Y979985D01*
D02*
G37*
G36*
X1325002Y928994D02*
X1309502D01*
Y940993D01*
X1319952D01*
X1319979Y940994D01*
X1325002D01*
Y928994D01*
D02*
G37*
G36*
X1224502Y968998D02*
X1224502Y928287D01*
X1223709Y927494D01*
X1211002D01*
Y927500D01*
X1205500D01*
Y931360D01*
X1205502Y931401D01*
Y931587D01*
X1205500Y931628D01*
Y938360D01*
X1205502Y938401D01*
Y938587D01*
X1205500Y938628D01*
Y944500D01*
X1211002D01*
Y949494D01*
X1214502Y952994D01*
Y963002D01*
X1216000Y964500D01*
Y970999D01*
X1222501D01*
X1224502Y968998D01*
D02*
G37*
G36*
X1028000Y932500D02*
X1056500Y932500D01*
X1065500Y923500D01*
X1089584D01*
X1091000Y922084D01*
Y912500D01*
X1106000D01*
Y904500D01*
X1026000D01*
X1024000Y902500D01*
X1003001D01*
Y931000D01*
Y936459D01*
X1009045Y942000D01*
X1028000Y942000D01*
Y932500D01*
D02*
G37*
G36*
X1167456Y912139D02*
Y901001D01*
X1161562D01*
X1161470Y901024D01*
X1161289Y901062D01*
X1161105Y901093D01*
X1160920Y901116D01*
X1160735Y901131D01*
X1160549Y901139D01*
X1160363D01*
X1160177Y901131D01*
X1159992Y901116D01*
X1159807Y901093D01*
X1159624Y901062D01*
X1159442Y901024D01*
X1159350Y901001D01*
X1154562D01*
X1154471Y901024D01*
X1154288Y901062D01*
X1154105Y901093D01*
X1153920Y901116D01*
X1153735Y901131D01*
X1153549Y901139D01*
X1153363D01*
X1153177Y901131D01*
X1152992Y901116D01*
X1152807Y901093D01*
X1152624Y901062D01*
X1152441Y901024D01*
X1152350Y901001D01*
X1146956D01*
X1146869Y900997D01*
X1146782Y900986D01*
X1146697Y900967D01*
X1146614Y900941D01*
X1146533Y900907D01*
X1146456Y900867D01*
X1146382Y900820D01*
X1146313Y900767D01*
X1146248Y900708D01*
X1146189Y900643D01*
X1146136Y900574D01*
X1146089Y900500D01*
X1146049Y900423D01*
X1146015Y900342D01*
X1145989Y900259D01*
X1145970Y900174D01*
X1145959Y900087D01*
X1145955Y900000D01*
Y896638D01*
X1144456Y895139D01*
Y890139D01*
X1142456Y888139D01*
X1117956D01*
Y894639D01*
X1129956D01*
X1134956Y899639D01*
Y900006D01*
X1135032Y900082D01*
X1135141Y900202D01*
X1135244Y900326D01*
X1135342Y900455D01*
X1135433Y900589D01*
X1135518Y900726D01*
X1135597Y900867D01*
X1135669Y901012D01*
X1135734Y901160D01*
X1135793Y901311D01*
X1135844Y901464D01*
X1135889Y901620D01*
X1135926Y901777D01*
X1135955Y901936D01*
X1135978Y902096D01*
X1135993Y902258D01*
X1136000Y902419D01*
Y902581D01*
X1135993Y902742D01*
X1135978Y902904D01*
X1135955Y903064D01*
X1135926Y903223D01*
X1135889Y903380D01*
X1135844Y903536D01*
X1135793Y903689D01*
X1135734Y903840D01*
X1135669Y903988D01*
X1135597Y904133D01*
X1135518Y904274D01*
X1135433Y904411D01*
X1135342Y904545D01*
X1135244Y904674D01*
X1135141Y904798D01*
X1135032Y904918D01*
X1134956Y904994D01*
Y917500D01*
X1146456D01*
Y925500D01*
X1167456D01*
Y912139D01*
D02*
G37*
G36*
X1396532Y896000D02*
X1394000D01*
X1389500Y900500D01*
X1394000Y905000D01*
X1396532D01*
Y896000D01*
D02*
G37*
G36*
X1386000Y900500D02*
X1386000D01*
X1390500Y896000D01*
X1383833Y896000D01*
Y900500D01*
Y905000D01*
X1390500D01*
X1386000Y900500D01*
D02*
G37*
G36*
X1321500Y896000D02*
X1298500D01*
Y916000D01*
X1321500D01*
Y896000D01*
D02*
G37*
G36*
X1232000D02*
X1227000D01*
X1223000Y900000D01*
X1215500Y900000D01*
Y904000D01*
X1223000D01*
X1227000Y908000D01*
X1232000D01*
Y896000D01*
D02*
G37*
G36*
X1223500Y905916D02*
X1222585Y905001D01*
X1215500D01*
X1215413Y904997D01*
X1215326Y904986D01*
X1215241Y904967D01*
X1215158Y904941D01*
X1215077Y904907D01*
X1214999Y904867D01*
X1214926Y904820D01*
X1214857Y904767D01*
X1214792Y904708D01*
X1214733Y904643D01*
X1214680Y904574D01*
X1214633Y904501D01*
X1214593Y904423D01*
X1214559Y904342D01*
X1214533Y904259D01*
X1214514Y904174D01*
X1214503Y904087D01*
X1214499Y904000D01*
Y900000D01*
X1214503Y899913D01*
X1214514Y899826D01*
X1214533Y899741D01*
X1214559Y899658D01*
X1214593Y899577D01*
X1214633Y899500D01*
X1214680Y899426D01*
X1214733Y899357D01*
X1214792Y899292D01*
X1214857Y899233D01*
X1214926Y899180D01*
X1214999Y899133D01*
X1215000Y899133D01*
Y899019D01*
X1214999Y898997D01*
Y892999D01*
X1213000Y891000D01*
Y883000D01*
X1208500Y878500D01*
Y873001D01*
X1206000D01*
X1205913Y872997D01*
X1205826Y872986D01*
X1205741Y872967D01*
X1205658Y872941D01*
X1205577Y872907D01*
X1205499Y872867D01*
X1205426Y872820D01*
X1205357Y872767D01*
X1205292Y872708D01*
X1205233Y872643D01*
X1205180Y872574D01*
X1205133Y872501D01*
X1205093Y872423D01*
X1205059Y872342D01*
X1205033Y872259D01*
X1205014Y872174D01*
X1205003Y872087D01*
X1204999Y872000D01*
Y855500D01*
X1185000D01*
X1184500Y856000D01*
Y877000D01*
X1196500D01*
Y890500D01*
X1200000Y894000D01*
X1207707Y894000D01*
X1208000Y894000D01*
X1208500Y894500D01*
X1208500Y894857D01*
X1208548Y894902D01*
X1208615Y894974D01*
X1208676Y895051D01*
X1208733Y895131D01*
X1208783Y895216D01*
X1208827Y895303D01*
X1208864Y895394D01*
X1208895Y895487D01*
X1208919Y895583D01*
X1208937Y895679D01*
X1208947Y895777D01*
X1208951Y895875D01*
Y898125D01*
X1208947Y898223D01*
X1208937Y898321D01*
X1208919Y898417D01*
X1208895Y898513D01*
X1208864Y898606D01*
X1208827Y898697D01*
X1208783Y898784D01*
X1208733Y898869D01*
X1208676Y898950D01*
X1208615Y899026D01*
X1208548Y899902D01*
X1208615Y899974D01*
X1208676Y900050D01*
X1208733Y900131D01*
X1208783Y900216D01*
X1208827Y900303D01*
X1208864Y900394D01*
X1208895Y900487D01*
X1208919Y900583D01*
X1208937Y900679D01*
X1208947Y900777D01*
X1208951Y900875D01*
Y903125D01*
X1208947Y903223D01*
X1208937Y903321D01*
X1208919Y903417D01*
X1208895Y903513D01*
X1208864Y903606D01*
X1208827Y903697D01*
X1208783Y903784D01*
X1208733Y903869D01*
X1208676Y903950D01*
X1208615Y904026D01*
X1208548Y904098D01*
Y904902D01*
X1208615Y904974D01*
X1208676Y905050D01*
X1208733Y905131D01*
X1208783Y905216D01*
X1208827Y905303D01*
X1208864Y905394D01*
X1208895Y905487D01*
X1208919Y905583D01*
X1208937Y905679D01*
X1208947Y905777D01*
X1208951Y905875D01*
Y908125D01*
X1208947Y908223D01*
X1208937Y908321D01*
X1208919Y908417D01*
X1208895Y908513D01*
X1208864Y908606D01*
X1208827Y908697D01*
X1208783Y908784D01*
X1208733Y908869D01*
X1208676Y908950D01*
X1208615Y909026D01*
X1208548Y909098D01*
X1208500Y909142D01*
Y913500D01*
X1223500D01*
Y905916D01*
D02*
G37*
G36*
X1115311Y887689D02*
X1117063D01*
X1117089Y887638D01*
X1117136Y887565D01*
X1117189Y887495D01*
X1117248Y887431D01*
X1117313Y887372D01*
X1117382Y887319D01*
X1117456Y887272D01*
X1117533Y887232D01*
X1117614Y887198D01*
X1117697Y887172D01*
X1117782Y887153D01*
X1117869Y887142D01*
X1117956Y887138D01*
X1122456D01*
Y883640D01*
X1117956D01*
X1117869Y883636D01*
X1117782Y883625D01*
X1117697Y883606D01*
X1117614Y883579D01*
X1117533Y883546D01*
X1117456Y883506D01*
X1117382Y883459D01*
X1117313Y883406D01*
X1117248Y883347D01*
X1117189Y883282D01*
X1117136Y883213D01*
X1117089Y883139D01*
X1117049Y883062D01*
X1117015Y882981D01*
X1116989Y882898D01*
X1116970Y882813D01*
X1116959Y882726D01*
X1116955Y882639D01*
X1111491D01*
X1111456Y882640D01*
X1109639D01*
X1109604Y882639D01*
X1104456D01*
X1093956Y872139D01*
Y854000D01*
X1025956D01*
Y894281D01*
X1109500D01*
X1115311Y887689D01*
D02*
G37*
G36*
X1167956Y875000D02*
X1132095Y875000D01*
X1131456Y875639D01*
X1117956D01*
Y882639D01*
X1122956D01*
X1126956Y886639D01*
X1144956D01*
X1146956Y888639D01*
Y900000D01*
X1167956D01*
Y875000D01*
D02*
G37*
G36*
X1321500Y870001D02*
X1319978D01*
X1319960Y870000D01*
X1319942Y870000D01*
X1319932Y870000D01*
X1309500D01*
X1309413Y869996D01*
X1309326Y869985D01*
X1309241Y869966D01*
X1309158Y869940D01*
X1309077Y869906D01*
X1308999Y869866D01*
X1308926Y869819D01*
X1308857Y869766D01*
X1308792Y869707D01*
X1308733Y869642D01*
X1308680Y869573D01*
X1308634Y869500D01*
D01*
X1308633Y869500D01*
X1308593Y869422D01*
X1308559Y869341D01*
X1308533Y869258D01*
X1308514Y869173D01*
X1308503Y869086D01*
X1308499Y868999D01*
Y857000D01*
X1278000D01*
Y871500D01*
X1291500D01*
Y891500D01*
X1321500D01*
Y870001D01*
D02*
G37*
G36*
X1024000Y875500D02*
X1009500Y861000D01*
X1003001D01*
Y887500D01*
X1024000D01*
Y875500D01*
D02*
G37*
G36*
X1325000Y857000D02*
X1309500D01*
Y868999D01*
X1319950D01*
X1319978Y869000D01*
X1325000D01*
Y857000D01*
D02*
G37*
G36*
X1222501Y898999D02*
X1224500Y897000D01*
X1224500Y856293D01*
X1223707Y855500D01*
X1206000D01*
Y872000D01*
X1211000D01*
Y878000D01*
X1214499Y881499D01*
X1214477Y890986D01*
X1216000Y892342D01*
Y898997D01*
X1218954Y898999D01*
X1222501Y898999D01*
D02*
G37*
G36*
X1233000Y841000D02*
X1218500D01*
Y854000D01*
X1233000D01*
Y841000D01*
D02*
G37*
G36*
X1311000Y824000D02*
X1285500D01*
Y831000D01*
X1292500Y838000D01*
X1311000D01*
Y824000D01*
D02*
G37*
G36*
X1309500Y817000D02*
X1305000Y821500D01*
Y821500D01*
X1300500Y817000D01*
X1300500Y823668D01*
X1309500D01*
Y817000D01*
D02*
G37*
G36*
X1295000Y817000D02*
X1290500Y821500D01*
Y821500D01*
X1286000Y817000D01*
X1286000Y823668D01*
X1295000D01*
Y817000D01*
D02*
G37*
G36*
X1309500Y813500D02*
Y810967D01*
X1300500D01*
Y813500D01*
X1305000Y818000D01*
X1309500Y813500D01*
D02*
G37*
G36*
X1295000Y813500D02*
Y810967D01*
X1286000D01*
Y813500D01*
X1290500Y818000D01*
X1295000Y813500D01*
D02*
G37*
G36*
X1496999Y805750D02*
X1489251D01*
Y807300D01*
X1489247Y807414D01*
X1489236Y807529D01*
X1489217Y807642D01*
X1489191Y807753D01*
X1489158Y807863D01*
X1489118Y807970D01*
X1489070Y808074D01*
X1489016Y808175D01*
X1488956Y808273D01*
X1488889Y808366D01*
X1488816Y808454D01*
X1488738Y808538D01*
X1488654Y808616D01*
X1488566Y808689D01*
X1488473Y808756D01*
X1488376Y808816D01*
X1488274Y808870D01*
X1488170Y808918D01*
X1488063Y808958D01*
X1487953Y808991D01*
X1487842Y809017D01*
X1487728Y809036D01*
X1487614Y809047D01*
X1487500Y809051D01*
X1485471D01*
X1485392Y809139D01*
X1485243Y809293D01*
X1485089Y809442D01*
X1484930Y809585D01*
X1484765Y809723D01*
X1484596Y809854D01*
X1484422Y809979D01*
X1484244Y810098D01*
X1484062Y810211D01*
X1483876Y810317D01*
X1483686Y810416D01*
X1483493Y810509D01*
X1483296Y810594D01*
X1483097Y810673D01*
X1482895Y810744D01*
X1482691Y810808D01*
X1482484Y810864D01*
X1482276Y810914D01*
X1482065Y810956D01*
X1481854Y810990D01*
X1481642Y811016D01*
X1481428Y811036D01*
X1481214Y811047D01*
X1481000Y811051D01*
X1474000D01*
Y847750D01*
X1496999D01*
Y805750D01*
D02*
G37*
G36*
X1150000Y799000D02*
X1136047D01*
X1136000Y799001D01*
X1134500D01*
Y827250D01*
X1150000D01*
Y799000D01*
D02*
G37*
G36*
X1399000Y831750D02*
X1419000Y811750D01*
D01*
X1452500D01*
Y789750D01*
X1438301D01*
X1434751Y793300D01*
Y794600D01*
X1434747Y794715D01*
X1434736Y794828D01*
X1434717Y794942D01*
X1434691Y795053D01*
X1434658Y795163D01*
X1434618Y795270D01*
X1434570Y795374D01*
X1434516Y795475D01*
X1434456Y795573D01*
X1434389Y795666D01*
X1434316Y795754D01*
X1434238Y795838D01*
X1434155Y795916D01*
X1434066Y795989D01*
X1433973Y796056D01*
X1433875Y796116D01*
X1433774Y796170D01*
X1433670Y796218D01*
X1433563Y796258D01*
X1433453Y796291D01*
X1433342Y796317D01*
X1433228Y796336D01*
X1433114Y796347D01*
X1433000Y796351D01*
X1420000D01*
X1419886Y796347D01*
X1419772Y796336D01*
X1419658Y796317D01*
X1419547Y796291D01*
X1419437Y796258D01*
X1419330Y796218D01*
X1419226Y796170D01*
X1419124Y796116D01*
X1419027Y796056D01*
X1418934Y795989D01*
X1418846Y795916D01*
X1418762Y795838D01*
X1418684Y795754D01*
X1418611Y795666D01*
X1418544Y795573D01*
X1418484Y795475D01*
X1418430Y795374D01*
X1418382Y795270D01*
X1418342Y795163D01*
X1418309Y795053D01*
X1418283Y794942D01*
X1418264Y794828D01*
X1418253Y794715D01*
X1418249Y794600D01*
Y794250D01*
X1395000D01*
X1369500Y819750D01*
X1369500Y847750D01*
X1399000D01*
Y831750D01*
D02*
G37*
G36*
X1226065Y789065D02*
X1224500Y787500D01*
X1217500D01*
Y797000D01*
X1218572Y798072D01*
X1225986D01*
X1226065Y789065D01*
D02*
G37*
G36*
X1305000Y784000D02*
Y781500D01*
X1290500D01*
Y784000D01*
X1294929Y789000D01*
X1300000D01*
X1305000Y784000D01*
D02*
G37*
G36*
X1046000Y774251D02*
X1031500D01*
X1031413Y774247D01*
X1031326Y774236D01*
X1031241Y774217D01*
X1031158Y774191D01*
X1031077Y774157D01*
X1031000Y774117D01*
X1030926Y774070D01*
X1030857Y774017D01*
X1030792Y773958D01*
X1030733Y773893D01*
X1030680Y773824D01*
X1030633Y773751D01*
X1030593Y773673D01*
X1030559Y773592D01*
X1030533Y773509D01*
X1030514Y773424D01*
X1030503Y773337D01*
X1030499Y773250D01*
Y768250D01*
X1011000D01*
Y784000D01*
X1046000D01*
Y774251D01*
D02*
G37*
G36*
X1086000Y771750D02*
X1081000Y766750D01*
X1061000D01*
X1053000Y774750D01*
Y819750D01*
X1086000D01*
Y771750D01*
D02*
G37*
G36*
X1496999Y772750D02*
X1489000D01*
Y759250D01*
X1469501D01*
Y766250D01*
X1469497Y766337D01*
X1469486Y766424D01*
X1469467Y766509D01*
X1469441Y766592D01*
X1469407Y766673D01*
X1469367Y766750D01*
X1469320Y766824D01*
X1469267Y766893D01*
X1469208Y766958D01*
X1469143Y767017D01*
X1469074Y767070D01*
X1469001Y767117D01*
X1468923Y767157D01*
X1468842Y767191D01*
X1468759Y767217D01*
X1468674Y767236D01*
X1468587Y767247D01*
X1468500Y767251D01*
X1465500D01*
Y797206D01*
X1467343Y799049D01*
X1481000D01*
X1481214Y799053D01*
X1481428Y799064D01*
X1481642Y799083D01*
X1481854Y799110D01*
X1482065Y799144D01*
X1482276Y799186D01*
X1482484Y799235D01*
X1482537Y799250D01*
X1496999D01*
Y772750D01*
D02*
G37*
G36*
X1046000Y757750D02*
X1031500D01*
Y773250D01*
X1046000D01*
Y757750D01*
D02*
G37*
G36*
X1468500Y750750D02*
X1454000D01*
Y766250D01*
X1468500D01*
Y750750D01*
D02*
G37*
G36*
X1398899Y749500D02*
X1377500D01*
Y783750D01*
X1398899D01*
Y749500D01*
D02*
G37*
G36*
X1122500Y740250D02*
X1106052D01*
X1101000Y745302D01*
Y773250D01*
X1122500D01*
Y740250D01*
D02*
G37*
G36*
X1489000Y740250D02*
X1454000D01*
Y749749D01*
X1468500D01*
X1468587Y749753D01*
X1468674Y749764D01*
X1468759Y749783D01*
X1468842Y749809D01*
X1468923Y749843D01*
X1469001Y749883D01*
X1469074Y749930D01*
X1469143Y749983D01*
X1469208Y750042D01*
X1469267Y750107D01*
X1469320Y750176D01*
X1469367Y750249D01*
X1469407Y750327D01*
X1469441Y750408D01*
X1469467Y750491D01*
X1469486Y750576D01*
X1469497Y750663D01*
X1469501Y750750D01*
Y755750D01*
X1489000D01*
Y740250D01*
D02*
G37*
G36*
X1030499Y757750D02*
X1030503Y757663D01*
X1030514Y757576D01*
X1030533Y757491D01*
X1030559Y757408D01*
X1030593Y757327D01*
X1030633Y757250D01*
X1030680Y757176D01*
X1030733Y757107D01*
X1030792Y757042D01*
X1030857Y756983D01*
X1030926Y756930D01*
X1031000Y756883D01*
X1031077Y756843D01*
X1031158Y756809D01*
X1031241Y756783D01*
X1031326Y756764D01*
X1031413Y756753D01*
X1031500Y756749D01*
X1034500D01*
Y726795D01*
X1032656Y724951D01*
X1019000D01*
X1018786Y724947D01*
X1018572Y724936D01*
X1018359Y724917D01*
X1018146Y724890D01*
X1017934Y724856D01*
X1017724Y724814D01*
X1017516Y724765D01*
X1017463Y724750D01*
X1003001D01*
Y751250D01*
X1011000D01*
Y764750D01*
X1030499D01*
Y757750D01*
D02*
G37*
G36*
X1447000Y749250D02*
Y704250D01*
X1414000D01*
Y752250D01*
X1419000Y757250D01*
X1439000D01*
X1447000Y749250D01*
D02*
G37*
G36*
X1380500Y694000D02*
X1350000D01*
Y722000D01*
X1380500D01*
Y694000D01*
D02*
G37*
G36*
X1010749Y716700D02*
X1010753Y716585D01*
X1010764Y716471D01*
X1010783Y716358D01*
X1010809Y716247D01*
X1010842Y716137D01*
X1010882Y716030D01*
X1010930Y715926D01*
X1010984Y715825D01*
X1011044Y715727D01*
X1011111Y715634D01*
X1011184Y715546D01*
X1011262Y715462D01*
X1011346Y715384D01*
X1011434Y715311D01*
X1011527Y715244D01*
X1011625Y715184D01*
X1011726Y715130D01*
X1011830Y715082D01*
X1011937Y715042D01*
X1012047Y715009D01*
X1012158Y714983D01*
X1012271Y714964D01*
X1012385Y714953D01*
X1012500Y714949D01*
X1014529D01*
X1014608Y714861D01*
X1014757Y714707D01*
X1014911Y714558D01*
X1015070Y714415D01*
X1015235Y714277D01*
X1015404Y714146D01*
X1015577Y714021D01*
X1015756Y713902D01*
X1015938Y713789D01*
X1016124Y713683D01*
X1016314Y713584D01*
X1016507Y713491D01*
X1016703Y713406D01*
X1016903Y713327D01*
X1017105Y713256D01*
X1017309Y713192D01*
X1017516Y713136D01*
X1017724Y713086D01*
X1017934Y713044D01*
X1018146Y713010D01*
X1018359Y712983D01*
X1018572Y712964D01*
X1018786Y712953D01*
X1019000Y712949D01*
X1026000D01*
Y676250D01*
X1003001D01*
Y718250D01*
X1010749D01*
Y716700D01*
D02*
G37*
G36*
X1065249Y730700D02*
Y729400D01*
X1065253Y729286D01*
X1065264Y729172D01*
X1065283Y729058D01*
X1065309Y728947D01*
X1065342Y728837D01*
X1065382Y728730D01*
X1065430Y728626D01*
X1065484Y728525D01*
X1065544Y728427D01*
X1065611Y728334D01*
X1065684Y728246D01*
X1065762Y728162D01*
X1065845Y728084D01*
X1065934Y728011D01*
X1066027Y727944D01*
X1066124Y727884D01*
X1066226Y727830D01*
X1066330Y727782D01*
X1066437Y727742D01*
X1066547Y727709D01*
X1066658Y727683D01*
X1066771Y727664D01*
X1066886Y727653D01*
X1067000Y727649D01*
X1080000D01*
X1080115Y727653D01*
X1080229Y727664D01*
X1080342Y727683D01*
X1080453Y727709D01*
X1080563Y727742D01*
X1080670Y727782D01*
X1080774Y727830D01*
X1080875Y727884D01*
X1080973Y727944D01*
X1081066Y728011D01*
X1081154Y728084D01*
X1081238Y728162D01*
X1081316Y728246D01*
X1081389Y728334D01*
X1081456Y728427D01*
X1081516Y728525D01*
X1081570Y728626D01*
X1081618Y728730D01*
X1081658Y728837D01*
X1081691Y728947D01*
X1081717Y729058D01*
X1081736Y729172D01*
X1081747Y729286D01*
X1081751Y729400D01*
Y729750D01*
X1105000D01*
X1122500Y712250D01*
X1122500Y676250D01*
X1101000Y676250D01*
Y692250D01*
X1094071Y699179D01*
X1094018Y699274D01*
X1093933Y699411D01*
X1093842Y699545D01*
X1093744Y699674D01*
X1093641Y699798D01*
X1093532Y699918D01*
X1093418Y700032D01*
X1093298Y700141D01*
X1093174Y700244D01*
X1093045Y700342D01*
X1092911Y700433D01*
X1092774Y700518D01*
X1092679Y700571D01*
X1081000Y712250D01*
D01*
X1047500D01*
Y734250D01*
X1061699D01*
X1065249Y730700D01*
D02*
G37*
G36*
X1337668Y674000D02*
Y669500D01*
Y665000D01*
X1331000D01*
X1335500Y669500D01*
X1335500D01*
X1331000Y674000D01*
X1337668Y674000D01*
D02*
G37*
G36*
X1332000Y669500D02*
X1327500Y665000D01*
X1324967D01*
Y674000D01*
X1327500D01*
X1332000Y669500D01*
D02*
G37*
G36*
X1169500Y638000D02*
X1165000Y633500D01*
X1160500Y638000D01*
Y640533D01*
X1169500D01*
Y638000D01*
D02*
G37*
G36*
X1496999Y631750D02*
X1489251D01*
Y633300D01*
X1489247Y633414D01*
X1489236Y633529D01*
X1489217Y633642D01*
X1489191Y633753D01*
X1489158Y633863D01*
X1489118Y633970D01*
X1489070Y634074D01*
X1489016Y634175D01*
X1488956Y634273D01*
X1488889Y634366D01*
X1488816Y634454D01*
X1488738Y634538D01*
X1488654Y634616D01*
X1488566Y634689D01*
X1488473Y634756D01*
X1488375Y634816D01*
X1488274Y634870D01*
X1488170Y634918D01*
X1488063Y634958D01*
X1487953Y634991D01*
X1487842Y635017D01*
X1487728Y635036D01*
X1487614Y635047D01*
X1487500Y635051D01*
X1485471D01*
X1485392Y635139D01*
X1485243Y635293D01*
X1485089Y635442D01*
X1484930Y635585D01*
X1484765Y635723D01*
X1484596Y635854D01*
X1484422Y635979D01*
X1484244Y636098D01*
X1484062Y636211D01*
X1483876Y636317D01*
X1483686Y636416D01*
X1483493Y636509D01*
X1483296Y636594D01*
X1483097Y636673D01*
X1482895Y636744D01*
X1482691Y636808D01*
X1482484Y636865D01*
X1482276Y636914D01*
X1482065Y636956D01*
X1481854Y636990D01*
X1481642Y637017D01*
X1481428Y637036D01*
X1481214Y637047D01*
X1481000Y637051D01*
X1474000D01*
Y673750D01*
X1496999D01*
Y631750D01*
D02*
G37*
G36*
X1175500Y633500D02*
X1174000D01*
X1169524Y629024D01*
X1169500Y629025D01*
Y627832D01*
X1160500D01*
Y634500D01*
X1165000Y630000D01*
Y630000D01*
X1166500Y631500D01*
D01*
X1173500Y638500D01*
X1175500D01*
Y633500D01*
D02*
G37*
G36*
X1150000Y626000D02*
X1134500D01*
Y654000D01*
X1150000D01*
Y626000D01*
D02*
G37*
G36*
X1397000Y659750D02*
X1405526Y651224D01*
Y651110D01*
X1405534Y650948D01*
X1405549Y650787D01*
X1405571Y650627D01*
X1405601Y650468D01*
X1405638Y650311D01*
X1405682Y650155D01*
X1405733Y650002D01*
X1405792Y649851D01*
X1405857Y649703D01*
X1405929Y649558D01*
X1406008Y649417D01*
X1406093Y649279D01*
X1406184Y649146D01*
X1406282Y649017D01*
X1406385Y648892D01*
X1406494Y648773D01*
X1406608Y648659D01*
X1406728Y648549D01*
X1406853Y648446D01*
X1406982Y648349D01*
X1407115Y648257D01*
X1407253Y648172D01*
X1407394Y648093D01*
X1407538Y648021D01*
X1407686Y647956D01*
X1407837Y647898D01*
X1407991Y647846D01*
X1408146Y647802D01*
X1408304Y647765D01*
X1408463Y647735D01*
X1408623Y647713D01*
X1408784Y647698D01*
X1408945Y647691D01*
X1409059D01*
X1419000Y637750D01*
D01*
X1452500D01*
Y615750D01*
X1438301D01*
X1434751Y619300D01*
Y620600D01*
X1434747Y620714D01*
X1434736Y620829D01*
X1434717Y620942D01*
X1434691Y621053D01*
X1434658Y621163D01*
X1434618Y621270D01*
X1434570Y621374D01*
X1434516Y621475D01*
X1434456Y621573D01*
X1434389Y621666D01*
X1434316Y621754D01*
X1434238Y621838D01*
X1434155Y621916D01*
X1434066Y621989D01*
X1433973Y622056D01*
X1433875Y622116D01*
X1433774Y622170D01*
X1433670Y622218D01*
X1433563Y622258D01*
X1433453Y622291D01*
X1433342Y622317D01*
X1433228Y622336D01*
X1433114Y622347D01*
X1433000Y622351D01*
X1420000D01*
X1419886Y622347D01*
X1419772Y622336D01*
X1419658Y622317D01*
X1419547Y622291D01*
X1419437Y622258D01*
X1419330Y622218D01*
X1419226Y622170D01*
X1419124Y622116D01*
X1419027Y622056D01*
X1418934Y621989D01*
X1418846Y621916D01*
X1418762Y621838D01*
X1418684Y621754D01*
X1418611Y621666D01*
X1418544Y621573D01*
X1418484Y621475D01*
X1418430Y621374D01*
X1418382Y621270D01*
X1418342Y621163D01*
X1418309Y621053D01*
X1418283Y620942D01*
X1418264Y620829D01*
X1418253Y620714D01*
X1418249Y620600D01*
Y620250D01*
X1395000D01*
X1369500Y645750D01*
X1369500Y673750D01*
X1397000D01*
Y659750D01*
D02*
G37*
G36*
X1046000Y601001D02*
X1031500D01*
X1031413Y600997D01*
X1031326Y600986D01*
X1031241Y600967D01*
X1031158Y600941D01*
X1031077Y600907D01*
X1031000Y600867D01*
X1030926Y600820D01*
X1030857Y600767D01*
X1030792Y600708D01*
X1030733Y600643D01*
X1030680Y600574D01*
X1030633Y600500D01*
X1030593Y600423D01*
X1030559Y600342D01*
X1030533Y600259D01*
X1030514Y600174D01*
X1030503Y600087D01*
X1030499Y600000D01*
Y595000D01*
X1011000D01*
Y610500D01*
X1046000D01*
Y601001D01*
D02*
G37*
G36*
X1102000Y614500D02*
X1081000Y593500D01*
X1059000D01*
X1053000Y599500D01*
Y646500D01*
X1102000D01*
Y614500D01*
D02*
G37*
G36*
X1145667Y598500D02*
Y594000D01*
Y589500D01*
X1139000D01*
X1143500Y594000D01*
X1143500D01*
X1139000Y598500D01*
X1145667Y598500D01*
D02*
G37*
G36*
X1140000Y594000D02*
X1135500Y589500D01*
X1132968D01*
Y598500D01*
X1135500D01*
X1140000Y594000D01*
D02*
G37*
G36*
X1496999Y598750D02*
X1489000D01*
Y585250D01*
X1469501D01*
Y592250D01*
X1469497Y592337D01*
X1469486Y592424D01*
X1469467Y592509D01*
X1469441Y592592D01*
X1469407Y592673D01*
X1469367Y592751D01*
X1469320Y592824D01*
X1469267Y592893D01*
X1469208Y592958D01*
X1469143Y593017D01*
X1469074Y593070D01*
X1469001Y593117D01*
X1468923Y593157D01*
X1468842Y593191D01*
X1468759Y593217D01*
X1468674Y593236D01*
X1468587Y593247D01*
X1468500Y593251D01*
X1465500D01*
Y623205D01*
X1467343Y625049D01*
X1481000D01*
X1481214Y625053D01*
X1481428Y625064D01*
X1481642Y625083D01*
X1481854Y625110D01*
X1482065Y625144D01*
X1482276Y625186D01*
X1482484Y625235D01*
X1482537Y625250D01*
X1496999D01*
Y598750D01*
D02*
G37*
G36*
X1046000Y584500D02*
X1031500D01*
Y600000D01*
X1046000D01*
Y584500D01*
D02*
G37*
G36*
X1468500Y576750D02*
X1454000D01*
Y592250D01*
X1468500D01*
Y576750D01*
D02*
G37*
G36*
X1400000D02*
X1377500D01*
Y609750D01*
X1400000D01*
Y576750D01*
D02*
G37*
G36*
X1122500Y567000D02*
X1100000D01*
Y600500D01*
X1122500D01*
Y567000D01*
D02*
G37*
G36*
X1489000Y566250D02*
X1454000D01*
Y575749D01*
X1468500D01*
X1468587Y575753D01*
X1468674Y575764D01*
X1468759Y575783D01*
X1468842Y575809D01*
X1468923Y575843D01*
X1469001Y575883D01*
X1469074Y575930D01*
X1469143Y575983D01*
X1469208Y576042D01*
X1469267Y576107D01*
X1469320Y576176D01*
X1469367Y576250D01*
X1469407Y576327D01*
X1469441Y576408D01*
X1469467Y576491D01*
X1469486Y576576D01*
X1469497Y576663D01*
X1469501Y576750D01*
Y581750D01*
X1489000D01*
Y566250D01*
D02*
G37*
G36*
X1030499Y584500D02*
X1030503Y584413D01*
X1030514Y584326D01*
X1030533Y584241D01*
X1030559Y584158D01*
X1030593Y584077D01*
X1030633Y583999D01*
X1030680Y583926D01*
X1030733Y583857D01*
X1030792Y583792D01*
X1030857Y583733D01*
X1030926Y583680D01*
X1031000Y583633D01*
X1031077Y583593D01*
X1031158Y583559D01*
X1031241Y583533D01*
X1031326Y583514D01*
X1031413Y583503D01*
X1031500Y583499D01*
X1034500D01*
Y553545D01*
X1032656Y551701D01*
X1019000D01*
X1018786Y551697D01*
X1018572Y551686D01*
X1018359Y551667D01*
X1018146Y551640D01*
X1017934Y551606D01*
X1017724Y551564D01*
X1017516Y551515D01*
X1017463Y551500D01*
X1003001D01*
Y578000D01*
X1011000D01*
Y591500D01*
X1030499D01*
Y584500D01*
D02*
G37*
G36*
X1167500Y550500D02*
X1163000Y555000D01*
Y555000D01*
X1158500Y550500D01*
X1158500Y557168D01*
X1167500D01*
Y550500D01*
D02*
G37*
G36*
X1340500Y551500D02*
X1336000Y547000D01*
X1331500Y551500D01*
Y554033D01*
X1340500D01*
Y551500D01*
D02*
G37*
G36*
X1167500Y547000D02*
Y544468D01*
X1158500D01*
Y547000D01*
X1163000Y551500D01*
X1167500Y547000D01*
D02*
G37*
G36*
X1340500Y541333D02*
X1331500D01*
Y548000D01*
X1336000Y543500D01*
Y543500D01*
X1340500Y548000D01*
X1340500Y541333D01*
D02*
G37*
G36*
X1447000Y575250D02*
Y530250D01*
X1414000D01*
Y578250D01*
X1419000Y583250D01*
X1439000D01*
X1447000Y575250D01*
D02*
G37*
G36*
X1383000Y520000D02*
X1350000D01*
Y543000D01*
X1383000D01*
Y520000D01*
D02*
G37*
G36*
X1065249Y557450D02*
Y556150D01*
X1065253Y556035D01*
X1065264Y555922D01*
X1065283Y555808D01*
X1065309Y555697D01*
X1065342Y555587D01*
X1065382Y555480D01*
X1065430Y555376D01*
X1065484Y555275D01*
X1065544Y555177D01*
X1065611Y555084D01*
X1065684Y554995D01*
X1065762Y554912D01*
X1065845Y554834D01*
X1065934Y554761D01*
X1066027Y554694D01*
X1066124Y554634D01*
X1066226Y554580D01*
X1066330Y554532D01*
X1066437Y554492D01*
X1066547Y554459D01*
X1066658Y554433D01*
X1066771Y554414D01*
X1066886Y554403D01*
X1067000Y554399D01*
X1080000D01*
X1080115Y554403D01*
X1080229Y554414D01*
X1080342Y554433D01*
X1080453Y554459D01*
X1080563Y554492D01*
X1080670Y554532D01*
X1080774Y554580D01*
X1080875Y554634D01*
X1080973Y554694D01*
X1081066Y554761D01*
X1081154Y554834D01*
X1081238Y554912D01*
X1081316Y554995D01*
X1081389Y555084D01*
X1081456Y555177D01*
X1081516Y555275D01*
X1081570Y555376D01*
X1081618Y555480D01*
X1081658Y555587D01*
X1081691Y555697D01*
X1081717Y555808D01*
X1081736Y555922D01*
X1081747Y556035D01*
X1081751Y556150D01*
Y556500D01*
X1105000D01*
X1122500Y539000D01*
X1122500Y503001D01*
X1098500D01*
Y521500D01*
X1081000Y539000D01*
D01*
X1047500D01*
Y561000D01*
X1061699D01*
X1065249Y557450D01*
D02*
G37*
G36*
X1010749Y543450D02*
X1010753Y543335D01*
X1010764Y543222D01*
X1010783Y543108D01*
X1010809Y542997D01*
X1010842Y542887D01*
X1010882Y542780D01*
X1010930Y542676D01*
X1010984Y542575D01*
X1011044Y542477D01*
X1011111Y542384D01*
X1011184Y542295D01*
X1011262Y542212D01*
X1011346Y542134D01*
X1011434Y542061D01*
X1011527Y541994D01*
X1011625Y541934D01*
X1011726Y541880D01*
X1011830Y541832D01*
X1011937Y541792D01*
X1012047Y541759D01*
X1012158Y541733D01*
X1012271Y541714D01*
X1012385Y541703D01*
X1012500Y541699D01*
X1014529D01*
X1014608Y541611D01*
X1014757Y541457D01*
X1014911Y541308D01*
X1015070Y541165D01*
X1015235Y541027D01*
X1015404Y540896D01*
X1015577Y540771D01*
X1015756Y540652D01*
X1015938Y540539D01*
X1016124Y540433D01*
X1016314Y540334D01*
X1016507Y540241D01*
X1016703Y540156D01*
X1016903Y540077D01*
X1017105Y540006D01*
X1017309Y539942D01*
X1017516Y539885D01*
X1017724Y539836D01*
X1017934Y539794D01*
X1018146Y539760D01*
X1018359Y539733D01*
X1018572Y539714D01*
X1018786Y539703D01*
X1019000Y539699D01*
X1026000D01*
Y503001D01*
X1003001D01*
Y545000D01*
X1010749D01*
Y543450D01*
D02*
G37*
%LPC*%
G36*
X1062582Y968280D02*
X1062418D01*
X1062255Y968273D01*
X1062092Y968259D01*
X1061929Y968237D01*
X1061768Y968209D01*
X1061609Y968173D01*
X1061450Y968131D01*
X1061294Y968082D01*
X1061141Y968026D01*
X1060989Y967963D01*
X1060841Y967894D01*
X1060696Y967819D01*
X1060554Y967737D01*
X1060416Y967649D01*
X1060282Y967555D01*
X1060152Y967455D01*
X1060027Y967350D01*
X1059906Y967240D01*
X1059790Y967124D01*
X1059680Y967003D01*
X1059575Y966878D01*
X1059475Y966748D01*
X1059381Y966614D01*
X1059293Y966476D01*
X1059212Y966334D01*
X1059136Y966189D01*
X1059067Y966041D01*
X1059004Y965890D01*
X1058948Y965736D01*
X1058899Y965580D01*
X1058857Y965422D01*
X1058821Y965262D01*
X1058793Y965101D01*
X1058771Y964938D01*
X1058757Y964775D01*
X1058750Y964612D01*
Y964448D01*
X1058757Y964285D01*
X1058771Y964122D01*
X1058793Y963959D01*
X1058821Y963798D01*
X1058857Y963639D01*
X1058899Y963480D01*
X1058948Y963324D01*
X1059004Y963170D01*
X1059067Y963019D01*
X1059136Y962871D01*
X1059212Y962726D01*
X1059293Y962584D01*
X1059381Y962446D01*
X1059475Y962312D01*
X1059575Y962182D01*
X1059680Y962057D01*
X1059790Y961936D01*
X1059906Y961821D01*
X1060027Y961710D01*
X1060152Y961605D01*
X1060282Y961505D01*
X1060416Y961411D01*
X1060554Y961323D01*
X1060696Y961242D01*
X1060841Y961166D01*
X1060989Y961097D01*
X1061141Y961034D01*
X1061294Y960978D01*
X1061450Y960929D01*
X1061609Y960887D01*
X1061768Y960851D01*
X1061929Y960823D01*
X1062092Y960801D01*
X1062255Y960787D01*
X1062418Y960780D01*
X1062582D01*
X1062745Y960787D01*
X1062908Y960801D01*
X1062932Y960805D01*
X1063215Y960678D01*
X1063354Y960576D01*
X1063573Y960352D01*
X1063675Y960203D01*
X1063778Y959955D01*
X1063771Y959908D01*
X1063757Y959745D01*
X1063750Y959582D01*
Y959418D01*
X1063757Y959255D01*
X1063771Y959092D01*
X1063793Y958929D01*
X1063821Y958768D01*
X1063857Y958608D01*
X1063899Y958450D01*
X1063948Y958294D01*
X1064004Y958141D01*
X1064067Y957989D01*
X1064136Y957841D01*
X1064212Y957696D01*
X1064293Y957554D01*
X1064381Y957416D01*
X1064475Y957282D01*
X1064575Y957152D01*
X1064680Y957027D01*
X1064790Y956906D01*
X1064906Y956790D01*
X1065027Y956680D01*
X1065152Y956575D01*
X1065282Y956475D01*
X1065416Y956381D01*
X1065554Y956293D01*
X1065696Y956211D01*
X1065841Y956136D01*
X1065989Y956067D01*
X1066141Y956004D01*
X1066294Y955948D01*
X1066450Y955899D01*
X1066609Y955857D01*
X1066768Y955821D01*
X1066929Y955793D01*
X1067092Y955771D01*
X1067255Y955757D01*
X1067418Y955750D01*
X1067582D01*
X1067745Y955757D01*
X1067908Y955771D01*
X1068071Y955793D01*
X1068232Y955821D01*
X1068391Y955857D01*
X1068550Y955899D01*
X1068706Y955948D01*
X1068859Y956004D01*
X1069011Y956067D01*
X1069159Y956136D01*
X1069304Y956211D01*
X1069446Y956293D01*
X1069584Y956381D01*
X1069718Y956475D01*
X1069848Y956575D01*
X1069973Y956680D01*
X1070094Y956790D01*
X1070210Y956906D01*
X1070320Y957027D01*
X1070425Y957152D01*
X1070525Y957282D01*
X1070619Y957416D01*
X1070707Y957554D01*
X1070788Y957696D01*
X1070864Y957841D01*
X1070933Y957989D01*
X1070996Y958141D01*
X1071052Y958294D01*
X1071101Y958450D01*
X1071143Y958608D01*
X1071179Y958768D01*
X1071207Y958929D01*
X1071229Y959092D01*
X1071243Y959255D01*
X1071250Y959418D01*
Y959582D01*
X1071243Y959745D01*
X1071229Y959908D01*
X1071207Y960071D01*
X1071179Y960232D01*
X1071143Y960392D01*
X1071101Y960550D01*
X1071052Y960706D01*
X1070996Y960860D01*
X1070933Y961011D01*
X1070864Y961159D01*
X1070788Y961304D01*
X1070707Y961446D01*
X1070619Y961584D01*
X1070525Y961718D01*
X1070425Y961848D01*
X1070320Y961973D01*
X1070210Y962094D01*
X1070094Y962209D01*
X1069973Y962320D01*
X1069848Y962425D01*
X1069718Y962525D01*
X1069584Y962619D01*
X1069446Y962707D01*
X1069304Y962788D01*
X1069159Y962864D01*
X1069011Y962933D01*
X1068859Y962996D01*
X1068706Y963052D01*
X1068550Y963101D01*
X1068391Y963143D01*
X1068232Y963179D01*
X1068071Y963207D01*
X1067908Y963229D01*
X1067745Y963243D01*
X1067582Y963250D01*
X1067418D01*
X1067255Y963243D01*
X1067092Y963229D01*
X1067068Y963225D01*
X1066785Y963352D01*
X1066646Y963454D01*
X1066427Y963678D01*
X1066325Y963827D01*
X1066223Y964075D01*
X1066229Y964122D01*
X1066243Y964285D01*
X1066250Y964448D01*
Y964612D01*
X1066243Y964775D01*
X1066229Y964938D01*
X1066207Y965101D01*
X1066179Y965262D01*
X1066143Y965422D01*
X1066101Y965580D01*
X1066052Y965736D01*
X1065996Y965890D01*
X1065933Y966041D01*
X1065864Y966189D01*
X1065788Y966334D01*
X1065707Y966476D01*
X1065619Y966614D01*
X1065525Y966748D01*
X1065425Y966878D01*
X1065320Y967003D01*
X1065210Y967124D01*
X1065094Y967240D01*
X1064973Y967350D01*
X1064848Y967455D01*
X1064718Y967555D01*
X1064584Y967649D01*
X1064446Y967737D01*
X1064304Y967819D01*
X1064159Y967894D01*
X1064011Y967963D01*
X1063859Y968026D01*
X1063706Y968082D01*
X1063550Y968131D01*
X1063391Y968173D01*
X1063232Y968209D01*
X1063071Y968237D01*
X1062908Y968259D01*
X1062745Y968273D01*
X1062582Y968280D01*
D02*
G37*
G36*
X1065281Y921065D02*
X1065176Y921061D01*
X1065072Y921051D01*
X1064969Y921034D01*
X1064867Y921010D01*
X1064766Y920980D01*
X1064668Y920943D01*
X1064573Y920900D01*
X1064481Y920850D01*
X1064392Y920795D01*
X1064306Y920734D01*
X1064225Y920667D01*
X1064149Y920596D01*
X1058824Y915271D01*
X1058752Y915194D01*
X1058686Y915113D01*
X1058625Y915028D01*
X1058570Y914939D01*
X1058520Y914847D01*
X1058477Y914752D01*
X1058440Y914653D01*
X1058410Y914553D01*
X1058386Y914451D01*
X1058369Y914348D01*
X1058359Y914244D01*
X1058355Y914139D01*
X1058359Y914034D01*
X1058369Y913930D01*
X1058386Y913827D01*
X1058410Y913725D01*
X1058440Y913624D01*
X1058477Y913526D01*
X1058520Y913431D01*
X1058570Y913338D01*
X1058625Y913250D01*
X1058686Y913164D01*
X1058752Y913083D01*
X1058824Y913007D01*
X1058901Y912935D01*
X1058981Y912869D01*
X1059067Y912808D01*
X1059156Y912753D01*
X1059248Y912703D01*
X1059343Y912660D01*
X1059441Y912623D01*
X1059542Y912593D01*
X1059644Y912569D01*
X1059747Y912552D01*
X1059851Y912542D01*
X1059956Y912538D01*
X1060061Y912542D01*
X1060165Y912552D01*
X1060268Y912569D01*
X1060370Y912593D01*
X1060471Y912623D01*
X1060569Y912660D01*
X1060664Y912703D01*
X1060757Y912753D01*
X1060845Y912808D01*
X1060931Y912869D01*
X1061012Y912935D01*
X1061088Y913007D01*
X1066413Y918332D01*
X1066485Y918408D01*
X1066551Y918489D01*
X1066612Y918575D01*
X1066667Y918663D01*
X1066717Y918756D01*
X1066760Y918851D01*
X1066797Y918949D01*
X1066827Y919050D01*
X1066851Y919152D01*
X1066868Y919255D01*
X1066879Y919359D01*
X1066882Y919464D01*
X1066879Y919569D01*
X1066868Y919673D01*
X1066851Y919776D01*
X1066827Y919878D01*
X1066797Y919978D01*
X1066760Y920077D01*
X1066717Y920172D01*
X1066667Y920264D01*
X1066612Y920353D01*
X1066551Y920438D01*
X1066485Y920519D01*
X1066413Y920596D01*
X1066337Y920667D01*
X1066256Y920734D01*
X1066170Y920795D01*
X1066081Y920850D01*
X1065989Y920900D01*
X1065894Y920943D01*
X1065796Y920980D01*
X1065695Y921010D01*
X1065593Y921034D01*
X1065490Y921051D01*
X1065386Y921061D01*
X1065281Y921065D01*
D02*
G37*
%LPD*%
D10*
X1378000Y887000D02*
X1385000D01*
X1385500Y886500D01*
D11*
X1404100Y976100D02*
X1416641D01*
X1403500Y975500D02*
X1404100Y976100D01*
X1392000Y975500D02*
X1403500D01*
D14*
X1036000Y835500D02*
Y843500D01*
X1035500Y843000D02*
Y844000D01*
X1036000Y835500D02*
X1039500Y832000D01*
X1035500Y844000D02*
X1036000Y843500D01*
X1032500Y840000D02*
X1035500Y843000D01*
X1010500Y837000D02*
X1029458D01*
X1032458Y840000D02*
X1032500D01*
X1029458Y837000D02*
X1032458Y840000D01*
X1157000Y615500D02*
X1158500Y617000D01*
Y627343D01*
X1155000Y630843D02*
X1158500Y627343D01*
X1144000Y623500D02*
X1151918D01*
X1152918Y624500D02*
X1154000D01*
X1151918Y623500D02*
X1152918Y624500D01*
X1141500Y621000D02*
X1144000Y623500D01*
X1155000Y630843D02*
Y631500D01*
X1008500Y839000D02*
X1010500Y837000D01*
X1381927Y900500D02*
X1383430D01*
X1373003D02*
X1381927D01*
X1317900Y528100D02*
X1321500D01*
X1306000Y540000D02*
X1317900Y528100D01*
X1325000Y523500D02*
Y524600D01*
X1321500Y528100D02*
X1325000Y524600D01*
D15*
X1198500Y783500D02*
D03*
X1182500D02*
D03*
X1060500Y844500D02*
D03*
X1044500D02*
D03*
X1475500Y695250D02*
D03*
X1491500D02*
D03*
X1475500Y521250D02*
D03*
X1491500D02*
D03*
X1024500Y655500D02*
D03*
X1008500D02*
D03*
X1023500Y828000D02*
D03*
X1007500D02*
D03*
X1173000Y758500D02*
D03*
X1189000D02*
D03*
X1355500Y900500D02*
D03*
X1371500D02*
D03*
X1366500Y755000D02*
D03*
X1350500D02*
D03*
X1385500Y886500D02*
D03*
X1369500D02*
D03*
X1325500Y744000D02*
D03*
X1341500D02*
D03*
X1171000Y573000D02*
D03*
X1155000D02*
D03*
X1306500Y555500D02*
D03*
X1322500D02*
D03*
X1325000Y524000D02*
D03*
X1309000D02*
D03*
X1157000Y615500D02*
D03*
X1173000D02*
D03*
X1147000Y660500D02*
D03*
X1163000D02*
D03*
X1338500Y681500D02*
D03*
X1322500D02*
D03*
X1175002Y966994D02*
D03*
X1191002D02*
D03*
Y989994D02*
D03*
X1175002D02*
D03*
X1191002Y954994D02*
D03*
X1175002D02*
D03*
X1175000Y895000D02*
D03*
X1191000D02*
D03*
Y918000D02*
D03*
X1175000D02*
D03*
X1191000Y883000D02*
D03*
X1175000D02*
D03*
X1035500Y844000D02*
D03*
X1019500D02*
D03*
X1151500Y868500D02*
D03*
X1167500D02*
D03*
X1128500Y911000D02*
D03*
X1112500D02*
D03*
X1177500Y771000D02*
D03*
X1161500D02*
D03*
X1135500Y770500D02*
D03*
X1151500D02*
D03*
X1265000Y520000D02*
D03*
X1281000D02*
D03*
X1198500Y577000D02*
D03*
X1182500D02*
D03*
X1192500Y626500D02*
D03*
X1176500D02*
D03*
X1287000Y599500D02*
D03*
X1271000D02*
D03*
X1212500Y748000D02*
D03*
X1228500D02*
D03*
X1304502Y934494D02*
D03*
X1320502D02*
D03*
X1175002Y978494D02*
D03*
X1191002D02*
D03*
X1218502Y958494D02*
D03*
X1202502D02*
D03*
X1202502Y991494D02*
D03*
X1218502D02*
D03*
X1304500Y862500D02*
D03*
X1320500D02*
D03*
X1175000Y906500D02*
D03*
X1191000D02*
D03*
X1218500Y886500D02*
D03*
X1202500D02*
D03*
X1202500Y919500D02*
D03*
X1218500D02*
D03*
X1112456Y854639D02*
D03*
X1128456D02*
D03*
X1112500Y923000D02*
D03*
X1128500D02*
D03*
D16*
X1069500Y813250D02*
D03*
X1133500D02*
D03*
X1069500Y640000D02*
D03*
X1133500D02*
D03*
X1444500Y710000D02*
D03*
X1380500D02*
D03*
X1430500Y536750D02*
D03*
X1366500D02*
D03*
X1088000Y964500D02*
D03*
X1152000D02*
D03*
D17*
X1219402Y968994D02*
D03*
Y973994D02*
D03*
Y978994D02*
D03*
X1204602D02*
D03*
Y973994D02*
D03*
Y968994D02*
D03*
X1219400Y897000D02*
D03*
Y902000D02*
D03*
Y907000D02*
D03*
X1204600D02*
D03*
Y902000D02*
D03*
Y897000D02*
D03*
D18*
X1399073Y900500D02*
D03*
X1381927D02*
D03*
X1130427Y594000D02*
D03*
X1147572D02*
D03*
X1322428Y669500D02*
D03*
X1339572D02*
D03*
D19*
X1290500Y808428D02*
D03*
Y825573D02*
D03*
X1305000Y808428D02*
D03*
Y825573D02*
D03*
X1163000Y541927D02*
D03*
Y559072D02*
D03*
X1336000Y556572D02*
D03*
Y539427D02*
D03*
X1165000Y643073D02*
D03*
Y625928D02*
D03*
D20*
X1384000Y831250D02*
D03*
Y767250D02*
D03*
Y657250D02*
D03*
Y593250D02*
D03*
X1116000Y520000D02*
D03*
Y584000D02*
D03*
Y692750D02*
D03*
Y756750D02*
D03*
D21*
X1188500Y614250D02*
D03*
Y589750D02*
D03*
D22*
X1246500Y584000D02*
D03*
X1223500D02*
D03*
Y602000D02*
D03*
X1246500D02*
D03*
D23*
X1481000Y754250D02*
D03*
Y766950D02*
D03*
Y779650D02*
D03*
Y792350D02*
D03*
Y805050D02*
D03*
Y817750D02*
D03*
Y830450D02*
D03*
Y843150D02*
D03*
X1426500Y754250D02*
D03*
Y766950D02*
D03*
Y779650D02*
D03*
Y792350D02*
D03*
Y805050D02*
D03*
Y817750D02*
D03*
Y830450D02*
D03*
Y843150D02*
D03*
X1481000Y580250D02*
D03*
Y592950D02*
D03*
Y605650D02*
D03*
Y618350D02*
D03*
Y631050D02*
D03*
Y643750D02*
D03*
Y656450D02*
D03*
Y669150D02*
D03*
X1426500Y580250D02*
D03*
Y592950D02*
D03*
Y605650D02*
D03*
Y618350D02*
D03*
Y631050D02*
D03*
Y643750D02*
D03*
Y656450D02*
D03*
Y669150D02*
D03*
X1019000Y596500D02*
D03*
Y583800D02*
D03*
Y571100D02*
D03*
Y558400D02*
D03*
Y545700D02*
D03*
Y533000D02*
D03*
Y520300D02*
D03*
Y507600D02*
D03*
X1073500Y596500D02*
D03*
Y583800D02*
D03*
Y571100D02*
D03*
Y558400D02*
D03*
Y545700D02*
D03*
Y533000D02*
D03*
Y520300D02*
D03*
Y507600D02*
D03*
X1019000Y769750D02*
D03*
Y757050D02*
D03*
Y744350D02*
D03*
Y731650D02*
D03*
Y718950D02*
D03*
Y706250D02*
D03*
Y693550D02*
D03*
Y680850D02*
D03*
X1073500Y769750D02*
D03*
Y757050D02*
D03*
Y744350D02*
D03*
Y731650D02*
D03*
Y718950D02*
D03*
Y706250D02*
D03*
Y693550D02*
D03*
Y680850D02*
D03*
D24*
X1388500Y925000D02*
D03*
X1379000D02*
D03*
X1369500D02*
D03*
Y949000D02*
D03*
X1379000D02*
D03*
X1388500D02*
D03*
X1478500Y925000D02*
D03*
X1469000D02*
D03*
X1459500D02*
D03*
Y949000D02*
D03*
X1469000D02*
D03*
X1478500D02*
D03*
X1433500Y925000D02*
D03*
X1424000D02*
D03*
X1414500D02*
D03*
Y949000D02*
D03*
X1424000D02*
D03*
X1433500D02*
D03*
D25*
X1212500Y618300D02*
D03*
X1217500D02*
D03*
X1222500D02*
D03*
X1227500D02*
D03*
X1232500D02*
D03*
X1237500D02*
D03*
X1242500D02*
D03*
X1247500D02*
D03*
X1252500D02*
D03*
X1257500D02*
D03*
X1262500D02*
D03*
X1267500D02*
D03*
X1272500D02*
D03*
X1277500D02*
D03*
X1282500D02*
D03*
X1287500D02*
D03*
Y731700D02*
D03*
X1282500D02*
D03*
X1277500D02*
D03*
X1272500D02*
D03*
X1267500D02*
D03*
X1262500D02*
D03*
X1257500D02*
D03*
X1252500D02*
D03*
X1247500D02*
D03*
X1242500D02*
D03*
X1237500D02*
D03*
X1232500D02*
D03*
X1227500D02*
D03*
X1222500D02*
D03*
X1217500D02*
D03*
X1212500D02*
D03*
D26*
X1306700Y637500D02*
D03*
Y642500D02*
D03*
Y647500D02*
D03*
Y652500D02*
D03*
Y657500D02*
D03*
Y662500D02*
D03*
Y667500D02*
D03*
Y672500D02*
D03*
Y677500D02*
D03*
Y682500D02*
D03*
Y687500D02*
D03*
Y692500D02*
D03*
Y697500D02*
D03*
Y702500D02*
D03*
Y707500D02*
D03*
Y712500D02*
D03*
X1193300D02*
D03*
Y707500D02*
D03*
Y702500D02*
D03*
Y697500D02*
D03*
Y692500D02*
D03*
Y687500D02*
D03*
Y682500D02*
D03*
Y677500D02*
D03*
Y672500D02*
D03*
Y667500D02*
D03*
Y662500D02*
D03*
Y657500D02*
D03*
Y652500D02*
D03*
Y647500D02*
D03*
Y642500D02*
D03*
Y637500D02*
D03*
D27*
X1429000Y867000D02*
D03*
X1454000D02*
D03*
X1479000D02*
D03*
X1429000Y891000D02*
D03*
X1454000D02*
D03*
X1479000D02*
D03*
D28*
X1331500Y782500D02*
D03*
Y847500D02*
D03*
Y632500D02*
D03*
Y567500D02*
D03*
D29*
X1241500Y546000D02*
D03*
X1176500D02*
D03*
D30*
X1464000Y682000D02*
D03*
Y698000D02*
D03*
X1460000Y552250D02*
D03*
Y536250D02*
D03*
X1040000Y624500D02*
D03*
Y640500D02*
D03*
X1039000Y797500D02*
D03*
Y813500D02*
D03*
X1188500Y746000D02*
D03*
Y730000D02*
D03*
X1292000Y798500D02*
D03*
Y782500D02*
D03*
X1306000Y799000D02*
D03*
Y783000D02*
D03*
X1310500Y773500D02*
D03*
Y757500D02*
D03*
X1403500Y975500D02*
D03*
Y959500D02*
D03*
X1392000Y975500D02*
D03*
Y959500D02*
D03*
X1276500Y812000D02*
D03*
Y796000D02*
D03*
X1262500Y812000D02*
D03*
Y796000D02*
D03*
X1453000Y978500D02*
D03*
Y962500D02*
D03*
X1486000Y979500D02*
D03*
Y963500D02*
D03*
X1141500Y621000D02*
D03*
Y605000D02*
D03*
X1400000Y885000D02*
D03*
Y869000D02*
D03*
X1160000Y602000D02*
D03*
Y586000D02*
D03*
X1372500Y982000D02*
D03*
Y966000D02*
D03*
X1360500Y982000D02*
D03*
Y966000D02*
D03*
X1140000Y909000D02*
D03*
Y925000D02*
D03*
X1008500Y855000D02*
D03*
Y839000D02*
D03*
X1141500Y869500D02*
D03*
Y853500D02*
D03*
X1243500Y805000D02*
D03*
Y789000D02*
D03*
X1327500Y755500D02*
D03*
Y771500D02*
D03*
X1239000Y815000D02*
D03*
Y831000D02*
D03*
X1340000Y771500D02*
D03*
Y755500D02*
D03*
X1401500Y929000D02*
D03*
Y945000D02*
D03*
X1298000Y615000D02*
D03*
Y599000D02*
D03*
X1491000Y929000D02*
D03*
Y945000D02*
D03*
X1210000Y585000D02*
D03*
Y601000D02*
D03*
X1260000D02*
D03*
Y585000D02*
D03*
X1177500Y637000D02*
D03*
Y653000D02*
D03*
X1324000Y659000D02*
D03*
Y643000D02*
D03*
X1326000Y710000D02*
D03*
Y694000D02*
D03*
X1446500Y929000D02*
D03*
Y945000D02*
D03*
X1040500Y985500D02*
D03*
Y969500D02*
D03*
X1101000Y908500D02*
D03*
Y924500D02*
D03*
X1139956Y879139D02*
D03*
Y895139D02*
D03*
X1101956Y869639D02*
D03*
Y853639D02*
D03*
D31*
X1276500Y824000D02*
D03*
Y840000D02*
D03*
X1262206Y839998D02*
D03*
Y823998D02*
D03*
D32*
X1287002Y961994D02*
D03*
X1236002D02*
D03*
X1287000Y890000D02*
D03*
X1236000D02*
D03*
D33*
X1059956Y914139D02*
D03*
Y863139D02*
D03*
D34*
X1182200Y803000D02*
D03*
Y842000D02*
D03*
X1169500Y803000D02*
D03*
Y842000D02*
D03*
X1156800Y803000D02*
D03*
Y842000D02*
D03*
X1222200Y803000D02*
D03*
Y842000D02*
D03*
X1209500Y803000D02*
D03*
Y842000D02*
D03*
X1196800Y803000D02*
D03*
Y842000D02*
D03*
D35*
X1471500Y727550D02*
D03*
Y707950D02*
D03*
X1491500Y717750D02*
D03*
X1471500Y553550D02*
D03*
Y533950D02*
D03*
X1491500Y543750D02*
D03*
X1028500Y623200D02*
D03*
Y642800D02*
D03*
X1008500Y633000D02*
D03*
X1028000Y796700D02*
D03*
Y816300D02*
D03*
X1008000Y806500D02*
D03*
D36*
X1018500Y988000D02*
D03*
Y948000D02*
D03*
X1339500Y988000D02*
D03*
Y948000D02*
D03*
D37*
X1311000Y577500D02*
D03*
X1285000D02*
D03*
X1217002Y938494D02*
D03*
X1191002D02*
D03*
X1217000Y866500D02*
D03*
X1191000D02*
D03*
D38*
X1310502Y947494D02*
D03*
Y973494D02*
D03*
X1310500Y875500D02*
D03*
Y901500D02*
D03*
X1014000Y908000D02*
D03*
Y882000D02*
D03*
X1157456Y880639D02*
D03*
Y906639D02*
D03*
D65*
X1125456Y880139D02*
D03*
X1115456Y885139D02*
D03*
X1125456Y890139D02*
D03*
D66*
X1111456Y880139D02*
D03*
D67*
X1127956Y871139D02*
D03*
X1122956D02*
D03*
X1117956D02*
D03*
X1112956D02*
D03*
Y899139D02*
D03*
X1117956D02*
D03*
X1122956D02*
D03*
X1127956D02*
D03*
D68*
X1136000Y584500D02*
X1142000D01*
X1133883Y584383D02*
X1135883D01*
X1133500Y584000D02*
X1133883Y584383D01*
X1135883D02*
X1136000Y584500D01*
Y569500D02*
Y584500D01*
X1136000Y584500D02*
X1136000Y584500D01*
X1191683Y784866D02*
X1197133D01*
X1198500Y783500D01*
X1112456Y854639D02*
X1112956Y855139D01*
Y871139D01*
X1110500Y864000D02*
X1112500D01*
X1096000Y746765D02*
X1114382Y728383D01*
X1096000Y746765D02*
Y772500D01*
X1092000Y776500D02*
X1096000Y772500D01*
X1092000Y776500D02*
Y817993D01*
X1253000Y797000D02*
Y801000D01*
X1246000Y791000D02*
X1247000D01*
X1244000Y789000D02*
X1246000Y791000D01*
X1247000D02*
X1253000Y797000D01*
X1177559Y702400D02*
X1179459Y700500D01*
X1180000D01*
X1161600Y702400D02*
X1177559D01*
X1155883Y708117D02*
X1161600Y702400D01*
X1153883Y708117D02*
X1155883D01*
X1153500Y708500D02*
X1153883Y708117D01*
X1366500Y755500D02*
X1366750Y755250D01*
X1297500Y782000D02*
Y783715D01*
X1290500Y781500D02*
X1298000D01*
X1326000Y694000D02*
X1335485D01*
X1324500D02*
X1326000D01*
X1338500Y681500D02*
Y691500D01*
X1338242D02*
X1338500D01*
X1337985D02*
X1338242D01*
X1320500Y644500D02*
X1325500D01*
X1267500Y618300D02*
Y635500D01*
X1284000Y577500D02*
Y582000D01*
X1175883Y771117D02*
X1178000Y769000D01*
X1207929Y724072D02*
X1208312Y724455D01*
X1211105D02*
X1212500Y725850D01*
X1208312Y724455D02*
X1211105D01*
X1212500Y725850D02*
Y746500D01*
X1091213Y855500D02*
X1100095D01*
X1066993Y856102D02*
X1090611D01*
X1100095Y855500D02*
X1101956Y853639D01*
X1090611Y856102D02*
X1091213Y855500D01*
X1019500Y844000D02*
Y854000D01*
X1023000Y857500D01*
Y864000D01*
X1065000Y825000D02*
X1084993D01*
X1058000Y825000D02*
X1065000D01*
X1065000Y825000D01*
X1084993D02*
X1092000Y817993D01*
X1143500Y779500D02*
Y788000D01*
X1135500Y771500D02*
X1143500Y779500D01*
X1118617Y728383D02*
X1140500Y706500D01*
Y694500D02*
Y706500D01*
X1114382Y728383D02*
X1118617D01*
X1135500Y770500D02*
Y771500D01*
X1419550Y933535D02*
X1424000Y937985D01*
Y949000D01*
X1419550Y933500D02*
Y933535D01*
X1469000Y938733D02*
Y949000D01*
X1464114Y933848D02*
X1469000Y938733D01*
X1379000Y938688D02*
Y949000D01*
X1374092Y933779D02*
X1379000Y938688D01*
X1109639Y880139D02*
X1111456D01*
X1104956Y875456D02*
X1109639Y880139D01*
X1101956Y869639D02*
X1102956D01*
X1104956Y871639D01*
Y875456D01*
X1337000Y757500D02*
X1339000Y755500D01*
X1332500Y762538D02*
X1337000Y758038D01*
Y757500D02*
Y758038D01*
X1332500Y762538D02*
Y767500D01*
X1328500Y771500D02*
X1332500Y767500D01*
X1339000Y755500D02*
X1340000D01*
X1366750Y755250D02*
X1373250D01*
X1373500Y755500D01*
X1176000Y635000D02*
X1177750Y636750D01*
X1318500Y712500D02*
X1319420Y711580D01*
X1324420D02*
X1326000Y710000D01*
X1319420Y711580D02*
X1324420D01*
X1306700Y712500D02*
X1318500D01*
X1326000Y710000D02*
X1326500D01*
X1318000Y700500D02*
Y705500D01*
X1306700Y707500D02*
X1316000D01*
X1318000Y705500D01*
X1335485Y694000D02*
X1337985Y691500D01*
X1401637Y904080D02*
X1404556Y907000D01*
X1399073Y900500D02*
X1401637Y903064D01*
X1453959Y907500D02*
X1454500D01*
X1404556Y907000D02*
X1453459D01*
X1401637Y903064D02*
Y904080D01*
X1453459Y907000D02*
X1453959Y907500D01*
X1059956Y863139D02*
X1066993Y856102D01*
X1203500Y907000D02*
X1204600D01*
X1202500Y918000D02*
X1203500Y917000D01*
Y907000D02*
Y917000D01*
X1202502Y989994D02*
X1203500Y988996D01*
Y978994D02*
Y988996D01*
Y978994D02*
X1204602D01*
X1236002Y961994D02*
Y982551D01*
X1218502Y989994D02*
X1228559D01*
X1236002Y982551D01*
X1228557Y918000D02*
X1236000Y910557D01*
X1218500Y918000D02*
X1228557D01*
X1236000Y890000D02*
Y910557D01*
X1217500Y731700D02*
Y739573D01*
Y723827D02*
Y731700D01*
X1193300Y642500D02*
X1203702D01*
X1185427D02*
X1193300D01*
X1145008Y587509D02*
Y591936D01*
X1142000Y584500D02*
X1145008Y587509D01*
X1161617Y587617D02*
X1167617D01*
X1160000Y586000D02*
X1161617Y587617D01*
X1167617D02*
X1168000Y588000D01*
X1321000Y652500D02*
X1321383Y652883D01*
Y657383D02*
X1323000Y659000D01*
X1321383Y652883D02*
Y657383D01*
X1325000Y661000D02*
X1332088D01*
X1339572Y668484D01*
X1323000Y659000D02*
X1325000Y661000D01*
X1175883Y779383D02*
X1179383D01*
X1175500Y779000D02*
X1175883Y779383D01*
X1179383D02*
X1182500Y782500D01*
X1175000Y760500D02*
X1181000D01*
X1173000Y758500D02*
X1175000Y760500D01*
X1181000Y752500D02*
Y760500D01*
X1280000Y837500D02*
Y837500D01*
X1286500Y831000D02*
X1286500D01*
X1280000Y837500D02*
X1286500Y831000D01*
X1277500Y840000D02*
X1280000Y837500D01*
X1286500Y831000D02*
X1287920Y829580D01*
X1276500Y840000D02*
X1277500D01*
X1330650Y836000D02*
Y846650D01*
X1331500Y847500D01*
X1400000Y885000D02*
X1410000D01*
X1408041Y879000D02*
X1455000D01*
X1406041Y877000D02*
X1408041Y879000D01*
X1405500Y877000D02*
X1406041D01*
X1329000Y703041D02*
Y707500D01*
X1326500Y710000D02*
X1329000Y707500D01*
Y703041D02*
X1329500Y702541D01*
Y702000D02*
Y702541D01*
X1301420Y828137D02*
X1303984Y825573D01*
X1301420Y828137D02*
Y831998D01*
X1303984Y825573D02*
X1305000D01*
X1300500Y832918D02*
Y834000D01*
Y832918D02*
X1301420Y831998D01*
X1313000Y760000D02*
X1318066D01*
X1318490Y760424D01*
X1310500Y757500D02*
X1313000Y760000D01*
X1318490Y760424D02*
X1319031D01*
X1177000Y637000D02*
X1177500D01*
X1174500Y639500D02*
X1177000Y637000D01*
X1174500Y639500D02*
Y645500D01*
X1121817Y847000D02*
X1128456Y853639D01*
X1121500Y847000D02*
X1121817D01*
X1176500Y626500D02*
X1178500Y624500D01*
X1183500D01*
X1181000Y646927D02*
Y650500D01*
Y646927D02*
X1185427Y642500D01*
X1178500Y653000D02*
X1181000Y650500D01*
X1208000Y599000D02*
X1210000Y601000D01*
X1208000Y594500D02*
Y599000D01*
X1145008Y591936D02*
X1147572Y594500D01*
X1272500Y610000D02*
Y642959D01*
X1271500Y643959D02*
X1272500Y642959D01*
X1271500Y643959D02*
Y644500D01*
X1265500Y644000D02*
X1265883Y643617D01*
Y637117D02*
X1267500Y635500D01*
X1265883Y637117D02*
Y643617D01*
X1014500Y872500D02*
X1023000Y864000D01*
X1217500Y739573D02*
X1219977Y742050D01*
X1290500Y825573D02*
X1305000D01*
X1171000Y572000D02*
X1176500Y566500D01*
Y560500D02*
Y566500D01*
Y560500D02*
X1176500Y560500D01*
X1188500D01*
X1176500Y546000D02*
Y560500D01*
X1171000Y572000D02*
Y573000D01*
X1127500Y554500D02*
Y561000D01*
Y554500D02*
X1158000D01*
X1127500Y531500D02*
Y554500D01*
X1158000D02*
X1158500Y554000D01*
X1127500Y561000D02*
X1136000Y569500D01*
X1180000Y580500D02*
X1182500Y578000D01*
X1176541Y582500D02*
X1178541Y580500D01*
X1182500Y577000D02*
Y578000D01*
X1178541Y580500D02*
X1180000D01*
X1176000Y582500D02*
X1176541D01*
X1192000Y564000D02*
Y568500D01*
X1188500Y560500D02*
X1192000Y564000D01*
X1325500Y744000D02*
Y756500D01*
X1265250Y519250D02*
Y528250D01*
X1199150Y637350D02*
Y637500D01*
X1336000Y539427D02*
X1337500Y537928D01*
Y521000D02*
Y537928D01*
X1306500Y556500D02*
X1314500Y564500D01*
X1328500D02*
X1331500Y567500D01*
X1314500Y564500D02*
X1328500D01*
X1306500Y555500D02*
Y556500D01*
X1331500Y567500D02*
Y586000D01*
X1326500Y591000D02*
X1331500Y586000D01*
X1306500Y590500D02*
Y606715D01*
Y589959D02*
Y590500D01*
X1193300Y637500D02*
X1199150D01*
X1178000D02*
X1193300D01*
X1201523Y647500D02*
X1202923Y648900D01*
X1193300Y647500D02*
X1201523D01*
X1202923Y648900D02*
X1203465D01*
X1274500Y608000D02*
X1274927D01*
X1272500Y610000D02*
X1274500Y608000D01*
X1274977Y607950D02*
X1280050D01*
X1274927Y608000D02*
X1274977Y607950D01*
X1203702Y642500D02*
X1203801Y642598D01*
X1267500Y606450D02*
Y618300D01*
X1288550Y586000D02*
X1293050Y590500D01*
X1300500D01*
X1288000Y586000D02*
X1288550D01*
X1300500Y590500D02*
Y596500D01*
X1306500Y589959D02*
X1307000Y589459D01*
X1213277Y719951D02*
X1213624D01*
X1217500Y723827D01*
X1199150Y637350D02*
X1203500Y633000D01*
X1326500Y645500D02*
Y649400D01*
X1280050Y607950D02*
X1287000Y601000D01*
X1177500Y653000D02*
X1178500D01*
X1226000Y745500D02*
X1228500Y748000D01*
X1226000Y743807D02*
Y745500D01*
X1224243Y742050D02*
X1226000Y743807D01*
X1219977Y742050D02*
X1224243D01*
X1325500Y644500D02*
X1326500Y645500D01*
X1307000Y581500D02*
Y589459D01*
Y581500D02*
X1311000Y577500D01*
X1301500Y611715D02*
X1306500Y606715D01*
X1301500Y611715D02*
Y612500D01*
X1299000Y615000D02*
X1301500Y612500D01*
X1265000Y519000D02*
X1265250Y519250D01*
Y528250D02*
X1265500Y528500D01*
X1295000Y694000D02*
Y699000D01*
X1298500Y702500D02*
X1306700D01*
X1295000Y699000D02*
X1298500Y702500D01*
X1306700Y647500D02*
X1315000D01*
X1320000Y652500D01*
X1306700Y642500D02*
X1318500D01*
X1322000D02*
X1322500Y643000D01*
X1318500Y642500D02*
X1322000D01*
X1318500D02*
X1320500Y644500D01*
X1339572Y668484D02*
Y669500D01*
X1338500Y681500D02*
X1338500Y681500D01*
X1284000Y582000D02*
X1288000Y586000D01*
X1325500Y756500D02*
X1325500Y756500D01*
X1210000Y601000D02*
X1222500D01*
X1298000Y615000D02*
X1299000D01*
X1298000Y599000D02*
X1300500Y596500D01*
X1278500Y522500D02*
X1281000Y520000D01*
Y519000D02*
Y520000D01*
X1271500Y528500D02*
X1277500Y522500D01*
X1278500D01*
X1271500Y528500D02*
X1271500D01*
X1247500Y585000D02*
X1260000D01*
X1258500Y586500D02*
Y591500D01*
Y586500D02*
X1260000Y585000D01*
X1287000Y600000D02*
Y601000D01*
X1267500Y606450D02*
X1268500Y605450D01*
Y602500D02*
Y605450D01*
Y602500D02*
X1271000Y600000D01*
X1246500Y584000D02*
X1247500Y585000D01*
X1222500Y601000D02*
X1223500Y602000D01*
X1245617Y806617D02*
X1252617D01*
X1253000Y807000D01*
X1244000Y805000D02*
X1245617Y806617D01*
X1175500Y779000D02*
X1175883Y778617D01*
Y771117D02*
Y778617D01*
X1187500Y746000D02*
X1188500D01*
X1181000Y752500D02*
X1187500Y746000D01*
X1182500Y782500D02*
Y783500D01*
X1212500Y746500D02*
X1213000Y747000D01*
X1318000Y700500D02*
X1324500Y694000D01*
X1298489Y784704D02*
Y788055D01*
X1298967Y788533D01*
X1297500Y783715D02*
X1298489Y784704D01*
X1297500Y782000D02*
X1298000Y781500D01*
X1319521Y766806D02*
X1321806D01*
X1326000Y771000D01*
X1319138Y766423D02*
X1319521Y766806D01*
X1231883Y813883D02*
X1237883D01*
X1239000Y815000D01*
X1231500Y813500D02*
X1231883Y813883D01*
X1231383Y829383D02*
X1237383D01*
X1231000Y829000D02*
X1231383Y829383D01*
X1237383D02*
X1239000Y831000D01*
X1263206Y839998D02*
X1268969Y834235D01*
Y830935D02*
X1269352Y830553D01*
X1268969Y830935D02*
Y834235D01*
X1262206Y839998D02*
X1263206D01*
X1319338Y760117D02*
X1321883D01*
X1319031Y760424D02*
X1319338Y760117D01*
X1321883D02*
X1325500Y756500D01*
X1327500Y771500D02*
X1328500D01*
X1298000Y781500D02*
X1305000D01*
X1305000Y825573D02*
X1305000Y825573D01*
X1175002Y966994D02*
X1181502D01*
X1175000Y895000D02*
X1181500D01*
X1128456Y853639D02*
Y854639D01*
X1117956Y866139D02*
X1128456Y855639D01*
X1117956Y866139D02*
Y871139D01*
D69*
X1124600Y587737D02*
X1130427Y593564D01*
X1124600Y566100D02*
Y587737D01*
X1130427Y593564D02*
Y594000D01*
X1091000Y571000D02*
X1093500D01*
X1102000Y562500D01*
X1106500D01*
X1073500Y583800D02*
X1083397D01*
X1085697Y581500D02*
X1086000D01*
X1083397Y583800D02*
X1085697Y581500D01*
X1077750Y706250D02*
X1086500Y697500D01*
X1091000D01*
X1338600Y740500D02*
X1341500Y743400D01*
X1333736Y740500D02*
X1338600D01*
X1329233Y735997D02*
X1333736Y740500D01*
X1307000Y726000D02*
Y741000D01*
X1301500Y746500D02*
X1307000Y741000D01*
X1294944Y751904D02*
X1295054Y752014D01*
X1277000Y746000D02*
X1292500D01*
X1294944Y748444D01*
Y751904D01*
X1105500Y672500D02*
X1110000Y668000D01*
X1133000D01*
X1105500Y672500D02*
X1105500D01*
X1301500Y562042D02*
Y576000D01*
X1277458Y538000D02*
X1301500Y562042D01*
X1277484Y724950D02*
Y731684D01*
Y722092D02*
Y724950D01*
Y722092D02*
X1278223Y721352D01*
X1281660D01*
X1282400Y720612D01*
Y718392D02*
Y720612D01*
X1281660Y717652D02*
X1282400Y718392D01*
X1278223Y717652D02*
X1281660D01*
X1277484Y716912D02*
X1278223Y717652D01*
X1277484Y712612D02*
Y716912D01*
Y709549D02*
Y712612D01*
X1277467Y709533D02*
X1277484Y709549D01*
X1131500Y674000D02*
X1145000Y687500D01*
Y723570D01*
X1260000Y680500D02*
X1296500D01*
X1257000Y677500D02*
X1260000Y680500D01*
X1257000Y670000D02*
Y677500D01*
X1243500Y675528D02*
X1251000Y683028D01*
X1248300Y703041D02*
X1251000Y700341D01*
Y683028D02*
Y700341D01*
X1237500Y723000D02*
Y731700D01*
Y723000D02*
X1239500Y721000D01*
Y694000D02*
Y721000D01*
X1235000Y689500D02*
X1239500Y694000D01*
X1241773Y689500D02*
X1242500Y690227D01*
Y731700D01*
X1243500Y674500D02*
Y675528D01*
X1132261Y861739D02*
X1140500Y853500D01*
X1130429Y861739D02*
X1132261D01*
X1140500Y853500D02*
X1141500D01*
X1028500Y816300D02*
X1033500Y821300D01*
Y825500D01*
X1262500Y784918D02*
Y796000D01*
Y784918D02*
X1273068Y774350D01*
X1307500Y720000D02*
X1318500Y731000D01*
X1351500D01*
X1365500Y745000D01*
X1297000Y720000D02*
X1307500D01*
X1179000Y706500D02*
X1184853Y712353D01*
X1163000Y710500D02*
X1167000Y706500D01*
X1179000D01*
X1174700Y698800D02*
X1185100Y688400D01*
X1157581Y698800D02*
X1174700D01*
X1150100Y696100D02*
X1171400D01*
X1180000Y687500D01*
X1154381Y702000D02*
X1157581Y698800D01*
X1149500Y695500D02*
X1150100Y696100D01*
X1153500Y702000D02*
X1154381D01*
X1157000Y733000D02*
X1159500Y730500D01*
X1126500Y743500D02*
X1137000Y733000D01*
X1157000D01*
X1163000Y710500D02*
Y732797D01*
X1163703Y733500D01*
X1166697D01*
X1169802Y710400D02*
X1173198D01*
X1167400Y712802D02*
X1169802Y710400D01*
X1167400Y712802D02*
Y732797D01*
X1201563Y718500D02*
X1202399D01*
X1200823Y719240D02*
X1201563Y718500D01*
X1200823Y719240D02*
Y722111D01*
X1200083Y722851D02*
X1200823Y722111D01*
X1197863Y722851D02*
X1200083D01*
X1197123Y722111D02*
X1197863Y722851D01*
X1197123Y717777D02*
Y722111D01*
X1196383Y717037D02*
X1197123Y717777D01*
X1194163Y717037D02*
X1196383D01*
X1193423Y717777D02*
X1194163Y717037D01*
X1193423Y717777D02*
Y722111D01*
X1192683Y722851D02*
X1193423Y722111D01*
X1190463Y722851D02*
X1192683D01*
X1189723Y722111D02*
X1190463Y722851D01*
X1189723Y717777D02*
Y722111D01*
X1188983Y717037D02*
X1189723Y717777D01*
X1186763Y717037D02*
X1188983D01*
X1186023Y717777D02*
X1186763Y717037D01*
X1186023Y717777D02*
Y722111D01*
X1185283Y722851D02*
X1186023Y722111D01*
X1183063Y722851D02*
X1185283D01*
X1182323Y722111D02*
X1183063Y722851D01*
X1182323Y719240D02*
Y722111D01*
X1181583Y718500D02*
X1182323Y719240D01*
X1180983Y718500D02*
X1181583D01*
X1176260D02*
X1180983D01*
X1202399D02*
X1206250D01*
X1166697Y733500D02*
X1167400Y732797D01*
X1245500Y637000D02*
X1246101D01*
X1241500D02*
X1245500D01*
X1027821Y730000D02*
X1029390Y731570D01*
X1248300Y718300D02*
X1252500Y722500D01*
Y731700D01*
X1248300Y703041D02*
Y718300D01*
X1247253Y723253D02*
Y731453D01*
X1247500Y731700D01*
X1245500Y721500D02*
X1247253Y723253D01*
X1245500Y701127D02*
Y721500D01*
X1120838Y978000D02*
X1133500D01*
X1138000Y982500D02*
X1144500D01*
X1133500Y978000D02*
X1138000Y982500D01*
X1108152Y985500D02*
X1127913D01*
X1104302Y989350D02*
X1108152Y985500D01*
X1127913D02*
X1130413Y983000D01*
X1130500D01*
X1074192Y985500D02*
X1096848D01*
X1100698Y989350D01*
X1068480Y991212D02*
X1074192Y985500D01*
X1100698Y989350D02*
X1104302D01*
X1118458Y980380D02*
X1120838Y978000D01*
X1197963Y794416D02*
X1199973Y792405D01*
X1211500Y782500D02*
X1216000D01*
X1199973Y792405D02*
X1201594D01*
X1197963Y794416D02*
Y801837D01*
X1201594Y792405D02*
X1211500Y782500D01*
X1082650Y927150D02*
X1089500Y934000D01*
X1069698Y927150D02*
X1082650D01*
X1089500Y934000D02*
X1096000D01*
X1057348Y939500D02*
X1069698Y927150D01*
X1049500Y939500D02*
X1057348D01*
X1034227Y830773D02*
X1037100Y827900D01*
X1032227Y830773D02*
X1034227D01*
X1037100Y827900D02*
X1041198D01*
X1044500Y831219D02*
Y844500D01*
X1042900Y829619D02*
X1044500Y831219D01*
X1042900Y829602D02*
Y829619D01*
X1041198Y827900D02*
X1042900Y829602D01*
X1031500Y831500D02*
X1032227Y830773D01*
X1011500Y818250D02*
X1015750D01*
X1021600Y824100D01*
X1024500Y827000D02*
Y828750D01*
X1021600Y824100D02*
X1024500Y827000D01*
X1021600Y824100D02*
X1021600D01*
X1028500Y816050D02*
Y816300D01*
X1119500Y831500D02*
Y836500D01*
X1126500Y824500D02*
X1127500D01*
X1119500Y831500D02*
X1126500Y824500D01*
X1109000Y847000D02*
X1119500Y836500D01*
X1060500Y844500D02*
X1063000Y847000D01*
X1109000D01*
X1169500Y842000D02*
Y843000D01*
X1157000Y842200D02*
Y843000D01*
X1156800Y842000D02*
X1157000Y842200D01*
X1168000Y605500D02*
X1168500Y606000D01*
X1164500Y605500D02*
X1168000D01*
X1161000Y602000D02*
X1164500Y605500D01*
X1145000Y723570D02*
X1148430Y727000D01*
X1148500D01*
X1153000Y720500D02*
X1157414D01*
X1159500Y722586D01*
Y730500D01*
X1143500Y855500D02*
X1152000D01*
X1160000Y863500D02*
X1163500D01*
X1152000Y855500D02*
X1160000Y863500D01*
X1141500Y853500D02*
X1143500Y855500D01*
X1198500Y903000D02*
Y911500D01*
X1199500Y902000D02*
X1204600D01*
X1198500Y903000D02*
X1199500Y902000D01*
X1123606Y868562D02*
X1130429Y861739D01*
X1123606Y868562D02*
Y870489D01*
X1322500Y779500D02*
X1328500D01*
X1319091Y776090D02*
X1322500Y779500D01*
X1328500D02*
X1331500Y782500D01*
X1334000D01*
X1319000Y772500D02*
X1319091Y772591D01*
Y776090D01*
X1342000Y745500D02*
X1350500Y754000D01*
Y755500D01*
X1341500Y744000D02*
Y745500D01*
X1342000D01*
X1171340Y602341D02*
X1173000Y604000D01*
Y615500D01*
X1171000Y599000D02*
X1171340Y599341D01*
Y602341D01*
X1155500Y652000D02*
X1163000Y659500D01*
Y660500D01*
X1155500Y640000D02*
Y652000D01*
X1167500Y650000D02*
Y650087D01*
X1170000Y652587D01*
Y657235D01*
X1206000Y657000D02*
Y683500D01*
X1201747Y652747D02*
X1206000Y657000D01*
X1193300Y652500D02*
X1193547Y652747D01*
X1201747D01*
X1193153Y662647D02*
X1193300Y662500D01*
X1184853Y662647D02*
X1193153D01*
X1179500Y668000D02*
X1184853Y662647D01*
X1142500Y668000D02*
X1179500D01*
X1193153Y667647D02*
X1193300Y667500D01*
X1184853Y667647D02*
X1193153D01*
X1181500Y671000D02*
X1184853Y667647D01*
X1141000Y671000D02*
X1181500D01*
X1193153Y672647D02*
X1193300Y672500D01*
X1184853Y672647D02*
X1193153D01*
X1183800Y673700D02*
X1184853Y672647D01*
X1138700Y673700D02*
X1183800D01*
X1177500Y682000D02*
X1192800D01*
X1174000Y685500D02*
X1177500Y682000D01*
X1192800D02*
X1193300Y682500D01*
X1180000Y686500D02*
Y687500D01*
X1185100Y688400D02*
X1192400D01*
X1263500Y705500D02*
Y716500D01*
Y705500D02*
X1268000Y701000D01*
X1315262Y692238D02*
X1317000Y690500D01*
X1306700Y692500D02*
X1306962Y692238D01*
X1315262D01*
X1317000Y688000D02*
X1322500Y682500D01*
X1317000Y688000D02*
Y690500D01*
X1322500Y669573D02*
Y682500D01*
X1338000Y821000D02*
X1339000D01*
X1354000Y836000D01*
Y854600D01*
X1361500Y889660D02*
X1368440Y896600D01*
X1361500Y873500D02*
Y889660D01*
X1368600Y896600D02*
X1371500Y899500D01*
X1368440Y896600D02*
X1368600D01*
X1371500Y899500D02*
Y900500D01*
X1163500Y863500D02*
X1167500Y867500D01*
X1122956Y871139D02*
X1123606Y870489D01*
X1198500Y975500D02*
Y983500D01*
Y975500D02*
X1200006Y973994D01*
X1204602D01*
X1471172Y707950D02*
X1472000D01*
X1465510Y698500D02*
X1467773Y700763D01*
Y704550D02*
X1471172Y707950D01*
X1467773Y700763D02*
Y704550D01*
X1165016Y540348D02*
X1169864Y535500D01*
X1193000D01*
X1165016Y540348D02*
Y540826D01*
X1163000Y541927D02*
X1164508Y543436D01*
X1164944D01*
X1166900Y545392D02*
Y545827D01*
X1169600Y548527D02*
Y563768D01*
X1164944Y543436D02*
X1166900Y545392D01*
Y545827D02*
X1169600Y548527D01*
X1164516Y540997D02*
Y543428D01*
X1167786Y565900D02*
X1169500Y564186D01*
Y563868D02*
Y564186D01*
Y563868D02*
X1169600Y563768D01*
X1161100Y565900D02*
X1167786D01*
X1160000Y602000D02*
X1161000D01*
X1155000Y572000D02*
X1161100Y565900D01*
X1155000Y572000D02*
Y573000D01*
X1403500Y774500D02*
X1408650Y779650D01*
X1403500Y696500D02*
Y774500D01*
X1400500Y702500D02*
Y785500D01*
X1395615Y697615D02*
X1400500Y702500D01*
X1388000Y798000D02*
X1400500Y785500D01*
X1320500Y804000D02*
Y808000D01*
Y804000D02*
X1332500Y792000D01*
X1359500Y834000D02*
Y847869D01*
X1332500Y807000D02*
X1359500Y834000D01*
X1332500Y799500D02*
Y807000D01*
X1344500Y693500D02*
X1345227Y692773D01*
X1346657D01*
X1347430Y692000D01*
X1439500D01*
X1444750Y697250D01*
X1106198Y980380D02*
X1118458D01*
X1099968Y974150D02*
X1106198Y980380D01*
X1133000Y668000D02*
X1138700Y673700D01*
X1134000Y664000D02*
X1141000Y671000D01*
X1064000Y664000D02*
X1134000D01*
X1058000Y670000D02*
X1064000Y664000D01*
X1054000Y651500D02*
X1063000Y660500D01*
X1135000D02*
X1142500Y668000D01*
X1063000Y660500D02*
X1135000D01*
X1400850Y869000D02*
X1404250Y865600D01*
Y859250D02*
Y865600D01*
X1400000Y869000D02*
X1400850D01*
X1404250Y859250D02*
X1404500Y859000D01*
X1395500Y892500D02*
X1414530D01*
X1392596Y881860D02*
Y889596D01*
X1395500Y892500D01*
X1414530D02*
X1424030Y902000D01*
X1387135Y876400D02*
X1392596Y881860D01*
X1373000Y861369D02*
Y869702D01*
X1379698Y876400D02*
X1387135D01*
X1373000Y869702D02*
X1379698Y876400D01*
X1424030Y902000D02*
X1458000D01*
X1459595Y903595D01*
X1074770Y979930D02*
X1088570D01*
X1094350Y974150D02*
X1099968D01*
X1088570Y979930D02*
X1094350Y974150D01*
X1354773Y860773D02*
X1361000Y867000D01*
X1354773Y855373D02*
Y860773D01*
X1379500Y861500D02*
Y869500D01*
Y861500D02*
X1386500Y854500D01*
X1359500Y847869D02*
X1373000Y861369D01*
X1354000Y854600D02*
X1354773Y855373D01*
X1386500Y854500D02*
X1444500D01*
X1081000Y650500D02*
X1087000Y656500D01*
X1081000Y650000D02*
Y650500D01*
X1087000Y656500D02*
X1143600D01*
X1147000Y659900D02*
Y660500D01*
X1143600Y656500D02*
X1147000Y659900D01*
X1279500Y766000D02*
X1285500Y772000D01*
X1279500Y752000D02*
Y766000D01*
X1284900Y792400D02*
X1290500Y798000D01*
X1284900Y777865D02*
Y792400D01*
X1290500Y798000D02*
Y798500D01*
X1292000D01*
X1290500D02*
Y808428D01*
X1284900Y777865D02*
X1286364Y776400D01*
X1293600D01*
X1296900Y757802D02*
Y773100D01*
X1293600Y776400D02*
X1296900Y773100D01*
X1275000Y748000D02*
X1277000Y746000D01*
X1274500Y748000D02*
X1275000D01*
X1301500Y746500D02*
Y753202D01*
X1296900Y757802D02*
X1301500Y753202D01*
X1301000Y759500D02*
Y774000D01*
X1365500Y745000D02*
X1373000D01*
X1392500Y725500D01*
X1193300Y697500D02*
X1213500D01*
X1206202Y702500D02*
X1208202Y700500D01*
X1217500D01*
X1213500Y697500D02*
X1217500Y693500D01*
X1319000Y738500D02*
X1321503Y735997D01*
X1329233D01*
X1319000Y738500D02*
Y752500D01*
X1311500Y772500D02*
X1319000D01*
X1310500Y773500D02*
X1311500Y772500D01*
X1193550Y692750D02*
X1209750D01*
X1193300Y692500D02*
X1193550Y692750D01*
X1209750D02*
X1210000Y693000D01*
X1217500Y693500D02*
X1224500D01*
X1166500Y677500D02*
X1193300D01*
X1162000Y682000D02*
X1166500Y677500D01*
X1317500Y515000D02*
X1326500Y506000D01*
X1292300Y515000D02*
X1317500D01*
X1290000Y512700D02*
X1292300Y515000D01*
X1254500Y506000D02*
X1258500Y510000D01*
X1242200Y506000D02*
X1254500D01*
X1258500Y510000D02*
X1292500D01*
X1167500Y645036D02*
Y650087D01*
X1170000Y657235D02*
X1172365Y659600D01*
X1058000Y670000D02*
Y676348D01*
X1167036Y644573D02*
X1167500Y645036D01*
X1166000Y644573D02*
X1167036D01*
X1172365Y659600D02*
X1183635D01*
X1207000Y554800D02*
Y572000D01*
X1204200Y552000D02*
X1207000Y554800D01*
X1276000Y559500D02*
X1279500Y563000D01*
X1226500Y559500D02*
X1276000D01*
X1226000Y560000D02*
X1226500Y559500D01*
X1281070Y555273D02*
X1282773D01*
X1232100Y555100D02*
X1280897D01*
X1282773Y555273D02*
X1283500Y556000D01*
X1280897Y555100D02*
X1281070Y555273D01*
X1231500Y554500D02*
X1232100Y555100D01*
X1173198Y710400D02*
X1174071Y711273D01*
X1176273D02*
X1177000Y712000D01*
X1174071Y711273D02*
X1176273D01*
X1452500Y862500D02*
X1454500D01*
X1139500Y606500D02*
Y612000D01*
Y606500D02*
X1141500Y604500D01*
X1212500Y618300D02*
Y619600D01*
X1211600Y620500D02*
X1212500Y619600D01*
X1208000Y620500D02*
X1211600D01*
X1201000Y620000D02*
X1210000Y629000D01*
X1220500D01*
X1201000Y608000D02*
Y620000D01*
X1209164Y632164D02*
X1222336D01*
X1192250Y614250D02*
X1197400Y619400D01*
X1188550Y614250D02*
X1192250D01*
X1197400Y619400D02*
Y620400D01*
X1209164Y632164D01*
X1197200Y604200D02*
X1201000Y608000D01*
X1197200Y594700D02*
Y604200D01*
X1209330Y571273D02*
X1209603Y571000D01*
X1207000Y572000D02*
X1207727Y571273D01*
X1209330D01*
X1209603Y571000D02*
X1258500D01*
X1191550Y589750D02*
X1196500Y584800D01*
X1188550Y589750D02*
X1190813D01*
X1192250D01*
X1190813D02*
X1191550D01*
X1188500Y614250D02*
X1188550D01*
X1188500Y589750D02*
X1188550D01*
X1038850Y814900D02*
X1040000Y813750D01*
X1236000Y578972D02*
Y580000D01*
X1237091Y577410D02*
Y577881D01*
X1239500Y575000D02*
X1271000D01*
X1236000Y578972D02*
X1237091Y577881D01*
Y577410D02*
X1239500Y575000D01*
X1271000D02*
X1273000Y573000D01*
X1271000Y566028D02*
X1273000Y568028D01*
Y573000D01*
X1271000Y565000D02*
Y566028D01*
X1258500Y571000D02*
X1262500Y567000D01*
X1290732Y630450D02*
X1290768D01*
X1293800Y627382D02*
Y627419D01*
Y627382D02*
X1296682Y624500D01*
X1290700Y646900D02*
X1299200Y638400D01*
X1261000Y657000D02*
X1273682D01*
X1285000Y644177D02*
Y645682D01*
X1265000Y650500D02*
X1272545D01*
X1296500Y628500D02*
Y628537D01*
X1291887Y633150D02*
X1296500Y628537D01*
X1263000Y654000D02*
X1272863D01*
X1282000Y643000D02*
X1291850Y633150D01*
X1259000Y660500D02*
X1274000D01*
X1299524Y633500D02*
X1311500D01*
X1291850Y633150D02*
X1291887D01*
X1297500Y627500D02*
X1308500D01*
X1236500Y665000D02*
X1273318D01*
X1272545Y650500D02*
X1278800Y644245D01*
X1290768Y630450D02*
X1293800Y627419D01*
X1273682Y657000D02*
X1285000Y645682D01*
X1278800Y642382D02*
Y644245D01*
X1290700Y646900D02*
Y647618D01*
X1274000Y660500D02*
X1288000Y646500D01*
X1296500Y628500D02*
X1297500Y627500D01*
X1285000Y644177D02*
X1298677Y630500D01*
X1273318Y665000D02*
X1290700Y647618D01*
X1278800Y642382D02*
X1290732Y630450D01*
X1282000Y643000D02*
Y644863D01*
X1288000Y645024D02*
Y646500D01*
X1296682Y624500D02*
X1307000D01*
X1272863Y654000D02*
X1282000Y644863D01*
X1298677Y630500D02*
X1310000D01*
X1288000Y645024D02*
X1299524Y633500D01*
X1261000Y626000D02*
X1261800Y625200D01*
X1261000Y646500D02*
X1265000Y650500D01*
X1261000Y626000D02*
Y646500D01*
X1261800Y619000D02*
X1262500Y618300D01*
X1261800Y619000D02*
Y625200D01*
X1016000Y861500D02*
X1017000D01*
X1008500Y855000D02*
X1009500D01*
X1016000Y861500D01*
X1241500Y625753D02*
Y637000D01*
X1218000D02*
X1241500D01*
X1248400Y625800D02*
X1251000Y628400D01*
Y652500D02*
X1259000Y660500D01*
X1251000Y628400D02*
Y652500D01*
X1241600Y619200D02*
Y625653D01*
X1241500Y625753D02*
X1241600Y625653D01*
Y619200D02*
X1242500Y618300D01*
X1252500D02*
X1253038Y618838D01*
X1254500Y628000D02*
Y650500D01*
X1253038Y618838D02*
Y626538D01*
X1254500Y628000D01*
X1248400Y619200D02*
Y625800D01*
X1247500Y618300D02*
X1248400Y619200D01*
X1254500Y650500D02*
X1261000Y657000D01*
X1192400Y688400D02*
X1193300Y687500D01*
X1202000Y757500D02*
X1209000Y764500D01*
X1271500D02*
X1279050Y772049D01*
X1209000Y764500D02*
X1271500D01*
X1369000Y871500D02*
Y886000D01*
X1369500Y886500D01*
X1365500Y808500D02*
Y847500D01*
X1369000Y851000D01*
X1485500D01*
X1452000Y912500D02*
X1456892D01*
X1459595Y909797D01*
X1451500Y913000D02*
X1452000Y912500D01*
X1459595Y903595D02*
Y909797D01*
X1444500Y854500D02*
X1452500Y862500D01*
X1485500Y851000D02*
X1492000Y857500D01*
X1376000Y798000D02*
X1388000D01*
X1365500Y808500D02*
X1376000Y798000D01*
X1492000Y857500D02*
Y892000D01*
X1475500Y521250D02*
Y522250D01*
X1487849Y531099D02*
X1488500Y531750D01*
X1475500Y522250D02*
X1484349Y531099D01*
X1487849D01*
X1204200Y539300D02*
X1207000Y536500D01*
X1214000D01*
X1204200Y539300D02*
Y552000D01*
X1214000Y536500D02*
X1223500Y546000D01*
X1241500D01*
X1201500Y544000D02*
Y557500D01*
X1193000Y535500D02*
X1201500Y544000D01*
X1193300Y707500D02*
X1202472D01*
X1203972Y709000D01*
X1205000D01*
X1193300Y702500D02*
X1206202D01*
X1174000Y685500D02*
Y686500D01*
X1193153Y712353D02*
X1193300Y712500D01*
X1184853Y712353D02*
X1193153D01*
X1251500Y708000D02*
Y715500D01*
Y708000D02*
X1254500Y705000D01*
X1251500Y715500D02*
X1257500Y721500D01*
X1120500Y552000D02*
Y562000D01*
X1124600Y566100D01*
X1189150Y530450D02*
X1240495D01*
X1261045Y551000D01*
X1171700Y513000D02*
X1189150Y530450D01*
X1073600Y571000D02*
X1091000D01*
X1073500Y571100D02*
X1073600Y571000D01*
X1228400Y588900D02*
X1229400D01*
X1223500Y584000D02*
X1228400Y588900D01*
X1232500Y592000D02*
Y618300D01*
X1229400Y588900D02*
X1232500Y592000D01*
X1059350Y688350D02*
X1064550Y693550D01*
X1059350Y677698D02*
Y688350D01*
X1058000Y676348D02*
X1059350Y677698D01*
X1274500Y547500D02*
X1275000D01*
X1271000Y551000D02*
X1274500Y547500D01*
X1261045Y551000D02*
X1271000D01*
X1241613Y527750D02*
X1259363Y545500D01*
X1266500D01*
X1276198Y540700D02*
X1295000Y559502D01*
X1259500Y538000D02*
X1277458D01*
X1242732Y525050D02*
X1258382Y540700D01*
X1243850Y522350D02*
X1259500Y538000D01*
X1258382Y540700D02*
X1276198D01*
X1295000Y559502D02*
Y570000D01*
X1209150Y525050D02*
X1242732D01*
X1199150Y527750D02*
X1241613D01*
X1219150Y522350D02*
X1243850D01*
X1319900Y552900D02*
X1322500Y555500D01*
X1319900Y537100D02*
X1324000Y533000D01*
X1319900Y537100D02*
Y552900D01*
X1334355Y555500D02*
X1335000Y556145D01*
X1322500Y555500D02*
X1334355D01*
X1344600Y513802D02*
Y517198D01*
X1344500Y517298D02*
X1344600Y517198D01*
X1338500Y509500D02*
X1339203D01*
X1342198Y511400D02*
X1344600Y513802D01*
X1341103Y511400D02*
X1342198D01*
X1339203Y509500D02*
X1341103Y511400D01*
X1344500Y517298D02*
Y563000D01*
X1348061Y566561D01*
X1357561D01*
X1354227Y555727D02*
X1369000Y570500D01*
X1350727Y555727D02*
X1354227D01*
X1350000Y555000D02*
X1350727Y555727D01*
X1305600Y527750D02*
X1309000Y524350D01*
X1301250Y527750D02*
X1305600D01*
X1309000Y523500D02*
Y524350D01*
X1301000Y528000D02*
X1301250Y527750D01*
X1292500Y510000D02*
X1294500Y512000D01*
X1314500D01*
X1318409Y508091D01*
X1319500Y505500D02*
Y506528D01*
X1318409Y507619D02*
X1319500Y506528D01*
X1318409Y507619D02*
Y508091D01*
X1258300Y512700D02*
X1290000D01*
X1184400Y513000D02*
X1199150Y527750D01*
X1197100Y513000D02*
X1209150Y525050D01*
X1229150Y519650D02*
X1251350D01*
X1209800Y513000D02*
X1219150Y522350D01*
X1222500Y513000D02*
X1229150Y519650D01*
X1251350D02*
X1258300Y512700D01*
X1235200Y513000D02*
X1242200Y506000D01*
X1064550Y693550D02*
X1073500D01*
X1185036Y658200D02*
X1192600D01*
X1183635Y659600D02*
X1185036Y658200D01*
X1192600D02*
X1193300Y657500D01*
X1032250Y652750D02*
X1032500Y653000D01*
X1032250Y646200D02*
Y652750D01*
X1028500Y642800D02*
X1028850D01*
X1032250Y646200D01*
X1464000Y682500D02*
X1467000Y679500D01*
X1472500D01*
X1030500Y732679D02*
Y736500D01*
X1029471Y731650D02*
X1030500Y732679D01*
X1029390Y731650D02*
X1029471D01*
X1020650Y730000D02*
X1027821D01*
X1019000Y731650D02*
X1020650Y730000D01*
X1029390Y731110D02*
X1030500Y730000D01*
X1029390Y731570D02*
Y731650D01*
X1218000Y683500D02*
X1224000Y677500D01*
X1224000D01*
X1236500Y665000D01*
X1250043Y670043D02*
X1254000Y674000D01*
X1250043Y669525D02*
Y670043D01*
X1231500Y677900D02*
X1237900D01*
X1246500Y686500D01*
X1257500Y683500D02*
X1294000D01*
X1254000Y674000D02*
Y680000D01*
X1257500Y683500D01*
X1299200Y638400D02*
X1305800D01*
X1306700Y637500D01*
X1295863Y621500D02*
X1305000D01*
X1283437Y628500D02*
X1288863D01*
X1291100Y626263D02*
X1295863Y621500D01*
X1291100Y626263D02*
Y626300D01*
X1289613Y627750D02*
X1289650D01*
X1288863Y628500D02*
X1289613Y627750D01*
X1289650D02*
X1291100Y626300D01*
X1222500Y722798D02*
Y731700D01*
X1215202Y715500D02*
X1222500Y722798D01*
X1209250Y715500D02*
X1215202D01*
X1260000Y701500D02*
Y718000D01*
X1262500Y720500D01*
X1245500Y701127D02*
X1246500Y700127D01*
Y686500D02*
Y700127D01*
X1289503Y668541D02*
X1293462Y672500D01*
X1289077Y656559D02*
X1289804Y655832D01*
Y652696D02*
X1293500Y649000D01*
X1289804Y652696D02*
Y655832D01*
X1293462Y672500D02*
X1306700D01*
X1295508Y665500D02*
X1297508Y667500D01*
X1295082Y665500D02*
X1295508D01*
X1297508Y667500D02*
X1306700D01*
X1257500Y648500D02*
X1263000Y654000D01*
X1257500Y618300D02*
Y648500D01*
X1271600Y677500D02*
X1306700D01*
X1264000Y669900D02*
X1271600Y677500D01*
X1206250Y718500D02*
X1209250Y715500D01*
X1306453Y682253D02*
X1306700Y682500D01*
X1296500Y680500D02*
X1298253Y682253D01*
X1306453D01*
X1294000Y683500D02*
X1298000Y687500D01*
X1306700D01*
X1134561Y864439D02*
X1139000Y860000D01*
X1132906Y864439D02*
X1134561D01*
X1127956Y869389D02*
X1132906Y864439D01*
X1139000Y860000D02*
X1149000D01*
X1296500Y649000D02*
X1299100Y651600D01*
X1305800D02*
X1306700Y652500D01*
X1293500Y649000D02*
X1296500D01*
X1299100Y651600D02*
X1305800D01*
X1398500Y966500D02*
X1406000D01*
X1396206Y962706D02*
Y964206D01*
X1393000Y959500D02*
X1396206Y962706D01*
Y964206D02*
X1398500Y966500D01*
X1369000Y570500D02*
Y632500D01*
X1372500Y569500D02*
Y636000D01*
X1352715Y549715D02*
X1372500Y569500D01*
X1352715Y547466D02*
Y549715D01*
X1352000Y546750D02*
X1352715Y547466D01*
X1295330Y653500D02*
X1298630Y656800D01*
X1295000Y653500D02*
X1295330D01*
X1306000Y656800D02*
X1306700Y657500D01*
X1298630Y656800D02*
X1306000D01*
X1222336Y632164D02*
X1227438Y627062D01*
X1295000Y659500D02*
X1295920D01*
X1298220Y661800D02*
X1306000D01*
X1295920Y659500D02*
X1298220Y661800D01*
X1306000D02*
X1306700Y662500D01*
X1365500Y574500D02*
Y630000D01*
X1355000Y640500D02*
X1365500Y630000D01*
X1355000Y640500D02*
Y677500D01*
X1357561Y566561D02*
X1365500Y574500D01*
X1359000Y642500D02*
X1369000Y632500D01*
X1359000Y642500D02*
Y675500D01*
X1363500Y645000D02*
X1372500Y636000D01*
X1363500Y645000D02*
Y674500D01*
X1367741Y678741D02*
X1411759D01*
X1363500Y674500D02*
X1367741Y678741D01*
X1411759D02*
X1412000Y678500D01*
X1355000Y677500D02*
X1364500Y687000D01*
X1392500D01*
X1393115Y697615D02*
X1395615D01*
X1392500Y697000D02*
X1393115Y697615D01*
X1365500Y682000D02*
X1399863D01*
X1359000Y675500D02*
X1365500Y682000D01*
X1399863D02*
X1401212Y683350D01*
X1402849D01*
X1359500Y697500D02*
X1365000D01*
X1402849Y683350D02*
X1403500Y684000D01*
X1409569Y605650D02*
X1426500D01*
X1403200Y599281D02*
X1409569Y605650D01*
X1396550Y570437D02*
X1403200Y577088D01*
X1380437Y570437D02*
X1396550D01*
X1403200Y577088D02*
Y599281D01*
X1362000Y552000D02*
X1380437Y570437D01*
X1359150Y619500D02*
X1359500Y619850D01*
X1325500Y619500D02*
X1359150D01*
X1464053Y698528D02*
X1464142Y698358D01*
X1332500Y608000D02*
X1358618D01*
X1359268Y608650D01*
X1335000Y601000D02*
X1358500D01*
X1359000Y601500D01*
X1308500Y627500D02*
X1335000Y601000D01*
X1358500Y594000D02*
X1359000Y594500D01*
X1337500Y594000D02*
X1358500D01*
X1339000Y587500D02*
X1358500D01*
X1359000Y588000D01*
X1311500Y633500D02*
X1325500Y619500D01*
X1412300Y592950D02*
X1426500D01*
X1412000Y593250D02*
X1412300Y592950D01*
X1444750Y697250D02*
X1454000D01*
X1408650Y779650D02*
X1426500D01*
X1263500Y716500D02*
X1267500Y720500D01*
X1322428Y669500D02*
X1322500Y669573D01*
X1334000Y632500D02*
X1338849Y627651D01*
Y626651D02*
X1339500Y626000D01*
X1331500Y632500D02*
X1334000D01*
X1338849Y626651D02*
Y627651D01*
X1306073Y809500D02*
X1307078Y808495D01*
X1305000Y808428D02*
X1306073Y809500D01*
X1307078Y808495D02*
X1313505D01*
X1290463Y726537D02*
X1297000Y720000D01*
X1287500Y727237D02*
X1288200Y726537D01*
X1287500Y727237D02*
Y731700D01*
X1288200Y726537D02*
X1290463D01*
X1267349Y711954D02*
X1270013Y709290D01*
X1267349Y715850D02*
X1272500Y721000D01*
X1270013Y709290D02*
X1270423D01*
X1267349Y711954D02*
Y715850D01*
X1267500Y720500D02*
Y731700D01*
X1262500Y720500D02*
Y731700D01*
X1272500Y721000D02*
Y731700D01*
X1257500Y721500D02*
Y731700D01*
X1415517Y649167D02*
X1416833D01*
X1422250Y643750D01*
X1414867Y649818D02*
X1415517Y649167D01*
X1305000Y621500D02*
X1339000Y587500D01*
X1307000Y624500D02*
X1337500Y594000D01*
X1310000Y630500D02*
X1332500Y608000D01*
X1414755Y656495D02*
X1426455D01*
X1414709Y656541D02*
X1414755Y656495D01*
X1426455D02*
X1426500Y656450D01*
X1282500Y627563D02*
X1283437Y628500D01*
X1282500Y618300D02*
Y627563D01*
X1464000Y698500D02*
X1464142Y698358D01*
X1196500Y578139D02*
Y584800D01*
Y578139D02*
X1197500Y577139D01*
X1220500Y629000D02*
X1222438Y627062D01*
Y618362D02*
X1222500Y618300D01*
X1222438Y618362D02*
Y627062D01*
X1192250Y589750D02*
X1197200Y594700D01*
X1188550Y614250D02*
X1193500Y619200D01*
Y627000D01*
X1227438Y618362D02*
X1227500Y618300D01*
X1227438Y618362D02*
Y627062D01*
X1246500Y602000D02*
X1247500Y601000D01*
X1260000D01*
X1210000Y585000D02*
X1222500D01*
X1223500Y584000D01*
X1241800Y606700D02*
X1246500Y602000D01*
X1240300Y606700D02*
X1241800D01*
X1237512Y609488D02*
Y618288D01*
X1237500Y618300D02*
X1237512Y618288D01*
Y609488D02*
X1240300Y606700D01*
X1273068Y774350D02*
X1273121D01*
X1202000Y754000D02*
Y757500D01*
X1197000Y749000D02*
X1202000Y754000D01*
X1197000Y740000D02*
Y749000D01*
X1279050Y772049D02*
Y774350D01*
X1279700Y775000D01*
X1189000Y758500D02*
X1191000Y760500D01*
Y770500D01*
X1191500Y733000D02*
X1198050D01*
X1188500Y730000D02*
X1191500Y733000D01*
X1148500Y784500D02*
X1159200D01*
X1169500Y794800D01*
X1153811Y792125D02*
X1156800Y795114D01*
X1148500Y791500D02*
X1149125Y792125D01*
X1156800Y795114D02*
Y803000D01*
X1149125Y792125D02*
X1153811D01*
X1169500Y794800D02*
Y803000D01*
X1263100Y796000D02*
X1276500D01*
X1195519Y831272D02*
X1197966Y833719D01*
X1199300D01*
X1195519Y827565D02*
Y831272D01*
X1212407Y790513D02*
X1213500Y789420D01*
Y788500D02*
Y789420D01*
X1212407Y790513D02*
Y800093D01*
X1196800Y803000D02*
X1197963Y801837D01*
X1209500Y803000D02*
X1212407Y800093D01*
X1209000Y827500D02*
Y839000D01*
X1212000Y842000D01*
X1199300Y833719D02*
Y842000D01*
X1167500Y867500D02*
Y868500D01*
X1334000Y782500D02*
X1337700Y778800D01*
Y773800D02*
Y778800D01*
Y773800D02*
X1340000Y771500D01*
X1276500Y812000D02*
Y824000D01*
X1262206Y823998D02*
X1262353Y823851D01*
Y812147D02*
Y823851D01*
Y812147D02*
X1262500Y812000D01*
X1305000Y797500D02*
Y808428D01*
X1149000Y860000D02*
Y866000D01*
X1151500Y868500D01*
X1412000Y767250D02*
X1412300Y766950D01*
X1426500D01*
X1491850Y971349D02*
X1492500Y972000D01*
X1486000Y963500D02*
X1487000D01*
X1491850Y968349D01*
Y971349D01*
X1369500Y969000D02*
Y974000D01*
Y969000D02*
X1372500Y966000D01*
X1360500D02*
X1363500Y969000D01*
Y974000D01*
X1418385Y965615D02*
Y968115D01*
Y965615D02*
X1419000Y965000D01*
X1412039Y964959D02*
X1412959D01*
X1409588Y962508D02*
X1412039Y964959D01*
X1409000Y969500D02*
X1417000D01*
X1406000Y966500D02*
X1409000Y969500D01*
X1417000D02*
X1418385Y968115D01*
X1274525Y917975D02*
X1278910D01*
X1287000Y909885D01*
X1274500Y918000D02*
X1274525Y917975D01*
X1287000Y890000D02*
Y909885D01*
X1453000Y962500D02*
X1455500Y965000D01*
X1462500D01*
X1453000Y978500D02*
X1465500D01*
X1392000Y959500D02*
X1393000D01*
X1406508Y962508D02*
X1409588D01*
X1403500Y959500D02*
X1406508Y962508D01*
X1188500Y880500D02*
X1191000Y883000D01*
X1182500Y880500D02*
X1188500D01*
X1177405Y958897D02*
X1182897D01*
X1175002Y956494D02*
X1177405Y958897D01*
X1182897D02*
X1183000Y959000D01*
Y952500D02*
X1188508D01*
X1191002Y954994D01*
X1274500Y990500D02*
X1274778Y990222D01*
X1286780D01*
X1194502Y968994D02*
X1204602D01*
X1191002Y978494D02*
Y989994D01*
Y966994D02*
X1193002Y968994D01*
X1191002Y966994D02*
Y978494D01*
X1175002D02*
Y989994D01*
X1178008Y993000D01*
X1182000D01*
X1175002Y955494D02*
Y956494D01*
X1286780Y990222D02*
X1287002Y990000D01*
X1175000Y918000D02*
X1178000Y921000D01*
X1182500D01*
X1175000Y906500D02*
Y918000D01*
X1182400Y886900D02*
X1182500Y887000D01*
X1175000Y884500D02*
X1177400Y886900D01*
X1182400D01*
X1175000Y883500D02*
Y884500D01*
X1088350Y744350D02*
X1089000Y745000D01*
X1073500Y744350D02*
X1088350D01*
X1073500Y757050D02*
X1073525Y757025D01*
X1088975D02*
X1089000Y757000D01*
X1073525Y757025D02*
X1088975D01*
X1077750Y533000D02*
X1083599Y527150D01*
X1084849D02*
X1085500Y526500D01*
X1083599Y527150D02*
X1084849D01*
X1073500Y520300D02*
X1073545Y520255D01*
X1085245D02*
X1085291Y520209D01*
X1073545Y520255D02*
X1085245D01*
X1194500Y897000D02*
X1204600D01*
X1191000Y895000D02*
X1193000Y897000D01*
X1191000Y895000D02*
Y906500D01*
Y918000D01*
X1128406Y901339D02*
X1130419D01*
X1127956Y900889D02*
X1128406Y901339D01*
X1130419D02*
X1131580Y902500D01*
X1132500D01*
X1127956Y899139D02*
Y900889D01*
X1123039Y904539D02*
X1127639Y909139D01*
X1128456D01*
X1123039Y899222D02*
Y904539D01*
X1122956Y899139D02*
X1123039Y899222D01*
X1101000Y908500D02*
X1111817D01*
X1112456Y909139D01*
X1059956Y914139D02*
X1065281Y919464D01*
X1127956Y869389D02*
Y871139D01*
X1129456Y921639D02*
X1139956D01*
X1140500Y869500D02*
X1141500Y868500D01*
X1140956Y869639D02*
Y878139D01*
X1139956Y879139D02*
X1140956Y878139D01*
X1128456Y920639D02*
X1129456Y921639D01*
X1128456Y909139D02*
Y920639D01*
X1111456Y921639D02*
X1112456Y920639D01*
Y909139D02*
Y920639D01*
X1491500Y695250D02*
X1493500Y697250D01*
X1491500Y717750D02*
X1493500Y719750D01*
X1491500Y717750D02*
X1493500Y715750D01*
X1415150Y823599D02*
X1416400D01*
X1414500Y824250D02*
X1415150Y823599D01*
X1422250Y817750D02*
X1426500D01*
X1414709Y830540D02*
X1414755Y830495D01*
X1426455D02*
X1426500Y830450D01*
X1414755Y830495D02*
X1426455D01*
X1471500Y727550D02*
X1472000Y727050D01*
X1470850Y726900D02*
X1471500Y727550D01*
X1472000Y718750D02*
Y727050D01*
X1472000Y707950D02*
X1480800Y716750D01*
X1481000D01*
X1475500Y696250D02*
X1484349Y705099D01*
X1487849D02*
X1488500Y705750D01*
X1484349Y705099D02*
X1487849D01*
X1475500Y695250D02*
Y696250D01*
X1416400Y823599D02*
X1422250Y817750D01*
X1493500Y697250D02*
Y715750D01*
Y719750D02*
Y730250D01*
X1491500Y521250D02*
X1493500Y523250D01*
X1491500Y543750D02*
X1493500Y545750D01*
X1491500Y543750D02*
X1493500Y541750D01*
X1422250Y643750D02*
X1426500D01*
X1471500Y533950D02*
X1472000D01*
X1470350Y535100D02*
X1471500Y533950D01*
X1460000Y536250D02*
X1461150Y535100D01*
X1472000Y533950D02*
X1480800Y542750D01*
X1481000D01*
X1471500Y553550D02*
X1472000Y553050D01*
X1470850Y552900D02*
X1471500Y553550D01*
X1460650Y552900D02*
X1470850D01*
X1460000Y552250D02*
X1460650Y552900D01*
X1472000Y544750D02*
Y553050D01*
X1461150Y535100D02*
X1470350D01*
X1493500Y523250D02*
Y541750D01*
Y545750D02*
Y556250D01*
X1006500Y826750D02*
X1008500Y828750D01*
X1006500Y804250D02*
X1008500Y806250D01*
X1006500Y808250D02*
X1008500Y806250D01*
X1073500Y706250D02*
X1077750D01*
X1028500Y816050D02*
X1029650Y814900D01*
X1038850D01*
X1006500Y808250D02*
Y826750D01*
Y793750D02*
Y804250D01*
X1073500Y533000D02*
X1077750D01*
X1006500Y620500D02*
Y631000D01*
X1008500Y633000D01*
X1006500Y635000D02*
X1008500Y633000D01*
X1015650Y645651D02*
X1024500Y654500D01*
X1012151Y645651D02*
X1015650D01*
X1011500Y645000D02*
X1012151Y645651D01*
X1024500Y654500D02*
Y655500D01*
X1006500Y653500D02*
X1008500Y655500D01*
X1006500Y635000D02*
Y653500D01*
X1028500Y642800D02*
X1029650Y641650D01*
X1038850D01*
X1040000Y640500D01*
D70*
X1232050Y731250D02*
X1232500Y731700D01*
X1232050Y722976D02*
Y731250D01*
Y722976D02*
X1232650Y722376D01*
X1227950Y721278D02*
X1228550Y720678D01*
Y701502D02*
Y720678D01*
X1232669Y708095D02*
Y709925D01*
X1232650Y709943D02*
Y722376D01*
X1232669Y708095D02*
X1233415Y707349D01*
X1232650Y709943D02*
X1232669Y709925D01*
X1227950Y721278D02*
Y730350D01*
X1228400Y730800D01*
X1228550Y701502D02*
X1228971Y701082D01*
X1227500Y731700D02*
X1228400Y730800D01*
X1462833Y988309D02*
Y990353D01*
Y988309D02*
X1473500Y977642D01*
X1462086Y991099D02*
X1462833Y990353D01*
X1474693Y953983D02*
X1476226Y952450D01*
X1474693Y953983D02*
Y954894D01*
X1477600Y957802D01*
X1476226Y952450D02*
X1478500Y950176D01*
X1476226Y952450D02*
X1476226D01*
X1478500Y925000D02*
Y950176D01*
X1459500D02*
X1464374Y955050D01*
X1469050D01*
X1459500Y949000D02*
Y950176D01*
X1459000Y948500D02*
X1459500Y949000D01*
X1477600Y957802D02*
Y979340D01*
X1473500Y959500D02*
Y977642D01*
X1469050Y955050D02*
X1473500Y959500D01*
X1468929Y988010D02*
X1477600Y979340D01*
X1468929Y988010D02*
Y990321D01*
X1468250Y991000D02*
X1468929Y990321D01*
X1414500Y950250D02*
X1419250Y955000D01*
X1420754D01*
X1420804Y955050D01*
X1424050D02*
X1425400Y956400D01*
X1420804Y955050D02*
X1424050D01*
X1414500Y949000D02*
Y950250D01*
Y925000D02*
Y949000D01*
X1425400Y956400D02*
Y984054D01*
X1428446Y987100D02*
X1434857D01*
X1436294Y988537D01*
X1437495Y989950D02*
Y991005D01*
X1443500Y989945D02*
Y991000D01*
X1436294Y988537D02*
Y988749D01*
X1436555Y983000D02*
X1443500Y989945D01*
X1430144Y983000D02*
X1436555D01*
X1436294Y988749D02*
X1437495Y989950D01*
X1425400Y984054D02*
X1428446Y987100D01*
X1429500Y982356D02*
X1430144Y983000D01*
X1385537Y986500D02*
X1410007D01*
X1412044Y988537D02*
Y988739D01*
X1413250Y989945D02*
Y991000D01*
X1411705Y982400D02*
X1419250Y989945D01*
X1412044Y988739D02*
X1413250Y989945D01*
X1387235Y982400D02*
X1411705D01*
X1410007Y986500D02*
X1412044Y988537D01*
X1419250Y989945D02*
Y991000D01*
X1380400Y981363D02*
X1385537Y986500D01*
X1384500Y979665D02*
X1387235Y982400D01*
X1380400Y956198D02*
Y981363D01*
X1379252Y955050D02*
X1380400Y956198D01*
X1374300Y955050D02*
X1379252D01*
X1384500Y954250D02*
X1388500Y950250D01*
X1384500Y954250D02*
Y979665D01*
X1369500Y950250D02*
X1374300Y955050D01*
X1433500Y925000D02*
Y950250D01*
X1429500Y957702D02*
X1429500Y957702D01*
X1429500Y954250D02*
Y957702D01*
Y954250D02*
X1433500Y950250D01*
X1429500Y957702D02*
Y982356D01*
X1459000Y925500D02*
Y948500D01*
Y925500D02*
X1461615Y922885D01*
X1369000Y948500D02*
X1369500Y949000D01*
X1369000Y925500D02*
Y948500D01*
Y925500D02*
X1371615Y922885D01*
X1369500Y949000D02*
Y950250D01*
X1388500Y925000D02*
Y950250D01*
X1475000Y918000D02*
Y919055D01*
X1476385Y920440D02*
Y922885D01*
X1475000Y919055D02*
X1476385Y920440D01*
Y922885D02*
X1478500Y925000D01*
X1461615Y920440D02*
X1463000Y919055D01*
Y918000D02*
Y919055D01*
X1461615Y920440D02*
Y922885D01*
X1430000Y918500D02*
Y919555D01*
X1385000Y918000D02*
Y919055D01*
X1386385Y920440D02*
Y922885D01*
X1385000Y919055D02*
X1386385Y920440D01*
X1431385Y922885D02*
X1433500Y925000D01*
X1430000Y919555D02*
X1431385Y920940D01*
Y922885D01*
X1416615Y920440D02*
Y922885D01*
X1418000Y918000D02*
Y919055D01*
X1414500Y925000D02*
X1416615Y922885D01*
Y920440D02*
X1418000Y919055D01*
X1386385Y922885D02*
X1388500Y925000D01*
X1371615Y920440D02*
Y922885D01*
Y920440D02*
X1373000Y919055D01*
Y918000D02*
Y919055D01*
D71*
X1112000Y805060D02*
X1122560Y794500D01*
X1136000D01*
X1112000Y805060D02*
Y834571D01*
X1048500Y827299D02*
X1054201Y833000D01*
X1048500Y827282D02*
Y827299D01*
X1054201Y833000D02*
X1063866D01*
X1070866Y840000D01*
X1106571D02*
X1112000Y834571D01*
X1070866Y840000D02*
X1106571D01*
X1032000Y797500D02*
X1039000D01*
D72*
X1048500Y807000D02*
Y827282D01*
X1040500Y798000D02*
Y799000D01*
X1040000Y797500D02*
X1040500Y798000D01*
X1039000Y797500D02*
X1040000D01*
X1040500Y799000D02*
X1048500Y807000D01*
D73*
X1032000Y797500D02*
Y805500D01*
X1163000Y779230D02*
X1163885Y780115D01*
X1161500Y771000D02*
Y774000D01*
X1161250Y770750D02*
X1161500Y771000D01*
X1161698Y772019D02*
X1163000Y773321D01*
Y779230D01*
X1379000Y926250D02*
X1381750Y929000D01*
Y930254D02*
X1382117Y930621D01*
Y933117D02*
X1382500Y933500D01*
X1382117Y930621D02*
Y933117D01*
X1381750Y929000D02*
Y930254D01*
X1379000Y914929D02*
Y926250D01*
X1424000D02*
X1426550Y928800D01*
Y931509D02*
X1428018Y932976D01*
X1426550Y928800D02*
Y931509D01*
X1424000Y915429D02*
Y926250D01*
X1471750Y929000D02*
Y930254D01*
X1472167Y930671D02*
Y933117D01*
X1469000Y926250D02*
X1471750Y929000D01*
Y930254D02*
X1472167Y930671D01*
Y933117D02*
X1472550Y933500D01*
X1469000Y914929D02*
Y926250D01*
X1151000Y762000D02*
Y770000D01*
X1151750Y770750D01*
X1040000Y624500D02*
Y632000D01*
X1039350Y623850D02*
X1040000Y624500D01*
X1415150Y843150D02*
X1426500D01*
X1407500Y841750D02*
X1413750D01*
X1415150Y843150D01*
X1182200Y842000D02*
Y850200D01*
X1177318Y855081D02*
Y855082D01*
X1172883Y858617D02*
X1173783D01*
X1177318Y855081D02*
X1182200Y850200D01*
X1173783Y858617D02*
X1177318Y855082D01*
X1172500Y859000D02*
X1172883Y858617D01*
X1032500Y976500D02*
Y977000D01*
Y976500D02*
X1039500Y969500D01*
X1339000Y900500D02*
X1355500D01*
X1287920Y827137D02*
Y829580D01*
Y827137D02*
X1289484Y825573D01*
X1290500D01*
X1029150Y623850D02*
X1039350D01*
X1028500Y623200D02*
X1029150Y623850D01*
X1073550Y507550D02*
X1090950D01*
X1091000Y507500D01*
X1073500Y507600D02*
X1073550Y507550D01*
X1085959Y682250D02*
X1092500D01*
X1073500Y680850D02*
X1084559D01*
X1085959Y682250D01*
X1062033Y565617D02*
X1068750Y558900D01*
X1073000D01*
X1055383Y565617D02*
X1062033D01*
X1073000Y558900D02*
X1073500Y558400D01*
X1062033Y738867D02*
X1068750Y732150D01*
X1073000D01*
X1055383Y738867D02*
X1062033D01*
X1073000Y732150D02*
X1073500Y731650D01*
X1427000Y791850D02*
X1431250D01*
X1426500Y792350D02*
X1427000Y791850D01*
X1437967Y785133D02*
X1444617D01*
X1431250Y791850D02*
X1437967Y785133D01*
X1428018Y932976D02*
Y933518D01*
X1408000Y669000D02*
X1408075Y669075D01*
X1426425D02*
X1426500Y669150D01*
X1408075Y669075D02*
X1426425D01*
X1448650Y611100D02*
X1449000Y610750D01*
X1438000Y611100D02*
X1448650D01*
X1430750Y618350D02*
X1438000Y611100D01*
X1151750Y770750D02*
X1161250D01*
X1178172Y824915D02*
X1182200Y820887D01*
Y803000D02*
Y820887D01*
X1178172Y824915D02*
Y825456D01*
X1483500Y981000D02*
X1485000Y979500D01*
X1483500Y981000D02*
Y988959D01*
X1482500Y989959D02*
Y990500D01*
X1485000Y979500D02*
X1486000D01*
X1482500Y989959D02*
X1483500Y988959D01*
X1490500Y914929D02*
Y928500D01*
X1487571Y912000D02*
X1490500Y914929D01*
X1469000D02*
X1471929Y912000D01*
X1487571D01*
X1424000Y915429D02*
X1426929Y912500D01*
X1442500D02*
X1446500Y916500D01*
X1426929Y912500D02*
X1442500D01*
X1398571Y912000D02*
X1401500Y914929D01*
X1379000D02*
X1381929Y912000D01*
X1401500Y914929D02*
Y929000D01*
X1381929Y912000D02*
X1398571D01*
X1490500Y928500D02*
X1491000Y929000D01*
X1446500Y916500D02*
Y929000D01*
X1039500Y969500D02*
X1040500D01*
X1444617Y785133D02*
X1445000Y784750D01*
X1426500Y618350D02*
X1430750D01*
X1055000Y739250D02*
X1055383Y738867D01*
X1055000Y566000D02*
X1055383Y565617D01*
D74*
X1205500Y613580D02*
X1207948Y611132D01*
X1205500Y613580D02*
Y614500D01*
X1207948Y609781D02*
Y611132D01*
Y609781D02*
X1209080Y608650D01*
X1214733D01*
X1216800Y610717D01*
Y617600D02*
X1217500Y618300D01*
X1216800Y610717D02*
Y617600D01*
D75*
X1041000Y724808D02*
Y762250D01*
X1019000Y718950D02*
X1035142D01*
X1041000Y724808D01*
X1464858Y805050D02*
X1481000D01*
X1459000Y799192D02*
X1464858Y805050D01*
X1459000Y761750D02*
Y799192D01*
X1464858Y631050D02*
X1481000D01*
X1459000Y625192D02*
X1464858Y631050D01*
X1459000Y587750D02*
Y625192D01*
X1035142Y545700D02*
X1041000Y551558D01*
X1019000Y545700D02*
X1035142D01*
X1041000Y551558D02*
Y589000D01*
D76*
X1247900Y513000D02*
D03*
X1235200D02*
D03*
X1222500D02*
D03*
X1209800D02*
D03*
X1197100D02*
D03*
X1184400D02*
D03*
X1171700D02*
D03*
D77*
X1159000D02*
D03*
D78*
X1133500Y584000D02*
D03*
X1191683Y784866D02*
D03*
X1277467Y709533D02*
D03*
X1110500Y864000D02*
D03*
X1180000Y700500D02*
D03*
X1216500Y879500D02*
D03*
X1221500D02*
D03*
X1049500Y939500D02*
D03*
X1031500Y831500D02*
D03*
X1033500Y825500D02*
D03*
X1096000Y934000D02*
D03*
X1058000Y825000D02*
D03*
X1127500Y824500D02*
D03*
X1169500Y843000D02*
D03*
X1157000D02*
D03*
X1143500Y788000D02*
D03*
X1119000Y728000D02*
D03*
X1105500Y672500D02*
D03*
X1154000Y624500D02*
D03*
X1148500Y727000D02*
D03*
X1126500Y743500D02*
D03*
X1151000Y762000D02*
D03*
X1373500Y755500D02*
D03*
X1180000Y686500D02*
D03*
X1198500Y911500D02*
D03*
Y983500D02*
D03*
X1168000Y588000D02*
D03*
X1181000Y760500D02*
D03*
X1153500Y708500D02*
D03*
X1320500Y808000D02*
D03*
X1130500Y983000D02*
D03*
X1144500Y982500D02*
D03*
X1131500Y674000D02*
D03*
X1410000Y885000D02*
D03*
X1455000Y879000D02*
D03*
X1405500Y877000D02*
D03*
X1361000Y867000D02*
D03*
X1361500Y873500D02*
D03*
X1379500Y869500D02*
D03*
X1369000Y871500D02*
D03*
X1404500Y859000D02*
D03*
X1155500Y640000D02*
D03*
X1140500Y650500D02*
D03*
X1081000Y650000D02*
D03*
X1285500Y772000D02*
D03*
X1301000Y759500D02*
D03*
X1279500Y752000D02*
D03*
X1307000Y726000D02*
D03*
X1332500Y799500D02*
D03*
X1363000Y719500D02*
D03*
X1329500Y702000D02*
D03*
X1217500Y700500D02*
D03*
X1319000Y752500D02*
D03*
Y772500D02*
D03*
X1210000Y693000D02*
D03*
X1224500Y693500D02*
D03*
X1206000Y683500D02*
D03*
X1167500Y650000D02*
D03*
X1174500Y645500D02*
D03*
X1208000Y620500D02*
D03*
X1183500Y624500D02*
D03*
X1155000Y631500D02*
D03*
X1153500Y702000D02*
D03*
X1149500Y695500D02*
D03*
X1140500Y694500D02*
D03*
X1139500Y612000D02*
D03*
X1205500Y614500D02*
D03*
X1168500Y606000D02*
D03*
X1171000Y599000D02*
D03*
X1208000Y594500D02*
D03*
X1207000Y572000D02*
D03*
X1271000Y565000D02*
D03*
X1262500Y567000D02*
D03*
X1236000Y580000D02*
D03*
X1265500Y644000D02*
D03*
X1271500Y644500D02*
D03*
X1017000Y861500D02*
D03*
X1039500Y832000D02*
D03*
X1162000Y682000D02*
D03*
X1123500Y738000D02*
D03*
X1153000Y720500D02*
D03*
X1245500Y637000D02*
D03*
X1203500Y633000D02*
D03*
X1378000Y887000D02*
D03*
X1338000Y821000D02*
D03*
X1454500Y907500D02*
D03*
X1451500Y913000D02*
D03*
X1454500Y862500D02*
D03*
X1479000D02*
D03*
X1492000Y892000D02*
D03*
X1086000Y581500D02*
D03*
X1054000Y651500D02*
D03*
X1488500Y531750D02*
D03*
X1201500Y557500D02*
D03*
X1231500Y554500D02*
D03*
X1226000Y560000D02*
D03*
X1344500Y693500D02*
D03*
X1205000Y709000D02*
D03*
X1174000Y686500D02*
D03*
X1218000Y637000D02*
D03*
X1274500Y748000D02*
D03*
X1176000Y582500D02*
D03*
X1192000Y568500D02*
D03*
X1120500Y552000D02*
D03*
X1127500Y531500D02*
D03*
X1106500Y562500D02*
D03*
X1091000Y697500D02*
D03*
X1085500Y526500D02*
D03*
X1089000Y745000D02*
D03*
X1283500Y556000D02*
D03*
X1275000Y547500D02*
D03*
X1266500Y545500D02*
D03*
X1279500Y563000D02*
D03*
X1295000Y570000D02*
D03*
X1301500Y576000D02*
D03*
X1324000Y533000D02*
D03*
X1306000Y540000D02*
D03*
X1337500Y521000D02*
D03*
X1326500Y591000D02*
D03*
X1350000Y555000D02*
D03*
X1301000Y528000D02*
D03*
X1326500Y506000D02*
D03*
X1338500Y509500D02*
D03*
X1319500Y505500D02*
D03*
X1032500Y653000D02*
D03*
X1472500Y679500D02*
D03*
X1218000Y683500D02*
D03*
X1250043Y669525D02*
D03*
X1235000Y689500D02*
D03*
X1241773D02*
D03*
X1231500Y677900D02*
D03*
X1243500Y674500D02*
D03*
X1257000Y670000D02*
D03*
X1204464Y648900D02*
D03*
X1233415Y707349D02*
D03*
X1228971Y701082D02*
D03*
X1289503Y668541D02*
D03*
X1289077Y656559D02*
D03*
X1295082Y665500D02*
D03*
X1265300Y629000D02*
D03*
X1260000Y701500D02*
D03*
X1264000Y669900D02*
D03*
X1300500Y590500D02*
D03*
X1306500D02*
D03*
X1213277Y719951D02*
D03*
X1326500Y649400D02*
D03*
X1295054Y752014D02*
D03*
X1207929Y724072D02*
D03*
X1295000Y653500D02*
D03*
X1203801Y642598D02*
D03*
X1295000Y659500D02*
D03*
X1265500Y528500D02*
D03*
X1392500Y697000D02*
D03*
X1403500Y696500D02*
D03*
X1392500Y687000D02*
D03*
X1403500Y684000D02*
D03*
X1412000Y678500D02*
D03*
X1362000Y552000D02*
D03*
X1352000Y546750D02*
D03*
X1359500Y619850D02*
D03*
X1359268Y608650D02*
D03*
X1359000Y601500D02*
D03*
Y588000D02*
D03*
Y594500D02*
D03*
X1412000Y593250D02*
D03*
X1295000Y694000D02*
D03*
X1321000Y652500D02*
D03*
X1338242Y691500D02*
D03*
X1254500Y705000D02*
D03*
X1268000Y701000D02*
D03*
X1392500Y725500D02*
D03*
X1339500Y626000D02*
D03*
X1313505Y808495D02*
D03*
X1332500Y792000D02*
D03*
X1270423Y709290D02*
D03*
X1414867Y649818D02*
D03*
X1414709Y656541D02*
D03*
X1271500Y528500D02*
D03*
X1258500Y591500D02*
D03*
X1176260Y718500D02*
D03*
X1177000Y712000D02*
D03*
X1330650Y836000D02*
D03*
X1273121Y774350D02*
D03*
X1253000Y807000D02*
D03*
Y801000D02*
D03*
X1279700Y775000D02*
D03*
X1175500Y779000D02*
D03*
X1163885Y780115D02*
D03*
X1191000Y770500D02*
D03*
X1148500Y784500D02*
D03*
Y791500D02*
D03*
X1197000Y740000D02*
D03*
X1198050Y733000D02*
D03*
X1298967Y788533D02*
D03*
X1301000Y774000D02*
D03*
X1319138Y766423D02*
D03*
X1195519Y827565D02*
D03*
X1216000Y782500D02*
D03*
X1213500Y788500D02*
D03*
X1209000Y827500D02*
D03*
X1231500Y813500D02*
D03*
X1231000Y829000D02*
D03*
X1229500Y844500D02*
D03*
Y850500D02*
D03*
X1269352Y830553D02*
D03*
X1319031Y760424D02*
D03*
X1209000Y869000D02*
D03*
X1149000Y860000D02*
D03*
X1412000Y767250D02*
D03*
X1369500Y974000D02*
D03*
X1419000Y965000D02*
D03*
X1412959Y964959D02*
D03*
X1363500Y974000D02*
D03*
X1492500Y972000D02*
D03*
X1475000Y918000D02*
D03*
X1463000D02*
D03*
X1430000Y918500D02*
D03*
X1385000Y918000D02*
D03*
X1418000D02*
D03*
X1373000D02*
D03*
X1274500Y918000D02*
D03*
X1468250Y991000D02*
D03*
X1437495Y991005D02*
D03*
X1419250Y991000D02*
D03*
X1413250D02*
D03*
X1462086Y991099D02*
D03*
X1443500Y991000D02*
D03*
X1462500Y965000D02*
D03*
X1182500Y880500D02*
D03*
X1208500Y930500D02*
D03*
Y936000D02*
D03*
X1006500Y620500D02*
D03*
X1011500Y645000D02*
D03*
X1006500Y793750D02*
D03*
X1011500Y818250D02*
D03*
X1493500Y556250D02*
D03*
X1472000Y544750D02*
D03*
X1481000Y542750D02*
D03*
X1493500Y730250D02*
D03*
X1414500Y824250D02*
D03*
X1454000Y697250D02*
D03*
X1488500Y705750D02*
D03*
X1481000Y716750D02*
D03*
X1472000Y718750D02*
D03*
X1414709Y830540D02*
D03*
X1132500Y902500D02*
D03*
X1085291Y520209D02*
D03*
X1089000Y757000D02*
D03*
X1181500Y895000D02*
D03*
X1182500Y887000D02*
D03*
X1313000Y866000D02*
D03*
Y860500D02*
D03*
X1182500Y921000D02*
D03*
X1182000Y993000D02*
D03*
X1181502Y966994D02*
D03*
X1274500Y990500D02*
D03*
X1313002Y932494D02*
D03*
Y937994D02*
D03*
X1208500Y941500D02*
D03*
X1183000Y952500D02*
D03*
Y959000D02*
D03*
X1068480Y991212D02*
D03*
X1074770Y979930D02*
D03*
D79*
X1200500Y870000D02*
D03*
X1092000Y927500D02*
D03*
X1200500Y875500D02*
D03*
X1205500Y878000D02*
D03*
X1146500Y803000D02*
D03*
X1141000D02*
D03*
X1138500Y823500D02*
D03*
X1374092Y933779D02*
D03*
X1419550Y933500D02*
D03*
X1464114Y933848D02*
D03*
X1040000Y632000D02*
D03*
X1376000Y697500D02*
D03*
X1428018Y933518D02*
D03*
X1136000Y794500D02*
D03*
X1307000Y834000D02*
D03*
X1300500D02*
D03*
X1121500Y847000D02*
D03*
X1172500Y859000D02*
D03*
X1032500Y977000D02*
D03*
X1063500Y622500D02*
D03*
X1097500Y618500D02*
D03*
X1059000Y601000D02*
D03*
X1097500Y626500D02*
D03*
X1091000Y507500D02*
D03*
X1032000Y805500D02*
D03*
X1092500Y682250D02*
D03*
X1041000Y606500D02*
D03*
Y596000D02*
D03*
X1021000Y607000D02*
D03*
X1372206Y648544D02*
D03*
X1030500Y745000D02*
D03*
Y736500D02*
D03*
Y730000D02*
D03*
X1021500Y747500D02*
D03*
X1051500Y730250D02*
D03*
X1146500Y650250D02*
D03*
X1021000Y780250D02*
D03*
X1078500Y789250D02*
D03*
X1075000Y796750D02*
D03*
X1082500D02*
D03*
X1041000Y779750D02*
D03*
X1105500Y769750D02*
D03*
Y753750D02*
D03*
Y761750D02*
D03*
X1055358Y976875D02*
D03*
X1373000Y662750D02*
D03*
Y655250D02*
D03*
Y670250D02*
D03*
X1365000Y697500D02*
D03*
X1370500D02*
D03*
X1408000Y669000D02*
D03*
X1353500Y526250D02*
D03*
X1361000Y526250D02*
D03*
X1370000Y524000D02*
D03*
X1379000Y524500D02*
D03*
X1394210Y582210D02*
D03*
X1421500Y732717D02*
D03*
X1439956Y751294D02*
D03*
X1459000Y744250D02*
D03*
Y754750D02*
D03*
X1407500Y816250D02*
D03*
X1479000Y743750D02*
D03*
X1425000Y553250D02*
D03*
X1417500D02*
D03*
X1449000Y610750D02*
D03*
X1394500Y602400D02*
D03*
X1407600Y642250D02*
D03*
X1394500Y589600D02*
D03*
X1421500Y560750D02*
D03*
X1479000Y569750D02*
D03*
X1059500Y730250D02*
D03*
X1105000Y687500D02*
D03*
X1104500Y696000D02*
D03*
Y702000D02*
D03*
X1373000Y829250D02*
D03*
Y844250D02*
D03*
Y836750D02*
D03*
X1394500Y754250D02*
D03*
Y762250D02*
D03*
Y770250D02*
D03*
X1221000Y787500D02*
D03*
X1178172Y825456D02*
D03*
X1373000Y822500D02*
D03*
X1416641Y976100D02*
D03*
X1484000Y939500D02*
D03*
X1397000Y938500D02*
D03*
X1440500D02*
D03*
X1472550Y933500D02*
D03*
X1382500D02*
D03*
X1160456Y921639D02*
D03*
X1153500Y921500D02*
D03*
X1339000Y900500D02*
D03*
X1293500Y834000D02*
D03*
X1326500Y984000D02*
D03*
X1317002Y983494D02*
D03*
X1367000Y992000D02*
D03*
X1482500Y990500D02*
D03*
X1465500Y978500D02*
D03*
X1326500Y992000D02*
D03*
X1360000D02*
D03*
X1139500Y974500D02*
D03*
X1147000D02*
D03*
X1154500D02*
D03*
X1006500Y571000D02*
D03*
Y563500D02*
D03*
X1031000Y564000D02*
D03*
X1006500Y555500D02*
D03*
X1031000Y571500D02*
D03*
X1007000Y509500D02*
D03*
Y518000D02*
D03*
Y526000D02*
D03*
Y534000D02*
D03*
Y541500D02*
D03*
X1104000Y514000D02*
D03*
Y521500D02*
D03*
Y529000D02*
D03*
X1059500Y557000D02*
D03*
X1051500D02*
D03*
X1055000Y566000D02*
D03*
X1041000Y589000D02*
D03*
X1021000Y577000D02*
D03*
Y587500D02*
D03*
X1031000Y557150D02*
D03*
X1092500Y534500D02*
D03*
X1105500Y596500D02*
D03*
Y588500D02*
D03*
Y580500D02*
D03*
Y572500D02*
D03*
X1139000Y629500D02*
D03*
X1146500Y629500D02*
D03*
X1041000Y769250D02*
D03*
Y762250D02*
D03*
X1006500Y728750D02*
D03*
Y744250D02*
D03*
Y736750D02*
D03*
X1007000Y682750D02*
D03*
Y714750D02*
D03*
Y691250D02*
D03*
Y699250D02*
D03*
Y707250D02*
D03*
X1021000Y760750D02*
D03*
X1146000Y823500D02*
D03*
X1105500Y745750D02*
D03*
X1092500Y707750D02*
D03*
X1055000Y739250D02*
D03*
X1059500Y773250D02*
D03*
X1459000Y580750D02*
D03*
Y587750D02*
D03*
X1440500Y576750D02*
D03*
X1493500Y621250D02*
D03*
Y605750D02*
D03*
Y613250D02*
D03*
X1469000Y612750D02*
D03*
X1479000Y599750D02*
D03*
X1469000Y605500D02*
D03*
X1469000Y619600D02*
D03*
X1493000Y667250D02*
D03*
Y635250D02*
D03*
Y658750D02*
D03*
Y650750D02*
D03*
Y642750D02*
D03*
X1479000Y589250D02*
D03*
X1440500Y619750D02*
D03*
X1448500D02*
D03*
X1459000Y570250D02*
D03*
Y761750D02*
D03*
X1425000Y727250D02*
D03*
X1417500D02*
D03*
X1394500Y778250D02*
D03*
X1493500Y795250D02*
D03*
Y779750D02*
D03*
Y787250D02*
D03*
X1469000Y786750D02*
D03*
X1479000Y773750D02*
D03*
X1469000Y779250D02*
D03*
Y793600D02*
D03*
X1493000Y841250D02*
D03*
Y809250D02*
D03*
Y832750D02*
D03*
Y824750D02*
D03*
Y816750D02*
D03*
X1479000Y763250D02*
D03*
X1407500Y841750D02*
D03*
X1445000Y784750D02*
D03*
X1448500Y793750D02*
D03*
X1440500D02*
D03*
X1156956Y915639D02*
D03*
X1163956D02*
D03*
X1149956Y890639D02*
D03*
X1156956D02*
D03*
X1163956D02*
D03*
X1149956Y915639D02*
D03*
X1007000Y928000D02*
D03*
X1014500Y920000D02*
D03*
X1007000D02*
D03*
X1022000D02*
D03*
X1007000Y872500D02*
D03*
Y865000D02*
D03*
X1014500Y872500D02*
D03*
X1160456Y896639D02*
D03*
X1153456D02*
D03*
X1394500Y596250D02*
D03*
X1212500Y910000D02*
D03*
X1302500Y885500D02*
D03*
X1310000D02*
D03*
X1317500D02*
D03*
X1302000Y911500D02*
D03*
X1309500D02*
D03*
X1317000D02*
D03*
X1201002Y938494D02*
D03*
X1212502Y981994D02*
D03*
X1201002Y945494D02*
D03*
X1309502Y983494D02*
D03*
X1302002D02*
D03*
X1201002Y931494D02*
D03*
X1162500Y974500D02*
D03*
X1006500Y976500D02*
D03*
Y969500D02*
D03*
Y962500D02*
D03*
X1179500Y944000D02*
D03*
X1171500D02*
D03*
X1163500D02*
D03*
M02*
