G04*
G04 #@! TF.GenerationSoftware,Altium Limited,Altium Designer,24.9.1 (31)*
G04*
G04 Layer_Color=255*
%FSLAX44Y44*%
%MOMM*%
G71*
G04*
G04 #@! TF.SameCoordinates,22428939-7FEC-4B67-BCAF-D19850B6772B*
G04*
G04*
G04 #@! TF.FilePolarity,Positive*
G04*
G01*
G75*
G04:AMPARAMS|DCode=15|XSize=0.7mm|YSize=0.9mm|CornerRadius=0.035mm|HoleSize=0mm|Usage=FLASHONLY|Rotation=180.000|XOffset=0mm|YOffset=0mm|HoleType=Round|Shape=RoundedRectangle|*
%AMROUNDEDRECTD15*
21,1,0.7000,0.8300,0,0,180.0*
21,1,0.6300,0.9000,0,0,180.0*
1,1,0.0700,-0.3150,0.4150*
1,1,0.0700,0.3150,0.4150*
1,1,0.0700,0.3150,-0.4150*
1,1,0.0700,-0.3150,-0.4150*
%
%ADD15ROUNDEDRECTD15*%
G04:AMPARAMS|DCode=16|XSize=3.3mm|YSize=1.3mm|CornerRadius=0.065mm|HoleSize=0mm|Usage=FLASHONLY|Rotation=180.000|XOffset=0mm|YOffset=0mm|HoleType=Round|Shape=RoundedRectangle|*
%AMROUNDEDRECTD16*
21,1,3.3000,1.1700,0,0,180.0*
21,1,3.1700,1.3000,0,0,180.0*
1,1,0.1300,-1.5850,0.5850*
1,1,0.1300,1.5850,0.5850*
1,1,0.1300,1.5850,-0.5850*
1,1,0.1300,-1.5850,-0.5850*
%
%ADD16ROUNDEDRECTD16*%
G04:AMPARAMS|DCode=17|XSize=0.3mm|YSize=0.67mm|CornerRadius=0.0375mm|HoleSize=0mm|Usage=FLASHONLY|Rotation=270.000|XOffset=0mm|YOffset=0mm|HoleType=Round|Shape=RoundedRectangle|*
%AMROUNDEDRECTD17*
21,1,0.3000,0.5950,0,0,270.0*
21,1,0.2250,0.6700,0,0,270.0*
1,1,0.0750,-0.2975,-0.1125*
1,1,0.0750,-0.2975,0.1125*
1,1,0.0750,0.2975,0.1125*
1,1,0.0750,0.2975,-0.1125*
%
%ADD17ROUNDEDRECTD17*%
G04:AMPARAMS|DCode=18|XSize=0.8128mm|YSize=0.9mm|CornerRadius=0.0406mm|HoleSize=0mm|Usage=FLASHONLY|Rotation=180.000|XOffset=0mm|YOffset=0mm|HoleType=Round|Shape=RoundedRectangle|*
%AMROUNDEDRECTD18*
21,1,0.8128,0.8187,0,0,180.0*
21,1,0.7315,0.9000,0,0,180.0*
1,1,0.0813,-0.3658,0.4094*
1,1,0.0813,0.3658,0.4094*
1,1,0.0813,0.3658,-0.4094*
1,1,0.0813,-0.3658,-0.4094*
%
%ADD18ROUNDEDRECTD18*%
G04:AMPARAMS|DCode=19|XSize=0.8128mm|YSize=0.9mm|CornerRadius=0.0406mm|HoleSize=0mm|Usage=FLASHONLY|Rotation=90.000|XOffset=0mm|YOffset=0mm|HoleType=Round|Shape=RoundedRectangle|*
%AMROUNDEDRECTD19*
21,1,0.8128,0.8187,0,0,90.0*
21,1,0.7315,0.9000,0,0,90.0*
1,1,0.0813,0.4094,0.3658*
1,1,0.0813,0.4094,-0.3658*
1,1,0.0813,-0.4094,-0.3658*
1,1,0.0813,-0.4094,0.3658*
%
%ADD19ROUNDEDRECTD19*%
G04:AMPARAMS|DCode=20|XSize=3.3mm|YSize=1.3mm|CornerRadius=0.065mm|HoleSize=0mm|Usage=FLASHONLY|Rotation=90.000|XOffset=0mm|YOffset=0mm|HoleType=Round|Shape=RoundedRectangle|*
%AMROUNDEDRECTD20*
21,1,3.3000,1.1700,0,0,90.0*
21,1,3.1700,1.3000,0,0,90.0*
1,1,0.1300,0.5850,1.5850*
1,1,0.1300,0.5850,-1.5850*
1,1,0.1300,-0.5850,-1.5850*
1,1,0.1300,-0.5850,1.5850*
%
%ADD20ROUNDEDRECTD20*%
G04:AMPARAMS|DCode=21|XSize=1.15mm|YSize=1.9mm|CornerRadius=0.0575mm|HoleSize=0mm|Usage=FLASHONLY|Rotation=270.000|XOffset=0mm|YOffset=0mm|HoleType=Round|Shape=RoundedRectangle|*
%AMROUNDEDRECTD21*
21,1,1.1500,1.7850,0,0,270.0*
21,1,1.0350,1.9000,0,0,270.0*
1,1,0.1150,-0.8925,-0.5175*
1,1,0.1150,-0.8925,0.5175*
1,1,0.1150,0.8925,0.5175*
1,1,0.1150,0.8925,-0.5175*
%
%ADD21ROUNDEDRECTD21*%
G04:AMPARAMS|DCode=22|XSize=1.3mm|YSize=1.1mm|CornerRadius=0.055mm|HoleSize=0mm|Usage=FLASHONLY|Rotation=180.000|XOffset=0mm|YOffset=0mm|HoleType=Round|Shape=RoundedRectangle|*
%AMROUNDEDRECTD22*
21,1,1.3000,0.9900,0,0,180.0*
21,1,1.1900,1.1000,0,0,180.0*
1,1,0.1100,-0.5950,0.4950*
1,1,0.1100,0.5950,0.4950*
1,1,0.1100,0.5950,-0.4950*
1,1,0.1100,-0.5950,-0.4950*
%
%ADD22ROUNDEDRECTD22*%
G04:AMPARAMS|DCode=23|XSize=0.6mm|YSize=1.45mm|CornerRadius=0.075mm|HoleSize=0mm|Usage=FLASHONLY|Rotation=90.000|XOffset=0mm|YOffset=0mm|HoleType=Round|Shape=RoundedRectangle|*
%AMROUNDEDRECTD23*
21,1,0.6000,1.3000,0,0,90.0*
21,1,0.4500,1.4500,0,0,90.0*
1,1,0.1500,0.6500,0.2250*
1,1,0.1500,0.6500,-0.2250*
1,1,0.1500,-0.6500,-0.2250*
1,1,0.1500,-0.6500,0.2250*
%
%ADD23ROUNDEDRECTD23*%
G04:AMPARAMS|DCode=24|XSize=0.55mm|YSize=0.8mm|CornerRadius=0.0688mm|HoleSize=0mm|Usage=FLASHONLY|Rotation=0.000|XOffset=0mm|YOffset=0mm|HoleType=Round|Shape=RoundedRectangle|*
%AMROUNDEDRECTD24*
21,1,0.5500,0.6625,0,0,0.0*
21,1,0.4125,0.8000,0,0,0.0*
1,1,0.1375,0.2063,-0.3313*
1,1,0.1375,-0.2063,-0.3313*
1,1,0.1375,-0.2063,0.3313*
1,1,0.1375,0.2063,0.3313*
%
%ADD24ROUNDEDRECTD24*%
G04:AMPARAMS|DCode=25|XSize=1.47mm|YSize=0.3mm|CornerRadius=0.0375mm|HoleSize=0mm|Usage=FLASHONLY|Rotation=90.000|XOffset=0mm|YOffset=0mm|HoleType=Round|Shape=RoundedRectangle|*
%AMROUNDEDRECTD25*
21,1,1.4700,0.2250,0,0,90.0*
21,1,1.3950,0.3000,0,0,90.0*
1,1,0.0750,0.1125,0.6975*
1,1,0.0750,0.1125,-0.6975*
1,1,0.0750,-0.1125,-0.6975*
1,1,0.0750,-0.1125,0.6975*
%
%ADD25ROUNDEDRECTD25*%
G04:AMPARAMS|DCode=26|XSize=0.3mm|YSize=1.47mm|CornerRadius=0.0375mm|HoleSize=0mm|Usage=FLASHONLY|Rotation=90.000|XOffset=0mm|YOffset=0mm|HoleType=Round|Shape=RoundedRectangle|*
%AMROUNDEDRECTD26*
21,1,0.3000,1.3950,0,0,90.0*
21,1,0.2250,1.4700,0,0,90.0*
1,1,0.0750,0.6975,0.1125*
1,1,0.0750,0.6975,-0.1125*
1,1,0.0750,-0.6975,-0.1125*
1,1,0.0750,-0.6975,0.1125*
%
%ADD26ROUNDEDRECTD26*%
%ADD27R,1.0000X1.6000*%
%ADD28R,1.4000X0.9000*%
%ADD29R,0.9000X1.4000*%
G04:AMPARAMS|DCode=30|XSize=0.7mm|YSize=0.9mm|CornerRadius=0.035mm|HoleSize=0mm|Usage=FLASHONLY|Rotation=90.000|XOffset=0mm|YOffset=0mm|HoleType=Round|Shape=RoundedRectangle|*
%AMROUNDEDRECTD30*
21,1,0.7000,0.8300,0,0,90.0*
21,1,0.6300,0.9000,0,0,90.0*
1,1,0.0700,0.4150,0.3150*
1,1,0.0700,0.4150,-0.3150*
1,1,0.0700,-0.4150,-0.3150*
1,1,0.0700,-0.4150,0.3150*
%
%ADD30ROUNDEDRECTD30*%
G04:AMPARAMS|DCode=31|XSize=0.8mm|YSize=1mm|CornerRadius=0.04mm|HoleSize=0mm|Usage=FLASHONLY|Rotation=270.000|XOffset=0mm|YOffset=0mm|HoleType=Round|Shape=RoundedRectangle|*
%AMROUNDEDRECTD31*
21,1,0.8000,0.9200,0,0,270.0*
21,1,0.7200,1.0000,0,0,270.0*
1,1,0.0800,-0.4600,-0.3600*
1,1,0.0800,-0.4600,0.3600*
1,1,0.0800,0.4600,0.3600*
1,1,0.0800,0.4600,-0.3600*
%
%ADD31ROUNDEDRECTD31*%
G04:AMPARAMS|DCode=32|XSize=6.2mm|YSize=1.8mm|CornerRadius=0.225mm|HoleSize=0mm|Usage=FLASHONLY|Rotation=90.000|XOffset=0mm|YOffset=0mm|HoleType=Round|Shape=RoundedRectangle|*
%AMROUNDEDRECTD32*
21,1,6.2000,1.3500,0,0,90.0*
21,1,5.7500,1.8000,0,0,90.0*
1,1,0.4500,0.6750,2.8750*
1,1,0.4500,0.6750,-2.8750*
1,1,0.4500,-0.6750,-2.8750*
1,1,0.4500,-0.6750,2.8750*
%
%ADD32ROUNDEDRECTD32*%
G04:AMPARAMS|DCode=33|XSize=6.2mm|YSize=1.8mm|CornerRadius=0.225mm|HoleSize=0mm|Usage=FLASHONLY|Rotation=180.000|XOffset=0mm|YOffset=0mm|HoleType=Round|Shape=RoundedRectangle|*
%AMROUNDEDRECTD33*
21,1,6.2000,1.3500,0,0,180.0*
21,1,5.7500,1.8000,0,0,180.0*
1,1,0.4500,-2.8750,0.6750*
1,1,0.4500,2.8750,0.6750*
1,1,0.4500,2.8750,-0.6750*
1,1,0.4500,-2.8750,-0.6750*
%
%ADD33ROUNDEDRECTD33*%
G04:AMPARAMS|DCode=34|XSize=0.76mm|YSize=2.4mm|CornerRadius=0.095mm|HoleSize=0mm|Usage=FLASHONLY|Rotation=0.000|XOffset=0mm|YOffset=0mm|HoleType=Round|Shape=RoundedRectangle|*
%AMROUNDEDRECTD34*
21,1,0.7600,2.2100,0,0,0.0*
21,1,0.5700,2.4000,0,0,0.0*
1,1,0.1900,0.2850,-1.1050*
1,1,0.1900,-0.2850,-1.1050*
1,1,0.1900,-0.2850,1.1050*
1,1,0.1900,0.2850,1.1050*
%
%ADD34ROUNDEDRECTD34*%
G04:AMPARAMS|DCode=35|XSize=0.8mm|YSize=0.9mm|CornerRadius=0.04mm|HoleSize=0mm|Usage=FLASHONLY|Rotation=90.000|XOffset=0mm|YOffset=0mm|HoleType=Round|Shape=RoundedRectangle|*
%AMROUNDEDRECTD35*
21,1,0.8000,0.8200,0,0,90.0*
21,1,0.7200,0.9000,0,0,90.0*
1,1,0.0800,0.4100,0.3600*
1,1,0.0800,0.4100,-0.3600*
1,1,0.0800,-0.4100,-0.3600*
1,1,0.0800,-0.4100,0.3600*
%
%ADD35ROUNDEDRECTD35*%
G04:AMPARAMS|DCode=36|XSize=1.6mm|YSize=1.9mm|CornerRadius=0.2mm|HoleSize=0mm|Usage=FLASHONLY|Rotation=90.000|XOffset=0mm|YOffset=0mm|HoleType=Round|Shape=RoundedRectangle|*
%AMROUNDEDRECTD36*
21,1,1.6000,1.5000,0,0,90.0*
21,1,1.2000,1.9000,0,0,90.0*
1,1,0.4000,0.7500,0.6000*
1,1,0.4000,0.7500,-0.6000*
1,1,0.4000,-0.7500,-0.6000*
1,1,0.4000,-0.7500,0.6000*
%
%ADD36ROUNDEDRECTD36*%
G04:AMPARAMS|DCode=37|XSize=1.1mm|YSize=2mm|CornerRadius=0.055mm|HoleSize=0mm|Usage=FLASHONLY|Rotation=0.000|XOffset=0mm|YOffset=0mm|HoleType=Round|Shape=RoundedRectangle|*
%AMROUNDEDRECTD37*
21,1,1.1000,1.8900,0,0,0.0*
21,1,0.9900,2.0000,0,0,0.0*
1,1,0.1100,0.4950,-0.9450*
1,1,0.1100,-0.4950,-0.9450*
1,1,0.1100,-0.4950,0.9450*
1,1,0.1100,0.4950,0.9450*
%
%ADD37ROUNDEDRECTD37*%
G04:AMPARAMS|DCode=38|XSize=1.1mm|YSize=2mm|CornerRadius=0.055mm|HoleSize=0mm|Usage=FLASHONLY|Rotation=270.000|XOffset=0mm|YOffset=0mm|HoleType=Round|Shape=RoundedRectangle|*
%AMROUNDEDRECTD38*
21,1,1.1000,1.8900,0,0,270.0*
21,1,0.9900,2.0000,0,0,270.0*
1,1,0.1100,-0.9450,-0.4950*
1,1,0.1100,-0.9450,0.4950*
1,1,0.1100,0.9450,0.4950*
1,1,0.1100,0.9450,-0.4950*
%
%ADD38ROUNDEDRECTD38*%
G04:AMPARAMS|DCode=65|XSize=1.4mm|YSize=0.25mm|CornerRadius=0.05mm|HoleSize=0mm|Usage=FLASHONLY|Rotation=180.000|XOffset=0mm|YOffset=0mm|HoleType=Round|Shape=RoundedRectangle|*
%AMROUNDEDRECTD65*
21,1,1.4000,0.1500,0,0,180.0*
21,1,1.3000,0.2500,0,0,180.0*
1,1,0.1000,-0.6500,0.0750*
1,1,0.1000,0.6500,0.0750*
1,1,0.1000,0.6500,-0.0750*
1,1,0.1000,-0.6500,-0.0750*
%
%ADD65ROUNDEDRECTD65*%
G04:AMPARAMS|DCode=66|XSize=0.6mm|YSize=0.25mm|CornerRadius=0.05mm|HoleSize=0mm|Usage=FLASHONLY|Rotation=180.000|XOffset=0mm|YOffset=0mm|HoleType=Round|Shape=RoundedRectangle|*
%AMROUNDEDRECTD66*
21,1,0.6000,0.1500,0,0,180.0*
21,1,0.5000,0.2500,0,0,180.0*
1,1,0.1000,-0.2500,0.0750*
1,1,0.1000,0.2500,0.0750*
1,1,0.1000,0.2500,-0.0750*
1,1,0.1000,-0.2500,-0.0750*
%
%ADD66ROUNDEDRECTD66*%
G04:AMPARAMS|DCode=67|XSize=0.25mm|YSize=0.6mm|CornerRadius=0.05mm|HoleSize=0mm|Usage=FLASHONLY|Rotation=180.000|XOffset=0mm|YOffset=0mm|HoleType=Round|Shape=RoundedRectangle|*
%AMROUNDEDRECTD67*
21,1,0.2500,0.5000,0,0,180.0*
21,1,0.1500,0.6000,0,0,180.0*
1,1,0.1000,-0.0750,0.2500*
1,1,0.1000,0.0750,0.2500*
1,1,0.1000,0.0750,-0.2500*
1,1,0.1000,-0.0750,-0.2500*
%
%ADD67ROUNDEDRECTD67*%
%ADD76C,1.0100*%
%ADD77R,1.0100X1.0100*%
D15*
X1198500Y783500D02*
D03*
X1182500D02*
D03*
X1060500Y844500D02*
D03*
X1044500D02*
D03*
X1475500Y695250D02*
D03*
X1491500D02*
D03*
X1475500Y521250D02*
D03*
X1491500D02*
D03*
X1024500Y655500D02*
D03*
X1008500D02*
D03*
X1023500Y828000D02*
D03*
X1007500D02*
D03*
X1173000Y758500D02*
D03*
X1189000D02*
D03*
X1355500Y900500D02*
D03*
X1371500D02*
D03*
X1366500Y755000D02*
D03*
X1350500D02*
D03*
X1385500Y886500D02*
D03*
X1369500D02*
D03*
X1325500Y744000D02*
D03*
X1341500D02*
D03*
X1171000Y573000D02*
D03*
X1155000D02*
D03*
X1306500Y555500D02*
D03*
X1322500D02*
D03*
X1325000Y524000D02*
D03*
X1309000D02*
D03*
X1157000Y615500D02*
D03*
X1173000D02*
D03*
X1147000Y660500D02*
D03*
X1163000D02*
D03*
X1338500Y681500D02*
D03*
X1322500D02*
D03*
X1175002Y966994D02*
D03*
X1191002D02*
D03*
Y989994D02*
D03*
X1175002D02*
D03*
X1191002Y954994D02*
D03*
X1175002D02*
D03*
X1175000Y895000D02*
D03*
X1191000D02*
D03*
Y918000D02*
D03*
X1175000D02*
D03*
X1191000Y883000D02*
D03*
X1175000D02*
D03*
X1035500Y844000D02*
D03*
X1019500D02*
D03*
X1151500Y868500D02*
D03*
X1167500D02*
D03*
X1128500Y911000D02*
D03*
X1112500D02*
D03*
X1177500Y771000D02*
D03*
X1161500D02*
D03*
X1135500Y770500D02*
D03*
X1151500D02*
D03*
X1265000Y520000D02*
D03*
X1281000D02*
D03*
X1198500Y577000D02*
D03*
X1182500D02*
D03*
X1192500Y626500D02*
D03*
X1176500D02*
D03*
X1287000Y599500D02*
D03*
X1271000D02*
D03*
X1212500Y748000D02*
D03*
X1228500D02*
D03*
X1304502Y934494D02*
D03*
X1320502D02*
D03*
X1175002Y978494D02*
D03*
X1191002D02*
D03*
X1218502Y958494D02*
D03*
X1202502D02*
D03*
X1202502Y991494D02*
D03*
X1218502D02*
D03*
X1304500Y862500D02*
D03*
X1320500D02*
D03*
X1175000Y906500D02*
D03*
X1191000D02*
D03*
X1218500Y886500D02*
D03*
X1202500D02*
D03*
X1202500Y919500D02*
D03*
X1218500D02*
D03*
X1112456Y854639D02*
D03*
X1128456D02*
D03*
X1112500Y923000D02*
D03*
X1128500D02*
D03*
D16*
X1069500Y813250D02*
D03*
X1133500D02*
D03*
X1069500Y640000D02*
D03*
X1133500D02*
D03*
X1444500Y710000D02*
D03*
X1380500D02*
D03*
X1430500Y536750D02*
D03*
X1366500D02*
D03*
X1088000Y964500D02*
D03*
X1152000D02*
D03*
D17*
X1219402Y968994D02*
D03*
Y973994D02*
D03*
Y978994D02*
D03*
X1204602D02*
D03*
Y973994D02*
D03*
Y968994D02*
D03*
X1219400Y897000D02*
D03*
Y902000D02*
D03*
Y907000D02*
D03*
X1204600D02*
D03*
Y902000D02*
D03*
Y897000D02*
D03*
D18*
X1399073Y900500D02*
D03*
X1381927D02*
D03*
X1130427Y594000D02*
D03*
X1147572D02*
D03*
X1322428Y669500D02*
D03*
X1339572D02*
D03*
D19*
X1290500Y808428D02*
D03*
Y825573D02*
D03*
X1305000Y808428D02*
D03*
Y825573D02*
D03*
X1163000Y541927D02*
D03*
Y559072D02*
D03*
X1336000Y556572D02*
D03*
Y539427D02*
D03*
X1165000Y643073D02*
D03*
Y625928D02*
D03*
D20*
X1384000Y831250D02*
D03*
Y767250D02*
D03*
Y657250D02*
D03*
Y593250D02*
D03*
X1116000Y520000D02*
D03*
Y584000D02*
D03*
Y692750D02*
D03*
Y756750D02*
D03*
D21*
X1188500Y614250D02*
D03*
Y589750D02*
D03*
D22*
X1246500Y584000D02*
D03*
X1223500D02*
D03*
Y602000D02*
D03*
X1246500D02*
D03*
D23*
X1481000Y754250D02*
D03*
Y766950D02*
D03*
Y779650D02*
D03*
Y792350D02*
D03*
Y805050D02*
D03*
Y817750D02*
D03*
Y830450D02*
D03*
Y843150D02*
D03*
X1426500Y754250D02*
D03*
Y766950D02*
D03*
Y779650D02*
D03*
Y792350D02*
D03*
Y805050D02*
D03*
Y817750D02*
D03*
Y830450D02*
D03*
Y843150D02*
D03*
X1481000Y580250D02*
D03*
Y592950D02*
D03*
Y605650D02*
D03*
Y618350D02*
D03*
Y631050D02*
D03*
Y643750D02*
D03*
Y656450D02*
D03*
Y669150D02*
D03*
X1426500Y580250D02*
D03*
Y592950D02*
D03*
Y605650D02*
D03*
Y618350D02*
D03*
Y631050D02*
D03*
Y643750D02*
D03*
Y656450D02*
D03*
Y669150D02*
D03*
X1019000Y596500D02*
D03*
Y583800D02*
D03*
Y571100D02*
D03*
Y558400D02*
D03*
Y545700D02*
D03*
Y533000D02*
D03*
Y520300D02*
D03*
Y507600D02*
D03*
X1073500Y596500D02*
D03*
Y583800D02*
D03*
Y571100D02*
D03*
Y558400D02*
D03*
Y545700D02*
D03*
Y533000D02*
D03*
Y520300D02*
D03*
Y507600D02*
D03*
X1019000Y769750D02*
D03*
Y757050D02*
D03*
Y744350D02*
D03*
Y731650D02*
D03*
Y718950D02*
D03*
Y706250D02*
D03*
Y693550D02*
D03*
Y680850D02*
D03*
X1073500Y769750D02*
D03*
Y757050D02*
D03*
Y744350D02*
D03*
Y731650D02*
D03*
Y718950D02*
D03*
Y706250D02*
D03*
Y693550D02*
D03*
Y680850D02*
D03*
D24*
X1388500Y925000D02*
D03*
X1379000D02*
D03*
X1369500D02*
D03*
Y949000D02*
D03*
X1379000D02*
D03*
X1388500D02*
D03*
X1478500Y925000D02*
D03*
X1469000D02*
D03*
X1459500D02*
D03*
Y949000D02*
D03*
X1469000D02*
D03*
X1478500D02*
D03*
X1433500Y925000D02*
D03*
X1424000D02*
D03*
X1414500D02*
D03*
Y949000D02*
D03*
X1424000D02*
D03*
X1433500D02*
D03*
D25*
X1212500Y618300D02*
D03*
X1217500D02*
D03*
X1222500D02*
D03*
X1227500D02*
D03*
X1232500D02*
D03*
X1237500D02*
D03*
X1242500D02*
D03*
X1247500D02*
D03*
X1252500D02*
D03*
X1257500D02*
D03*
X1262500D02*
D03*
X1267500D02*
D03*
X1272500D02*
D03*
X1277500D02*
D03*
X1282500D02*
D03*
X1287500D02*
D03*
Y731700D02*
D03*
X1282500D02*
D03*
X1277500D02*
D03*
X1272500D02*
D03*
X1267500D02*
D03*
X1262500D02*
D03*
X1257500D02*
D03*
X1252500D02*
D03*
X1247500D02*
D03*
X1242500D02*
D03*
X1237500D02*
D03*
X1232500D02*
D03*
X1227500D02*
D03*
X1222500D02*
D03*
X1217500D02*
D03*
X1212500D02*
D03*
D26*
X1306700Y637500D02*
D03*
Y642500D02*
D03*
Y647500D02*
D03*
Y652500D02*
D03*
Y657500D02*
D03*
Y662500D02*
D03*
Y667500D02*
D03*
Y672500D02*
D03*
Y677500D02*
D03*
Y682500D02*
D03*
Y687500D02*
D03*
Y692500D02*
D03*
Y697500D02*
D03*
Y702500D02*
D03*
Y707500D02*
D03*
Y712500D02*
D03*
X1193300D02*
D03*
Y707500D02*
D03*
Y702500D02*
D03*
Y697500D02*
D03*
Y692500D02*
D03*
Y687500D02*
D03*
Y682500D02*
D03*
Y677500D02*
D03*
Y672500D02*
D03*
Y667500D02*
D03*
Y662500D02*
D03*
Y657500D02*
D03*
Y652500D02*
D03*
Y647500D02*
D03*
Y642500D02*
D03*
Y637500D02*
D03*
D27*
X1429000Y867000D02*
D03*
X1454000D02*
D03*
X1479000D02*
D03*
X1429000Y891000D02*
D03*
X1454000D02*
D03*
X1479000D02*
D03*
D28*
X1331500Y782500D02*
D03*
Y847500D02*
D03*
Y632500D02*
D03*
Y567500D02*
D03*
D29*
X1241500Y546000D02*
D03*
X1176500D02*
D03*
D30*
X1464000Y682000D02*
D03*
Y698000D02*
D03*
X1460000Y552250D02*
D03*
Y536250D02*
D03*
X1040000Y624500D02*
D03*
Y640500D02*
D03*
X1039000Y797500D02*
D03*
Y813500D02*
D03*
X1188500Y746000D02*
D03*
Y730000D02*
D03*
X1292000Y798500D02*
D03*
Y782500D02*
D03*
X1306000Y799000D02*
D03*
Y783000D02*
D03*
X1310500Y773500D02*
D03*
Y757500D02*
D03*
X1403500Y975500D02*
D03*
Y959500D02*
D03*
X1392000Y975500D02*
D03*
Y959500D02*
D03*
X1276500Y812000D02*
D03*
Y796000D02*
D03*
X1262500Y812000D02*
D03*
Y796000D02*
D03*
X1453000Y978500D02*
D03*
Y962500D02*
D03*
X1486000Y979500D02*
D03*
Y963500D02*
D03*
X1141500Y621000D02*
D03*
Y605000D02*
D03*
X1400000Y885000D02*
D03*
Y869000D02*
D03*
X1160000Y602000D02*
D03*
Y586000D02*
D03*
X1372500Y982000D02*
D03*
Y966000D02*
D03*
X1360500Y982000D02*
D03*
Y966000D02*
D03*
X1140000Y909000D02*
D03*
Y925000D02*
D03*
X1008500Y855000D02*
D03*
Y839000D02*
D03*
X1141500Y869500D02*
D03*
Y853500D02*
D03*
X1243500Y805000D02*
D03*
Y789000D02*
D03*
X1327500Y755500D02*
D03*
Y771500D02*
D03*
X1239000Y815000D02*
D03*
Y831000D02*
D03*
X1340000Y771500D02*
D03*
Y755500D02*
D03*
X1401500Y929000D02*
D03*
Y945000D02*
D03*
X1298000Y615000D02*
D03*
Y599000D02*
D03*
X1491000Y929000D02*
D03*
Y945000D02*
D03*
X1210000Y585000D02*
D03*
Y601000D02*
D03*
X1260000D02*
D03*
Y585000D02*
D03*
X1177500Y637000D02*
D03*
Y653000D02*
D03*
X1324000Y659000D02*
D03*
Y643000D02*
D03*
X1326000Y710000D02*
D03*
Y694000D02*
D03*
X1446500Y929000D02*
D03*
Y945000D02*
D03*
X1040500Y985500D02*
D03*
Y969500D02*
D03*
X1101000Y908500D02*
D03*
Y924500D02*
D03*
X1139956Y879139D02*
D03*
Y895139D02*
D03*
X1101956Y869639D02*
D03*
Y853639D02*
D03*
D31*
X1276500Y824000D02*
D03*
Y840000D02*
D03*
X1262206Y839998D02*
D03*
Y823998D02*
D03*
D32*
X1287002Y961994D02*
D03*
X1236002D02*
D03*
X1287000Y890000D02*
D03*
X1236000D02*
D03*
D33*
X1059956Y914139D02*
D03*
Y863139D02*
D03*
D34*
X1182200Y803000D02*
D03*
Y842000D02*
D03*
X1169500Y803000D02*
D03*
Y842000D02*
D03*
X1156800Y803000D02*
D03*
Y842000D02*
D03*
X1222200Y803000D02*
D03*
Y842000D02*
D03*
X1209500Y803000D02*
D03*
Y842000D02*
D03*
X1196800Y803000D02*
D03*
Y842000D02*
D03*
D35*
X1471500Y727550D02*
D03*
Y707950D02*
D03*
X1491500Y717750D02*
D03*
X1471500Y553550D02*
D03*
Y533950D02*
D03*
X1491500Y543750D02*
D03*
X1028500Y623200D02*
D03*
Y642800D02*
D03*
X1008500Y633000D02*
D03*
X1028000Y796700D02*
D03*
Y816300D02*
D03*
X1008000Y806500D02*
D03*
D36*
X1018500Y988000D02*
D03*
Y948000D02*
D03*
X1339500Y988000D02*
D03*
Y948000D02*
D03*
D37*
X1311000Y577500D02*
D03*
X1285000D02*
D03*
X1217002Y938494D02*
D03*
X1191002D02*
D03*
X1217000Y866500D02*
D03*
X1191000D02*
D03*
D38*
X1310502Y947494D02*
D03*
Y973494D02*
D03*
X1310500Y875500D02*
D03*
Y901500D02*
D03*
X1014000Y908000D02*
D03*
Y882000D02*
D03*
X1157456Y880639D02*
D03*
Y906639D02*
D03*
D65*
X1125456Y880139D02*
D03*
X1115456Y885139D02*
D03*
X1125456Y890139D02*
D03*
D66*
X1111456Y880139D02*
D03*
D67*
X1127956Y871139D02*
D03*
X1122956D02*
D03*
X1117956D02*
D03*
X1112956D02*
D03*
Y899139D02*
D03*
X1117956D02*
D03*
X1122956D02*
D03*
X1127956D02*
D03*
D76*
X1247900Y513000D02*
D03*
X1235200D02*
D03*
X1222500D02*
D03*
X1209800D02*
D03*
X1197100D02*
D03*
X1184400D02*
D03*
X1171700D02*
D03*
D77*
X1159000D02*
D03*
M02*
