G04*
G04 #@! TF.GenerationSoftware,Altium Limited,Altium Designer,24.9.1 (31)*
G04*
G04 Layer_Color=32768*
%FSLAX44Y44*%
%MOMM*%
G71*
G04*
G04 #@! TF.SameCoordinates,22428939-7FEC-4B67-BCAF-D19850B6772B*
G04*
G04*
G04 #@! TF.FilePolarity,Positive*
G04*
G01*
G75*
%ADD11C,0.2000*%
%ADD14C,0.1000*%
%ADD140C,0.0500*%
D11*
X1314000Y785000D02*
Y845000D01*
X1349000D01*
Y785000D02*
Y845000D01*
X1314000Y785000D02*
X1349000D01*
X1179000Y528500D02*
X1239000D01*
X1179000D02*
Y563500D01*
X1239000D01*
Y528500D02*
Y563500D01*
X1349000Y570000D02*
Y630000D01*
X1314000Y570000D02*
X1349000D01*
X1314000D02*
Y630000D01*
X1349000D01*
D14*
X1185750Y783500D02*
X1195250D01*
X1190500Y778750D02*
Y788250D01*
X1212000Y528750D02*
Y538250D01*
X1207250Y533500D02*
X1216750D01*
X1250000Y719100D02*
Y741100D01*
X1224000D02*
X1250000D01*
X1224000Y719100D02*
X1250000D01*
X1224000D02*
Y741100D01*
X1164000Y954750D02*
Y964250D01*
X1159250Y959500D02*
X1168750D01*
X1054750Y785000D02*
X1064250D01*
X1059500Y780250D02*
Y789750D01*
X1047750Y844500D02*
X1057250D01*
X1052500Y839750D02*
Y849250D01*
X1096500Y813250D02*
X1106500D01*
X1101500Y808250D02*
Y818250D01*
X1217000Y844500D02*
X1227000D01*
X1222000Y839500D02*
Y849500D01*
X1207002Y973994D02*
X1217002D01*
X1212002Y968994D02*
Y978994D01*
X1207000Y902000D02*
X1217000D01*
X1212000Y897000D02*
Y907000D01*
X1134100Y640000D02*
X1144100D01*
X1139100Y635000D02*
Y645000D01*
X1429343Y860000D02*
Y870000D01*
X1424343Y865000D02*
X1434343D01*
X1129500Y706000D02*
Y716000D01*
X1124500Y711000D02*
X1134500D01*
X1096500Y640000D02*
X1106500D01*
X1101500Y635000D02*
Y645000D01*
X1143000Y555000D02*
X1153000D01*
X1148000Y550000D02*
Y560000D01*
X1407500Y710000D02*
X1417500D01*
X1412500Y705000D02*
Y715000D01*
X1393500Y536750D02*
X1403500D01*
X1398500Y531750D02*
Y541750D01*
X1384000Y794250D02*
Y804250D01*
X1379000Y799250D02*
X1389000D01*
X1384000Y620250D02*
Y630250D01*
X1379000Y625250D02*
X1389000D01*
X1116000Y547000D02*
Y557000D01*
X1111000Y552000D02*
X1121000D01*
X1116000Y719750D02*
Y729750D01*
X1111000Y724750D02*
X1121000D01*
X1115000Y964500D02*
X1125000D01*
X1120000Y959500D02*
Y969500D01*
X1183750Y602000D02*
X1193250D01*
X1188500Y597250D02*
Y606750D01*
X1453750Y793700D02*
Y803700D01*
X1448750Y798700D02*
X1458750D01*
X1453750Y619700D02*
Y629700D01*
X1448750Y624700D02*
X1458750D01*
X1046250Y547050D02*
Y557050D01*
X1041250Y552050D02*
X1051250D01*
X1046250Y720300D02*
Y730300D01*
X1041250Y725300D02*
X1051250D01*
X1312500Y727500D02*
X1334500D01*
X1312500Y701500D02*
Y727500D01*
X1334500Y701500D02*
Y727500D01*
X1312500Y701500D02*
X1334500D01*
X1170000Y772400D02*
X1192000D01*
X1170000Y746400D02*
Y772400D01*
X1192000Y746400D02*
Y772400D01*
X1170000Y746400D02*
X1192000D01*
X1220000Y748600D02*
Y770600D01*
Y748600D02*
X1246000D01*
X1220000Y770600D02*
X1246000D01*
Y748600D02*
Y770600D01*
X1177600Y733500D02*
X1199600D01*
X1177600Y707500D02*
Y733500D01*
X1199600Y707500D02*
Y733500D01*
X1177600Y707500D02*
X1199600D01*
X1148500Y786000D02*
X1180500D01*
X1148500Y823000D02*
X1180500D01*
Y797000D02*
Y823000D01*
X1148500Y786000D02*
Y823000D01*
X1180500Y786000D02*
Y797000D01*
X1128000Y744500D02*
X1160000D01*
X1128000Y781500D02*
X1160000D01*
Y755500D02*
Y781500D01*
X1128000Y744500D02*
Y781500D01*
X1160000Y744500D02*
Y755500D01*
X1212000Y827500D02*
X1244000D01*
X1212000Y790500D02*
X1244000D01*
X1212000D02*
Y816500D01*
X1244000Y790500D02*
Y827500D01*
X1212000Y816500D02*
Y827500D01*
X1180500Y786000D02*
X1212500D01*
X1180500Y823000D02*
X1212500D01*
Y797000D02*
Y823000D01*
X1180500Y786000D02*
Y823000D01*
X1212500Y786000D02*
Y797000D01*
X1300000Y779000D02*
X1310000D01*
X1305000Y774000D02*
Y784000D01*
X1374000Y937000D02*
X1384000D01*
X1379000Y932000D02*
Y942000D01*
X1464000Y937000D02*
X1474000D01*
X1469000Y932000D02*
Y942000D01*
X1293000Y553500D02*
Y563500D01*
X1288000Y558500D02*
X1298000D01*
X1419000Y937000D02*
X1429000D01*
X1424000Y932000D02*
Y942000D01*
X1350000Y931500D02*
Y961500D01*
X1330500D02*
X1350000D01*
X1330500Y931500D02*
Y961500D01*
Y931500D02*
X1350000D01*
X1385250Y738250D02*
X1394750D01*
X1390000Y733500D02*
Y743000D01*
X1385250Y564250D02*
X1394750D01*
X1390000Y559500D02*
Y569000D01*
X1103750Y594500D02*
X1113250D01*
X1108500Y589750D02*
Y599250D01*
X1105250Y785750D02*
X1114750D01*
X1110000Y781000D02*
Y790500D01*
X1464250Y836250D02*
X1473750D01*
X1469000Y831500D02*
Y841000D01*
X1464250Y662250D02*
X1473750D01*
X1469000Y657500D02*
Y667000D01*
X1026250Y514500D02*
X1035750D01*
X1031000Y509750D02*
Y519250D01*
X1026250Y687750D02*
X1035750D01*
X1031000Y683000D02*
Y692500D01*
X1436250Y775250D02*
X1445750D01*
X1441000Y770500D02*
Y780000D01*
X1436250Y601250D02*
X1445750D01*
X1441000Y596500D02*
Y606000D01*
X1054250Y575500D02*
X1063750D01*
X1059000Y570750D02*
Y580250D01*
X1054250Y748750D02*
X1063750D01*
X1059000Y744000D02*
Y753500D01*
X1436250Y763250D02*
X1445750D01*
X1441000Y758500D02*
Y768000D01*
X1436250Y589250D02*
X1445750D01*
X1441000Y584500D02*
Y594000D01*
X1054250Y587500D02*
X1063750D01*
X1059000Y582750D02*
Y592250D01*
X1054250Y760750D02*
X1063750D01*
X1059000Y756000D02*
Y765500D01*
X1464000Y685250D02*
Y694750D01*
X1459250Y690000D02*
X1468750D01*
X1460000Y539500D02*
Y549000D01*
X1455250Y544250D02*
X1464750D01*
X1040000Y627750D02*
Y637250D01*
X1035250Y632500D02*
X1044750D01*
X1039000Y800750D02*
Y810250D01*
X1034250Y805500D02*
X1043750D01*
X1478750Y695250D02*
X1488250D01*
X1483500Y690500D02*
Y700000D01*
X1478750Y521250D02*
X1488250D01*
X1483500Y516500D02*
Y526000D01*
X1011750Y655500D02*
X1021250D01*
X1016500Y650750D02*
Y660250D01*
X1010750Y828000D02*
X1020250D01*
X1015500Y823250D02*
Y832750D01*
X1419500Y764500D02*
Y774000D01*
X1414750Y769250D02*
X1424250D01*
X1419500Y590500D02*
Y600000D01*
X1414750Y595250D02*
X1424250D01*
X1080500Y576750D02*
Y586250D01*
X1075750Y581500D02*
X1085250D01*
X1080500Y750000D02*
Y759500D01*
X1075750Y754750D02*
X1085250D01*
X1430750Y829000D02*
X1440250D01*
X1435500Y824250D02*
Y833750D01*
X1430750Y655250D02*
X1440250D01*
X1435500Y650500D02*
Y660000D01*
X1059750Y521500D02*
X1069250D01*
X1064500Y516750D02*
Y526250D01*
X1059750Y694750D02*
X1069250D01*
X1064500Y690000D02*
Y699500D01*
X1435750Y738250D02*
X1445250D01*
X1440500Y733500D02*
Y743000D01*
X1435750Y564250D02*
X1445250D01*
X1440500Y559500D02*
Y569000D01*
X1054250Y612500D02*
X1063750D01*
X1059000Y607750D02*
Y617250D01*
X1467250Y706750D02*
X1476750D01*
X1472000Y702000D02*
Y711500D01*
X1467250Y532750D02*
X1476750D01*
X1472000Y528000D02*
Y537500D01*
X1023250Y644000D02*
X1032750D01*
X1028000Y639250D02*
Y648750D01*
X1023250Y815500D02*
X1032750D01*
X1028000Y810750D02*
Y820250D01*
X1176250Y758500D02*
X1185750D01*
X1181000Y753750D02*
Y763250D01*
X1358750Y900500D02*
X1368250D01*
X1363500Y895750D02*
Y905250D01*
X1188500Y733250D02*
Y742750D01*
X1183750Y738000D02*
X1193250D01*
X1477250Y877000D02*
X1486750D01*
X1482000Y872250D02*
Y881750D01*
X1292000Y785750D02*
Y795250D01*
X1287250Y790500D02*
X1296750D01*
X1306000Y786250D02*
Y795750D01*
X1301250Y791000D02*
X1310750D01*
X1310500Y760750D02*
Y770250D01*
X1305750Y765500D02*
X1315250D01*
X1361500Y823750D02*
Y833250D01*
X1356750Y828500D02*
X1366250D01*
X1350000Y823750D02*
Y833250D01*
X1345250Y828500D02*
X1354750D01*
X1403500Y962750D02*
Y972250D01*
X1398750Y967500D02*
X1408250D01*
X1392000Y962750D02*
Y972250D01*
X1387250Y967500D02*
X1396750D01*
X1257750Y737500D02*
X1267250D01*
X1262500Y732750D02*
Y742250D01*
X1276500Y799250D02*
Y808750D01*
X1271750Y804000D02*
X1281250D01*
X1262500Y799250D02*
Y808750D01*
X1257750Y804000D02*
X1267250D01*
X1353750Y755000D02*
X1363250D01*
X1358500Y750250D02*
Y759750D01*
X1372750Y886500D02*
X1382250D01*
X1377500Y881750D02*
Y891250D01*
X1328750Y744000D02*
X1338250D01*
X1333500Y739250D02*
Y748750D01*
X1389000Y866250D02*
Y875750D01*
X1384250Y871000D02*
X1393750D01*
X1347750Y847500D02*
X1357250D01*
X1352500Y842750D02*
Y852250D01*
X1401500Y872250D02*
Y881750D01*
X1396750Y877000D02*
X1406250D01*
X1158250Y573000D02*
X1167750D01*
X1163000Y568250D02*
Y577750D01*
X1309750Y555500D02*
X1319250D01*
X1314500Y550750D02*
Y560250D01*
X1188500Y582250D02*
Y591750D01*
X1183750Y587000D02*
X1193250D01*
X1453000Y965750D02*
Y975250D01*
X1448250Y970500D02*
X1457750D01*
X1486000Y966750D02*
Y976250D01*
X1481250Y971500D02*
X1490750D01*
X1312250Y524000D02*
X1321750D01*
X1317000Y519250D02*
Y528750D01*
X1104500Y541250D02*
Y550750D01*
X1099750Y546000D02*
X1109250D01*
X1141500Y608250D02*
Y617750D01*
X1136750Y613000D02*
X1146250D01*
X1160250Y615500D02*
X1169750D01*
X1165000Y610750D02*
Y620250D01*
X1181250Y533500D02*
X1190750D01*
X1186000Y528750D02*
Y538250D01*
X1488500Y909250D02*
Y918750D01*
X1483750Y914000D02*
X1493250D01*
X1176000Y577750D02*
Y587250D01*
X1171250Y582500D02*
X1180750D01*
X1079750Y639000D02*
X1089250D01*
X1084500Y634250D02*
Y643750D01*
X1150250Y660500D02*
X1159750D01*
X1155000Y655750D02*
Y665250D01*
X1183500Y634250D02*
Y643750D01*
X1178750Y639000D02*
X1188250D01*
X1325750Y681500D02*
X1335250D01*
X1330500Y676750D02*
Y686250D01*
X1170500Y625250D02*
Y634750D01*
X1165750Y630000D02*
X1175250D01*
X1105250Y642000D02*
X1114750D01*
X1110000Y637250D02*
Y646750D01*
X1413500Y858750D02*
Y868250D01*
X1408750Y863500D02*
X1418250D01*
X1444843Y861750D02*
Y871250D01*
X1440093Y866500D02*
X1449593D01*
X1341000Y621250D02*
Y630750D01*
X1336250Y626000D02*
X1345750D01*
X1136500Y943250D02*
Y952750D01*
X1131750Y948000D02*
X1141250D01*
X1421093Y883500D02*
X1430593D01*
X1425843Y878750D02*
Y888250D01*
X1400000Y872250D02*
Y881750D01*
X1395250Y877000D02*
X1404750D01*
X1160000Y589250D02*
Y598750D01*
X1155250Y594000D02*
X1164750D01*
X1162000Y599750D02*
Y609250D01*
X1157250Y604500D02*
X1166750D01*
X1372500Y969250D02*
Y978750D01*
X1367750Y974000D02*
X1377250D01*
X1109500Y944250D02*
Y953750D01*
X1104750Y949000D02*
X1114250D01*
X1360500Y969250D02*
Y978750D01*
X1355750Y974000D02*
X1365250D01*
X1120250Y692500D02*
X1129750D01*
X1125000Y687750D02*
Y697250D01*
X1144500Y706250D02*
Y715750D01*
X1139750Y711000D02*
X1149250D01*
X1129250Y729500D02*
X1138750D01*
X1134000Y724750D02*
Y734250D01*
X1114500Y707750D02*
Y717250D01*
X1109750Y712500D02*
X1119250D01*
X1446000Y909750D02*
Y919250D01*
X1441250Y914500D02*
X1450750D01*
X1338250Y990500D02*
X1347750D01*
X1343000Y985750D02*
Y995250D01*
X1178252Y966994D02*
X1187752D01*
X1183002Y962244D02*
Y971744D01*
X1117294Y853361D02*
X1126794D01*
X1122044Y848611D02*
Y858111D01*
X1178252Y989994D02*
X1187752D01*
X1183002Y985244D02*
Y994744D01*
X1178252Y954994D02*
X1187752D01*
X1183002Y950244D02*
Y959744D01*
X1117250Y839000D02*
X1126750D01*
X1122000Y834250D02*
Y843750D01*
X1126500Y898250D02*
Y907750D01*
X1121750Y903000D02*
X1131250D01*
X1178250Y895000D02*
X1187750D01*
X1183000Y890250D02*
Y899750D01*
X1115000Y898250D02*
Y907750D01*
X1110250Y903000D02*
X1119750D01*
X1178250Y918000D02*
X1187750D01*
X1183000Y913250D02*
Y922750D01*
X1178250Y883000D02*
X1187750D01*
X1183000Y878250D02*
Y887750D01*
X1022750Y844000D02*
X1032250D01*
X1027500Y839250D02*
Y848750D01*
X1140000Y912250D02*
Y921750D01*
X1135250Y917000D02*
X1144750D01*
X1154750Y868500D02*
X1164250D01*
X1159500Y863750D02*
Y873250D01*
X1008500Y842250D02*
Y851750D01*
X1003750Y847000D02*
X1013250D01*
X1139500Y898250D02*
Y907750D01*
X1134750Y903000D02*
X1144250D01*
X1115750Y911000D02*
X1125250D01*
X1120500Y906250D02*
Y915750D01*
X1141500Y856750D02*
Y866250D01*
X1136750Y861500D02*
X1146250D01*
X1354000Y869500D02*
X1364000D01*
X1359000Y864500D02*
Y874500D01*
X1128500Y870000D02*
Y880000D01*
X1123500Y875000D02*
X1133500D01*
X1024044Y874861D02*
X1034044D01*
X1029044Y869861D02*
Y879861D01*
X1077044Y874861D02*
X1087044D01*
X1082044Y869861D02*
Y879861D01*
X1271750Y832000D02*
X1281250D01*
X1276500Y827250D02*
Y836750D01*
X1257456Y831998D02*
X1266956D01*
X1262206Y827248D02*
Y836748D01*
X1261502Y956994D02*
Y966994D01*
X1256502Y961994D02*
X1266502D01*
X1225002Y928994D02*
Y994994D01*
X1298002Y928994D02*
Y994994D01*
X1225002D02*
X1298002D01*
X1225002Y928994D02*
X1298002D01*
X1261500Y885000D02*
Y895000D01*
X1256500Y890000D02*
X1266500D01*
X1225000Y857000D02*
Y923000D01*
X1298000Y857000D02*
Y923000D01*
X1225000D02*
X1298000D01*
X1225000Y857000D02*
X1298000D01*
X1054956Y888639D02*
X1064956D01*
X1059956Y883639D02*
Y893639D01*
X1026956Y852139D02*
X1092956D01*
X1026956Y925139D02*
X1092956D01*
X1026956Y852139D02*
Y925139D01*
X1092956Y852139D02*
Y925139D01*
X1473750Y779850D02*
X1484250D01*
Y728150D02*
Y779850D01*
X1473750Y728150D02*
X1484250D01*
X1473750D02*
Y779850D01*
Y605850D02*
X1484250D01*
Y554150D02*
Y605850D01*
X1473750Y554150D02*
X1484250D01*
X1473750D02*
Y605850D01*
X1015750Y570900D02*
X1026250D01*
X1015750D02*
Y622600D01*
X1026250D01*
Y570900D02*
Y622600D01*
X1015750Y744150D02*
X1026250D01*
X1015750D02*
Y795850D01*
X1026250D01*
Y744150D02*
Y795850D01*
X1397400Y972880D02*
X1484100D01*
Y983380D01*
X1397400D02*
X1484100D01*
X1397400Y972880D02*
Y983380D01*
X1015900Y972880D02*
X1102600D01*
Y983380D01*
X1015900D02*
X1102600D01*
X1015900Y972880D02*
Y983380D01*
X1476500Y717750D02*
X1486500D01*
X1481500Y712750D02*
Y722750D01*
X1476500Y543750D02*
X1486500D01*
X1481500Y538750D02*
Y548750D01*
X1013500Y633000D02*
X1023500D01*
X1018500Y628000D02*
Y638000D01*
X1013000Y806500D02*
X1023000D01*
X1018000Y801500D02*
Y811500D01*
X1439000Y715000D02*
X1449000D01*
X1444000Y710000D02*
Y720000D01*
X1438500Y540950D02*
X1448500D01*
X1443500Y535950D02*
Y545950D01*
X1051500Y635800D02*
X1061500D01*
X1056500Y630800D02*
Y640800D01*
X1051500Y807000D02*
X1061500D01*
X1056500Y802000D02*
Y812000D01*
X1397000Y706500D02*
Y716500D01*
X1392000Y711500D02*
X1402000D01*
X1396500Y533750D02*
Y543750D01*
X1391500Y538750D02*
X1401500D01*
X1102500Y614500D02*
Y624500D01*
X1097500Y619500D02*
X1107500D01*
X1103500Y805000D02*
Y815000D01*
X1098500Y810000D02*
X1108500D01*
X1457500Y803750D02*
Y813750D01*
X1452500Y808750D02*
X1462500D01*
X1457500Y629750D02*
Y639750D01*
X1452500Y634750D02*
X1462500D01*
X1042500Y537000D02*
Y547000D01*
X1037500Y542000D02*
X1047500D01*
X1042500Y710250D02*
Y720250D01*
X1037500Y715250D02*
X1047500D01*
X1164000Y839500D02*
Y849500D01*
X1159000Y844500D02*
X1169000D01*
X1377500Y926000D02*
X1387500D01*
X1382500Y921000D02*
Y931000D01*
X1462500Y926000D02*
X1472500D01*
X1467500Y921000D02*
Y931000D01*
X1160250Y879500D02*
X1169750D01*
X1165000Y874750D02*
Y884250D01*
X1173000Y904250D02*
Y913750D01*
X1168250Y909000D02*
X1177750D01*
X1419500Y926000D02*
X1429500D01*
X1424500Y921000D02*
Y931000D01*
X1013500Y968000D02*
X1023500D01*
X1018500Y963000D02*
Y973000D01*
X1334500Y968000D02*
X1344500D01*
X1339500Y963000D02*
Y973000D01*
X1424000Y746000D02*
Y755500D01*
X1419250Y750750D02*
X1428750D01*
X1424000Y572000D02*
Y581500D01*
X1419250Y576750D02*
X1428750D01*
X1076000Y594750D02*
Y604250D01*
X1071250Y599500D02*
X1080750D01*
X1076000Y768500D02*
Y778000D01*
X1071250Y773250D02*
X1080750D01*
X1414750Y807750D02*
X1424250D01*
X1419500Y803000D02*
Y812500D01*
X1414750Y633750D02*
X1424250D01*
X1419500Y629000D02*
Y638500D01*
X1075750Y543000D02*
X1085250D01*
X1080500Y538250D02*
Y547750D01*
X1075750Y716250D02*
X1085250D01*
X1080500Y711500D02*
Y721000D01*
X1426500Y836250D02*
Y845750D01*
X1421750Y841000D02*
X1431250D01*
X1425000Y663000D02*
Y672500D01*
X1420250Y667750D02*
X1429750D01*
X1075000Y504250D02*
Y513750D01*
X1070250Y509000D02*
X1079750D01*
X1075000Y677500D02*
Y687000D01*
X1070250Y682250D02*
X1079750D01*
X1422500Y783500D02*
Y793000D01*
X1417750Y788250D02*
X1427250D01*
X1422500Y609500D02*
Y619000D01*
X1417750Y614250D02*
X1427250D01*
X1077500Y557750D02*
Y567250D01*
X1072750Y562500D02*
X1082250D01*
X1077500Y731000D02*
Y740500D01*
X1072750Y735750D02*
X1082250D01*
X1323500Y688250D02*
Y697750D01*
X1318750Y693000D02*
X1328250D01*
X1181000Y735250D02*
Y744750D01*
X1176250Y740000D02*
X1185750D01*
X1208750Y756500D02*
X1218250D01*
X1213500Y751750D02*
Y761250D01*
X1194500Y694750D02*
Y704250D01*
X1189750Y699500D02*
X1199250D01*
X1262500Y720750D02*
Y730250D01*
X1257750Y725500D02*
X1267250D01*
X1459250Y871000D02*
X1468750D01*
X1464000Y866250D02*
Y875750D01*
X1169500Y766250D02*
Y775750D01*
X1164750Y771000D02*
X1174250D01*
X1143500Y765750D02*
Y775250D01*
X1138750Y770500D02*
X1148250D01*
X1372000Y754250D02*
Y763750D01*
X1367250Y759000D02*
X1376750D01*
X1372500Y804250D02*
Y813750D01*
X1367750Y809000D02*
X1377250D01*
X1289500Y844250D02*
Y853750D01*
X1284750Y849000D02*
X1294250D01*
X1288000Y713750D02*
Y723250D01*
X1283250Y718500D02*
X1292750D01*
X1331000Y830750D02*
Y840250D01*
X1326250Y835500D02*
X1335750D01*
X1238750Y797000D02*
X1248250D01*
X1243500Y792250D02*
Y801750D01*
X1322750Y763500D02*
X1332250D01*
X1327500Y758750D02*
Y768250D01*
X1234250Y823000D02*
X1243750D01*
X1239000Y818250D02*
Y827750D01*
X1335250Y763500D02*
X1344750D01*
X1340000Y758750D02*
Y768250D01*
X1396750Y937000D02*
X1406250D01*
X1401500Y932250D02*
Y941750D01*
X1398750Y940000D02*
X1408250D01*
X1403500Y935250D02*
Y944750D01*
X1260750Y628500D02*
X1270250D01*
X1265500Y623750D02*
Y633250D01*
X1311750Y626000D02*
X1321250D01*
X1316500Y621250D02*
Y630750D01*
X1298000Y572750D02*
Y582250D01*
X1293250Y577500D02*
X1302750D01*
X1293250Y607000D02*
X1302750D01*
X1298000Y602250D02*
Y611750D01*
X1339000Y513750D02*
Y523250D01*
X1334250Y518500D02*
X1343750D01*
X1273000Y515250D02*
Y524750D01*
X1268250Y520000D02*
X1277750D01*
X1222750Y591000D02*
X1232250D01*
X1227500Y586250D02*
Y595750D01*
X1250500Y595250D02*
Y604750D01*
X1245750Y600000D02*
X1255250D01*
X1195750Y587000D02*
X1205250D01*
X1200500Y582250D02*
Y591750D01*
X1128750Y516000D02*
X1138250D01*
X1133500Y511250D02*
Y520750D01*
X1140750Y516000D02*
X1150250D01*
X1145500Y511250D02*
Y520750D01*
X1148000Y581250D02*
Y590750D01*
X1143250Y586000D02*
X1152750D01*
X1144000Y592750D02*
Y602250D01*
X1139250Y597500D02*
X1148750D01*
X1112250Y536500D02*
X1121750D01*
X1117000Y531750D02*
Y541250D01*
X1111750Y570500D02*
X1121250D01*
X1116500Y565750D02*
Y575250D01*
X1185500Y556250D02*
Y565750D01*
X1180750Y561000D02*
X1190250D01*
X1486250Y937000D02*
X1495750D01*
X1491000Y932250D02*
Y941750D01*
X1483750Y940000D02*
X1493250D01*
X1488500Y935250D02*
Y944750D01*
X1205250Y593000D02*
X1214750D01*
X1210000Y588250D02*
Y597750D01*
X1255250Y593000D02*
X1264750D01*
X1260000Y588250D02*
Y597750D01*
X1190500Y572250D02*
Y581750D01*
X1185750Y577000D02*
X1195250D01*
X1184500Y621750D02*
Y631250D01*
X1179750Y626500D02*
X1189250D01*
X1217250Y634000D02*
X1226750D01*
X1222000Y629250D02*
Y638750D01*
X1172750Y645000D02*
X1182250D01*
X1177500Y640250D02*
Y649750D01*
X1319250Y651000D02*
X1328750D01*
X1324000Y646250D02*
Y655750D01*
X1279000Y594750D02*
Y604250D01*
X1274250Y599500D02*
X1283750D01*
X1321250Y702000D02*
X1330750D01*
X1326000Y697250D02*
Y706750D01*
X1220500Y743250D02*
Y752750D01*
X1215750Y748000D02*
X1225250D01*
X1190250Y639000D02*
X1199750D01*
X1195000Y634250D02*
Y643750D01*
X1293500Y686250D02*
Y695750D01*
X1288750Y691000D02*
X1298250D01*
X1190000Y612250D02*
Y621750D01*
X1185250Y617000D02*
X1194750D01*
X1335500Y602750D02*
Y612250D01*
X1330750Y607500D02*
X1340250D01*
X1119250Y948000D02*
X1128750D01*
X1124000Y943250D02*
Y952750D01*
X1093250Y949000D02*
X1102750D01*
X1098000Y944250D02*
Y953750D01*
X1441750Y937000D02*
X1451250D01*
X1446500Y932250D02*
Y941750D01*
X1035750Y977500D02*
X1045250D01*
X1040500Y972750D02*
Y982250D01*
X1441250Y940000D02*
X1450750D01*
X1446000Y935250D02*
Y944750D01*
X1342500Y901750D02*
Y911250D01*
X1337750Y906500D02*
X1347250D01*
X1343000Y919750D02*
Y929250D01*
X1338250Y924500D02*
X1347750D01*
X1343000Y962750D02*
Y972250D01*
X1338250Y967500D02*
X1347750D01*
X1343000Y974250D02*
Y983750D01*
X1338250Y979000D02*
X1347750D01*
X1305752Y960494D02*
X1315252D01*
X1310502Y955744D02*
Y965244D01*
X1312502Y929744D02*
Y939244D01*
X1307752Y934494D02*
X1317252D01*
X1183002Y973744D02*
Y983244D01*
X1178252Y978494D02*
X1187752D01*
X1204002Y933744D02*
Y943244D01*
X1199252Y938494D02*
X1208752D01*
X1210502Y953744D02*
Y963244D01*
X1205752Y958494D02*
X1215252D01*
X1210502Y986744D02*
Y996244D01*
X1205752Y991494D02*
X1215252D01*
X1305750Y888500D02*
X1315250D01*
X1310500Y883750D02*
Y893250D01*
X1312500Y857750D02*
Y867250D01*
X1307750Y862500D02*
X1317250D01*
X1183000Y901750D02*
Y911250D01*
X1178250Y906500D02*
X1187750D01*
X1204000Y861750D02*
Y871250D01*
X1199250Y866500D02*
X1208750D01*
X1210500Y881750D02*
Y891250D01*
X1205750Y886500D02*
X1215250D01*
X1210500Y914750D02*
Y924250D01*
X1205750Y919500D02*
X1215250D01*
X1120456Y849889D02*
Y859389D01*
X1115706Y854639D02*
X1125206D01*
X1009250Y895000D02*
X1018750D01*
X1014000Y890250D02*
Y899750D01*
X1096250Y916500D02*
X1105750D01*
X1101000Y911750D02*
Y921250D01*
X1120500Y918250D02*
Y927750D01*
X1115750Y923000D02*
X1125250D01*
X1152706Y893639D02*
X1162206D01*
X1157456Y888889D02*
Y898389D01*
X1135206Y887139D02*
X1144706D01*
X1139956Y882389D02*
Y891889D01*
X1097206Y861639D02*
X1106706D01*
X1101956Y856889D02*
Y866389D01*
D140*
X1203500Y777500D02*
Y789500D01*
X1177500Y777500D02*
X1203500D01*
X1177500Y789500D02*
X1203500D01*
X1177500Y777500D02*
Y789500D01*
X1158000Y972500D02*
X1170000D01*
X1158000Y946500D02*
Y972500D01*
X1170000Y946500D02*
Y972500D01*
X1158000Y946500D02*
X1170000D01*
X1061500Y780250D02*
Y846250D01*
X1141500Y780250D02*
Y846250D01*
X1061500Y780250D02*
X1141500D01*
X1061500Y846250D02*
X1141500D01*
X1251500Y829500D02*
Y859500D01*
X1192500D02*
X1251500D01*
X1192500Y829500D02*
X1251500D01*
X1192500D02*
Y859500D01*
X1200502Y964494D02*
Y983494D01*
Y964494D02*
X1223502D01*
Y983494D01*
X1200502D02*
X1223502D01*
X1200500Y892500D02*
Y911500D01*
Y892500D02*
X1223500D01*
Y911500D01*
X1200500D02*
X1223500D01*
X1150600Y630500D02*
Y649500D01*
X1127600Y630500D02*
X1150600D01*
X1127600D02*
Y649500D01*
X1150600D01*
X1419843Y876500D02*
X1438843D01*
Y853500D02*
Y876500D01*
X1419843Y853500D02*
X1438843D01*
X1419843D02*
Y876500D01*
X1120000Y699500D02*
X1139000D01*
X1120000D02*
Y722500D01*
X1139000D01*
Y699500D02*
Y722500D01*
X1376500Y907000D02*
X1404500D01*
X1376500Y894000D02*
Y907000D01*
X1390500Y895750D02*
Y905250D01*
X1385750Y900500D02*
X1395250D01*
X1376500Y894000D02*
X1404500D01*
Y907000D01*
X1297000Y803000D02*
Y831000D01*
X1284000D02*
X1297000D01*
X1285750Y817000D02*
X1295250D01*
X1290500Y812250D02*
Y821750D01*
X1284000Y803000D02*
Y831000D01*
Y803000D02*
X1297000D01*
X1311500Y803000D02*
Y831000D01*
X1298500D02*
X1311500D01*
X1300250Y817000D02*
X1309750D01*
X1305000Y812250D02*
Y821750D01*
X1298500Y803000D02*
Y831000D01*
Y803000D02*
X1311500D01*
X1169500Y536500D02*
Y564500D01*
X1156500D02*
X1169500D01*
X1158250Y550500D02*
X1167750D01*
X1163000Y545750D02*
Y555250D01*
X1156500Y536500D02*
Y564500D01*
Y536500D02*
X1169500D01*
X1329500Y534000D02*
Y562000D01*
Y534000D02*
X1342500D01*
X1331250Y548000D02*
X1340750D01*
X1336000Y543250D02*
Y552750D01*
X1342500Y534000D02*
Y562000D01*
X1329500D02*
X1342500D01*
X1125000Y587500D02*
X1153000D01*
Y600500D01*
X1139000Y589250D02*
Y598750D01*
X1134250Y594000D02*
X1143750D01*
X1125000Y600500D02*
X1153000D01*
X1125000Y587500D02*
Y600500D01*
X1158500Y620500D02*
Y648500D01*
Y620500D02*
X1171500D01*
X1160250Y634500D02*
X1169750D01*
X1165000Y629750D02*
Y639250D01*
X1171500Y620500D02*
Y648500D01*
X1158500D02*
X1171500D01*
X1317000Y663000D02*
X1345000D01*
Y676000D01*
X1331000Y664750D02*
Y674250D01*
X1326250Y669500D02*
X1335750D01*
X1317000Y676000D02*
X1345000D01*
X1317000Y663000D02*
Y676000D01*
X1061500Y607000D02*
Y673000D01*
X1141500Y607000D02*
Y673000D01*
X1061500Y607000D02*
X1141500D01*
X1061500Y673000D02*
X1141500D01*
X1123000Y530000D02*
X1173000D01*
X1123000D02*
Y580000D01*
X1173000D01*
Y530000D02*
Y580000D01*
X1452500Y677000D02*
Y743000D01*
X1372500Y677000D02*
Y743000D01*
X1452500D01*
X1372500Y677000D02*
X1452500D01*
X1438500Y503750D02*
Y569750D01*
X1358500Y503750D02*
Y569750D01*
X1438500D01*
X1358500Y503750D02*
X1438500D01*
X1351000Y839250D02*
X1417000D01*
X1351000Y759250D02*
X1417000D01*
X1351000D02*
Y839250D01*
X1417000Y759250D02*
Y839250D01*
X1351000Y665250D02*
X1417000D01*
X1351000Y585250D02*
X1417000D01*
X1351000D02*
Y665250D01*
X1417000Y585250D02*
Y665250D01*
X1083000Y512000D02*
X1149000D01*
X1083000Y592000D02*
X1149000D01*
Y512000D02*
Y592000D01*
X1083000Y512000D02*
Y592000D01*
Y684750D02*
X1149000D01*
X1083000Y764750D02*
X1149000D01*
Y684750D02*
Y764750D01*
X1083000Y684750D02*
Y764750D01*
X1080000Y931500D02*
Y997500D01*
X1160000Y931500D02*
Y997500D01*
X1080000Y931500D02*
X1160000D01*
X1080000Y997500D02*
X1160000D01*
X1356500Y764500D02*
X1388500D01*
Y803500D01*
X1356500D02*
X1388500D01*
X1356500Y764500D02*
Y803500D01*
X1271500Y611000D02*
Y643000D01*
Y611000D02*
X1310500D01*
Y643000D01*
X1271500D02*
X1310500D01*
X1177500Y582500D02*
Y621500D01*
Y582500D02*
X1199500D01*
Y621500D01*
X1177500D02*
X1199500D01*
X1215500Y577000D02*
Y609000D01*
X1254500D01*
Y577000D02*
Y609000D01*
X1215500Y577000D02*
X1254500D01*
X1417750Y746700D02*
X1489750D01*
X1417750Y850700D02*
X1489750D01*
Y746700D02*
Y850700D01*
X1417750Y746700D02*
Y850700D01*
Y572700D02*
X1489750D01*
X1417750Y676700D02*
X1489750D01*
Y572700D02*
Y676700D01*
X1417750Y572700D02*
Y676700D01*
X1010250Y604050D02*
X1082250D01*
X1010250Y500050D02*
X1082250D01*
X1010250D02*
Y604050D01*
X1082250Y500050D02*
Y604050D01*
X1010250Y777300D02*
X1082250D01*
X1010250Y673300D02*
X1082250D01*
X1010250D02*
Y777300D01*
X1082250Y673300D02*
Y777300D01*
X1356000Y728000D02*
Y830000D01*
X1254000Y728000D02*
Y830000D01*
X1356000D01*
X1254000Y728000D02*
X1356000D01*
X1362000Y920000D02*
Y954000D01*
X1372940D01*
X1396000Y920000D02*
Y954000D01*
X1384000D02*
X1396000D01*
X1362000Y920000D02*
X1396000D01*
X1372940Y954000D02*
X1384000D01*
X1452000Y920000D02*
Y954000D01*
X1462940D01*
X1486000Y920000D02*
Y954000D01*
X1474000D02*
X1486000D01*
X1452000Y920000D02*
X1486000D01*
X1462940Y954000D02*
X1474000D01*
X1242000Y609500D02*
X1344000D01*
X1242000Y507500D02*
X1344000D01*
X1242000D02*
Y609500D01*
X1344000Y507500D02*
Y609500D01*
X1407000Y920000D02*
Y954000D01*
X1417940D01*
X1441000Y920000D02*
Y954000D01*
X1429000D02*
X1441000D01*
X1407000Y920000D02*
X1441000D01*
X1417940Y954000D02*
X1429000D01*
X1184500Y609500D02*
X1315500D01*
Y740500D01*
X1184500D02*
X1315500D01*
X1184500Y609500D02*
Y740500D01*
X1130956Y869639D02*
Y900639D01*
X1109956D02*
X1130956D01*
X1109956Y869639D02*
Y900639D01*
Y869639D02*
X1130956D01*
X1409000Y897000D02*
X1499000D01*
Y861000D02*
Y897000D01*
X1409000Y861000D02*
X1499000D01*
X1409000D02*
Y897000D01*
X1409500Y727250D02*
Y749250D01*
X1370500D02*
X1409500D01*
X1370500Y727250D02*
X1409500D01*
X1370500D02*
Y749250D01*
X1409500Y553250D02*
Y575250D01*
X1370500D02*
X1409500D01*
X1370500Y553250D02*
X1409500D01*
X1370500D02*
Y575250D01*
X1089000Y583500D02*
Y605500D01*
Y583500D02*
X1128000D01*
X1089000Y605500D02*
X1128000D01*
Y583500D02*
Y605500D01*
X1090500Y774750D02*
Y796750D01*
Y774750D02*
X1129500D01*
X1090500Y796750D02*
X1129500D01*
Y774750D02*
Y796750D01*
X1488500Y825250D02*
Y847250D01*
X1449500D02*
X1488500D01*
X1449500Y825250D02*
X1488500D01*
X1449500D02*
Y847250D01*
X1488500Y651250D02*
Y673250D01*
X1449500D02*
X1488500D01*
X1449500Y651250D02*
X1488500D01*
X1449500D02*
Y673250D01*
X1011500Y503500D02*
Y525500D01*
Y503500D02*
X1050500D01*
X1011500Y525500D02*
X1050500D01*
Y503500D02*
Y525500D01*
X1011500Y676750D02*
Y698750D01*
Y676750D02*
X1050500D01*
X1011500Y698750D02*
X1050500D01*
Y676750D02*
Y698750D01*
X1375000Y853500D02*
Y885500D01*
X1343000Y853500D02*
Y885500D01*
X1375000D01*
X1343000Y853500D02*
X1375000D01*
X1112500Y859000D02*
X1144500D01*
X1112500Y891000D02*
X1144500D01*
Y859000D02*
Y891000D01*
X1112500Y859000D02*
Y891000D01*
X1002044Y832861D02*
Y916861D01*
X1056044Y832861D02*
Y916861D01*
X1002044D02*
X1056044D01*
X1002044Y832861D02*
X1056044D01*
X1055044D02*
Y916861D01*
X1109044Y832861D02*
Y916861D01*
X1055044D02*
X1109044D01*
X1055044Y832861D02*
X1109044D01*
X1270000Y817500D02*
X1283000D01*
X1270000D02*
Y845500D01*
X1283000Y817500D02*
Y845500D01*
X1270000D02*
X1283000D01*
X1255706Y846498D02*
X1268706D01*
Y818498D02*
Y846498D01*
X1255706Y818498D02*
Y846498D01*
Y818498D02*
X1268706D01*
X1150000Y840000D02*
X1189000D01*
Y805000D02*
Y840000D01*
X1150000Y805000D02*
X1189000D01*
X1150000D02*
Y840000D01*
X1190000D02*
X1229000D01*
Y805000D02*
Y840000D01*
X1190000Y805000D02*
X1229000D01*
X1190000D02*
Y840000D01*
X1151950Y500000D02*
Y526000D01*
Y500000D02*
X1254950D01*
Y526000D01*
X1151950D02*
X1254950D01*
X1465500Y701750D02*
Y733750D01*
X1497500Y701750D02*
Y733750D01*
X1465500D02*
X1497500D01*
X1465500Y701750D02*
X1497500D01*
X1465500Y527750D02*
Y559750D01*
X1497500Y527750D02*
Y559750D01*
X1465500D02*
X1497500D01*
X1465500Y527750D02*
X1497500D01*
X1034500Y617000D02*
Y649000D01*
X1002500Y617000D02*
Y649000D01*
Y617000D02*
X1034500D01*
X1002500Y649000D02*
X1034500D01*
X1034000Y790500D02*
Y822500D01*
X1002000Y790500D02*
Y822500D01*
Y790500D02*
X1034000D01*
X1002000Y822500D02*
X1034000D01*
X1460000Y699000D02*
Y731000D01*
X1428000Y699000D02*
Y731000D01*
X1460000D01*
X1428000Y699000D02*
X1460000D01*
X1459500Y524950D02*
Y556950D01*
X1427500Y524950D02*
Y556950D01*
X1459500D01*
X1427500Y524950D02*
X1459500D01*
X1040500Y619800D02*
Y651800D01*
X1072500Y619800D02*
Y651800D01*
X1040500Y619800D02*
X1072500D01*
X1040500Y651800D02*
X1072500D01*
X1040500Y791000D02*
Y823000D01*
X1072500Y791000D02*
Y823000D01*
X1040500Y791000D02*
X1072500D01*
X1040500Y823000D02*
X1072500D01*
X1365500Y725500D02*
X1428500D01*
X1365500Y697500D02*
X1428500D01*
Y725500D01*
X1365500Y697500D02*
Y725500D01*
X1365000Y552750D02*
X1428000D01*
X1365000Y524750D02*
X1428000D01*
Y552750D01*
X1365000Y524750D02*
Y552750D01*
X1071000Y605500D02*
X1134000D01*
X1071000Y633500D02*
X1134000D01*
X1071000Y605500D02*
Y633500D01*
X1134000Y605500D02*
Y633500D01*
X1072000Y796000D02*
X1135000D01*
X1072000Y824000D02*
X1135000D01*
X1072000Y796000D02*
Y824000D01*
X1135000Y796000D02*
Y824000D01*
X1426000Y794750D02*
X1489000D01*
X1426000Y822750D02*
X1489000D01*
X1426000Y794750D02*
Y822750D01*
X1489000Y794750D02*
Y822750D01*
X1426000Y620750D02*
X1489000D01*
X1426000Y648750D02*
X1489000D01*
X1426000Y620750D02*
Y648750D01*
X1489000Y620750D02*
Y648750D01*
X1011000Y556000D02*
X1074000D01*
X1011000Y528000D02*
X1074000D01*
Y556000D01*
X1011000Y528000D02*
Y556000D01*
Y729250D02*
X1074000D01*
X1011000Y701250D02*
X1074000D01*
Y729250D01*
X1011000Y701250D02*
Y729250D01*
X1134500Y859500D02*
X1193500D01*
X1134500Y829500D02*
X1193500D01*
Y859500D01*
X1134500Y829500D02*
Y859500D01*
X1397500Y896500D02*
Y955500D01*
X1367500Y896500D02*
Y955500D01*
Y896500D02*
X1397500D01*
X1367500Y955500D02*
X1397500D01*
X1482500Y896500D02*
Y955500D01*
X1452500Y896500D02*
Y955500D01*
Y896500D02*
X1482500D01*
X1452500Y955500D02*
X1482500D01*
X1147600Y871500D02*
Y887500D01*
X1181500Y871500D02*
Y887500D01*
X1147600Y871500D02*
X1181500D01*
X1147600Y887500D02*
X1181500D01*
X1165000Y891600D02*
X1181000D01*
X1165000Y925500D02*
X1181000D01*
Y891600D02*
Y925500D01*
X1165000Y891600D02*
Y925500D01*
X1439500Y896500D02*
Y955500D01*
X1409500Y896500D02*
Y955500D01*
Y896500D02*
X1439500D01*
X1409500Y955500D02*
X1439500D01*
X1033500Y938500D02*
Y997500D01*
X1003500Y938500D02*
Y997500D01*
X1033500D01*
X1003500Y938500D02*
X1033500D01*
X1354500D02*
Y997500D01*
X1324500Y938500D02*
Y997500D01*
X1354500D01*
X1324500Y938500D02*
X1354500D01*
X1411000Y744750D02*
Y756750D01*
Y744750D02*
X1437000D01*
X1411000Y756750D02*
X1437000D01*
Y744750D02*
Y756750D01*
X1411000Y570750D02*
Y582750D01*
Y570750D02*
X1437000D01*
X1411000Y582750D02*
X1437000D01*
Y570750D02*
Y582750D01*
X1089000Y593500D02*
Y605500D01*
X1063000D02*
X1089000D01*
X1063000Y593500D02*
X1089000D01*
X1063000D02*
Y605500D01*
X1089000Y767250D02*
Y779250D01*
X1063000D02*
X1089000D01*
X1063000Y767250D02*
X1089000D01*
X1063000D02*
Y779250D01*
X1413500Y820750D02*
X1425500D01*
X1413500Y794750D02*
Y820750D01*
X1425500Y794750D02*
Y820750D01*
X1413500Y794750D02*
X1425500D01*
X1413500Y646750D02*
X1425500D01*
X1413500Y620750D02*
Y646750D01*
X1425500Y620750D02*
Y646750D01*
X1413500Y620750D02*
X1425500D01*
X1074500Y530000D02*
X1086500D01*
Y556000D01*
X1074500Y530000D02*
Y556000D01*
X1086500D01*
X1074500Y703250D02*
X1086500D01*
Y729250D01*
X1074500Y703250D02*
Y729250D01*
X1086500D01*
X1413500Y835000D02*
Y847000D01*
Y835000D02*
X1439500D01*
X1413500Y847000D02*
X1439500D01*
Y835000D02*
Y847000D01*
X1412000Y661750D02*
Y673750D01*
Y661750D02*
X1438000D01*
X1412000Y673750D02*
X1438000D01*
Y661750D02*
Y673750D01*
X1088000Y503000D02*
Y515000D01*
X1062000D02*
X1088000D01*
X1062000Y503000D02*
X1088000D01*
X1062000D02*
Y515000D01*
X1088000Y676250D02*
Y688250D01*
X1062000D02*
X1088000D01*
X1062000Y676250D02*
X1088000D01*
X1062000D02*
Y688250D01*
X1435500Y782250D02*
Y794250D01*
X1409500D02*
X1435500D01*
X1409500Y782250D02*
X1435500D01*
X1409500D02*
Y794250D01*
X1435500Y608250D02*
Y620250D01*
X1409500D02*
X1435500D01*
X1409500Y608250D02*
X1435500D01*
X1409500D02*
Y620250D01*
X1064500Y556500D02*
Y568500D01*
Y556500D02*
X1090500D01*
X1064500Y568500D02*
X1090500D01*
Y556500D02*
Y568500D01*
X1064500Y729750D02*
Y741750D01*
Y729750D02*
X1090500D01*
X1064500Y741750D02*
X1090500D01*
Y729750D02*
Y741750D01*
X1310500Y687000D02*
Y699000D01*
Y687000D02*
X1336500D01*
X1310500Y699000D02*
X1336500D01*
Y687000D02*
Y699000D01*
X1168000Y734000D02*
Y746000D01*
Y734000D02*
X1194000D01*
X1168000Y746000D02*
X1194000D01*
Y734000D02*
Y746000D01*
X1207500Y743500D02*
X1219500D01*
Y769500D01*
X1207500Y743500D02*
Y769500D01*
X1219500D01*
X1181500Y693500D02*
Y705500D01*
Y693500D02*
X1207500D01*
X1181500Y705500D02*
X1207500D01*
Y693500D02*
Y705500D01*
X1249500Y719500D02*
Y731500D01*
Y719500D02*
X1275500D01*
X1249500Y731500D02*
X1275500D01*
Y719500D02*
Y731500D01*
X1458000Y858000D02*
X1470000D01*
Y884000D01*
X1458000Y858000D02*
Y884000D01*
X1470000D01*
X1182500Y765000D02*
Y777000D01*
X1156500Y765000D02*
X1182500D01*
X1156500Y777000D02*
X1182500D01*
X1156500Y765000D02*
Y777000D01*
X1130500Y764500D02*
Y776500D01*
X1156500D01*
X1130500Y764500D02*
X1156500D01*
Y776500D01*
X1359000Y753000D02*
Y765000D01*
Y753000D02*
X1385000D01*
X1359000Y765000D02*
X1385000D01*
Y753000D02*
Y765000D01*
X1385500Y803000D02*
Y815000D01*
X1359500D02*
X1385500D01*
X1359500Y803000D02*
X1385500D01*
X1359500D02*
Y815000D01*
X1270000Y860000D02*
X1309000D01*
X1270000Y838000D02*
Y860000D01*
X1309000Y838000D02*
Y860000D01*
X1270000Y838000D02*
X1309000D01*
X1275000Y712500D02*
Y724500D01*
Y712500D02*
X1301000D01*
X1275000Y724500D02*
X1301000D01*
Y712500D02*
Y724500D01*
X1344000Y829500D02*
Y841500D01*
X1318000D02*
X1344000D01*
X1318000Y829500D02*
X1344000D01*
X1318000D02*
Y841500D01*
X1237500Y810000D02*
X1249500D01*
Y784000D02*
Y810000D01*
X1237500Y784000D02*
Y810000D01*
Y784000D02*
X1249500D01*
X1321500Y750500D02*
X1333500D01*
X1321500D02*
Y776500D01*
X1333500Y750500D02*
Y776500D01*
X1321500D02*
X1333500D01*
X1233000Y810000D02*
X1245000D01*
X1233000D02*
Y836000D01*
X1245000Y810000D02*
Y836000D01*
X1233000D02*
X1245000D01*
X1334000Y776500D02*
X1346000D01*
Y750500D02*
Y776500D01*
X1334000Y750500D02*
Y776500D01*
Y750500D02*
X1346000D01*
X1395500Y924000D02*
X1407500D01*
X1395500D02*
Y950000D01*
X1407500Y924000D02*
Y950000D01*
X1395500D02*
X1407500D01*
X1397500Y953000D02*
X1409500D01*
X1397500Y927000D02*
Y953000D01*
X1409500Y927000D02*
Y953000D01*
X1397500Y927000D02*
X1409500D01*
X1259500Y641500D02*
X1271500D01*
X1259500Y615500D02*
Y641500D01*
X1271500Y615500D02*
Y641500D01*
X1259500Y615500D02*
X1271500D01*
X1310500Y613000D02*
X1322500D01*
Y639000D01*
X1310500Y613000D02*
Y639000D01*
X1322500D01*
X1278500Y566500D02*
X1317500D01*
X1278500D02*
Y588500D01*
X1317500Y566500D02*
Y588500D01*
X1278500D02*
X1317500D01*
X1292000Y620000D02*
X1304000D01*
Y594000D02*
Y620000D01*
X1292000Y594000D02*
Y620000D01*
Y594000D02*
X1304000D01*
X1326000Y512500D02*
Y524500D01*
Y512500D02*
X1352000D01*
X1326000Y524500D02*
X1352000D01*
Y512500D02*
Y524500D01*
X1260000Y514000D02*
Y526000D01*
X1286000D01*
X1260000Y514000D02*
X1286000D01*
Y526000D01*
X1221500Y604000D02*
X1233500D01*
X1221500Y578000D02*
Y604000D01*
X1233500Y578000D02*
Y604000D01*
X1221500Y578000D02*
X1233500D01*
X1263500Y594000D02*
Y606000D01*
X1237500D02*
X1263500D01*
X1237500Y594000D02*
X1263500D01*
X1237500D02*
Y606000D01*
X1194500Y574000D02*
X1206500D01*
Y600000D01*
X1194500Y574000D02*
Y600000D01*
X1206500D01*
X1127500Y529000D02*
X1139500D01*
X1127500Y503000D02*
Y529000D01*
X1139500Y503000D02*
Y529000D01*
X1127500Y503000D02*
X1139500D01*
X1139500Y529000D02*
X1151500D01*
X1139500Y503000D02*
Y529000D01*
X1151500Y503000D02*
Y529000D01*
X1139500Y503000D02*
X1151500D01*
X1135000Y580000D02*
Y592000D01*
Y580000D02*
X1161000D01*
X1135000Y592000D02*
X1161000D01*
Y580000D02*
Y592000D01*
X1131000Y591500D02*
Y603500D01*
Y591500D02*
X1157000D01*
X1131000Y603500D02*
X1157000D01*
Y591500D02*
Y603500D01*
X1111000Y523500D02*
X1123000D01*
Y549500D01*
X1111000Y523500D02*
Y549500D01*
X1123000D01*
X1110500Y583500D02*
X1122500D01*
X1110500Y557500D02*
Y583500D01*
X1122500Y557500D02*
Y583500D01*
X1110500Y557500D02*
X1122500D01*
X1198500Y555000D02*
Y567000D01*
X1172500D02*
X1198500D01*
X1172500Y555000D02*
X1198500D01*
X1172500D02*
Y567000D01*
X1485000Y924000D02*
X1497000D01*
X1485000D02*
Y950000D01*
X1497000Y924000D02*
Y950000D01*
X1485000D02*
X1497000D01*
X1482500Y927000D02*
X1494500D01*
Y953000D01*
X1482500Y927000D02*
Y953000D01*
X1494500D01*
X1204000Y580000D02*
X1216000D01*
X1204000D02*
Y606000D01*
X1216000Y580000D02*
Y606000D01*
X1204000D02*
X1216000D01*
X1254000D02*
X1266000D01*
Y580000D02*
Y606000D01*
X1254000Y580000D02*
Y606000D01*
Y580000D02*
X1266000D01*
X1203500Y571000D02*
Y583000D01*
X1177500Y571000D02*
X1203500D01*
X1177500Y583000D02*
X1203500D01*
X1177500Y571000D02*
Y583000D01*
X1197500Y620500D02*
Y632500D01*
X1171500Y620500D02*
X1197500D01*
X1171500Y632500D02*
X1197500D01*
X1171500Y620500D02*
Y632500D01*
X1233000Y614500D02*
Y653500D01*
X1211000D02*
X1233000D01*
X1211000Y614500D02*
X1233000D01*
X1211000D02*
Y653500D01*
X1171500Y632000D02*
X1183500D01*
X1171500D02*
Y658000D01*
X1183500Y632000D02*
Y658000D01*
X1171500D02*
X1183500D01*
X1318000Y664000D02*
X1330000D01*
Y638000D02*
Y664000D01*
X1318000Y638000D02*
Y664000D01*
Y638000D02*
X1330000D01*
X1292000Y593500D02*
Y605500D01*
X1266000Y593500D02*
X1292000D01*
X1266000Y605500D02*
X1292000D01*
X1266000Y593500D02*
Y605500D01*
X1320000Y715000D02*
X1332000D01*
Y689000D02*
Y715000D01*
X1320000Y689000D02*
Y715000D01*
Y689000D02*
X1332000D01*
X1207500Y742000D02*
Y754000D01*
X1233500D01*
X1207500Y742000D02*
X1233500D01*
Y754000D01*
X1189000Y626000D02*
X1201000D01*
Y652000D01*
X1189000Y626000D02*
Y652000D01*
X1201000D01*
X1280500Y685000D02*
Y697000D01*
Y685000D02*
X1306500D01*
X1280500Y697000D02*
X1306500D01*
Y685000D02*
Y697000D01*
X1203000Y611000D02*
Y623000D01*
X1177000D02*
X1203000D01*
X1177000Y611000D02*
X1203000D01*
X1177000D02*
Y623000D01*
X1322500Y601500D02*
Y613500D01*
Y601500D02*
X1348500D01*
X1322500Y613500D02*
X1348500D01*
Y601500D02*
Y613500D01*
X1118000Y935000D02*
X1130000D01*
Y961000D01*
X1118000Y935000D02*
Y961000D01*
X1130000D01*
X1092000Y936000D02*
X1104000D01*
Y962000D01*
X1092000Y936000D02*
Y962000D01*
X1104000D01*
X1440500Y924000D02*
X1452500D01*
X1440500D02*
Y950000D01*
X1452500Y924000D02*
Y950000D01*
X1440500D02*
X1452500D01*
X1034500Y990500D02*
X1046500D01*
Y964500D02*
Y990500D01*
X1034500Y964500D02*
Y990500D01*
Y964500D02*
X1046500D01*
X1440000Y927000D02*
X1452000D01*
Y953000D01*
X1440000Y927000D02*
Y953000D01*
X1452000D01*
X1323000Y895500D02*
X1362000D01*
Y917500D01*
X1323000Y895500D02*
Y917500D01*
X1362000D01*
X1330000Y918500D02*
Y930500D01*
Y918500D02*
X1356000D01*
X1330000Y930500D02*
X1356000D01*
Y918500D02*
Y930500D01*
X1330000Y961500D02*
Y973500D01*
Y961500D02*
X1356000D01*
X1330000Y973500D02*
X1356000D01*
Y961500D02*
Y973500D01*
X1330000Y973000D02*
Y985000D01*
Y973000D02*
X1356000D01*
X1330000Y985000D02*
X1356000D01*
Y973000D02*
Y985000D01*
X1299502Y940994D02*
Y979994D01*
X1321502D01*
X1299502Y940994D02*
X1321502D01*
Y979994D01*
X1299502Y928494D02*
Y940494D01*
X1325502D01*
X1299502Y928494D02*
X1325502D01*
Y940494D01*
X1170002Y972494D02*
Y984494D01*
X1196002D01*
X1170002Y972494D02*
X1196002D01*
Y984494D01*
X1184502Y927494D02*
X1223502D01*
X1184502D02*
Y949494D01*
X1223502Y927494D02*
Y949494D01*
X1184502D02*
X1223502D01*
X1223502Y952494D02*
Y964494D01*
X1197502Y952494D02*
X1223502D01*
X1197502Y964494D02*
X1223502D01*
X1197502Y952494D02*
Y964494D01*
X1197502Y985494D02*
Y997494D01*
X1223502D01*
X1197502Y985494D02*
X1223502D01*
Y997494D01*
X1299500Y869000D02*
Y908000D01*
X1321500D01*
X1299500Y869000D02*
X1321500D01*
Y908000D01*
X1299500Y856500D02*
Y868500D01*
X1325500D01*
X1299500Y856500D02*
X1325500D01*
Y868500D01*
X1170000Y900500D02*
Y912500D01*
X1196000D01*
X1170000Y900500D02*
X1196000D01*
Y912500D01*
X1184500Y855500D02*
X1223500D01*
X1184500D02*
Y877500D01*
X1223500Y855500D02*
Y877500D01*
X1184500D02*
X1223500D01*
X1223500Y880500D02*
Y892500D01*
X1197500Y880500D02*
X1223500D01*
X1197500Y892500D02*
X1223500D01*
X1197500Y880500D02*
Y892500D01*
X1197500Y913500D02*
Y925500D01*
X1223500D01*
X1197500Y913500D02*
X1223500D01*
Y925500D01*
X1107456Y848639D02*
Y860639D01*
X1133456D01*
X1107456Y848639D02*
X1133456D01*
Y860639D01*
X1025000Y875500D02*
Y914500D01*
X1003000Y875500D02*
X1025000D01*
X1003000Y914500D02*
X1025000D01*
X1003000Y875500D02*
Y914500D01*
X1095000Y903500D02*
X1107000D01*
X1095000D02*
Y929500D01*
X1107000Y903500D02*
Y929500D01*
X1095000D02*
X1107000D01*
X1107500Y917000D02*
Y929000D01*
X1133500D01*
X1107500Y917000D02*
X1133500D01*
Y929000D01*
X1146456Y874139D02*
Y913139D01*
X1168456D01*
X1146456Y874139D02*
X1168456D01*
Y913139D01*
X1133956Y874139D02*
X1145956D01*
X1133956D02*
Y900139D01*
X1145956Y874139D02*
Y900139D01*
X1133956D02*
X1145956D01*
X1095956Y874639D02*
X1107956D01*
Y848639D02*
Y874639D01*
X1095956Y848639D02*
Y874639D01*
Y848639D02*
X1107956D01*
M02*
