G04*
G04 #@! TF.GenerationSoftware,Altium Limited,Altium Designer,24.9.1 (31)*
G04*
G04 Layer_Color=32896*
%FSLAX44Y44*%
%MOMM*%
G71*
G04*
G04 #@! TF.SameCoordinates,22428939-7FEC-4B67-BCAF-D19850B6772B*
G04*
G04*
G04 #@! TF.FilePolarity,Positive*
G04*
G01*
G75*
%ADD10C,0.1500*%
%ADD11C,0.2000*%
%ADD12C,0.2500*%
%ADD13C,0.1270*%
%ADD14C,0.1000*%
%ADD140C,0.0500*%
G36*
X1324000Y590504D02*
X1262000D01*
X1261800D01*
X1261431Y590351D01*
X1261149Y590069D01*
X1260996Y589700D01*
Y589500D01*
D01*
Y527500D01*
Y527300D01*
X1261149Y526931D01*
X1261431Y526649D01*
X1261800Y526496D01*
X1262000D01*
X1262200D01*
X1262569Y526649D01*
X1262851Y526931D01*
X1263004Y527300D01*
Y527500D01*
D01*
Y588496D01*
X1324000Y588496D01*
X1324416D01*
X1325004Y589084D01*
Y589916D01*
X1324416Y590504D01*
X1324000D01*
D01*
D02*
G37*
G36*
X1337004Y748000D02*
Y810000D01*
Y810200D01*
X1336851Y810569D01*
X1336569Y810851D01*
X1336200Y811004D01*
X1336000D01*
D01*
X1274000D01*
X1273800D01*
X1273431Y810851D01*
X1273149Y810569D01*
X1272996Y810200D01*
Y810000D01*
Y809800D01*
X1273149Y809431D01*
X1273431Y809149D01*
X1273800Y808996D01*
X1274000D01*
D01*
X1334996D01*
X1334996Y748000D01*
Y747584D01*
X1335584Y746996D01*
X1336416D01*
X1337004Y747584D01*
Y748000D01*
D01*
D02*
G37*
G36*
X1053174Y860891D02*
Y869781D01*
X1052299D01*
X1050581Y869439D01*
X1048963Y868769D01*
X1047507Y867796D01*
X1046269Y866558D01*
X1045296Y865102D01*
X1044626Y863484D01*
X1044284Y861767D01*
Y860891D01*
D01*
X1053174D01*
D02*
G37*
G36*
X1106174D02*
Y869781D01*
X1105298D01*
X1103581Y869439D01*
X1101963Y868769D01*
X1100507Y867796D01*
X1099269Y866558D01*
X1098296Y865102D01*
X1097626Y863484D01*
X1097284Y861767D01*
Y860891D01*
D01*
X1106174D01*
D02*
G37*
D10*
X1250207Y723600D02*
G03*
X1250207Y723600I-707J0D01*
G01*
X1134600Y631000D02*
G03*
X1134600Y631000I-500J0D01*
G01*
X1438843Y860000D02*
G03*
X1438843Y860000I-500J0D01*
G01*
X1121000Y716000D02*
G03*
X1121000Y716000I-500J0D01*
G01*
X1317707Y702000D02*
G03*
X1317707Y702000I-707J0D01*
G01*
X1175207Y746900D02*
G03*
X1175207Y746900I-707J0D01*
G01*
X1246207Y753100D02*
G03*
X1246207Y753100I-707J0D01*
G01*
X1182807Y708000D02*
G03*
X1182807Y708000I-707J0D01*
G01*
X1150437Y802548D02*
G03*
X1150274Y806481I88J1973D01*
G01*
X1150000Y813500D02*
G03*
X1150000Y813500I-500J0D01*
G01*
X1129937Y761048D02*
G03*
X1129773Y764981I88J1973D01*
G01*
X1129500Y772000D02*
G03*
X1129500Y772000I-500J0D01*
G01*
X1242063Y810952D02*
G03*
X1242226Y807019I-88J-1973D01*
G01*
X1243500Y800000D02*
G03*
X1243500Y800000I-500J0D01*
G01*
X1182437Y802548D02*
G03*
X1182273Y806481I88J1973D01*
G01*
X1182000Y813500D02*
G03*
X1182000Y813500I-500J0D01*
G01*
X1350250Y934000D02*
G03*
X1350250Y934000I-250J0D01*
G01*
X1210000Y528000D02*
X1214000D01*
X1210000Y539000D02*
X1214000D01*
X1249500Y734600D02*
Y739600D01*
X1248000D02*
X1249500D01*
X1224500D02*
X1226000D01*
X1224500Y734600D02*
Y739600D01*
Y720600D02*
X1226000D01*
X1224500D02*
Y726100D01*
X1169500Y957500D02*
Y961500D01*
X1158500Y957500D02*
Y961500D01*
Y959500D02*
X1169500D01*
X1057500Y790500D02*
X1061500D01*
X1057500Y779500D02*
X1061500D01*
X1198950Y858500D02*
X1245000D01*
X1198950Y856500D02*
Y858500D01*
X1199000Y830500D02*
X1245000D01*
X1199000D02*
Y832500D01*
X1137350Y632000D02*
X1140850D01*
Y648000D01*
X1137350D02*
X1140850D01*
X1137350Y632000D02*
Y648000D01*
X1437343Y863250D02*
Y866750D01*
X1421343D02*
X1437343D01*
X1421343Y863250D02*
Y866750D01*
Y863250D02*
X1437343D01*
X1121500Y709250D02*
Y712750D01*
Y709250D02*
X1137500D01*
Y712750D01*
X1121500D02*
X1137500D01*
X1314000Y727000D02*
X1319500D01*
X1314000Y725500D02*
Y727000D01*
X1328000D02*
X1333000D01*
Y725500D02*
Y727000D01*
X1328000Y702000D02*
X1333000D01*
Y703500D01*
X1171500Y771900D02*
X1177000D01*
X1171500Y770400D02*
Y771900D01*
X1185500D02*
X1190500D01*
Y770400D02*
Y771900D01*
X1185500Y746900D02*
X1190500D01*
Y748400D01*
X1220500Y750100D02*
Y755600D01*
Y750100D02*
X1222000D01*
X1220500Y764100D02*
Y769100D01*
X1222000D01*
X1245500Y764100D02*
Y769100D01*
X1244000D02*
X1245500D01*
X1179100Y733000D02*
X1184600D01*
X1179100Y731500D02*
Y733000D01*
X1193100D02*
X1198100D01*
Y731500D02*
Y733000D01*
X1193100Y708000D02*
X1198100D01*
Y709500D01*
X1150000Y809500D02*
X1179000D01*
Y799500D02*
Y809500D01*
X1150000Y799500D02*
Y809500D01*
Y799500D02*
X1179000D01*
X1129500Y768000D02*
X1158500D01*
Y758000D02*
Y768000D01*
X1129500Y758000D02*
Y768000D01*
Y758000D02*
X1158500D01*
X1213500Y804000D02*
X1242500D01*
X1213500D02*
Y814000D01*
X1242500Y804000D02*
Y814000D01*
X1213500D02*
X1242500D01*
X1182000Y809500D02*
X1211000D01*
Y799500D02*
Y809500D01*
X1182000Y799500D02*
Y809500D01*
Y799500D02*
X1211000D01*
X1336000Y748000D02*
Y810000D01*
X1274000Y748000D02*
Y810000D01*
X1336000D01*
X1274000Y748000D02*
X1336000D01*
X1262000Y589500D02*
X1324000D01*
X1262000Y527500D02*
X1324000D01*
X1262000D02*
Y589500D01*
X1324000Y527500D02*
Y589500D01*
X1350500Y956500D02*
X1350500Y956500D01*
Y936500D02*
Y956500D01*
X1349500Y936500D02*
X1350500Y936500D01*
X1330500Y936500D02*
X1331500D01*
X1330500Y956500D02*
X1331500D01*
X1330500Y956500D02*
X1330500Y956500D01*
X1330500Y936500D02*
Y956500D01*
X1349500Y956500D02*
X1350500D01*
X1384500Y727750D02*
X1395500D01*
X1384500Y748750D02*
X1395500D01*
X1384500Y553750D02*
X1395500D01*
X1384500Y574750D02*
X1395500D01*
X1103000Y605000D02*
X1114000D01*
X1103000Y584000D02*
X1114000D01*
X1104500Y796250D02*
X1115500D01*
X1104500Y775250D02*
X1115500D01*
X1463500Y825750D02*
X1474500D01*
X1463500Y846750D02*
X1474500D01*
X1463500Y651750D02*
X1474500D01*
X1463500Y672750D02*
X1474500D01*
X1025500Y525000D02*
X1036500D01*
X1025500Y504000D02*
X1036500D01*
X1025500Y698250D02*
X1036500D01*
X1025500Y677250D02*
X1036500D01*
X1439000Y769750D02*
X1443000D01*
X1439000Y780750D02*
X1443000D01*
X1439000Y595750D02*
X1443000D01*
X1439000Y606750D02*
X1443000D01*
X1057000Y581000D02*
X1061000D01*
X1057000Y570000D02*
X1061000D01*
X1057000Y754250D02*
X1061000D01*
X1057000Y743250D02*
X1061000D01*
X1439000Y757750D02*
X1443000D01*
X1439000Y768750D02*
X1443000D01*
X1439000Y583750D02*
X1443000D01*
X1439000Y594750D02*
X1443000D01*
X1057000Y593000D02*
X1061000D01*
X1057000Y582000D02*
X1061000D01*
X1057000Y766250D02*
X1061000D01*
X1057000Y755250D02*
X1061000D01*
X1425000Y767250D02*
Y771250D01*
X1414000Y767250D02*
Y771250D01*
X1425000Y593250D02*
Y597250D01*
X1414000Y593250D02*
Y597250D01*
X1075000Y579500D02*
Y583500D01*
X1086000Y579500D02*
Y583500D01*
X1075000Y752750D02*
Y756750D01*
X1086000Y752750D02*
Y756750D01*
X1433500Y823500D02*
X1437500D01*
X1433500Y834500D02*
X1437500D01*
X1433500Y649750D02*
X1437500D01*
X1433500Y660750D02*
X1437500D01*
X1062500Y527000D02*
X1066500D01*
X1062500Y516000D02*
X1066500D01*
X1062500Y700250D02*
X1066500D01*
X1062500Y689250D02*
X1066500D01*
X1438500Y732750D02*
X1442500D01*
X1438500Y743750D02*
X1442500D01*
X1438500Y558750D02*
X1442500D01*
X1438500Y569750D02*
X1442500D01*
X1057000Y618000D02*
X1061000D01*
X1057000Y607000D02*
X1061000D01*
X1470000Y712250D02*
X1474000D01*
X1470000Y701250D02*
X1474000D01*
X1470000Y538250D02*
X1474000D01*
X1470000Y527250D02*
X1474000D01*
X1026000Y638500D02*
X1030000D01*
X1026000Y649500D02*
X1030000D01*
X1026000Y810000D02*
X1030000D01*
X1026000Y821000D02*
X1030000D01*
X1480000Y882500D02*
X1484000D01*
X1480000Y871500D02*
X1484000D01*
X1356000Y826500D02*
Y830500D01*
X1367000Y826500D02*
Y830500D01*
X1344500Y826500D02*
Y830500D01*
X1355500Y826500D02*
Y830500D01*
X1260500Y743000D02*
X1264500D01*
X1260500Y732000D02*
X1264500D01*
X1383500Y869000D02*
Y873000D01*
X1394500Y869000D02*
Y873000D01*
X1350500Y842000D02*
X1354500D01*
X1350500Y853000D02*
X1354500D01*
X1396000Y875000D02*
Y879000D01*
X1407000Y875000D02*
Y879000D01*
X1183000Y585000D02*
Y589000D01*
X1194000Y585000D02*
Y589000D01*
X1099000Y544000D02*
Y548000D01*
X1110000Y544000D02*
Y548000D01*
X1184000Y528000D02*
X1188000D01*
X1184000Y539000D02*
X1188000D01*
X1494000Y912000D02*
Y916000D01*
X1483000Y912000D02*
Y916000D01*
X1170500Y580500D02*
Y584500D01*
X1181500Y580500D02*
Y584500D01*
X1082500Y633500D02*
X1086500D01*
X1082500Y644500D02*
X1086500D01*
X1178000Y637000D02*
Y641000D01*
X1189000Y637000D02*
Y641000D01*
X1165000Y628000D02*
Y632000D01*
X1176000Y628000D02*
Y632000D01*
X1108000Y647500D02*
X1112000D01*
X1108000Y636500D02*
X1112000D01*
X1408000Y861500D02*
Y865500D01*
X1419000Y861500D02*
Y865500D01*
X1439343Y864500D02*
Y868500D01*
X1450343Y864500D02*
Y868500D01*
X1335500Y624000D02*
Y628000D01*
X1346500Y624000D02*
Y628000D01*
X1131000Y946000D02*
Y950000D01*
X1142000Y946000D02*
Y950000D01*
X1423843Y878000D02*
X1427843D01*
X1423843Y889000D02*
X1427843D01*
X1167500Y602500D02*
Y606500D01*
X1156500Y602500D02*
Y606500D01*
X1104000Y947000D02*
Y951000D01*
X1115000Y947000D02*
Y951000D01*
X1123000Y687000D02*
X1127000D01*
X1123000Y698000D02*
X1127000D01*
X1139000Y709000D02*
Y713000D01*
X1150000Y709000D02*
Y713000D01*
X1132000Y724000D02*
X1136000D01*
X1132000Y735000D02*
X1136000D01*
X1109000Y710500D02*
Y714500D01*
X1120000Y710500D02*
Y714500D01*
X1451500Y912500D02*
Y916500D01*
X1440500Y912500D02*
Y916500D01*
X1341000Y996000D02*
X1345000D01*
X1341000Y985000D02*
X1345000D01*
X1120044Y847861D02*
X1124044D01*
X1120044Y858861D02*
X1124044D01*
X1120000Y844500D02*
X1124000D01*
X1120000Y833500D02*
X1124000D01*
X1132000Y901000D02*
Y905000D01*
X1121000Y901000D02*
Y905000D01*
X1109500Y901000D02*
Y905000D01*
X1120500Y901000D02*
Y905000D01*
X1134000Y901000D02*
Y905000D01*
X1145000Y901000D02*
Y905000D01*
X1374850Y698500D02*
X1418050D01*
X1375400Y724500D02*
X1418600D01*
X1418050Y699000D02*
Y699500D01*
X1418600Y723500D02*
Y724500D01*
X1374350Y525750D02*
X1417550D01*
X1374900Y551750D02*
X1418100D01*
X1417550Y526250D02*
Y526750D01*
X1418100Y550750D02*
Y551750D01*
X1081450Y632500D02*
X1124650D01*
X1080900Y606500D02*
X1124100D01*
X1081450Y631500D02*
Y632000D01*
X1080900Y606500D02*
Y607500D01*
X1082450Y823000D02*
X1125650D01*
X1081900Y797000D02*
X1125100D01*
X1082450Y822000D02*
Y822500D01*
X1081900Y797000D02*
Y798000D01*
X1436450Y821750D02*
X1479650D01*
X1435900Y795750D02*
X1479100D01*
X1436450Y820750D02*
Y821250D01*
X1435900Y795750D02*
Y796750D01*
X1436450Y647750D02*
X1479650D01*
X1435900Y621750D02*
X1479100D01*
X1436450Y646750D02*
Y647250D01*
X1435900Y621750D02*
Y622750D01*
X1020350Y529000D02*
X1063550D01*
X1020900Y555000D02*
X1064100D01*
X1063550Y529500D02*
Y530000D01*
X1064100Y554000D02*
Y555000D01*
X1020350Y702250D02*
X1063550D01*
X1020900Y728250D02*
X1064100D01*
X1063550Y702750D02*
Y703250D01*
X1064100Y727250D02*
Y728250D01*
X1187000Y856500D02*
Y858500D01*
X1187050Y830500D02*
Y832500D01*
X1141000Y830500D02*
X1187050D01*
X1141000Y858500D02*
X1187000D01*
X1394500Y903000D02*
X1396500D01*
X1368500Y902950D02*
X1370500D01*
X1368500D02*
Y949000D01*
X1396500Y903000D02*
Y949000D01*
X1479500Y903000D02*
X1481500D01*
X1453500Y902950D02*
X1455500D01*
X1453500D02*
Y949000D01*
X1481500Y903000D02*
Y949000D01*
X1436500Y903000D02*
X1438500D01*
X1410500Y902950D02*
X1412500D01*
X1410500D02*
Y949000D01*
X1438500Y903000D02*
Y949000D01*
X1424000Y745250D02*
Y756250D01*
X1422000D02*
X1426000D01*
X1422000Y745250D02*
X1426000D01*
X1424000Y571250D02*
Y582250D01*
X1422000D02*
X1426000D01*
X1422000Y571250D02*
X1426000D01*
X1076000Y594000D02*
Y605000D01*
X1074000Y594000D02*
X1078000D01*
X1074000Y605000D02*
X1078000D01*
X1076000Y767750D02*
Y778750D01*
X1074000Y767750D02*
X1078000D01*
X1074000Y778750D02*
X1078000D01*
X1414000Y807750D02*
X1425000D01*
Y805750D02*
Y809750D01*
X1414000Y805750D02*
Y809750D01*
X1414000Y633750D02*
X1425000D01*
Y631750D02*
Y635750D01*
X1414000Y631750D02*
Y635750D01*
X1075000Y543000D02*
X1086000D01*
X1075000Y541000D02*
Y545000D01*
X1086000Y541000D02*
Y545000D01*
X1075000Y716250D02*
X1086000D01*
X1075000Y714250D02*
Y718250D01*
X1086000Y714250D02*
Y718250D01*
X1426500Y835500D02*
Y846500D01*
X1424500D02*
X1428500D01*
X1424500Y835500D02*
X1428500D01*
X1425000Y662250D02*
Y673250D01*
X1423000D02*
X1427000D01*
X1423000Y662250D02*
X1427000D01*
X1075000Y503500D02*
Y514500D01*
X1073000Y503500D02*
X1077000D01*
X1073000Y514500D02*
X1077000D01*
X1075000Y676750D02*
Y687750D01*
X1073000Y676750D02*
X1077000D01*
X1073000Y687750D02*
X1077000D01*
X1422500Y782750D02*
Y793750D01*
X1420500Y782750D02*
X1424500D01*
X1420500Y793750D02*
X1424500D01*
X1422500Y608750D02*
Y619750D01*
X1420500Y608750D02*
X1424500D01*
X1420500Y619750D02*
X1424500D01*
X1077500Y557000D02*
Y568000D01*
X1075500D02*
X1079500D01*
X1075500Y557000D02*
X1079500D01*
X1077500Y730250D02*
Y741250D01*
X1075500D02*
X1079500D01*
X1075500Y730250D02*
X1079500D01*
X1323500Y687500D02*
Y698500D01*
X1321500D02*
X1325500D01*
X1321500Y687500D02*
X1325500D01*
X1181000Y734500D02*
Y745500D01*
X1179000D02*
X1183000D01*
X1179000Y734500D02*
X1183000D01*
X1208000Y756500D02*
X1219000D01*
X1208000Y754500D02*
Y758500D01*
X1219000Y754500D02*
Y758500D01*
X1194500Y694000D02*
Y705000D01*
X1192500D02*
X1196500D01*
X1192500Y694000D02*
X1196500D01*
X1262500Y720000D02*
Y731000D01*
X1260500D02*
X1264500D01*
X1260500Y720000D02*
X1264500D01*
X1458500Y871000D02*
X1469500D01*
X1458500Y869000D02*
Y873000D01*
X1469500Y869000D02*
Y873000D01*
X1372000Y753500D02*
Y764500D01*
X1370000D02*
X1374000D01*
X1370000Y753500D02*
X1374000D01*
X1372500Y803500D02*
Y814500D01*
X1370500Y803500D02*
X1374500D01*
X1370500Y814500D02*
X1374500D01*
X1289500Y839000D02*
Y859500D01*
X1284000Y838500D02*
X1295000D01*
X1284000Y859500D02*
X1295000D01*
X1288000Y713000D02*
Y724000D01*
X1286000D02*
X1290000D01*
X1286000Y713000D02*
X1290000D01*
X1331000Y830000D02*
Y841000D01*
X1329000Y830000D02*
X1333000D01*
X1329000Y841000D02*
X1333000D01*
X1398000Y940000D02*
X1409000D01*
Y938000D02*
Y942000D01*
X1398000Y938000D02*
Y942000D01*
X1260000Y628500D02*
X1271000D01*
Y626500D02*
Y630500D01*
X1260000Y626500D02*
Y630500D01*
X1311000Y626000D02*
X1322000D01*
X1311000Y624000D02*
Y628000D01*
X1322000Y624000D02*
Y628000D01*
X1339000Y513000D02*
Y524000D01*
X1337000D02*
X1341000D01*
X1337000Y513000D02*
X1341000D01*
X1222000Y591000D02*
X1233000D01*
Y589000D02*
Y593000D01*
X1222000Y589000D02*
Y593000D01*
X1250500Y594500D02*
Y605500D01*
X1248500Y594500D02*
X1252500D01*
X1248500Y605500D02*
X1252500D01*
X1195000Y587000D02*
X1206000D01*
X1195000Y585000D02*
Y589000D01*
X1206000Y585000D02*
Y589000D01*
X1128000Y516000D02*
X1139000D01*
Y514000D02*
Y518000D01*
X1128000Y514000D02*
Y518000D01*
X1140000Y516000D02*
X1151000D01*
Y514000D02*
Y518000D01*
X1140000Y514000D02*
Y518000D01*
X1148000Y580500D02*
Y591500D01*
X1146000D02*
X1150000D01*
X1146000Y580500D02*
X1150000D01*
X1144000Y592000D02*
Y603000D01*
X1142000D02*
X1146000D01*
X1142000Y592000D02*
X1146000D01*
X1111500Y536500D02*
X1122500D01*
X1111500Y534500D02*
Y538500D01*
X1122500Y534500D02*
Y538500D01*
X1111000Y570500D02*
X1122000D01*
Y568500D02*
Y572500D01*
X1111000Y568500D02*
Y572500D01*
X1185500Y555500D02*
Y566500D01*
X1183500Y555500D02*
X1187500D01*
X1183500Y566500D02*
X1187500D01*
X1483000Y940000D02*
X1494000D01*
X1483000Y938000D02*
Y942000D01*
X1494000Y938000D02*
Y942000D01*
X1212000Y634000D02*
X1232500D01*
X1211500Y628500D02*
Y639500D01*
X1232500Y628500D02*
Y639500D01*
X1189500Y639000D02*
X1200500D01*
X1189500Y637000D02*
Y641000D01*
X1200500Y637000D02*
Y641000D01*
X1293500Y685500D02*
Y696500D01*
X1291500D02*
X1295500D01*
X1291500Y685500D02*
X1295500D01*
X1190000Y611500D02*
Y622500D01*
X1188000Y611500D02*
X1192000D01*
X1188000Y622500D02*
X1192000D01*
X1335500Y602000D02*
Y613000D01*
X1333500D02*
X1337500D01*
X1333500Y602000D02*
X1337500D01*
X1118500Y948000D02*
X1129500D01*
X1118500Y946000D02*
Y950000D01*
X1129500Y946000D02*
Y950000D01*
X1092500Y949000D02*
X1103500D01*
X1092500Y947000D02*
Y951000D01*
X1103500Y947000D02*
Y951000D01*
X1440500Y940000D02*
X1451500D01*
X1440500Y938000D02*
Y942000D01*
X1451500Y938000D02*
Y942000D01*
X1342500Y896000D02*
Y916500D01*
X1337000Y917000D02*
X1348000D01*
X1337000Y896000D02*
X1348000D01*
X1343000Y919000D02*
Y930000D01*
X1341000D02*
X1345000D01*
X1341000Y919000D02*
X1345000D01*
X1343000Y962000D02*
Y973000D01*
X1341000D02*
X1345000D01*
X1341000Y962000D02*
X1345000D01*
X1343000Y973500D02*
Y984500D01*
X1341000D02*
X1345000D01*
X1341000Y973500D02*
X1345000D01*
D11*
X1391500Y795500D02*
G03*
X1391500Y795500I-1000J0D01*
G01*
X1303500Y609000D02*
G03*
X1303500Y609000I-1000J0D01*
G01*
X1053174Y869781D02*
G03*
X1044284Y860891I0J-8890D01*
G01*
X1106174Y869781D02*
G03*
X1097284Y860891I0J-8890D01*
G01*
X1225000Y844500D02*
X1227000D01*
X1218000D02*
X1225000Y839500D01*
X1218000Y844500D02*
X1225000Y848500D01*
X1217000Y844500D02*
X1218000D01*
Y839500D02*
Y849500D01*
X1225000Y839500D02*
Y848500D01*
X1169500Y573250D02*
Y576500D01*
X1166250D02*
X1169500D01*
X1126500D02*
X1129750D01*
X1126500Y573250D02*
Y576500D01*
Y533500D02*
Y536750D01*
Y533500D02*
X1129750D01*
X1169500D02*
Y536750D01*
X1166250Y533500D02*
X1169500D01*
X1352000Y884500D02*
X1360000D01*
X1352000Y876500D02*
Y884500D01*
Y854500D02*
X1360000D01*
X1352000D02*
Y862500D01*
X1143500Y874000D02*
Y882000D01*
X1135500D02*
X1143500D01*
X1113500Y874000D02*
Y882000D01*
X1121500D01*
X1054044Y860891D02*
Y888831D01*
X1004044Y860891D02*
X1054044D01*
X1004044D02*
Y888831D01*
X1054044D01*
X1107044Y860891D02*
Y888831D01*
X1057044Y860891D02*
X1107044D01*
X1057044D02*
Y888831D01*
X1107044D01*
X1437000Y730000D02*
X1445000D01*
X1437000Y722000D02*
Y730000D01*
Y700000D02*
X1445000D01*
X1437000D02*
Y708000D01*
X1436500Y555950D02*
X1444500D01*
X1436500Y547950D02*
Y555950D01*
Y525950D02*
X1444500D01*
X1436500D02*
Y533950D01*
X1055500Y620800D02*
X1063500D01*
Y628800D01*
X1055500Y650800D02*
X1063500D01*
Y642800D02*
Y650800D01*
X1055500Y792000D02*
X1063500D01*
Y800000D01*
X1055500Y822000D02*
X1063500D01*
Y814000D02*
Y822000D01*
X1392000Y711500D02*
X1394000D01*
X1401000D02*
X1402000D01*
X1394000Y707500D02*
Y716500D01*
X1401000Y711500D01*
X1394000Y707500D02*
X1401000Y711500D01*
Y706500D02*
Y716500D01*
X1391500Y538750D02*
X1393500D01*
X1400500D02*
X1401500D01*
X1393500Y534750D02*
Y543750D01*
X1400500Y538750D01*
X1393500Y534750D02*
X1400500Y538750D01*
Y533750D02*
Y543750D01*
X1105500Y619500D02*
X1107500D01*
X1097500D02*
X1098500D01*
X1105500Y614500D02*
Y623500D01*
X1098500Y619500D02*
X1105500Y614500D01*
X1098500Y619500D02*
X1105500Y623500D01*
X1098500Y614500D02*
Y624500D01*
X1106500Y810000D02*
X1108500D01*
X1098500D02*
X1099500D01*
X1106500Y805000D02*
Y814000D01*
X1099500Y810000D02*
X1106500Y805000D01*
X1099500Y810000D02*
X1106500Y814000D01*
X1099500Y805000D02*
Y815000D01*
X1460500Y808750D02*
X1462500D01*
X1452500D02*
X1453500D01*
X1460500Y803750D02*
Y812750D01*
X1453500Y808750D02*
X1460500Y803750D01*
X1453500Y808750D02*
X1460500Y812750D01*
X1453500Y803750D02*
Y813750D01*
X1460500Y634750D02*
X1462500D01*
X1452500D02*
X1453500D01*
X1460500Y629750D02*
Y638750D01*
X1453500Y634750D02*
X1460500Y629750D01*
X1453500Y634750D02*
X1460500Y638750D01*
X1453500Y629750D02*
Y639750D01*
X1037500Y542000D02*
X1039500D01*
X1046500D02*
X1047500D01*
X1039500Y538000D02*
Y547000D01*
X1046500Y542000D01*
X1039500Y538000D02*
X1046500Y542000D01*
Y537000D02*
Y547000D01*
X1037500Y715250D02*
X1039500D01*
X1046500D02*
X1047500D01*
X1039500Y711250D02*
Y720250D01*
X1046500Y715250D01*
X1039500Y711250D02*
X1046500Y715250D01*
Y710250D02*
Y720250D01*
X1159000Y844500D02*
X1161000D01*
X1168000D02*
X1169000D01*
X1161000Y840500D02*
Y849500D01*
X1168000Y844500D01*
X1161000Y840500D02*
X1168000Y844500D01*
Y839500D02*
Y849500D01*
X1382500Y929000D02*
Y931000D01*
Y921000D02*
Y922000D01*
X1378500Y929000D02*
X1387500D01*
X1382500Y922000D02*
X1387500Y929000D01*
X1378500D02*
X1382500Y922000D01*
X1377500D02*
X1387500D01*
X1467500Y929000D02*
Y931000D01*
Y921000D02*
Y922000D01*
X1463500Y929000D02*
X1472500D01*
X1467500Y922000D02*
X1472500Y929000D01*
X1463500D02*
X1467500Y922000D01*
X1462500D02*
X1472500D01*
X1424500Y929000D02*
Y931000D01*
Y921000D02*
Y922000D01*
X1420500Y929000D02*
X1429500D01*
X1424500Y922000D02*
X1429500Y929000D01*
X1420500D02*
X1424500Y922000D01*
X1419500D02*
X1429500D01*
D12*
X1174650Y529600D02*
G03*
X1174650Y529600I-1250J0D01*
G01*
X1343250Y816500D02*
G03*
X1343250Y816500I-1250J0D01*
G01*
X1256750Y595500D02*
G03*
X1256750Y595500I-1250J0D01*
G01*
X1058844Y846161D02*
G03*
X1058844Y846161I-1250J0D01*
G01*
X1111844D02*
G03*
X1111844Y846161I-1250J0D01*
G01*
D13*
X1385000Y781300D02*
Y786700D01*
X1360000Y781300D02*
Y786700D01*
X1288300Y614500D02*
X1293700D01*
X1288300Y639500D02*
X1293700D01*
D14*
X1490000Y769750D02*
G03*
X1491000Y769750I500J0D01*
G01*
D02*
G03*
X1490000Y769750I-500J0D01*
G01*
Y595750D02*
G03*
X1491000Y595750I500J0D01*
G01*
D02*
G03*
X1490000Y595750I-500J0D01*
G01*
X1010000Y581000D02*
G03*
X1009000Y581000I-500J0D01*
G01*
D02*
G03*
X1010000Y581000I500J0D01*
G01*
Y754250D02*
G03*
X1009000Y754250I-500J0D01*
G01*
D02*
G03*
X1010000Y754250I500J0D01*
G01*
X1407750Y989130D02*
G03*
X1407750Y990130I0J500D01*
G01*
D02*
G03*
X1407750Y989130I0J-500D01*
G01*
X1026250D02*
G03*
X1026250Y990130I0J500D01*
G01*
D02*
G03*
X1026250Y989130I0J-500D01*
G01*
X1471000Y781500D02*
X1475000D01*
X1471000Y777000D02*
Y781500D01*
X1483000D02*
X1487000D01*
Y777000D02*
Y781500D01*
X1471000Y726500D02*
X1475000D01*
X1471000D02*
Y731000D01*
X1483000Y726500D02*
X1487000D01*
Y731000D01*
X1471000Y607500D02*
X1475000D01*
X1471000Y603000D02*
Y607500D01*
X1483000D02*
X1487000D01*
Y603000D02*
Y607500D01*
X1471000Y552500D02*
X1475000D01*
X1471000D02*
Y557000D01*
X1483000Y552500D02*
X1487000D01*
Y557000D01*
X1025000Y569250D02*
X1029000D01*
Y573750D01*
X1013000Y569250D02*
X1017000D01*
X1013000D02*
Y573750D01*
X1025000Y624250D02*
X1029000D01*
Y619750D02*
Y624250D01*
X1013000D02*
X1017000D01*
X1013000Y619750D02*
Y624250D01*
X1025000Y742500D02*
X1029000D01*
Y747000D01*
X1013000Y742500D02*
X1017000D01*
X1013000D02*
Y747000D01*
X1025000Y797500D02*
X1029000D01*
Y793000D02*
Y797500D01*
X1013000D02*
X1017000D01*
X1013000Y793000D02*
Y797500D01*
X1481250Y986130D02*
X1485750D01*
Y982130D02*
Y986130D01*
X1481250Y970130D02*
X1485750D01*
Y974130D01*
X1395750Y986130D02*
X1400250D01*
X1395750Y982130D02*
Y986130D01*
Y970130D02*
X1400250D01*
X1395750D02*
Y974130D01*
X1099750Y986130D02*
X1104250D01*
Y982130D02*
Y986130D01*
X1099750Y970130D02*
X1104250D01*
Y974130D01*
X1014250Y986130D02*
X1018750D01*
X1014250Y982130D02*
Y986130D01*
Y970130D02*
X1018750D01*
X1014250D02*
Y974130D01*
X1148500Y871500D02*
X1181500D01*
X1148500Y887500D02*
X1181500D01*
X1148500Y871500D02*
Y887500D01*
X1181500Y871500D02*
Y887500D01*
X1147600Y871500D02*
Y887500D01*
Y871500D02*
X1148500D01*
X1147600Y872400D02*
X1148500Y871500D01*
X1147600Y872400D02*
Y886600D01*
Y887500D02*
X1151229D01*
X1181000Y892500D02*
Y925500D01*
X1165000Y892500D02*
Y925500D01*
Y892500D02*
X1181000D01*
X1165000Y925500D02*
X1181000D01*
X1165000Y891600D02*
X1181000D01*
Y892500D01*
X1180100Y891600D02*
X1181000Y892500D01*
X1165900Y891600D02*
X1180100D01*
X1165000D02*
Y895229D01*
D140*
X1388000Y955000D02*
X1500005D01*
X1388000Y1005005D02*
X1500005D01*
Y955000D02*
Y1005005D01*
X1388000Y955000D02*
Y1005005D01*
M02*
