G04*
G04 #@! TF.GenerationSoftware,Altium Limited,Altium Designer,24.9.1 (31)*
G04*
G04 Layer_Color=8388736*
%FSLAX44Y44*%
%MOMM*%
G71*
G04*
G04 #@! TF.SameCoordinates,22428939-7FEC-4B67-BCAF-D19850B6772B*
G04*
G04*
G04 #@! TF.FilePolarity,Negative*
G04*
G01*
G75*
G04:AMPARAMS|DCode=39|XSize=0.78mm|YSize=0.98mm|CornerRadius=0.075mm|HoleSize=0mm|Usage=FLASHONLY|Rotation=180.000|XOffset=0mm|YOffset=0mm|HoleType=Round|Shape=RoundedRectangle|*
%AMROUNDEDRECTD39*
21,1,0.7800,0.8300,0,0,180.0*
21,1,0.6300,0.9800,0,0,180.0*
1,1,0.1500,-0.3150,0.4150*
1,1,0.1500,0.3150,0.4150*
1,1,0.1500,0.3150,-0.4150*
1,1,0.1500,-0.3150,-0.4150*
%
%ADD39ROUNDEDRECTD39*%
G04:AMPARAMS|DCode=40|XSize=3.38mm|YSize=1.38mm|CornerRadius=0.105mm|HoleSize=0mm|Usage=FLASHONLY|Rotation=180.000|XOffset=0mm|YOffset=0mm|HoleType=Round|Shape=RoundedRectangle|*
%AMROUNDEDRECTD40*
21,1,3.3800,1.1700,0,0,180.0*
21,1,3.1700,1.3800,0,0,180.0*
1,1,0.2100,-1.5850,0.5850*
1,1,0.2100,1.5850,0.5850*
1,1,0.2100,1.5850,-0.5850*
1,1,0.2100,-1.5850,-0.5850*
%
%ADD40ROUNDEDRECTD40*%
G04:AMPARAMS|DCode=41|XSize=0.38mm|YSize=0.75mm|CornerRadius=0.0775mm|HoleSize=0mm|Usage=FLASHONLY|Rotation=270.000|XOffset=0mm|YOffset=0mm|HoleType=Round|Shape=RoundedRectangle|*
%AMROUNDEDRECTD41*
21,1,0.3800,0.5950,0,0,270.0*
21,1,0.2250,0.7500,0,0,270.0*
1,1,0.1550,-0.2975,-0.1125*
1,1,0.1550,-0.2975,0.1125*
1,1,0.1550,0.2975,0.1125*
1,1,0.1550,0.2975,-0.1125*
%
%ADD41ROUNDEDRECTD41*%
G04:AMPARAMS|DCode=42|XSize=0.8928mm|YSize=0.98mm|CornerRadius=0.0806mm|HoleSize=0mm|Usage=FLASHONLY|Rotation=180.000|XOffset=0mm|YOffset=0mm|HoleType=Round|Shape=RoundedRectangle|*
%AMROUNDEDRECTD42*
21,1,0.8928,0.8187,0,0,180.0*
21,1,0.7315,0.9800,0,0,180.0*
1,1,0.1613,-0.3658,0.4094*
1,1,0.1613,0.3658,0.4094*
1,1,0.1613,0.3658,-0.4094*
1,1,0.1613,-0.3658,-0.4094*
%
%ADD42ROUNDEDRECTD42*%
G04:AMPARAMS|DCode=43|XSize=0.8928mm|YSize=0.98mm|CornerRadius=0.0806mm|HoleSize=0mm|Usage=FLASHONLY|Rotation=90.000|XOffset=0mm|YOffset=0mm|HoleType=Round|Shape=RoundedRectangle|*
%AMROUNDEDRECTD43*
21,1,0.8928,0.8187,0,0,90.0*
21,1,0.7315,0.9800,0,0,90.0*
1,1,0.1613,0.4094,0.3658*
1,1,0.1613,0.4094,-0.3658*
1,1,0.1613,-0.4094,-0.3658*
1,1,0.1613,-0.4094,0.3658*
%
%ADD43ROUNDEDRECTD43*%
G04:AMPARAMS|DCode=44|XSize=3.38mm|YSize=1.38mm|CornerRadius=0.105mm|HoleSize=0mm|Usage=FLASHONLY|Rotation=90.000|XOffset=0mm|YOffset=0mm|HoleType=Round|Shape=RoundedRectangle|*
%AMROUNDEDRECTD44*
21,1,3.3800,1.1700,0,0,90.0*
21,1,3.1700,1.3800,0,0,90.0*
1,1,0.2100,0.5850,1.5850*
1,1,0.2100,0.5850,-1.5850*
1,1,0.2100,-0.5850,-1.5850*
1,1,0.2100,-0.5850,1.5850*
%
%ADD44ROUNDEDRECTD44*%
G04:AMPARAMS|DCode=45|XSize=1.23mm|YSize=1.98mm|CornerRadius=0.0975mm|HoleSize=0mm|Usage=FLASHONLY|Rotation=270.000|XOffset=0mm|YOffset=0mm|HoleType=Round|Shape=RoundedRectangle|*
%AMROUNDEDRECTD45*
21,1,1.2300,1.7850,0,0,270.0*
21,1,1.0350,1.9800,0,0,270.0*
1,1,0.1950,-0.8925,-0.5175*
1,1,0.1950,-0.8925,0.5175*
1,1,0.1950,0.8925,0.5175*
1,1,0.1950,0.8925,-0.5175*
%
%ADD45ROUNDEDRECTD45*%
G04:AMPARAMS|DCode=46|XSize=1.38mm|YSize=1.18mm|CornerRadius=0.095mm|HoleSize=0mm|Usage=FLASHONLY|Rotation=180.000|XOffset=0mm|YOffset=0mm|HoleType=Round|Shape=RoundedRectangle|*
%AMROUNDEDRECTD46*
21,1,1.3800,0.9900,0,0,180.0*
21,1,1.1900,1.1800,0,0,180.0*
1,1,0.1900,-0.5950,0.4950*
1,1,0.1900,0.5950,0.4950*
1,1,0.1900,0.5950,-0.4950*
1,1,0.1900,-0.5950,-0.4950*
%
%ADD46ROUNDEDRECTD46*%
G04:AMPARAMS|DCode=47|XSize=0.68mm|YSize=1.53mm|CornerRadius=0.115mm|HoleSize=0mm|Usage=FLASHONLY|Rotation=90.000|XOffset=0mm|YOffset=0mm|HoleType=Round|Shape=RoundedRectangle|*
%AMROUNDEDRECTD47*
21,1,0.6800,1.3000,0,0,90.0*
21,1,0.4500,1.5300,0,0,90.0*
1,1,0.2300,0.6500,0.2250*
1,1,0.2300,0.6500,-0.2250*
1,1,0.2300,-0.6500,-0.2250*
1,1,0.2300,-0.6500,0.2250*
%
%ADD47ROUNDEDRECTD47*%
G04:AMPARAMS|DCode=48|XSize=0.63mm|YSize=0.88mm|CornerRadius=0.1088mm|HoleSize=0mm|Usage=FLASHONLY|Rotation=0.000|XOffset=0mm|YOffset=0mm|HoleType=Round|Shape=RoundedRectangle|*
%AMROUNDEDRECTD48*
21,1,0.6300,0.6625,0,0,0.0*
21,1,0.4125,0.8800,0,0,0.0*
1,1,0.2175,0.2063,-0.3313*
1,1,0.2175,-0.2063,-0.3313*
1,1,0.2175,-0.2063,0.3313*
1,1,0.2175,0.2063,0.3313*
%
%ADD48ROUNDEDRECTD48*%
G04:AMPARAMS|DCode=49|XSize=1.55mm|YSize=0.38mm|CornerRadius=0.0775mm|HoleSize=0mm|Usage=FLASHONLY|Rotation=90.000|XOffset=0mm|YOffset=0mm|HoleType=Round|Shape=RoundedRectangle|*
%AMROUNDEDRECTD49*
21,1,1.5500,0.2250,0,0,90.0*
21,1,1.3950,0.3800,0,0,90.0*
1,1,0.1550,0.1125,0.6975*
1,1,0.1550,0.1125,-0.6975*
1,1,0.1550,-0.1125,-0.6975*
1,1,0.1550,-0.1125,0.6975*
%
%ADD49ROUNDEDRECTD49*%
G04:AMPARAMS|DCode=50|XSize=0.38mm|YSize=1.55mm|CornerRadius=0.0775mm|HoleSize=0mm|Usage=FLASHONLY|Rotation=90.000|XOffset=0mm|YOffset=0mm|HoleType=Round|Shape=RoundedRectangle|*
%AMROUNDEDRECTD50*
21,1,0.3800,1.3950,0,0,90.0*
21,1,0.2250,1.5500,0,0,90.0*
1,1,0.1550,0.6975,0.1125*
1,1,0.1550,0.6975,-0.1125*
1,1,0.1550,-0.6975,-0.1125*
1,1,0.1550,-0.6975,0.1125*
%
%ADD50ROUNDEDRECTD50*%
%ADD51R,1.0800X1.6800*%
%ADD52R,1.4800X0.9800*%
%ADD53R,0.9800X1.4800*%
G04:AMPARAMS|DCode=54|XSize=0.78mm|YSize=0.98mm|CornerRadius=0.075mm|HoleSize=0mm|Usage=FLASHONLY|Rotation=90.000|XOffset=0mm|YOffset=0mm|HoleType=Round|Shape=RoundedRectangle|*
%AMROUNDEDRECTD54*
21,1,0.7800,0.8300,0,0,90.0*
21,1,0.6300,0.9800,0,0,90.0*
1,1,0.1500,0.4150,0.3150*
1,1,0.1500,0.4150,-0.3150*
1,1,0.1500,-0.4150,-0.3150*
1,1,0.1500,-0.4150,0.3150*
%
%ADD54ROUNDEDRECTD54*%
G04:AMPARAMS|DCode=55|XSize=0.88mm|YSize=1.08mm|CornerRadius=0.08mm|HoleSize=0mm|Usage=FLASHONLY|Rotation=270.000|XOffset=0mm|YOffset=0mm|HoleType=Round|Shape=RoundedRectangle|*
%AMROUNDEDRECTD55*
21,1,0.8800,0.9200,0,0,270.0*
21,1,0.7200,1.0800,0,0,270.0*
1,1,0.1600,-0.4600,-0.3600*
1,1,0.1600,-0.4600,0.3600*
1,1,0.1600,0.4600,0.3600*
1,1,0.1600,0.4600,-0.3600*
%
%ADD55ROUNDEDRECTD55*%
G04:AMPARAMS|DCode=56|XSize=6.28mm|YSize=1.88mm|CornerRadius=0.265mm|HoleSize=0mm|Usage=FLASHONLY|Rotation=90.000|XOffset=0mm|YOffset=0mm|HoleType=Round|Shape=RoundedRectangle|*
%AMROUNDEDRECTD56*
21,1,6.2800,1.3500,0,0,90.0*
21,1,5.7500,1.8800,0,0,90.0*
1,1,0.5300,0.6750,2.8750*
1,1,0.5300,0.6750,-2.8750*
1,1,0.5300,-0.6750,-2.8750*
1,1,0.5300,-0.6750,2.8750*
%
%ADD56ROUNDEDRECTD56*%
G04:AMPARAMS|DCode=57|XSize=6.28mm|YSize=1.88mm|CornerRadius=0.265mm|HoleSize=0mm|Usage=FLASHONLY|Rotation=180.000|XOffset=0mm|YOffset=0mm|HoleType=Round|Shape=RoundedRectangle|*
%AMROUNDEDRECTD57*
21,1,6.2800,1.3500,0,0,180.0*
21,1,5.7500,1.8800,0,0,180.0*
1,1,0.5300,-2.8750,0.6750*
1,1,0.5300,2.8750,0.6750*
1,1,0.5300,2.8750,-0.6750*
1,1,0.5300,-2.8750,-0.6750*
%
%ADD57ROUNDEDRECTD57*%
G04:AMPARAMS|DCode=58|XSize=0.84mm|YSize=2.48mm|CornerRadius=0.135mm|HoleSize=0mm|Usage=FLASHONLY|Rotation=0.000|XOffset=0mm|YOffset=0mm|HoleType=Round|Shape=RoundedRectangle|*
%AMROUNDEDRECTD58*
21,1,0.8400,2.2100,0,0,0.0*
21,1,0.5700,2.4800,0,0,0.0*
1,1,0.2700,0.2850,-1.1050*
1,1,0.2700,-0.2850,-1.1050*
1,1,0.2700,-0.2850,1.1050*
1,1,0.2700,0.2850,1.1050*
%
%ADD58ROUNDEDRECTD58*%
G04:AMPARAMS|DCode=59|XSize=0.88mm|YSize=0.98mm|CornerRadius=0.08mm|HoleSize=0mm|Usage=FLASHONLY|Rotation=90.000|XOffset=0mm|YOffset=0mm|HoleType=Round|Shape=RoundedRectangle|*
%AMROUNDEDRECTD59*
21,1,0.8800,0.8200,0,0,90.0*
21,1,0.7200,0.9800,0,0,90.0*
1,1,0.1600,0.4100,0.3600*
1,1,0.1600,0.4100,-0.3600*
1,1,0.1600,-0.4100,-0.3600*
1,1,0.1600,-0.4100,0.3600*
%
%ADD59ROUNDEDRECTD59*%
G04:AMPARAMS|DCode=60|XSize=1.68mm|YSize=1.98mm|CornerRadius=0.24mm|HoleSize=0mm|Usage=FLASHONLY|Rotation=90.000|XOffset=0mm|YOffset=0mm|HoleType=Round|Shape=RoundedRectangle|*
%AMROUNDEDRECTD60*
21,1,1.6800,1.5000,0,0,90.0*
21,1,1.2000,1.9800,0,0,90.0*
1,1,0.4800,0.7500,0.6000*
1,1,0.4800,0.7500,-0.6000*
1,1,0.4800,-0.7500,-0.6000*
1,1,0.4800,-0.7500,0.6000*
%
%ADD60ROUNDEDRECTD60*%
G04:AMPARAMS|DCode=61|XSize=1.18mm|YSize=2.08mm|CornerRadius=0.095mm|HoleSize=0mm|Usage=FLASHONLY|Rotation=0.000|XOffset=0mm|YOffset=0mm|HoleType=Round|Shape=RoundedRectangle|*
%AMROUNDEDRECTD61*
21,1,1.1800,1.8900,0,0,0.0*
21,1,0.9900,2.0800,0,0,0.0*
1,1,0.1900,0.4950,-0.9450*
1,1,0.1900,-0.4950,-0.9450*
1,1,0.1900,-0.4950,0.9450*
1,1,0.1900,0.4950,0.9450*
%
%ADD61ROUNDEDRECTD61*%
G04:AMPARAMS|DCode=62|XSize=1.18mm|YSize=2.08mm|CornerRadius=0.095mm|HoleSize=0mm|Usage=FLASHONLY|Rotation=270.000|XOffset=0mm|YOffset=0mm|HoleType=Round|Shape=RoundedRectangle|*
%AMROUNDEDRECTD62*
21,1,1.1800,1.8900,0,0,270.0*
21,1,0.9900,2.0800,0,0,270.0*
1,1,0.1900,-0.9450,-0.4950*
1,1,0.1900,-0.9450,0.4950*
1,1,0.1900,0.9450,0.4950*
1,1,0.1900,0.9450,-0.4950*
%
%ADD62ROUNDEDRECTD62*%
%ADD63C,1.0900*%
%ADD64R,1.0900X1.0900*%
G36*
X1128806Y902629D02*
X1128866D01*
X1128916Y902619D01*
X1128966Y902609D01*
X1129016Y902589D01*
X1129066Y902569D01*
X1129116Y902549D01*
X1129156Y902529D01*
X1129206Y902509D01*
X1129246Y902479D01*
X1129296Y902449D01*
X1129336Y902419D01*
X1129376Y902379D01*
X1129416Y902349D01*
X1129446Y902309D01*
X1129486Y902269D01*
X1129516Y902229D01*
X1129546Y902179D01*
X1129576Y902139D01*
X1129596Y902089D01*
X1129616Y902049D01*
X1129636Y901999D01*
X1129656Y901949D01*
X1129676Y901899D01*
X1129686Y901849D01*
X1129696Y901799D01*
Y901739D01*
X1129706Y901689D01*
Y901639D01*
Y896639D01*
Y896589D01*
X1129696Y896539D01*
Y896479D01*
X1129686Y896429D01*
X1129676Y896379D01*
X1129656Y896329D01*
X1129636Y896279D01*
X1129616Y896229D01*
X1129596Y896189D01*
X1129576Y896139D01*
X1129546Y896099D01*
X1129516Y896049D01*
X1129486Y896009D01*
X1129446Y895969D01*
X1129416Y895929D01*
X1129376Y895899D01*
X1129336Y895859D01*
X1129296Y895829D01*
X1129246Y895799D01*
X1129206Y895769D01*
X1129156Y895749D01*
X1129116Y895729D01*
X1129066Y895709D01*
X1129016Y895689D01*
X1128966Y895669D01*
X1128916Y895659D01*
X1128866Y895649D01*
X1128806D01*
X1128756Y895639D01*
X1127156D01*
X1127106Y895649D01*
X1127046D01*
X1126996Y895659D01*
X1126946Y895669D01*
X1126896Y895689D01*
X1126846Y895709D01*
X1126796Y895729D01*
X1126756Y895749D01*
X1126706Y895769D01*
X1126666Y895799D01*
X1126616Y895829D01*
X1126576Y895859D01*
X1126536Y895899D01*
X1126496Y895929D01*
X1126466Y895969D01*
X1126426Y896009D01*
X1126396Y896049D01*
X1126366Y896099D01*
X1126336Y896139D01*
X1126316Y896189D01*
X1126296Y896229D01*
X1126276Y896279D01*
X1126256Y896329D01*
X1126236Y896379D01*
X1126226Y896429D01*
X1126216Y896479D01*
Y896539D01*
X1126206Y896589D01*
Y896639D01*
Y901639D01*
Y901689D01*
X1126216Y901739D01*
Y901799D01*
X1126226Y901849D01*
X1126236Y901899D01*
X1126256Y901949D01*
X1126276Y901999D01*
X1126296Y902049D01*
X1126316Y902089D01*
X1126336Y902139D01*
X1126366Y902179D01*
X1126396Y902229D01*
X1126426Y902269D01*
X1126466Y902309D01*
X1126496Y902349D01*
X1126536Y902379D01*
X1126576Y902419D01*
X1126616Y902449D01*
X1126666Y902479D01*
X1126706Y902509D01*
X1126756Y902529D01*
X1126796Y902549D01*
X1126846Y902569D01*
X1126896Y902589D01*
X1126946Y902609D01*
X1126996Y902619D01*
X1127046Y902629D01*
X1127106D01*
X1127156Y902639D01*
X1128756D01*
X1128806Y902629D01*
D02*
G37*
G36*
X1123806D02*
X1123866D01*
X1123916Y902619D01*
X1123966Y902609D01*
X1124016Y902589D01*
X1124066Y902569D01*
X1124116Y902549D01*
X1124156Y902529D01*
X1124206Y902509D01*
X1124246Y902479D01*
X1124296Y902449D01*
X1124336Y902419D01*
X1124376Y902379D01*
X1124416Y902349D01*
X1124446Y902309D01*
X1124486Y902269D01*
X1124516Y902229D01*
X1124546Y902179D01*
X1124576Y902139D01*
X1124596Y902089D01*
X1124616Y902049D01*
X1124636Y901999D01*
X1124656Y901949D01*
X1124676Y901899D01*
X1124686Y901849D01*
X1124696Y901799D01*
Y901739D01*
X1124706Y901689D01*
Y901639D01*
Y896639D01*
Y896589D01*
X1124696Y896539D01*
Y896479D01*
X1124686Y896429D01*
X1124676Y896379D01*
X1124656Y896329D01*
X1124636Y896279D01*
X1124616Y896229D01*
X1124596Y896189D01*
X1124576Y896139D01*
X1124546Y896099D01*
X1124516Y896049D01*
X1124486Y896009D01*
X1124446Y895969D01*
X1124416Y895929D01*
X1124376Y895899D01*
X1124336Y895859D01*
X1124296Y895829D01*
X1124246Y895799D01*
X1124206Y895769D01*
X1124156Y895749D01*
X1124116Y895729D01*
X1124066Y895709D01*
X1124016Y895689D01*
X1123966Y895669D01*
X1123916Y895659D01*
X1123866Y895649D01*
X1123806D01*
X1123756Y895639D01*
X1122156D01*
X1122106Y895649D01*
X1122046D01*
X1121996Y895659D01*
X1121946Y895669D01*
X1121896Y895689D01*
X1121846Y895709D01*
X1121796Y895729D01*
X1121756Y895749D01*
X1121706Y895769D01*
X1121666Y895799D01*
X1121616Y895829D01*
X1121576Y895859D01*
X1121536Y895899D01*
X1121496Y895929D01*
X1121466Y895969D01*
X1121426Y896009D01*
X1121396Y896049D01*
X1121366Y896099D01*
X1121336Y896139D01*
X1121316Y896189D01*
X1121296Y896229D01*
X1121276Y896279D01*
X1121256Y896329D01*
X1121236Y896379D01*
X1121226Y896429D01*
X1121216Y896479D01*
Y896539D01*
X1121206Y896589D01*
Y896639D01*
Y901639D01*
Y901689D01*
X1121216Y901739D01*
Y901799D01*
X1121226Y901849D01*
X1121236Y901899D01*
X1121256Y901949D01*
X1121276Y901999D01*
X1121296Y902049D01*
X1121316Y902089D01*
X1121336Y902139D01*
X1121366Y902179D01*
X1121396Y902229D01*
X1121426Y902269D01*
X1121466Y902309D01*
X1121496Y902349D01*
X1121536Y902379D01*
X1121576Y902419D01*
X1121616Y902449D01*
X1121666Y902479D01*
X1121706Y902509D01*
X1121756Y902529D01*
X1121796Y902549D01*
X1121846Y902569D01*
X1121896Y902589D01*
X1121946Y902609D01*
X1121996Y902619D01*
X1122046Y902629D01*
X1122106D01*
X1122156Y902639D01*
X1123756D01*
X1123806Y902629D01*
D02*
G37*
G36*
X1118806D02*
X1118866D01*
X1118916Y902619D01*
X1118966Y902609D01*
X1119016Y902589D01*
X1119066Y902569D01*
X1119116Y902549D01*
X1119156Y902529D01*
X1119206Y902509D01*
X1119246Y902479D01*
X1119296Y902449D01*
X1119336Y902419D01*
X1119376Y902379D01*
X1119416Y902349D01*
X1119446Y902309D01*
X1119486Y902269D01*
X1119516Y902229D01*
X1119546Y902179D01*
X1119576Y902139D01*
X1119596Y902089D01*
X1119616Y902049D01*
X1119636Y901999D01*
X1119656Y901949D01*
X1119676Y901899D01*
X1119686Y901849D01*
X1119696Y901799D01*
Y901739D01*
X1119706Y901689D01*
Y901639D01*
Y896639D01*
Y896589D01*
X1119696Y896539D01*
Y896479D01*
X1119686Y896429D01*
X1119676Y896379D01*
X1119656Y896329D01*
X1119636Y896279D01*
X1119616Y896229D01*
X1119596Y896189D01*
X1119576Y896139D01*
X1119546Y896099D01*
X1119516Y896049D01*
X1119486Y896009D01*
X1119446Y895969D01*
X1119416Y895929D01*
X1119376Y895899D01*
X1119336Y895859D01*
X1119296Y895829D01*
X1119246Y895799D01*
X1119206Y895769D01*
X1119156Y895749D01*
X1119116Y895729D01*
X1119066Y895709D01*
X1119016Y895689D01*
X1118966Y895669D01*
X1118916Y895659D01*
X1118866Y895649D01*
X1118806D01*
X1118756Y895639D01*
X1117156D01*
X1117106Y895649D01*
X1117046D01*
X1116996Y895659D01*
X1116946Y895669D01*
X1116896Y895689D01*
X1116846Y895709D01*
X1116796Y895729D01*
X1116756Y895749D01*
X1116706Y895769D01*
X1116666Y895799D01*
X1116616Y895829D01*
X1116576Y895859D01*
X1116536Y895899D01*
X1116496Y895929D01*
X1116466Y895969D01*
X1116426Y896009D01*
X1116396Y896049D01*
X1116366Y896099D01*
X1116336Y896139D01*
X1116316Y896189D01*
X1116296Y896229D01*
X1116276Y896279D01*
X1116256Y896329D01*
X1116236Y896379D01*
X1116226Y896429D01*
X1116216Y896479D01*
Y896539D01*
X1116206Y896589D01*
Y896639D01*
Y901639D01*
Y901689D01*
X1116216Y901739D01*
Y901799D01*
X1116226Y901849D01*
X1116236Y901899D01*
X1116256Y901949D01*
X1116276Y901999D01*
X1116296Y902049D01*
X1116316Y902089D01*
X1116336Y902139D01*
X1116366Y902179D01*
X1116396Y902229D01*
X1116426Y902269D01*
X1116466Y902309D01*
X1116496Y902349D01*
X1116536Y902379D01*
X1116576Y902419D01*
X1116616Y902449D01*
X1116666Y902479D01*
X1116706Y902509D01*
X1116756Y902529D01*
X1116796Y902549D01*
X1116846Y902569D01*
X1116896Y902589D01*
X1116946Y902609D01*
X1116996Y902619D01*
X1117046Y902629D01*
X1117106D01*
X1117156Y902639D01*
X1118756D01*
X1118806Y902629D01*
D02*
G37*
G36*
X1113806D02*
X1113866D01*
X1113916Y902619D01*
X1113966Y902609D01*
X1114016Y902589D01*
X1114066Y902569D01*
X1114116Y902549D01*
X1114156Y902529D01*
X1114206Y902509D01*
X1114246Y902479D01*
X1114296Y902449D01*
X1114336Y902419D01*
X1114376Y902379D01*
X1114416Y902349D01*
X1114446Y902309D01*
X1114486Y902269D01*
X1114516Y902229D01*
X1114546Y902179D01*
X1114576Y902139D01*
X1114596Y902089D01*
X1114616Y902049D01*
X1114636Y901999D01*
X1114656Y901949D01*
X1114676Y901899D01*
X1114686Y901849D01*
X1114696Y901799D01*
Y901739D01*
X1114706Y901689D01*
Y901639D01*
Y896639D01*
Y896589D01*
X1114696Y896539D01*
Y896479D01*
X1114686Y896429D01*
X1114676Y896379D01*
X1114656Y896329D01*
X1114636Y896279D01*
X1114616Y896229D01*
X1114596Y896189D01*
X1114576Y896139D01*
X1114546Y896099D01*
X1114516Y896049D01*
X1114486Y896009D01*
X1114446Y895969D01*
X1114416Y895929D01*
X1114376Y895899D01*
X1114336Y895859D01*
X1114296Y895829D01*
X1114246Y895799D01*
X1114206Y895769D01*
X1114156Y895749D01*
X1114116Y895729D01*
X1114066Y895709D01*
X1114016Y895689D01*
X1113966Y895669D01*
X1113916Y895659D01*
X1113866Y895649D01*
X1113806D01*
X1113756Y895639D01*
X1112156D01*
X1112106Y895649D01*
X1112046D01*
X1111996Y895659D01*
X1111946Y895669D01*
X1111896Y895689D01*
X1111846Y895709D01*
X1111796Y895729D01*
X1111756Y895749D01*
X1111706Y895769D01*
X1111666Y895799D01*
X1111616Y895829D01*
X1111576Y895859D01*
X1111536Y895899D01*
X1111496Y895929D01*
X1111466Y895969D01*
X1111426Y896009D01*
X1111396Y896049D01*
X1111366Y896099D01*
X1111336Y896139D01*
X1111316Y896189D01*
X1111296Y896229D01*
X1111276Y896279D01*
X1111256Y896329D01*
X1111236Y896379D01*
X1111226Y896429D01*
X1111216Y896479D01*
Y896539D01*
X1111206Y896589D01*
Y896639D01*
Y901639D01*
Y901689D01*
X1111216Y901739D01*
Y901799D01*
X1111226Y901849D01*
X1111236Y901899D01*
X1111256Y901949D01*
X1111276Y901999D01*
X1111296Y902049D01*
X1111316Y902089D01*
X1111336Y902139D01*
X1111366Y902179D01*
X1111396Y902229D01*
X1111426Y902269D01*
X1111466Y902309D01*
X1111496Y902349D01*
X1111536Y902379D01*
X1111576Y902419D01*
X1111616Y902449D01*
X1111666Y902479D01*
X1111706Y902509D01*
X1111756Y902529D01*
X1111796Y902549D01*
X1111846Y902569D01*
X1111896Y902589D01*
X1111946Y902609D01*
X1111996Y902619D01*
X1112046Y902629D01*
X1112106D01*
X1112156Y902639D01*
X1113756D01*
X1113806Y902629D01*
D02*
G37*
G36*
X1397336Y895600D02*
X1393700D01*
X1388700Y900500D01*
X1393703Y905400D01*
X1397336D01*
Y895600D01*
D02*
G37*
G36*
X1386689Y900500D02*
X1391689Y895600D01*
X1383132D01*
Y900500D01*
Y905400D01*
X1391689D01*
X1386689Y900500D01*
D02*
G37*
G36*
X1132056Y891879D02*
X1132116D01*
X1132166Y891869D01*
X1132216Y891859D01*
X1132266Y891839D01*
X1132316Y891819D01*
X1132366Y891799D01*
X1132406Y891779D01*
X1132456Y891759D01*
X1132496Y891729D01*
X1132546Y891699D01*
X1132586Y891669D01*
X1132626Y891629D01*
X1132666Y891599D01*
X1132696Y891559D01*
X1132736Y891519D01*
X1132766Y891479D01*
X1132796Y891429D01*
X1132826Y891389D01*
X1132846Y891339D01*
X1132866Y891299D01*
X1132886Y891249D01*
X1132906Y891199D01*
X1132926Y891149D01*
X1132936Y891099D01*
X1132946Y891049D01*
Y890989D01*
X1132956Y890939D01*
Y890889D01*
Y889389D01*
Y889339D01*
X1132946Y889289D01*
Y889229D01*
X1132936Y889179D01*
X1132926Y889129D01*
X1132906Y889079D01*
X1132886Y889029D01*
X1132866Y888979D01*
X1132846Y888939D01*
X1132826Y888889D01*
X1132796Y888849D01*
X1132766Y888799D01*
X1132736Y888759D01*
X1132696Y888719D01*
X1132666Y888679D01*
X1132626Y888649D01*
X1132586Y888609D01*
X1132546Y888579D01*
X1132496Y888549D01*
X1132456Y888519D01*
X1132406Y888499D01*
X1132366Y888479D01*
X1132316Y888459D01*
X1132266Y888439D01*
X1132216Y888419D01*
X1132166Y888409D01*
X1132116Y888399D01*
X1132056D01*
X1132006Y888389D01*
X1118906D01*
X1118856Y888399D01*
X1118796D01*
X1118746Y888409D01*
X1118696Y888419D01*
X1118646Y888439D01*
X1118596Y888459D01*
X1118546Y888479D01*
X1118506Y888499D01*
X1118456Y888519D01*
X1118416Y888549D01*
X1118366Y888579D01*
X1118326Y888609D01*
X1118286Y888649D01*
X1118246Y888679D01*
X1118216Y888719D01*
X1118176Y888759D01*
X1118146Y888799D01*
X1118116Y888849D01*
X1118086Y888889D01*
X1118066Y888939D01*
X1118046Y888979D01*
X1118026Y889029D01*
X1118006Y889079D01*
X1117986Y889129D01*
X1117976Y889179D01*
X1117966Y889229D01*
Y889289D01*
X1117956Y889339D01*
Y889389D01*
Y890889D01*
Y890939D01*
X1117966Y890989D01*
Y891049D01*
X1117976Y891099D01*
X1117986Y891149D01*
X1118006Y891199D01*
X1118026Y891249D01*
X1118046Y891299D01*
X1118066Y891339D01*
X1118086Y891389D01*
X1118116Y891429D01*
X1118146Y891479D01*
X1118176Y891519D01*
X1118216Y891559D01*
X1118246Y891599D01*
X1118286Y891629D01*
X1118326Y891669D01*
X1118366Y891699D01*
X1118416Y891729D01*
X1118456Y891759D01*
X1118506Y891779D01*
X1118546Y891799D01*
X1118596Y891819D01*
X1118646Y891839D01*
X1118696Y891859D01*
X1118746Y891869D01*
X1118796Y891879D01*
X1118856D01*
X1118906Y891889D01*
X1132006D01*
X1132056Y891879D01*
D02*
G37*
G36*
X1122056Y886879D02*
X1122116D01*
X1122166Y886869D01*
X1122216Y886859D01*
X1122266Y886839D01*
X1122316Y886819D01*
X1122366Y886799D01*
X1122406Y886779D01*
X1122456Y886759D01*
X1122496Y886729D01*
X1122546Y886699D01*
X1122586Y886669D01*
X1122626Y886629D01*
X1122666Y886599D01*
X1122696Y886559D01*
X1122736Y886519D01*
X1122766Y886479D01*
X1122796Y886429D01*
X1122826Y886389D01*
X1122846Y886339D01*
X1122866Y886299D01*
X1122886Y886249D01*
X1122906Y886199D01*
X1122926Y886149D01*
X1122936Y886099D01*
X1122946Y886049D01*
Y885989D01*
X1122956Y885939D01*
Y885889D01*
Y884389D01*
Y884339D01*
X1122946Y884289D01*
Y884229D01*
X1122936Y884179D01*
X1122926Y884129D01*
X1122906Y884079D01*
X1122886Y884029D01*
X1122866Y883979D01*
X1122846Y883939D01*
X1122826Y883889D01*
X1122796Y883849D01*
X1122766Y883799D01*
X1122736Y883759D01*
X1122696Y883719D01*
X1122666Y883679D01*
X1122626Y883649D01*
X1122586Y883609D01*
X1122546Y883579D01*
X1122496Y883549D01*
X1122456Y883519D01*
X1122406Y883499D01*
X1122366Y883479D01*
X1122316Y883459D01*
X1122266Y883439D01*
X1122216Y883419D01*
X1122166Y883409D01*
X1122116Y883399D01*
X1122056D01*
X1122006Y883389D01*
X1108906D01*
X1108856Y883399D01*
X1108796D01*
X1108746Y883409D01*
X1108696Y883419D01*
X1108646Y883439D01*
X1108596Y883459D01*
X1108546Y883479D01*
X1108506Y883499D01*
X1108456Y883519D01*
X1108416Y883549D01*
X1108366Y883579D01*
X1108326Y883609D01*
X1108286Y883649D01*
X1108246Y883679D01*
X1108216Y883719D01*
X1108176Y883759D01*
X1108146Y883799D01*
X1108116Y883849D01*
X1108086Y883889D01*
X1108066Y883939D01*
X1108046Y883979D01*
X1108026Y884029D01*
X1108006Y884079D01*
X1107986Y884129D01*
X1107976Y884179D01*
X1107966Y884229D01*
Y884289D01*
X1107956Y884339D01*
Y884389D01*
Y885889D01*
Y885939D01*
X1107966Y885989D01*
Y886049D01*
X1107976Y886099D01*
X1107986Y886149D01*
X1108006Y886199D01*
X1108026Y886249D01*
X1108046Y886299D01*
X1108066Y886339D01*
X1108086Y886389D01*
X1108116Y886429D01*
X1108146Y886479D01*
X1108176Y886519D01*
X1108216Y886559D01*
X1108246Y886599D01*
X1108286Y886629D01*
X1108326Y886669D01*
X1108366Y886699D01*
X1108416Y886729D01*
X1108456Y886759D01*
X1108506Y886779D01*
X1108546Y886799D01*
X1108596Y886819D01*
X1108646Y886839D01*
X1108696Y886859D01*
X1108746Y886869D01*
X1108796Y886879D01*
X1108856D01*
X1108906Y886889D01*
X1122006D01*
X1122056Y886879D01*
D02*
G37*
G36*
X1132056Y881879D02*
X1132116D01*
X1132166Y881869D01*
X1132216Y881859D01*
X1132266Y881839D01*
X1132316Y881819D01*
X1132366Y881799D01*
X1132406Y881779D01*
X1132456Y881759D01*
X1132496Y881729D01*
X1132546Y881699D01*
X1132586Y881669D01*
X1132626Y881629D01*
X1132666Y881599D01*
X1132696Y881559D01*
X1132736Y881519D01*
X1132766Y881479D01*
X1132796Y881429D01*
X1132826Y881389D01*
X1132846Y881339D01*
X1132866Y881299D01*
X1132886Y881249D01*
X1132906Y881199D01*
X1132926Y881149D01*
X1132936Y881099D01*
X1132946Y881049D01*
Y880989D01*
X1132956Y880939D01*
Y880889D01*
Y879389D01*
Y879339D01*
X1132946Y879289D01*
Y879229D01*
X1132936Y879179D01*
X1132926Y879129D01*
X1132906Y879079D01*
X1132886Y879029D01*
X1132866Y878979D01*
X1132846Y878939D01*
X1132826Y878889D01*
X1132796Y878849D01*
X1132766Y878799D01*
X1132736Y878759D01*
X1132696Y878719D01*
X1132666Y878679D01*
X1132626Y878649D01*
X1132586Y878609D01*
X1132546Y878579D01*
X1132496Y878549D01*
X1132456Y878519D01*
X1132406Y878499D01*
X1132366Y878479D01*
X1132316Y878459D01*
X1132266Y878439D01*
X1132216Y878419D01*
X1132166Y878409D01*
X1132116Y878399D01*
X1132056D01*
X1132006Y878389D01*
X1118906D01*
X1118856Y878399D01*
X1118796D01*
X1118746Y878409D01*
X1118696Y878419D01*
X1118646Y878439D01*
X1118596Y878459D01*
X1118546Y878479D01*
X1118506Y878499D01*
X1118456Y878519D01*
X1118416Y878549D01*
X1118366Y878579D01*
X1118326Y878609D01*
X1118286Y878649D01*
X1118246Y878679D01*
X1118216Y878719D01*
X1118176Y878759D01*
X1118146Y878799D01*
X1118116Y878849D01*
X1118086Y878889D01*
X1118066Y878939D01*
X1118046Y878979D01*
X1118026Y879029D01*
X1118006Y879079D01*
X1117986Y879129D01*
X1117976Y879179D01*
X1117966Y879229D01*
Y879289D01*
X1117956Y879339D01*
Y879389D01*
Y880889D01*
Y880939D01*
X1117966Y880989D01*
Y881049D01*
X1117976Y881099D01*
X1117986Y881149D01*
X1118006Y881199D01*
X1118026Y881249D01*
X1118046Y881299D01*
X1118066Y881339D01*
X1118086Y881389D01*
X1118116Y881429D01*
X1118146Y881479D01*
X1118176Y881519D01*
X1118216Y881559D01*
X1118246Y881599D01*
X1118286Y881629D01*
X1118326Y881669D01*
X1118366Y881699D01*
X1118416Y881729D01*
X1118456Y881759D01*
X1118506Y881779D01*
X1118546Y881799D01*
X1118596Y881819D01*
X1118646Y881839D01*
X1118696Y881859D01*
X1118746Y881869D01*
X1118796Y881879D01*
X1118856D01*
X1118906Y881889D01*
X1132006D01*
X1132056Y881879D01*
D02*
G37*
G36*
X1114056D02*
X1114116D01*
X1114166Y881869D01*
X1114216Y881859D01*
X1114266Y881839D01*
X1114316Y881819D01*
X1114366Y881799D01*
X1114406Y881779D01*
X1114456Y881759D01*
X1114496Y881729D01*
X1114546Y881699D01*
X1114586Y881669D01*
X1114626Y881629D01*
X1114666Y881599D01*
X1114696Y881559D01*
X1114736Y881519D01*
X1114766Y881479D01*
X1114796Y881429D01*
X1114826Y881389D01*
X1114846Y881339D01*
X1114866Y881299D01*
X1114886Y881249D01*
X1114906Y881199D01*
X1114926Y881149D01*
X1114936Y881099D01*
X1114946Y881049D01*
Y880989D01*
X1114956Y880939D01*
Y880889D01*
Y879389D01*
Y879339D01*
X1114946Y879289D01*
Y879229D01*
X1114936Y879179D01*
X1114926Y879129D01*
X1114906Y879079D01*
X1114886Y879029D01*
X1114866Y878979D01*
X1114846Y878939D01*
X1114826Y878889D01*
X1114796Y878849D01*
X1114766Y878799D01*
X1114736Y878759D01*
X1114696Y878719D01*
X1114666Y878679D01*
X1114626Y878649D01*
X1114586Y878609D01*
X1114546Y878579D01*
X1114496Y878549D01*
X1114456Y878519D01*
X1114406Y878499D01*
X1114366Y878479D01*
X1114316Y878459D01*
X1114266Y878439D01*
X1114216Y878419D01*
X1114166Y878409D01*
X1114116Y878399D01*
X1114056D01*
X1114006Y878389D01*
X1108906D01*
X1108856Y878399D01*
X1108796D01*
X1108746Y878409D01*
X1108696Y878419D01*
X1108646Y878439D01*
X1108596Y878459D01*
X1108546Y878479D01*
X1108506Y878499D01*
X1108456Y878519D01*
X1108416Y878549D01*
X1108366Y878579D01*
X1108326Y878609D01*
X1108286Y878649D01*
X1108246Y878679D01*
X1108216Y878719D01*
X1108176Y878759D01*
X1108146Y878799D01*
X1108116Y878849D01*
X1108086Y878889D01*
X1108066Y878939D01*
X1108046Y878979D01*
X1108026Y879029D01*
X1108006Y879079D01*
X1107986Y879129D01*
X1107976Y879179D01*
X1107966Y879229D01*
Y879289D01*
X1107956Y879339D01*
Y879389D01*
Y880889D01*
Y880939D01*
X1107966Y880989D01*
Y881049D01*
X1107976Y881099D01*
X1107986Y881149D01*
X1108006Y881199D01*
X1108026Y881249D01*
X1108046Y881299D01*
X1108066Y881339D01*
X1108086Y881389D01*
X1108116Y881429D01*
X1108146Y881479D01*
X1108176Y881519D01*
X1108216Y881559D01*
X1108246Y881599D01*
X1108286Y881629D01*
X1108326Y881669D01*
X1108366Y881699D01*
X1108416Y881729D01*
X1108456Y881759D01*
X1108506Y881779D01*
X1108546Y881799D01*
X1108596Y881819D01*
X1108646Y881839D01*
X1108696Y881859D01*
X1108746Y881869D01*
X1108796Y881879D01*
X1108856D01*
X1108906Y881889D01*
X1114006D01*
X1114056Y881879D01*
D02*
G37*
G36*
X1128806Y874629D02*
X1128866D01*
X1128916Y874619D01*
X1128966Y874609D01*
X1129016Y874589D01*
X1129066Y874569D01*
X1129116Y874549D01*
X1129156Y874529D01*
X1129206Y874509D01*
X1129246Y874479D01*
X1129296Y874449D01*
X1129336Y874419D01*
X1129376Y874379D01*
X1129416Y874349D01*
X1129446Y874309D01*
X1129486Y874269D01*
X1129516Y874229D01*
X1129546Y874179D01*
X1129576Y874139D01*
X1129596Y874089D01*
X1129616Y874049D01*
X1129636Y873999D01*
X1129656Y873949D01*
X1129676Y873899D01*
X1129686Y873849D01*
X1129696Y873799D01*
Y873739D01*
X1129706Y873689D01*
Y873639D01*
Y868639D01*
Y868589D01*
X1129696Y868539D01*
Y868479D01*
X1129686Y868429D01*
X1129676Y868379D01*
X1129656Y868329D01*
X1129636Y868279D01*
X1129616Y868229D01*
X1129596Y868189D01*
X1129576Y868139D01*
X1129546Y868099D01*
X1129516Y868049D01*
X1129486Y868009D01*
X1129446Y867969D01*
X1129416Y867929D01*
X1129376Y867899D01*
X1129336Y867859D01*
X1129296Y867829D01*
X1129246Y867799D01*
X1129206Y867769D01*
X1129156Y867749D01*
X1129116Y867729D01*
X1129066Y867709D01*
X1129016Y867689D01*
X1128966Y867669D01*
X1128916Y867659D01*
X1128866Y867649D01*
X1128806D01*
X1128756Y867639D01*
X1127156D01*
X1127106Y867649D01*
X1127046D01*
X1126996Y867659D01*
X1126946Y867669D01*
X1126896Y867689D01*
X1126846Y867709D01*
X1126796Y867729D01*
X1126756Y867749D01*
X1126706Y867769D01*
X1126666Y867799D01*
X1126616Y867829D01*
X1126576Y867859D01*
X1126536Y867899D01*
X1126496Y867929D01*
X1126466Y867969D01*
X1126426Y868009D01*
X1126396Y868049D01*
X1126366Y868099D01*
X1126336Y868139D01*
X1126316Y868189D01*
X1126296Y868229D01*
X1126276Y868279D01*
X1126256Y868329D01*
X1126236Y868379D01*
X1126226Y868429D01*
X1126216Y868479D01*
Y868539D01*
X1126206Y868589D01*
Y868639D01*
Y873639D01*
Y873689D01*
X1126216Y873739D01*
Y873799D01*
X1126226Y873849D01*
X1126236Y873899D01*
X1126256Y873949D01*
X1126276Y873999D01*
X1126296Y874049D01*
X1126316Y874089D01*
X1126336Y874139D01*
X1126366Y874179D01*
X1126396Y874229D01*
X1126426Y874269D01*
X1126466Y874309D01*
X1126496Y874349D01*
X1126536Y874379D01*
X1126576Y874419D01*
X1126616Y874449D01*
X1126666Y874479D01*
X1126706Y874509D01*
X1126756Y874529D01*
X1126796Y874549D01*
X1126846Y874569D01*
X1126896Y874589D01*
X1126946Y874609D01*
X1126996Y874619D01*
X1127046Y874629D01*
X1127106D01*
X1127156Y874639D01*
X1128756D01*
X1128806Y874629D01*
D02*
G37*
G36*
X1123806D02*
X1123866D01*
X1123916Y874619D01*
X1123966Y874609D01*
X1124016Y874589D01*
X1124066Y874569D01*
X1124116Y874549D01*
X1124156Y874529D01*
X1124206Y874509D01*
X1124246Y874479D01*
X1124296Y874449D01*
X1124336Y874419D01*
X1124376Y874379D01*
X1124416Y874349D01*
X1124446Y874309D01*
X1124486Y874269D01*
X1124516Y874229D01*
X1124546Y874179D01*
X1124576Y874139D01*
X1124596Y874089D01*
X1124616Y874049D01*
X1124636Y873999D01*
X1124656Y873949D01*
X1124676Y873899D01*
X1124686Y873849D01*
X1124696Y873799D01*
Y873739D01*
X1124706Y873689D01*
Y873639D01*
Y868639D01*
Y868589D01*
X1124696Y868539D01*
Y868479D01*
X1124686Y868429D01*
X1124676Y868379D01*
X1124656Y868329D01*
X1124636Y868279D01*
X1124616Y868229D01*
X1124596Y868189D01*
X1124576Y868139D01*
X1124546Y868099D01*
X1124516Y868049D01*
X1124486Y868009D01*
X1124446Y867969D01*
X1124416Y867929D01*
X1124376Y867899D01*
X1124336Y867859D01*
X1124296Y867829D01*
X1124246Y867799D01*
X1124206Y867769D01*
X1124156Y867749D01*
X1124116Y867729D01*
X1124066Y867709D01*
X1124016Y867689D01*
X1123966Y867669D01*
X1123916Y867659D01*
X1123866Y867649D01*
X1123806D01*
X1123756Y867639D01*
X1122156D01*
X1122106Y867649D01*
X1122046D01*
X1121996Y867659D01*
X1121946Y867669D01*
X1121896Y867689D01*
X1121846Y867709D01*
X1121796Y867729D01*
X1121756Y867749D01*
X1121706Y867769D01*
X1121666Y867799D01*
X1121616Y867829D01*
X1121576Y867859D01*
X1121536Y867899D01*
X1121496Y867929D01*
X1121466Y867969D01*
X1121426Y868009D01*
X1121396Y868049D01*
X1121366Y868099D01*
X1121336Y868139D01*
X1121316Y868189D01*
X1121296Y868229D01*
X1121276Y868279D01*
X1121256Y868329D01*
X1121236Y868379D01*
X1121226Y868429D01*
X1121216Y868479D01*
Y868539D01*
X1121206Y868589D01*
Y868639D01*
Y873639D01*
Y873689D01*
X1121216Y873739D01*
Y873799D01*
X1121226Y873849D01*
X1121236Y873899D01*
X1121256Y873949D01*
X1121276Y873999D01*
X1121296Y874049D01*
X1121316Y874089D01*
X1121336Y874139D01*
X1121366Y874179D01*
X1121396Y874229D01*
X1121426Y874269D01*
X1121466Y874309D01*
X1121496Y874349D01*
X1121536Y874379D01*
X1121576Y874419D01*
X1121616Y874449D01*
X1121666Y874479D01*
X1121706Y874509D01*
X1121756Y874529D01*
X1121796Y874549D01*
X1121846Y874569D01*
X1121896Y874589D01*
X1121946Y874609D01*
X1121996Y874619D01*
X1122046Y874629D01*
X1122106D01*
X1122156Y874639D01*
X1123756D01*
X1123806Y874629D01*
D02*
G37*
G36*
X1118806D02*
X1118866D01*
X1118916Y874619D01*
X1118966Y874609D01*
X1119016Y874589D01*
X1119066Y874569D01*
X1119116Y874549D01*
X1119156Y874529D01*
X1119206Y874509D01*
X1119246Y874479D01*
X1119296Y874449D01*
X1119336Y874419D01*
X1119376Y874379D01*
X1119416Y874349D01*
X1119446Y874309D01*
X1119486Y874269D01*
X1119516Y874229D01*
X1119546Y874179D01*
X1119576Y874139D01*
X1119596Y874089D01*
X1119616Y874049D01*
X1119636Y873999D01*
X1119656Y873949D01*
X1119676Y873899D01*
X1119686Y873849D01*
X1119696Y873799D01*
Y873739D01*
X1119706Y873689D01*
Y873639D01*
Y868639D01*
Y868589D01*
X1119696Y868539D01*
Y868479D01*
X1119686Y868429D01*
X1119676Y868379D01*
X1119656Y868329D01*
X1119636Y868279D01*
X1119616Y868229D01*
X1119596Y868189D01*
X1119576Y868139D01*
X1119546Y868099D01*
X1119516Y868049D01*
X1119486Y868009D01*
X1119446Y867969D01*
X1119416Y867929D01*
X1119376Y867899D01*
X1119336Y867859D01*
X1119296Y867829D01*
X1119246Y867799D01*
X1119206Y867769D01*
X1119156Y867749D01*
X1119116Y867729D01*
X1119066Y867709D01*
X1119016Y867689D01*
X1118966Y867669D01*
X1118916Y867659D01*
X1118866Y867649D01*
X1118806D01*
X1118756Y867639D01*
X1117156D01*
X1117106Y867649D01*
X1117046D01*
X1116996Y867659D01*
X1116946Y867669D01*
X1116896Y867689D01*
X1116846Y867709D01*
X1116796Y867729D01*
X1116756Y867749D01*
X1116706Y867769D01*
X1116666Y867799D01*
X1116616Y867829D01*
X1116576Y867859D01*
X1116536Y867899D01*
X1116496Y867929D01*
X1116466Y867969D01*
X1116426Y868009D01*
X1116396Y868049D01*
X1116366Y868099D01*
X1116336Y868139D01*
X1116316Y868189D01*
X1116296Y868229D01*
X1116276Y868279D01*
X1116256Y868329D01*
X1116236Y868379D01*
X1116226Y868429D01*
X1116216Y868479D01*
Y868539D01*
X1116206Y868589D01*
Y868639D01*
Y873639D01*
Y873689D01*
X1116216Y873739D01*
Y873799D01*
X1116226Y873849D01*
X1116236Y873899D01*
X1116256Y873949D01*
X1116276Y873999D01*
X1116296Y874049D01*
X1116316Y874089D01*
X1116336Y874139D01*
X1116366Y874179D01*
X1116396Y874229D01*
X1116426Y874269D01*
X1116466Y874309D01*
X1116496Y874349D01*
X1116536Y874379D01*
X1116576Y874419D01*
X1116616Y874449D01*
X1116666Y874479D01*
X1116706Y874509D01*
X1116756Y874529D01*
X1116796Y874549D01*
X1116846Y874569D01*
X1116896Y874589D01*
X1116946Y874609D01*
X1116996Y874619D01*
X1117046Y874629D01*
X1117106D01*
X1117156Y874639D01*
X1118756D01*
X1118806Y874629D01*
D02*
G37*
G36*
X1113806D02*
X1113866D01*
X1113916Y874619D01*
X1113966Y874609D01*
X1114016Y874589D01*
X1114066Y874569D01*
X1114116Y874549D01*
X1114156Y874529D01*
X1114206Y874509D01*
X1114246Y874479D01*
X1114296Y874449D01*
X1114336Y874419D01*
X1114376Y874379D01*
X1114416Y874349D01*
X1114446Y874309D01*
X1114486Y874269D01*
X1114516Y874229D01*
X1114546Y874179D01*
X1114576Y874139D01*
X1114596Y874089D01*
X1114616Y874049D01*
X1114636Y873999D01*
X1114656Y873949D01*
X1114676Y873899D01*
X1114686Y873849D01*
X1114696Y873799D01*
Y873739D01*
X1114706Y873689D01*
Y873639D01*
Y868639D01*
Y868589D01*
X1114696Y868539D01*
Y868479D01*
X1114686Y868429D01*
X1114676Y868379D01*
X1114656Y868329D01*
X1114636Y868279D01*
X1114616Y868229D01*
X1114596Y868189D01*
X1114576Y868139D01*
X1114546Y868099D01*
X1114516Y868049D01*
X1114486Y868009D01*
X1114446Y867969D01*
X1114416Y867929D01*
X1114376Y867899D01*
X1114336Y867859D01*
X1114296Y867829D01*
X1114246Y867799D01*
X1114206Y867769D01*
X1114156Y867749D01*
X1114116Y867729D01*
X1114066Y867709D01*
X1114016Y867689D01*
X1113966Y867669D01*
X1113916Y867659D01*
X1113866Y867649D01*
X1113806D01*
X1113756Y867639D01*
X1112156D01*
X1112106Y867649D01*
X1112046D01*
X1111996Y867659D01*
X1111946Y867669D01*
X1111896Y867689D01*
X1111846Y867709D01*
X1111796Y867729D01*
X1111756Y867749D01*
X1111706Y867769D01*
X1111666Y867799D01*
X1111616Y867829D01*
X1111576Y867859D01*
X1111536Y867899D01*
X1111496Y867929D01*
X1111466Y867969D01*
X1111426Y868009D01*
X1111396Y868049D01*
X1111366Y868099D01*
X1111336Y868139D01*
X1111316Y868189D01*
X1111296Y868229D01*
X1111276Y868279D01*
X1111256Y868329D01*
X1111236Y868379D01*
X1111226Y868429D01*
X1111216Y868479D01*
Y868539D01*
X1111206Y868589D01*
Y868639D01*
Y873639D01*
Y873689D01*
X1111216Y873739D01*
Y873799D01*
X1111226Y873849D01*
X1111236Y873899D01*
X1111256Y873949D01*
X1111276Y873999D01*
X1111296Y874049D01*
X1111316Y874089D01*
X1111336Y874139D01*
X1111366Y874179D01*
X1111396Y874229D01*
X1111426Y874269D01*
X1111466Y874309D01*
X1111496Y874349D01*
X1111536Y874379D01*
X1111576Y874419D01*
X1111616Y874449D01*
X1111666Y874479D01*
X1111706Y874509D01*
X1111756Y874529D01*
X1111796Y874549D01*
X1111846Y874569D01*
X1111896Y874589D01*
X1111946Y874609D01*
X1111996Y874619D01*
X1112046Y874629D01*
X1112106D01*
X1112156Y874639D01*
X1113756D01*
X1113806Y874629D01*
D02*
G37*
G36*
X1309900Y815811D02*
X1305000Y820811D01*
X1300100Y815811D01*
Y824368D01*
X1309900D01*
Y815811D01*
D02*
G37*
G36*
X1295400Y815811D02*
X1290500Y820811D01*
X1285600Y815811D01*
Y824368D01*
X1295400D01*
Y815811D01*
D02*
G37*
G36*
X1309900Y813796D02*
Y810164D01*
X1300100D01*
Y813800D01*
X1305000Y818800D01*
X1309900Y813796D01*
D02*
G37*
G36*
X1295400Y813796D02*
Y810164D01*
X1285600D01*
Y813800D01*
X1290500Y818800D01*
X1295400Y813796D01*
D02*
G37*
G36*
X1338367Y669500D02*
Y664600D01*
X1329812D01*
X1334812Y669500D01*
X1329812Y674400D01*
X1338367D01*
Y669500D01*
D02*
G37*
G36*
X1332800D02*
X1327796Y664600D01*
X1324164D01*
Y674400D01*
X1327800D01*
X1332800Y669500D01*
D02*
G37*
G36*
X1169900Y637700D02*
X1165000Y632700D01*
X1160100Y637704D01*
Y641336D01*
X1169900D01*
Y637700D01*
D02*
G37*
G36*
Y627132D02*
X1160100D01*
Y635689D01*
X1165000Y630689D01*
X1169900Y635689D01*
Y627132D01*
D02*
G37*
G36*
X1146367Y594000D02*
Y589100D01*
X1137812D01*
X1142812Y594000D01*
X1137812Y598900D01*
X1146367D01*
Y594000D01*
D02*
G37*
G36*
X1140800D02*
X1135797Y589100D01*
X1132164D01*
Y598900D01*
X1135800D01*
X1140800Y594000D01*
D02*
G37*
G36*
X1167900Y549311D02*
X1163000Y554311D01*
X1158100Y549311D01*
Y557868D01*
X1167900D01*
Y549311D01*
D02*
G37*
G36*
X1340900Y551200D02*
X1336000Y546200D01*
X1331100Y551203D01*
Y554836D01*
X1340900D01*
Y551200D01*
D02*
G37*
G36*
Y540633D02*
X1331100D01*
Y549188D01*
X1336000Y544188D01*
X1340900Y549188D01*
Y540633D01*
D02*
G37*
G36*
X1167900Y547296D02*
Y543664D01*
X1158100D01*
Y547300D01*
X1163000Y552300D01*
X1167900Y547296D01*
D02*
G37*
D39*
X1198500Y783500D02*
D03*
X1182500D02*
D03*
X1060500Y844500D02*
D03*
X1044500D02*
D03*
X1475500Y695250D02*
D03*
X1491500D02*
D03*
X1475500Y521250D02*
D03*
X1491500D02*
D03*
X1024500Y655500D02*
D03*
X1008500D02*
D03*
X1023500Y828000D02*
D03*
X1007500D02*
D03*
X1173000Y758500D02*
D03*
X1189000D02*
D03*
X1355500Y900500D02*
D03*
X1371500D02*
D03*
X1366500Y755000D02*
D03*
X1350500D02*
D03*
X1385500Y886500D02*
D03*
X1369500D02*
D03*
X1325500Y744000D02*
D03*
X1341500D02*
D03*
X1171000Y573000D02*
D03*
X1155000D02*
D03*
X1306500Y555500D02*
D03*
X1322500D02*
D03*
X1325000Y524000D02*
D03*
X1309000D02*
D03*
X1157000Y615500D02*
D03*
X1173000D02*
D03*
X1147000Y660500D02*
D03*
X1163000D02*
D03*
X1338500Y681500D02*
D03*
X1322500D02*
D03*
X1175002Y966994D02*
D03*
X1191002D02*
D03*
Y989994D02*
D03*
X1175002D02*
D03*
X1191002Y954994D02*
D03*
X1175002D02*
D03*
X1175000Y895000D02*
D03*
X1191000D02*
D03*
Y918000D02*
D03*
X1175000D02*
D03*
X1191000Y883000D02*
D03*
X1175000D02*
D03*
X1035500Y844000D02*
D03*
X1019500D02*
D03*
X1151500Y868500D02*
D03*
X1167500D02*
D03*
X1128500Y911000D02*
D03*
X1112500D02*
D03*
X1177500Y771000D02*
D03*
X1161500D02*
D03*
X1135500Y770500D02*
D03*
X1151500D02*
D03*
X1265000Y520000D02*
D03*
X1281000D02*
D03*
X1198500Y577000D02*
D03*
X1182500D02*
D03*
X1192500Y626500D02*
D03*
X1176500D02*
D03*
X1287000Y599500D02*
D03*
X1271000D02*
D03*
X1212500Y748000D02*
D03*
X1228500D02*
D03*
X1304502Y934494D02*
D03*
X1320502D02*
D03*
X1175002Y978494D02*
D03*
X1191002D02*
D03*
X1218502Y958494D02*
D03*
X1202502D02*
D03*
X1202502Y991494D02*
D03*
X1218502D02*
D03*
X1304500Y862500D02*
D03*
X1320500D02*
D03*
X1175000Y906500D02*
D03*
X1191000D02*
D03*
X1218500Y886500D02*
D03*
X1202500D02*
D03*
X1202500Y919500D02*
D03*
X1218500D02*
D03*
X1112456Y854639D02*
D03*
X1128456D02*
D03*
X1112500Y923000D02*
D03*
X1128500D02*
D03*
D40*
X1069500Y813250D02*
D03*
X1133500D02*
D03*
X1069500Y640000D02*
D03*
X1133500D02*
D03*
X1444500Y710000D02*
D03*
X1380500D02*
D03*
X1430500Y536750D02*
D03*
X1366500D02*
D03*
X1088000Y964500D02*
D03*
X1152000D02*
D03*
D41*
X1219402Y968994D02*
D03*
Y973994D02*
D03*
Y978994D02*
D03*
X1204602D02*
D03*
Y973994D02*
D03*
Y968994D02*
D03*
X1219400Y897000D02*
D03*
Y902000D02*
D03*
Y907000D02*
D03*
X1204600D02*
D03*
Y902000D02*
D03*
Y897000D02*
D03*
D42*
X1399073Y900500D02*
D03*
X1381927D02*
D03*
X1130427Y594000D02*
D03*
X1147572D02*
D03*
X1322428Y669500D02*
D03*
X1339572D02*
D03*
D43*
X1290500Y808428D02*
D03*
Y825573D02*
D03*
X1305000Y808428D02*
D03*
Y825573D02*
D03*
X1163000Y541927D02*
D03*
Y559072D02*
D03*
X1336000Y556572D02*
D03*
Y539427D02*
D03*
X1165000Y643073D02*
D03*
Y625928D02*
D03*
D44*
X1384000Y831250D02*
D03*
Y767250D02*
D03*
Y657250D02*
D03*
Y593250D02*
D03*
X1116000Y520000D02*
D03*
Y584000D02*
D03*
Y692750D02*
D03*
Y756750D02*
D03*
D45*
X1188500Y614250D02*
D03*
Y589750D02*
D03*
D46*
X1246500Y584000D02*
D03*
X1223500D02*
D03*
Y602000D02*
D03*
X1246500D02*
D03*
D47*
X1481000Y754250D02*
D03*
Y766950D02*
D03*
Y779650D02*
D03*
Y792350D02*
D03*
Y805050D02*
D03*
Y817750D02*
D03*
Y830450D02*
D03*
Y843150D02*
D03*
X1426500Y754250D02*
D03*
Y766950D02*
D03*
Y779650D02*
D03*
Y792350D02*
D03*
Y805050D02*
D03*
Y817750D02*
D03*
Y830450D02*
D03*
Y843150D02*
D03*
X1481000Y580250D02*
D03*
Y592950D02*
D03*
Y605650D02*
D03*
Y618350D02*
D03*
Y631050D02*
D03*
Y643750D02*
D03*
Y656450D02*
D03*
Y669150D02*
D03*
X1426500Y580250D02*
D03*
Y592950D02*
D03*
Y605650D02*
D03*
Y618350D02*
D03*
Y631050D02*
D03*
Y643750D02*
D03*
Y656450D02*
D03*
Y669150D02*
D03*
X1019000Y596500D02*
D03*
Y583800D02*
D03*
Y571100D02*
D03*
Y558400D02*
D03*
Y545700D02*
D03*
Y533000D02*
D03*
Y520300D02*
D03*
Y507600D02*
D03*
X1073500Y596500D02*
D03*
Y583800D02*
D03*
Y571100D02*
D03*
Y558400D02*
D03*
Y545700D02*
D03*
Y533000D02*
D03*
Y520300D02*
D03*
Y507600D02*
D03*
X1019000Y769750D02*
D03*
Y757050D02*
D03*
Y744350D02*
D03*
Y731650D02*
D03*
Y718950D02*
D03*
Y706250D02*
D03*
Y693550D02*
D03*
Y680850D02*
D03*
X1073500Y769750D02*
D03*
Y757050D02*
D03*
Y744350D02*
D03*
Y731650D02*
D03*
Y718950D02*
D03*
Y706250D02*
D03*
Y693550D02*
D03*
Y680850D02*
D03*
D48*
X1388500Y925000D02*
D03*
X1379000D02*
D03*
X1369500D02*
D03*
Y949000D02*
D03*
X1379000D02*
D03*
X1388500D02*
D03*
X1478500Y925000D02*
D03*
X1469000D02*
D03*
X1459500D02*
D03*
Y949000D02*
D03*
X1469000D02*
D03*
X1478500D02*
D03*
X1433500Y925000D02*
D03*
X1424000D02*
D03*
X1414500D02*
D03*
Y949000D02*
D03*
X1424000D02*
D03*
X1433500D02*
D03*
D49*
X1212500Y618300D02*
D03*
X1217500D02*
D03*
X1222500D02*
D03*
X1227500D02*
D03*
X1232500D02*
D03*
X1237500D02*
D03*
X1242500D02*
D03*
X1247500D02*
D03*
X1252500D02*
D03*
X1257500D02*
D03*
X1262500D02*
D03*
X1267500D02*
D03*
X1272500D02*
D03*
X1277500D02*
D03*
X1282500D02*
D03*
X1287500D02*
D03*
Y731700D02*
D03*
X1282500D02*
D03*
X1277500D02*
D03*
X1272500D02*
D03*
X1267500D02*
D03*
X1262500D02*
D03*
X1257500D02*
D03*
X1252500D02*
D03*
X1247500D02*
D03*
X1242500D02*
D03*
X1237500D02*
D03*
X1232500D02*
D03*
X1227500D02*
D03*
X1222500D02*
D03*
X1217500D02*
D03*
X1212500D02*
D03*
D50*
X1306700Y637500D02*
D03*
Y642500D02*
D03*
Y647500D02*
D03*
Y652500D02*
D03*
Y657500D02*
D03*
Y662500D02*
D03*
Y667500D02*
D03*
Y672500D02*
D03*
Y677500D02*
D03*
Y682500D02*
D03*
Y687500D02*
D03*
Y692500D02*
D03*
Y697500D02*
D03*
Y702500D02*
D03*
Y707500D02*
D03*
Y712500D02*
D03*
X1193300D02*
D03*
Y707500D02*
D03*
Y702500D02*
D03*
Y697500D02*
D03*
Y692500D02*
D03*
Y687500D02*
D03*
Y682500D02*
D03*
Y677500D02*
D03*
Y672500D02*
D03*
Y667500D02*
D03*
Y662500D02*
D03*
Y657500D02*
D03*
Y652500D02*
D03*
Y647500D02*
D03*
Y642500D02*
D03*
Y637500D02*
D03*
D51*
X1429000Y867000D02*
D03*
X1454000D02*
D03*
X1479000D02*
D03*
X1429000Y891000D02*
D03*
X1454000D02*
D03*
X1479000D02*
D03*
D52*
X1331500Y782500D02*
D03*
Y847500D02*
D03*
Y632500D02*
D03*
Y567500D02*
D03*
D53*
X1241500Y546000D02*
D03*
X1176500D02*
D03*
D54*
X1464000Y682000D02*
D03*
Y698000D02*
D03*
X1460000Y552250D02*
D03*
Y536250D02*
D03*
X1040000Y624500D02*
D03*
Y640500D02*
D03*
X1039000Y797500D02*
D03*
Y813500D02*
D03*
X1188500Y746000D02*
D03*
Y730000D02*
D03*
X1292000Y798500D02*
D03*
Y782500D02*
D03*
X1306000Y799000D02*
D03*
Y783000D02*
D03*
X1310500Y773500D02*
D03*
Y757500D02*
D03*
X1403500Y975500D02*
D03*
Y959500D02*
D03*
X1392000Y975500D02*
D03*
Y959500D02*
D03*
X1276500Y812000D02*
D03*
Y796000D02*
D03*
X1262500Y812000D02*
D03*
Y796000D02*
D03*
X1453000Y978500D02*
D03*
Y962500D02*
D03*
X1486000Y979500D02*
D03*
Y963500D02*
D03*
X1141500Y621000D02*
D03*
Y605000D02*
D03*
X1400000Y885000D02*
D03*
Y869000D02*
D03*
X1160000Y602000D02*
D03*
Y586000D02*
D03*
X1372500Y982000D02*
D03*
Y966000D02*
D03*
X1360500Y982000D02*
D03*
Y966000D02*
D03*
X1140000Y909000D02*
D03*
Y925000D02*
D03*
X1008500Y855000D02*
D03*
Y839000D02*
D03*
X1141500Y869500D02*
D03*
Y853500D02*
D03*
X1243500Y805000D02*
D03*
Y789000D02*
D03*
X1327500Y755500D02*
D03*
Y771500D02*
D03*
X1239000Y815000D02*
D03*
Y831000D02*
D03*
X1340000Y771500D02*
D03*
Y755500D02*
D03*
X1401500Y929000D02*
D03*
Y945000D02*
D03*
X1298000Y615000D02*
D03*
Y599000D02*
D03*
X1491000Y929000D02*
D03*
Y945000D02*
D03*
X1210000Y585000D02*
D03*
Y601000D02*
D03*
X1260000D02*
D03*
Y585000D02*
D03*
X1177500Y637000D02*
D03*
Y653000D02*
D03*
X1324000Y659000D02*
D03*
Y643000D02*
D03*
X1326000Y710000D02*
D03*
Y694000D02*
D03*
X1446500Y929000D02*
D03*
Y945000D02*
D03*
X1040500Y985500D02*
D03*
Y969500D02*
D03*
X1101000Y908500D02*
D03*
Y924500D02*
D03*
X1139956Y879139D02*
D03*
Y895139D02*
D03*
X1101956Y869639D02*
D03*
Y853639D02*
D03*
D55*
X1276500Y824000D02*
D03*
Y840000D02*
D03*
X1262206Y839998D02*
D03*
Y823998D02*
D03*
D56*
X1287002Y961994D02*
D03*
X1236002D02*
D03*
X1287000Y890000D02*
D03*
X1236000D02*
D03*
D57*
X1059956Y914139D02*
D03*
Y863139D02*
D03*
D58*
X1182200Y803000D02*
D03*
Y842000D02*
D03*
X1169500Y803000D02*
D03*
Y842000D02*
D03*
X1156800Y803000D02*
D03*
Y842000D02*
D03*
X1222200Y803000D02*
D03*
Y842000D02*
D03*
X1209500Y803000D02*
D03*
Y842000D02*
D03*
X1196800Y803000D02*
D03*
Y842000D02*
D03*
D59*
X1471500Y727550D02*
D03*
Y707950D02*
D03*
X1491500Y717750D02*
D03*
X1471500Y553550D02*
D03*
Y533950D02*
D03*
X1491500Y543750D02*
D03*
X1028500Y623200D02*
D03*
Y642800D02*
D03*
X1008500Y633000D02*
D03*
X1028000Y796700D02*
D03*
Y816300D02*
D03*
X1008000Y806500D02*
D03*
D60*
X1018500Y988000D02*
D03*
Y948000D02*
D03*
X1339500Y988000D02*
D03*
Y948000D02*
D03*
D61*
X1311000Y577500D02*
D03*
X1285000D02*
D03*
X1217002Y938494D02*
D03*
X1191002D02*
D03*
X1217000Y866500D02*
D03*
X1191000D02*
D03*
D62*
X1310502Y947494D02*
D03*
Y973494D02*
D03*
X1310500Y875500D02*
D03*
Y901500D02*
D03*
X1014000Y908000D02*
D03*
Y882000D02*
D03*
X1157456Y880639D02*
D03*
Y906639D02*
D03*
D63*
X1247900Y513000D02*
D03*
X1235200D02*
D03*
X1222500D02*
D03*
X1209800D02*
D03*
X1197100D02*
D03*
X1184400D02*
D03*
X1171700D02*
D03*
D64*
X1159000D02*
D03*
M02*
