G04*
G04 #@! TF.GenerationSoftware,Altium Limited,Altium Designer,24.9.1 (31)*
G04*
G04 Layer_Color=32768*
%FSLAX44Y44*%
%MOMM*%
G71*
G04*
G04 #@! TF.SameCoordinates,22428939-7FEC-4B67-BCAF-D19850B6772B*
G04*
G04*
G04 #@! TF.FilePolarity,Positive*
G04*
G01*
G75*
%ADD140C,0.0500*%
D140*
X1065501Y838500D02*
Y850501D01*
X1039500Y838500D02*
X1065501D01*
X1039500Y850501D02*
X1065501D01*
X1039500Y838500D02*
Y850501D01*
X1457999Y677000D02*
X1470000D01*
X1457999Y703001D02*
X1470000D01*
X1457999Y677000D02*
Y703001D01*
X1470000Y677000D02*
Y703001D01*
X1454000Y557250D02*
X1466001D01*
X1454000Y531249D02*
X1466001D01*
Y557250D01*
X1454000Y531249D02*
Y557250D01*
X1033999Y619500D02*
X1046000D01*
X1033999Y645501D02*
X1046000D01*
X1033999Y619500D02*
Y645501D01*
X1046000Y619500D02*
Y645501D01*
X1032999Y792500D02*
X1045000D01*
X1032999Y818501D02*
X1045000D01*
X1032999Y792500D02*
Y818501D01*
X1045000Y792500D02*
Y818501D01*
X1470500Y689250D02*
Y701251D01*
X1496501Y689250D02*
Y701251D01*
X1470500D02*
X1496501D01*
X1470500Y689250D02*
X1496501D01*
X1470500Y515250D02*
Y527251D01*
X1496501Y515250D02*
Y527251D01*
X1470500D02*
X1496501D01*
X1470500Y515250D02*
X1496501D01*
X1029500Y649499D02*
Y661500D01*
X1003499Y649499D02*
Y661500D01*
Y649499D02*
X1029500D01*
X1003499Y661500D02*
X1029500D01*
X1028500Y821999D02*
Y834000D01*
X1002499Y821999D02*
Y834000D01*
Y821999D02*
X1028500D01*
X1002499Y834000D02*
X1028500D01*
X1168000Y752500D02*
Y764501D01*
X1194001Y752500D02*
Y764501D01*
X1168000D02*
X1194001D01*
X1168000Y752500D02*
X1194001D01*
X1350500Y894500D02*
Y906501D01*
X1376501Y894500D02*
Y906501D01*
X1350500D02*
X1376501D01*
X1350500Y894500D02*
X1376501D01*
X1182500Y751000D02*
X1194501D01*
X1182500Y724999D02*
X1194501D01*
Y751000D01*
X1182500Y724999D02*
Y751000D01*
X1286000Y803500D02*
X1298001D01*
X1286000Y777499D02*
X1298001D01*
Y803500D01*
X1286000Y777499D02*
Y803500D01*
X1300000Y804000D02*
X1312001D01*
X1300000Y777999D02*
X1312001D01*
Y804000D01*
X1300000Y777999D02*
Y804000D01*
X1304500Y778500D02*
X1316501D01*
X1304500Y752499D02*
X1316501D01*
Y778500D01*
X1304500Y752499D02*
Y778500D01*
X1397500Y980500D02*
X1409501D01*
X1397500Y954499D02*
X1409501D01*
Y980500D01*
X1397500Y954499D02*
Y980500D01*
X1386000D02*
X1398001D01*
X1386000Y954499D02*
X1398001D01*
Y980500D01*
X1386000Y954499D02*
Y980500D01*
X1270500Y817000D02*
X1282501D01*
X1270500Y790999D02*
X1282501D01*
Y817000D01*
X1270500Y790999D02*
Y817000D01*
X1256500D02*
X1268501D01*
X1256500Y790999D02*
X1268501D01*
Y817000D01*
X1256500Y790999D02*
Y817000D01*
X1371500Y748999D02*
Y761000D01*
X1345499Y748999D02*
Y761000D01*
Y748999D02*
X1371500D01*
X1345499Y761000D02*
X1371500D01*
X1390500Y880499D02*
Y892500D01*
X1364499Y880499D02*
Y892500D01*
Y880499D02*
X1390500D01*
X1364499Y892500D02*
X1390500D01*
X1320500Y738000D02*
Y750001D01*
X1346501Y738000D02*
Y750001D01*
X1320500D02*
X1346501D01*
X1320500Y738000D02*
X1346501D01*
X1176000Y566999D02*
Y579000D01*
X1149999Y566999D02*
Y579000D01*
Y566999D02*
X1176000D01*
X1149999Y579000D02*
X1176000D01*
X1301500Y549500D02*
Y561501D01*
X1327501Y549500D02*
Y561501D01*
X1301500D02*
X1327501D01*
X1301500Y549500D02*
X1327501D01*
X1447000Y983500D02*
X1459001D01*
X1447000Y957499D02*
X1459001D01*
Y983500D01*
X1447000Y957499D02*
Y983500D01*
X1480000Y984500D02*
X1492001D01*
X1480000Y958499D02*
X1492001D01*
Y984500D01*
X1480000Y958499D02*
Y984500D01*
X1330000Y517999D02*
Y530000D01*
X1303999Y517999D02*
Y530000D01*
Y517999D02*
X1330000D01*
X1303999Y530000D02*
X1330000D01*
X1135500Y626000D02*
X1147501D01*
X1135500Y599999D02*
X1147501D01*
Y626000D01*
X1135500Y599999D02*
Y626000D01*
X1152000Y609500D02*
Y621501D01*
X1178001Y609500D02*
Y621501D01*
X1152000D02*
X1178001D01*
X1152000Y609500D02*
X1178001D01*
X1142000Y654500D02*
Y666501D01*
X1168001Y654500D02*
Y666501D01*
X1142000D02*
X1168001D01*
X1142000Y654500D02*
X1168001D01*
X1343500Y675499D02*
Y687500D01*
X1317499Y675499D02*
Y687500D01*
Y675499D02*
X1343500D01*
X1317499Y687500D02*
X1343500D01*
X1394000Y890000D02*
X1406001D01*
X1394000Y863999D02*
X1406001D01*
Y890000D01*
X1394000Y863999D02*
Y890000D01*
X1154000Y607000D02*
X1166001D01*
X1154000Y580999D02*
X1166001D01*
Y607000D01*
X1154000Y580999D02*
Y607000D01*
X1366500Y987000D02*
X1378501D01*
X1366500Y960999D02*
X1378501D01*
Y987000D01*
X1366500Y960999D02*
Y987000D01*
X1354500D02*
X1366501D01*
X1354500Y960999D02*
X1366501D01*
Y987000D01*
X1354500Y960999D02*
Y987000D01*
X1170002Y960994D02*
Y972995D01*
X1196003Y960994D02*
Y972995D01*
X1170002D02*
X1196003D01*
X1170002Y960994D02*
X1196003D01*
X1196002Y983993D02*
Y995994D01*
X1170001Y983993D02*
Y995994D01*
Y983993D02*
X1196002D01*
X1170001Y995994D02*
X1196002D01*
Y948993D02*
Y960994D01*
X1170001Y948993D02*
Y960994D01*
Y948993D02*
X1196002D01*
X1170001Y960994D02*
X1196002D01*
X1170000Y889000D02*
Y901001D01*
X1196001Y889000D02*
Y901001D01*
X1170000D02*
X1196001D01*
X1170000Y889000D02*
X1196001D01*
X1196000Y911999D02*
Y924000D01*
X1169999Y911999D02*
Y924000D01*
Y911999D02*
X1196000D01*
X1169999Y924000D02*
X1196000D01*
Y876999D02*
Y889000D01*
X1169999Y876999D02*
Y889000D01*
Y876999D02*
X1196000D01*
X1169999Y889000D02*
X1196000D01*
X1040500Y837999D02*
Y850000D01*
X1014499Y837999D02*
Y850000D01*
Y837999D02*
X1040500D01*
X1014499Y850000D02*
X1040500D01*
X1133999Y904000D02*
X1146000D01*
X1133999Y930001D02*
X1146000D01*
X1133999Y904000D02*
Y930001D01*
X1146000Y904000D02*
Y930001D01*
X1146500Y862500D02*
Y874501D01*
X1172501Y862500D02*
Y874501D01*
X1146500D02*
X1172501D01*
X1146500Y862500D02*
X1172501D01*
X1002500Y860000D02*
X1014501D01*
X1002500Y833999D02*
X1014501D01*
Y860000D01*
X1002500Y833999D02*
Y860000D01*
X1133500Y904999D02*
Y917000D01*
X1107499Y904999D02*
Y917000D01*
Y904999D02*
X1133500D01*
X1107499Y917000D02*
X1133500D01*
X1135500Y874500D02*
X1147501D01*
X1135500Y848499D02*
X1147501D01*
Y874500D01*
X1135500Y848499D02*
Y874500D01*
M02*
