G04*
G04 #@! TF.GenerationSoftware,Altium Limited,Altium Designer,24.9.1 (31)*
G04*
G04 Layer_Color=32896*
%FSLAX44Y44*%
%MOMM*%
G71*
G04*
G04 #@! TF.SameCoordinates,08A160DE-048D-4C44-B89D-0D19DBCE6055*
G04*
G04*
G04 #@! TF.FilePolarity,Positive*
G04*
G01*
G75*
%ADD13C,0.2540*%
%ADD15C,0.1000*%
%ADD65C,0.0500*%
D13*
X324104Y2057400D02*
X476504D01*
X324104Y2184400D02*
X476504D01*
Y2057400D02*
Y2184400D01*
X324104Y2057400D02*
Y2184400D01*
D15*
X679140Y2982410D02*
X797140D01*
X95114Y2340690D02*
X136114D01*
X95114Y2223690D02*
Y2340690D01*
Y2223690D02*
X136114D01*
Y2340690D01*
X49394Y2340290D02*
X90394D01*
X49394Y2223290D02*
Y2340290D01*
Y2223290D02*
X90394D01*
Y2340290D01*
D65*
X797140Y2866410D02*
Y2982410D01*
X679140Y2866410D02*
X797140D01*
X679140D02*
Y2982410D01*
X897700Y2885660D02*
Y2980660D01*
X1042200Y2885660D02*
Y2980660D01*
X897700D02*
X1042200D01*
X897700Y2885660D02*
X1042200D01*
X660400Y2424430D02*
Y2713990D01*
X810400Y2424430D02*
Y2713990D01*
X660400Y2424430D02*
X810400D01*
X660400Y2713990D02*
X810400D01*
X826320Y2965880D02*
Y2987880D01*
X865320Y2965880D02*
Y2987880D01*
X826320D02*
X865320D01*
X826320Y2965880D02*
X865320D01*
X705670Y2752520D02*
Y2774520D01*
X744670Y2752520D02*
Y2774520D01*
X705670D02*
X744670D01*
X705670Y2752520D02*
X744670D01*
X814500Y2660200D02*
X836500D01*
X814500Y2699200D02*
X836500D01*
X814500Y2660200D02*
Y2699200D01*
X836500Y2660200D02*
Y2699200D01*
X819500Y2803859D02*
Y2829860D01*
X831501Y2803859D02*
Y2829860D01*
X819500Y2803859D02*
X831501D01*
X819500Y2829860D02*
X831501D01*
X796740Y2753790D02*
Y2775790D01*
X757740Y2753790D02*
Y2775790D01*
Y2753790D02*
X796740D01*
X757740Y2775790D02*
X796740D01*
X651160Y2858470D02*
Y2884471D01*
X639159Y2858470D02*
Y2884471D01*
X651160D01*
X639159Y2858470D02*
X651160D01*
X134804Y2371420D02*
Y2521420D01*
X19304Y2371420D02*
Y2521420D01*
X134804D01*
X19304Y2371420D02*
X134804D01*
X173943Y2573940D02*
X199944D01*
X173943Y2561939D02*
X199944D01*
X173943D02*
Y2573940D01*
X199944Y2561939D02*
Y2573940D01*
X553674Y2178400D02*
X579675D01*
X553674Y2190401D02*
X579675D01*
Y2178400D02*
Y2190401D01*
X553674Y2178400D02*
Y2190401D01*
X544783Y2133250D02*
X570784D01*
X544783Y2121249D02*
X570784D01*
X544783D02*
Y2133250D01*
X570784Y2121249D02*
Y2133250D01*
X199944Y2680049D02*
Y2692050D01*
X173943Y2680049D02*
Y2692050D01*
Y2680049D02*
X199944D01*
X173943Y2692050D02*
X199944D01*
M02*
