G04*
G04 #@! TF.GenerationSoftware,Altium Limited,Altium Designer,24.9.1 (31)*
G04*
G04 Layer_Color=32768*
%FSLAX44Y44*%
%MOMM*%
G71*
G04*
G04 #@! TF.SameCoordinates,08A160DE-048D-4C44-B89D-0D19DBCE6055*
G04*
G04*
G04 #@! TF.FilePolarity,Positive*
G04*
G01*
G75*
%ADD65C,0.0500*%
D65*
X819500Y2803859D02*
Y2829860D01*
X831501Y2803859D02*
Y2829860D01*
X819500Y2803859D02*
X831501D01*
X819500Y2829860D02*
X831501D01*
X651160Y2858470D02*
Y2884471D01*
X639159Y2858470D02*
Y2884471D01*
X651160D01*
X639159Y2858470D02*
X651160D01*
X173943Y2573940D02*
X199944D01*
X173943Y2561939D02*
X199944D01*
X173943D02*
Y2573940D01*
X199944Y2561939D02*
Y2573940D01*
X553674Y2178400D02*
X579675D01*
X553674Y2190401D02*
X579675D01*
Y2178400D02*
Y2190401D01*
X553674Y2178400D02*
Y2190401D01*
X544783Y2133250D02*
X570784D01*
X544783Y2121249D02*
X570784D01*
X544783D02*
Y2133250D01*
X570784Y2121249D02*
Y2133250D01*
X199944Y2680049D02*
Y2692050D01*
X173943Y2680049D02*
Y2692050D01*
Y2680049D02*
X199944D01*
X173943Y2692050D02*
X199944D01*
M02*
