G04*
G04 #@! TF.GenerationSoftware,Altium Limited,Altium Designer,24.9.1 (31)*
G04*
G04 Layer_Color=2752767*
%FSLAX44Y44*%
%MOMM*%
G71*
G04*
G04 #@! TF.SameCoordinates,08A160DE-048D-4C44-B89D-0D19DBCE6055*
G04*
G04*
G04 #@! TF.FilePolarity,Positive*
G04*
G01*
G75*
%ADD10C,0.1270*%
%ADD67C,0.1693*%
%ADD68C,0.1016*%
D10*
X675640Y2944330D02*
X670560Y2954490D01*
X680720D01*
X675640Y2944330D01*
Y2946362D02*
X672592Y2952458D01*
X678688D01*
X675640Y2946362D01*
X800640Y2944330D02*
X795560Y2954490D01*
X805720D01*
X800640Y2944330D01*
Y2946362D02*
X797592Y2952458D01*
X803688D01*
X800640Y2946362D01*
X675640Y2894330D02*
X670560Y2904490D01*
X680720D01*
X675640Y2894330D01*
Y2896362D02*
X672592Y2902458D01*
X678688D01*
X675640Y2896362D01*
X800640Y2894330D02*
X795560Y2904490D01*
X805720D01*
X800640Y2894330D01*
Y2896362D02*
X797592Y2902458D01*
X803688D01*
X800640Y2896362D01*
X925120Y2972580D02*
Y2982740D01*
X935280D01*
Y2972580D01*
X925120D01*
X927152Y2974612D02*
Y2980708D01*
X933248D01*
Y2974612D01*
X927152D01*
X764540Y2787650D02*
X767080Y2790190D01*
X769620D01*
X767080Y2792730D01*
X769620Y2795270D01*
X767080D01*
X764540Y2797810D01*
X762000Y2795270D01*
X759460D01*
X762000Y2792730D01*
X759460Y2790190D01*
X762000D01*
X764540Y2787650D01*
Y2789682D02*
X766064Y2791206D01*
X767588D01*
X766064Y2792730D01*
X767588Y2794254D01*
X766064D01*
X764540Y2795778D01*
X763016Y2794254D01*
X761492D01*
X763016Y2792730D01*
X761492Y2791206D01*
X763016D01*
X764540Y2789682D01*
X739140Y2787650D02*
X741680Y2790190D01*
X744220D01*
X741680Y2792730D01*
X744220Y2795270D01*
X741680D01*
X739140Y2797810D01*
X736600Y2795270D01*
X734060D01*
X736600Y2792730D01*
X734060Y2790190D01*
X736600D01*
X739140Y2787650D01*
Y2789682D02*
X740664Y2791206D01*
X742188D01*
X740664Y2792730D01*
X742188Y2794254D01*
X740664D01*
X739140Y2795778D01*
X737616Y2794254D01*
X736092D01*
X737616Y2792730D01*
X736092Y2791206D01*
X737616D01*
X739140Y2789682D01*
X713740Y2787650D02*
X716280Y2790190D01*
X718820D01*
X716280Y2792730D01*
X718820Y2795270D01*
X716280D01*
X713740Y2797810D01*
X711200Y2795270D01*
X708660D01*
X711200Y2792730D01*
X708660Y2790190D01*
X711200D01*
X713740Y2787650D01*
Y2789682D02*
X715264Y2791206D01*
X716788D01*
X715264Y2792730D01*
X716788Y2794254D01*
X715264D01*
X713740Y2795778D01*
X712216Y2794254D01*
X710692D01*
X712216Y2792730D01*
X710692Y2791206D01*
X712216D01*
X713740Y2789682D01*
X716280Y2661920D02*
X718820Y2664460D01*
X721360D01*
X718820Y2667000D01*
X721360Y2669540D01*
X718820D01*
X716280Y2672080D01*
X713740Y2669540D01*
X711200D01*
X713740Y2667000D01*
X711200Y2664460D01*
X713740D01*
X716280Y2661920D01*
Y2687320D02*
X718820Y2689860D01*
X721360D01*
X718820Y2692400D01*
X721360Y2694940D01*
X718820D01*
X716280Y2697480D01*
X713740Y2694940D01*
X711200D01*
X713740Y2692400D01*
X711200Y2689860D01*
X713740D01*
X716280Y2687320D01*
X741680Y2661920D02*
X744220Y2664460D01*
X746760D01*
X744220Y2667000D01*
X746760Y2669540D01*
X744220D01*
X741680Y2672080D01*
X739140Y2669540D01*
X736600D01*
X739140Y2667000D01*
X736600Y2664460D01*
X739140D01*
X741680Y2661920D01*
Y2687320D02*
X744220Y2689860D01*
X746760D01*
X744220Y2692400D01*
X746760Y2694940D01*
X744220D01*
X741680Y2697480D01*
X739140Y2694940D01*
X736600D01*
X739140Y2692400D01*
X736600Y2689860D01*
X739140D01*
X741680Y2687320D01*
X767080Y2661920D02*
X769620Y2664460D01*
X772160D01*
X769620Y2667000D01*
X772160Y2669540D01*
X769620D01*
X767080Y2672080D01*
X764540Y2669540D01*
X762000D01*
X764540Y2667000D01*
X762000Y2664460D01*
X764540D01*
X767080Y2661920D01*
Y2687320D02*
X769620Y2689860D01*
X772160D01*
X769620Y2692400D01*
X772160Y2694940D01*
X769620D01*
X767080Y2697480D01*
X764540Y2694940D01*
X762000D01*
X764540Y2692400D01*
X762000Y2689860D01*
X764540D01*
X767080Y2687320D01*
X792480Y2661920D02*
X795020Y2664460D01*
X797560D01*
X795020Y2667000D01*
X797560Y2669540D01*
X795020D01*
X792480Y2672080D01*
X789940Y2669540D01*
X787400D01*
X789940Y2667000D01*
X787400Y2664460D01*
X789940D01*
X792480Y2661920D01*
Y2687320D02*
X795020Y2689860D01*
X797560D01*
X795020Y2692400D01*
X797560Y2694940D01*
X795020D01*
X792480Y2697480D01*
X789940Y2694940D01*
X787400D01*
X789940Y2692400D01*
X787400Y2689860D01*
X789940D01*
X792480Y2687320D01*
X111804Y2491340D02*
X114344Y2493880D01*
X116884D01*
X114344Y2496420D01*
X116884Y2498960D01*
X114344D01*
X111804Y2501500D01*
X109264Y2498960D01*
X106724D01*
X109264Y2496420D01*
X106724Y2493880D01*
X109264D01*
X111804Y2491340D01*
Y2466340D02*
X114344Y2468880D01*
X116884D01*
X114344Y2471420D01*
X116884Y2473960D01*
X114344D01*
X111804Y2476500D01*
X109264Y2473960D01*
X106724D01*
X109264Y2471420D01*
X106724Y2468880D01*
X109264D01*
X111804Y2466340D01*
Y2441340D02*
X114344Y2443880D01*
X116884D01*
X114344Y2446420D01*
X116884Y2448960D01*
X114344D01*
X111804Y2451500D01*
X109264Y2448960D01*
X106724D01*
X109264Y2446420D01*
X106724Y2443880D01*
X109264D01*
X111804Y2441340D01*
Y2416340D02*
X114344Y2418880D01*
X116884D01*
X114344Y2421420D01*
X116884Y2423960D01*
X114344D01*
X111804Y2426500D01*
X109264Y2423960D01*
X106724D01*
X109264Y2421420D01*
X106724Y2418880D01*
X109264D01*
X111804Y2416340D01*
Y2391340D02*
X114344Y2393880D01*
X116884D01*
X114344Y2396420D01*
X116884Y2398960D01*
X114344D01*
X111804Y2401500D01*
X109264Y2398960D01*
X106724D01*
X109264Y2396420D01*
X106724Y2393880D01*
X109264D01*
X111804Y2391340D01*
X113074Y2254650D02*
Y2252110D01*
X118154D01*
Y2254650D01*
X120694D01*
Y2259730D01*
X118154D01*
Y2262270D01*
X113074D01*
Y2259730D01*
X110534D01*
Y2254650D01*
X113074D01*
Y2279650D02*
Y2277110D01*
X118154D01*
Y2279650D01*
X120694D01*
Y2284730D01*
X118154D01*
Y2287270D01*
X113074D01*
Y2284730D01*
X110534D01*
Y2279650D01*
X113074D01*
Y2304650D02*
Y2302110D01*
X118154D01*
Y2304650D01*
X120694D01*
Y2309730D01*
X118154D01*
Y2312270D01*
X113074D01*
Y2309730D01*
X110534D01*
Y2304650D01*
X113074D01*
X67354Y2254250D02*
Y2251710D01*
X72434D01*
Y2254250D01*
X74974D01*
Y2259330D01*
X72434D01*
Y2261870D01*
X67354D01*
Y2259330D01*
X64814D01*
Y2254250D01*
X67354D01*
Y2279250D02*
Y2276710D01*
X72434D01*
Y2279250D01*
X74974D01*
Y2284330D01*
X72434D01*
Y2286870D01*
X67354D01*
Y2284330D01*
X64814D01*
Y2279250D01*
X67354D01*
Y2304250D02*
Y2301710D01*
X72434D01*
Y2304250D01*
X74974D01*
Y2309330D01*
X72434D01*
Y2311870D01*
X67354D01*
Y2309330D01*
X64814D01*
Y2304250D01*
X67354D01*
X71434Y2030810D02*
X73974Y2035890D01*
X71434Y2040970D01*
X76514Y2038430D01*
X81594Y2040970D01*
X79054Y2035890D01*
X81594Y2030810D01*
X76514Y2033350D01*
X71434Y2030810D01*
X566614D02*
X569154Y2035890D01*
X566614Y2040970D01*
X571694Y2038430D01*
X576774Y2040970D01*
X574234Y2035890D01*
X576774Y2030810D01*
X571694Y2033350D01*
X566614Y2030810D01*
Y2866330D02*
X569154Y2871410D01*
X566614Y2876490D01*
X571694Y2873950D01*
X576774Y2876490D01*
X574234Y2871410D01*
X576774Y2866330D01*
X571694Y2868870D01*
X566614Y2866330D01*
X463804Y2065020D02*
X458724Y2075180D01*
X468884D01*
X463804Y2065020D01*
Y2166620D02*
X458724Y2176780D01*
X468884D01*
X463804Y2166620D01*
X362204Y2065020D02*
X357124Y2075180D01*
X367284D01*
X362204Y2065020D01*
X336804D02*
X331724Y2075180D01*
X341884D01*
X336804Y2065020D01*
X413004D02*
X407924Y2075180D01*
X418084D01*
X413004Y2065020D01*
X387604D02*
X382524Y2075180D01*
X392684D01*
X387604Y2065020D01*
X438404D02*
X433324Y2075180D01*
X443484D01*
X438404Y2065020D01*
X362204Y2166620D02*
X357124Y2176780D01*
X367284D01*
X362204Y2166620D01*
X336804D02*
X331724Y2176780D01*
X341884D01*
X336804Y2166620D01*
X413004D02*
X407924Y2176780D01*
X418084D01*
X413004Y2166620D01*
X387604D02*
X382524Y2176780D01*
X392684D01*
X387604Y2166620D01*
X438404D02*
X433324Y2176780D01*
X443484D01*
X438404Y2166620D01*
X306324Y2453640D02*
Y2463800D01*
X316484D01*
Y2453640D01*
X306324D01*
X485394Y2852030D02*
Y2862190D01*
X495554D01*
Y2852030D01*
X485394D01*
X306324D02*
Y2862190D01*
X316484D01*
Y2852030D01*
X306324D01*
X485394Y2453640D02*
Y2463800D01*
X495554D01*
Y2453640D01*
X485394D01*
X340934Y2925090D02*
X343474D01*
X346014Y2927630D01*
X348554Y2925090D01*
X351094D01*
Y2927630D01*
X348554Y2930170D01*
X351094Y2932710D01*
Y2935250D01*
X348554D01*
X346014Y2932710D01*
X343474Y2935250D01*
X340934D01*
Y2932710D01*
X343474Y2930170D01*
X340934Y2927630D01*
Y2925090D01*
X405934D02*
X408474D01*
X411014Y2927630D01*
X413554Y2925090D01*
X416094D01*
Y2927630D01*
X413554Y2930170D01*
X416094Y2932710D01*
Y2935250D01*
X413554D01*
X411014Y2932710D01*
X408474Y2935250D01*
X405934D01*
Y2932710D01*
X408474Y2930170D01*
X405934Y2927630D01*
Y2925090D01*
X340934Y2970090D02*
X343474D01*
X346014Y2972630D01*
X348554Y2970090D01*
X351094D01*
Y2972630D01*
X348554Y2975170D01*
X351094Y2977710D01*
Y2980250D01*
X348554D01*
X346014Y2977710D01*
X343474Y2980250D01*
X340934D01*
Y2977710D01*
X343474Y2975170D01*
X340934Y2972630D01*
Y2970090D01*
X405934D02*
X408474D01*
X411014Y2972630D01*
X413554Y2970090D01*
X416094D01*
Y2972630D01*
X413554Y2975170D01*
X416094Y2977710D01*
Y2980250D01*
X413554D01*
X411014Y2977710D01*
X408474Y2980250D01*
X405934D01*
Y2977710D01*
X408474Y2975170D01*
X405934Y2972630D01*
Y2970090D01*
X120934Y2925090D02*
X123474D01*
X126014Y2927630D01*
X128554Y2925090D01*
X131094D01*
Y2927630D01*
X128554Y2930170D01*
X131094Y2932710D01*
Y2935250D01*
X128554D01*
X126014Y2932710D01*
X123474Y2935250D01*
X120934D01*
Y2932710D01*
X123474Y2930170D01*
X120934Y2927630D01*
Y2925090D01*
X185934D02*
X188474D01*
X191014Y2927630D01*
X193554Y2925090D01*
X196094D01*
Y2927630D01*
X193554Y2930170D01*
X196094Y2932710D01*
Y2935250D01*
X193554D01*
X191014Y2932710D01*
X188474Y2935250D01*
X185934D01*
Y2932710D01*
X188474Y2930170D01*
X185934Y2927630D01*
Y2925090D01*
X120934Y2970090D02*
X123474D01*
X126014Y2972630D01*
X128554Y2970090D01*
X131094D01*
Y2972630D01*
X128554Y2975170D01*
X131094Y2977710D01*
Y2980250D01*
X128554D01*
X126014Y2977710D01*
X123474Y2980250D01*
X120934D01*
Y2977710D01*
X123474Y2975170D01*
X120934Y2972630D01*
Y2970090D01*
X185934D02*
X188474D01*
X191014Y2972630D01*
X193554Y2970090D01*
X196094D01*
Y2972630D01*
X193554Y2975170D01*
X196094Y2977710D01*
Y2980250D01*
X193554D01*
X191014Y2977710D01*
X188474Y2980250D01*
X185934D01*
Y2977710D01*
X188474Y2975170D01*
X185934Y2972630D01*
Y2970090D01*
X230934Y2925090D02*
X233474D01*
X236014Y2927630D01*
X238554Y2925090D01*
X241094D01*
Y2927630D01*
X238554Y2930170D01*
X241094Y2932710D01*
Y2935250D01*
X238554D01*
X236014Y2932710D01*
X233474Y2935250D01*
X230934D01*
Y2932710D01*
X233474Y2930170D01*
X230934Y2927630D01*
Y2925090D01*
X295934D02*
X298474D01*
X301014Y2927630D01*
X303554Y2925090D01*
X306094D01*
Y2927630D01*
X303554Y2930170D01*
X306094Y2932710D01*
Y2935250D01*
X303554D01*
X301014Y2932710D01*
X298474Y2935250D01*
X295934D01*
Y2932710D01*
X298474Y2930170D01*
X295934Y2927630D01*
Y2925090D01*
X230934Y2970090D02*
X233474D01*
X236014Y2972630D01*
X238554Y2970090D01*
X241094D01*
Y2972630D01*
X238554Y2975170D01*
X241094Y2977710D01*
Y2980250D01*
X238554D01*
X236014Y2977710D01*
X233474Y2980250D01*
X230934D01*
Y2977710D01*
X233474Y2975170D01*
X230934Y2972630D01*
Y2970090D01*
X295934D02*
X298474D01*
X301014Y2972630D01*
X303554Y2970090D01*
X306094D01*
Y2972630D01*
X303554Y2975170D01*
X306094Y2977710D01*
Y2980250D01*
X303554D01*
X301014Y2977710D01*
X298474Y2980250D01*
X295934D01*
Y2977710D01*
X298474Y2975170D01*
X295934Y2972630D01*
Y2970090D01*
X450934Y2925090D02*
X453474D01*
X456014Y2927630D01*
X458554Y2925090D01*
X461094D01*
Y2927630D01*
X458554Y2930170D01*
X461094Y2932710D01*
Y2935250D01*
X458554D01*
X456014Y2932710D01*
X453474Y2935250D01*
X450934D01*
Y2932710D01*
X453474Y2930170D01*
X450934Y2927630D01*
Y2925090D01*
X515934D02*
X518474D01*
X521014Y2927630D01*
X523554Y2925090D01*
X526094D01*
Y2927630D01*
X523554Y2930170D01*
X526094Y2932710D01*
Y2935250D01*
X523554D01*
X521014Y2932710D01*
X518474Y2935250D01*
X515934D01*
Y2932710D01*
X518474Y2930170D01*
X515934Y2927630D01*
Y2925090D01*
X450934Y2970090D02*
X453474D01*
X456014Y2972630D01*
X458554Y2970090D01*
X461094D01*
Y2972630D01*
X458554Y2975170D01*
X461094Y2977710D01*
Y2980250D01*
X458554D01*
X456014Y2977710D01*
X453474Y2980250D01*
X450934D01*
Y2977710D01*
X453474Y2975170D01*
X450934Y2972630D01*
Y2970090D01*
X515934D02*
X518474D01*
X521014Y2972630D01*
X523554Y2970090D01*
X526094D01*
Y2972630D01*
X523554Y2975170D01*
X526094Y2977710D01*
Y2980250D01*
X523554D01*
X521014Y2977710D01*
X518474Y2980250D01*
X515934D01*
Y2977710D01*
X518474Y2975170D01*
X515934Y2972630D01*
Y2970090D01*
X71434Y2866330D02*
X73974Y2871410D01*
X71434Y2876490D01*
X76514Y2873950D01*
X81594Y2876490D01*
X79054Y2871410D01*
X81594Y2866330D01*
X76514Y2868870D01*
X71434Y2866330D01*
X112014Y2732640D02*
X114554Y2735180D01*
X117094D01*
X114554Y2737720D01*
X117094Y2740260D01*
X114554D01*
X112014Y2742800D01*
X109474Y2740260D01*
X106934D01*
X109474Y2737720D01*
X106934Y2735180D01*
X109474D01*
X112014Y2732640D01*
Y2707640D02*
X114554Y2710180D01*
X117094D01*
X114554Y2712720D01*
X117094Y2715260D01*
X114554D01*
X112014Y2717800D01*
X109474Y2715260D01*
X106934D01*
X109474Y2712720D01*
X106934Y2710180D01*
X109474D01*
X112014Y2707640D01*
Y2682640D02*
X114554Y2685180D01*
X117094D01*
X114554Y2687720D01*
X117094Y2690260D01*
X114554D01*
X112014Y2692800D01*
X109474Y2690260D01*
X106934D01*
X109474Y2687720D01*
X106934Y2685180D01*
X109474D01*
X112014Y2682640D01*
Y2613260D02*
X114554Y2615800D01*
X117094D01*
X114554Y2618340D01*
X117094Y2620880D01*
X114554D01*
X112014Y2623420D01*
X109474Y2620880D01*
X106934D01*
X109474Y2618340D01*
X106934Y2615800D01*
X109474D01*
X112014Y2613260D01*
Y2588260D02*
X114554Y2590800D01*
X117094D01*
X114554Y2593340D01*
X117094Y2595880D01*
X114554D01*
X112014Y2598420D01*
X109474Y2595880D01*
X106934D01*
X109474Y2593340D01*
X106934Y2590800D01*
X109474D01*
X112014Y2588260D01*
Y2563260D02*
X114554Y2565800D01*
X117094D01*
X114554Y2568340D01*
X117094Y2570880D01*
X114554D01*
X112014Y2573420D01*
X109474Y2570880D01*
X106934D01*
X109474Y2568340D01*
X106934Y2565800D01*
X109474D01*
X112014Y2563260D01*
X849630Y2917190D02*
X852170Y2922270D01*
X849630Y2927350D01*
X854710Y2924810D01*
X859790Y2927350D01*
X857250Y2922270D01*
X859790Y2917190D01*
X854710Y2919730D01*
X849630Y2917190D01*
X851662Y2919222D02*
X853186Y2922270D01*
X851662Y2925318D01*
X854710Y2923794D01*
X857758Y2925318D01*
X856234Y2922270D01*
X857758Y2919222D01*
X854710Y2920746D01*
X851662Y2919222D01*
X808990Y2973070D02*
X811530Y2978150D01*
X808990Y2983230D01*
X814070Y2980690D01*
X819150Y2983230D01*
X816610Y2978150D01*
X819150Y2973070D01*
X814070Y2975610D01*
X808990Y2973070D01*
X811022Y2975102D02*
X812546Y2978150D01*
X811022Y2981198D01*
X814070Y2979674D01*
X817118Y2981198D01*
X815594Y2978150D01*
X817118Y2975102D01*
X814070Y2976626D01*
X811022Y2975102D01*
X683260Y2750820D02*
X685800Y2755900D01*
X683260Y2760980D01*
X688340Y2758440D01*
X693420Y2760980D01*
X690880Y2755900D01*
X693420Y2750820D01*
X688340Y2753360D01*
X683260Y2750820D01*
X685292Y2752852D02*
X686816Y2755900D01*
X685292Y2758948D01*
X688340Y2757424D01*
X691388Y2758948D01*
X689864Y2755900D01*
X691388Y2752852D01*
X688340Y2754376D01*
X685292Y2752852D01*
X640080Y2829560D02*
X642620Y2834640D01*
X640080Y2839720D01*
X645160Y2837180D01*
X650240Y2839720D01*
X647700Y2834640D01*
X650240Y2829560D01*
X645160Y2832100D01*
X640080Y2829560D01*
X642112Y2831592D02*
X643636Y2834640D01*
X642112Y2837688D01*
X645160Y2836164D01*
X648208Y2837688D01*
X646684Y2834640D01*
X648208Y2831592D01*
X645160Y2833116D01*
X642112Y2831592D01*
X576834Y2193290D02*
X579374Y2198370D01*
X576834Y2203450D01*
X581914Y2200910D01*
X586994Y2203450D01*
X584454Y2198370D01*
X586994Y2193290D01*
X581914Y2195830D01*
X576834Y2193290D01*
X578866Y2195322D02*
X580390Y2198370D01*
X578866Y2201418D01*
X581914Y2199894D01*
X584962Y2201418D01*
X583438Y2198370D01*
X584962Y2195322D01*
X581914Y2196846D01*
X578866Y2195322D01*
X537464Y2166620D02*
X540004Y2171700D01*
X537464Y2176780D01*
X542544Y2174240D01*
X547624Y2176780D01*
X545084Y2171700D01*
X547624Y2166620D01*
X542544Y2169160D01*
X537464Y2166620D01*
X539496Y2168652D02*
X541020Y2171700D01*
X539496Y2174748D01*
X542544Y2173224D01*
X545592Y2174748D01*
X544068Y2171700D01*
X545592Y2168652D01*
X542544Y2170176D01*
X539496Y2168652D01*
X275844Y2110740D02*
X278384Y2115820D01*
X275844Y2120900D01*
X280924Y2118360D01*
X286004Y2120900D01*
X283464Y2115820D01*
X286004Y2110740D01*
X280924Y2113280D01*
X275844Y2110740D01*
X277876Y2112772D02*
X279400Y2115820D01*
X277876Y2118868D01*
X280924Y2117344D01*
X283972Y2118868D01*
X282448Y2115820D01*
X283972Y2112772D01*
X280924Y2114296D01*
X277876Y2112772D01*
X275844Y2152950D02*
X278384Y2158030D01*
X275844Y2163110D01*
X280924Y2160570D01*
X286004Y2163110D01*
X283464Y2158030D01*
X286004Y2152950D01*
X280924Y2155490D01*
X275844Y2152950D01*
X277876Y2154982D02*
X279400Y2158030D01*
X277876Y2161078D01*
X280924Y2159554D01*
X283972Y2161078D01*
X282448Y2158030D01*
X283972Y2154982D01*
X280924Y2156506D01*
X277876Y2154982D01*
X268224Y2185670D02*
X270764Y2190750D01*
X268224Y2195830D01*
X273304Y2193290D01*
X278384Y2195830D01*
X275844Y2190750D01*
X278384Y2185670D01*
X273304Y2188210D01*
X268224Y2185670D01*
X270256Y2187702D02*
X271780Y2190750D01*
X270256Y2193798D01*
X273304Y2192274D01*
X276352Y2193798D01*
X274828Y2190750D01*
X276352Y2187702D01*
X273304Y2189226D01*
X270256Y2187702D01*
X305002Y2189532D02*
X307542Y2194612D01*
X305002Y2199692D01*
X310082Y2197152D01*
X315162Y2199692D01*
X312622Y2194612D01*
X315162Y2189532D01*
X310082Y2192072D01*
X305002Y2189532D01*
X307034Y2191564D02*
X308558Y2194612D01*
X307034Y2197660D01*
X310082Y2196136D01*
X313130Y2197660D01*
X311606Y2194612D01*
X313130Y2191564D01*
X310082Y2193088D01*
X307034Y2191564D01*
X306324Y2110740D02*
X308864Y2115820D01*
X306324Y2120900D01*
X311404Y2118360D01*
X316484Y2120900D01*
X313944Y2115820D01*
X316484Y2110740D01*
X311404Y2113280D01*
X306324Y2110740D01*
X308356Y2112772D02*
X309880Y2115820D01*
X308356Y2118868D01*
X311404Y2117344D01*
X314452Y2118868D01*
X312928Y2115820D01*
X314452Y2112772D01*
X311404Y2114296D01*
X308356Y2112772D01*
X340614Y2889250D02*
X343154Y2894330D01*
X340614Y2899410D01*
X345694Y2896870D01*
X350774Y2899410D01*
X348234Y2894330D01*
X350774Y2889250D01*
X345694Y2891790D01*
X340614Y2889250D01*
X342646Y2891282D02*
X344170Y2894330D01*
X342646Y2897378D01*
X345694Y2895854D01*
X348742Y2897378D01*
X347218Y2894330D01*
X348742Y2891282D01*
X345694Y2892806D01*
X342646Y2891282D01*
D67*
X970280Y2931160D02*
G03*
X970280Y2931160I-5080J0D01*
G01*
X910280D02*
G03*
X910280Y2931160I-5080J0D01*
G01*
X871220Y2473960D02*
G03*
X871220Y2473960I-5080J0D01*
G01*
Y2499360D02*
G03*
X871220Y2499360I-5080J0D01*
G01*
Y2524760D02*
G03*
X871220Y2524760I-5080J0D01*
G01*
Y2550160D02*
G03*
X871220Y2550160I-5080J0D01*
G01*
Y2575560D02*
G03*
X871220Y2575560I-5080J0D01*
G01*
Y2600960D02*
G03*
X871220Y2600960I-5080J0D01*
G01*
Y2626360D02*
G03*
X871220Y2626360I-5080J0D01*
G01*
Y2651760D02*
G03*
X871220Y2651760I-5080J0D01*
G01*
Y2677160D02*
G03*
X871220Y2677160I-5080J0D01*
G01*
Y2702560D02*
G03*
X871220Y2702560I-5080J0D01*
G01*
Y2727960D02*
G03*
X871220Y2727960I-5080J0D01*
G01*
Y2753360D02*
G03*
X871220Y2753360I-5080J0D01*
G01*
Y2778760D02*
G03*
X871220Y2778760I-5080J0D01*
G01*
Y2804160D02*
G03*
X871220Y2804160I-5080J0D01*
G01*
Y2829560D02*
G03*
X871220Y2829560I-5080J0D01*
G01*
X1023620D02*
G03*
X1023620Y2829560I-5080J0D01*
G01*
Y2804160D02*
G03*
X1023620Y2804160I-5080J0D01*
G01*
Y2778760D02*
G03*
X1023620Y2778760I-5080J0D01*
G01*
Y2753360D02*
G03*
X1023620Y2753360I-5080J0D01*
G01*
Y2727960D02*
G03*
X1023620Y2727960I-5080J0D01*
G01*
Y2702560D02*
G03*
X1023620Y2702560I-5080J0D01*
G01*
Y2677160D02*
G03*
X1023620Y2677160I-5080J0D01*
G01*
Y2651760D02*
G03*
X1023620Y2651760I-5080J0D01*
G01*
Y2626360D02*
G03*
X1023620Y2626360I-5080J0D01*
G01*
Y2600960D02*
G03*
X1023620Y2600960I-5080J0D01*
G01*
Y2575560D02*
G03*
X1023620Y2575560I-5080J0D01*
G01*
Y2550160D02*
G03*
X1023620Y2550160I-5080J0D01*
G01*
Y2524760D02*
G03*
X1023620Y2524760I-5080J0D01*
G01*
Y2499360D02*
G03*
X1023620Y2499360I-5080J0D01*
G01*
Y2473960D02*
G03*
X1023620Y2473960I-5080J0D01*
G01*
X494284Y2030730D02*
G03*
X494284Y2030730I-5080J0D01*
G01*
X468884D02*
G03*
X468884Y2030730I-5080J0D01*
G01*
X443484D02*
G03*
X443484Y2030730I-5080J0D01*
G01*
X418084D02*
G03*
X418084Y2030730I-5080J0D01*
G01*
X392684D02*
G03*
X392684Y2030730I-5080J0D01*
G01*
X367284D02*
G03*
X367284Y2030730I-5080J0D01*
G01*
X341884D02*
G03*
X341884Y2030730I-5080J0D01*
G01*
X316484D02*
G03*
X316484Y2030730I-5080J0D01*
G01*
X291084D02*
G03*
X291084Y2030730I-5080J0D01*
G01*
X265684D02*
G03*
X265684Y2030730I-5080J0D01*
G01*
X240284D02*
G03*
X240284Y2030730I-5080J0D01*
G01*
X214884D02*
G03*
X214884Y2030730I-5080J0D01*
G01*
X189484D02*
G03*
X189484Y2030730I-5080J0D01*
G01*
X164084D02*
G03*
X164084Y2030730I-5080J0D01*
G01*
X555244Y2237740D02*
G03*
X555244Y2237740I-5080J0D01*
G01*
X529844D02*
G03*
X529844Y2237740I-5080J0D01*
G01*
X504444D02*
G03*
X504444Y2237740I-5080J0D01*
G01*
X479044D02*
G03*
X479044Y2237740I-5080J0D01*
G01*
X453644D02*
G03*
X453644Y2237740I-5080J0D01*
G01*
X428244D02*
G03*
X428244Y2237740I-5080J0D01*
G01*
X402844D02*
G03*
X402844Y2237740I-5080J0D01*
G01*
X377444D02*
G03*
X377444Y2237740I-5080J0D01*
G01*
X352044D02*
G03*
X352044Y2237740I-5080J0D01*
G01*
X326644D02*
G03*
X326644Y2237740I-5080J0D01*
G01*
X301244D02*
G03*
X301244Y2237740I-5080J0D01*
G01*
X275844D02*
G03*
X275844Y2237740I-5080J0D01*
G01*
X250444D02*
G03*
X250444Y2237740I-5080J0D01*
G01*
X225044D02*
G03*
X225044Y2237740I-5080J0D01*
G01*
X199644D02*
G03*
X199644Y2237740I-5080J0D01*
G01*
Y2390140D02*
G03*
X199644Y2390140I-5080J0D01*
G01*
X225044D02*
G03*
X225044Y2390140I-5080J0D01*
G01*
X250444D02*
G03*
X250444Y2390140I-5080J0D01*
G01*
X275844D02*
G03*
X275844Y2390140I-5080J0D01*
G01*
X301244D02*
G03*
X301244Y2390140I-5080J0D01*
G01*
X326644D02*
G03*
X326644Y2390140I-5080J0D01*
G01*
X352044D02*
G03*
X352044Y2390140I-5080J0D01*
G01*
X377444D02*
G03*
X377444Y2390140I-5080J0D01*
G01*
X402844D02*
G03*
X402844Y2390140I-5080J0D01*
G01*
X428244D02*
G03*
X428244Y2390140I-5080J0D01*
G01*
X453644D02*
G03*
X453644Y2390140I-5080J0D01*
G01*
X479044D02*
G03*
X479044Y2390140I-5080J0D01*
G01*
X504444D02*
G03*
X504444Y2390140I-5080J0D01*
G01*
X529844D02*
G03*
X529844Y2390140I-5080J0D01*
G01*
X555244D02*
G03*
X555244Y2390140I-5080J0D01*
G01*
D68*
X968248Y2931160D02*
G03*
X968248Y2931160I-3048J0D01*
G01*
X908248D02*
G03*
X908248Y2931160I-3048J0D01*
G01*
M02*
