G04*
G04 #@! TF.GenerationSoftware,Altium Limited,Altium Designer,24.9.1 (31)*
G04*
G04 Layer_Color=16711935*
%FSLAX44Y44*%
%MOMM*%
G71*
G04*
G04 #@! TF.SameCoordinates,08A160DE-048D-4C44-B89D-0D19DBCE6055*
G04*
G04*
G04 #@! TF.FilePolarity,Positive*
G04*
G01*
G75*
%ADD10C,0.1270*%
%ADD11C,0.2000*%
%ADD15C,0.1000*%
%ADD64C,0.4000*%
D10*
X396014Y2952670D02*
G03*
X396014Y2952670I-17500J0D01*
G01*
X176014D02*
G03*
X176014Y2952670I-17500J0D01*
G01*
X286014D02*
G03*
X286014Y2952670I-17500J0D01*
G01*
X506014D02*
G03*
X506014Y2952670I-17500J0D01*
G01*
X853440Y2867660D02*
X1031240D01*
X853440Y2435860D02*
Y2867660D01*
X1031240Y2435860D02*
Y2867660D01*
X853440Y2435860D02*
X1031240D01*
X687387Y2779395D02*
Y2823845D01*
Y2779395D02*
X790892D01*
Y2823845D01*
X687387D02*
X790892D01*
X146304Y2018030D02*
X501904D01*
Y2043430D01*
X146304D02*
X501904D01*
X146304Y2018030D02*
Y2043430D01*
X156464Y2225040D02*
Y2402840D01*
Y2225040D02*
X588264D01*
X156464Y2402840D02*
X588264D01*
Y2225040D02*
Y2402840D01*
X348564Y2922720D02*
Y2982620D01*
X408464D01*
Y2922720D02*
Y2982620D01*
X348564Y2922720D02*
X408464D01*
X128564D02*
Y2982620D01*
X188464D01*
Y2922720D02*
Y2982620D01*
X128564Y2922720D02*
X188464D01*
X238564D02*
Y2982620D01*
X298464D01*
Y2922720D02*
Y2982620D01*
X238564Y2922720D02*
X298464D01*
X458564D02*
Y2982620D01*
X518464D01*
Y2922720D02*
Y2982620D01*
X458564Y2922720D02*
X518464D01*
X20014Y2663220D02*
Y2762220D01*
X135014D01*
Y2663220D02*
Y2762220D01*
X20014Y2663220D02*
X135014D01*
X20014Y2543840D02*
Y2642840D01*
X135014D01*
Y2543840D02*
Y2642840D01*
X20014Y2543840D02*
X135014D01*
D11*
X680140Y2792730D02*
G03*
X680140Y2792730I-1000J0D01*
G01*
D15*
X837070Y2972130D02*
X854570D01*
X837070Y2981630D02*
X854570D01*
Y2972130D02*
Y2981630D01*
X837070Y2972130D02*
Y2981630D01*
X831710Y2918790D02*
Y2928290D01*
X814210Y2918790D02*
Y2928290D01*
Y2918790D02*
X831710D01*
X814210Y2928290D02*
X831710D01*
X716420Y2758770D02*
X733920D01*
X716420Y2768270D02*
X733920D01*
Y2758770D02*
Y2768270D01*
X716420Y2758770D02*
Y2768270D01*
X830250Y2670950D02*
Y2688450D01*
X820750Y2670950D02*
Y2688450D01*
X830250D01*
X820750Y2670950D02*
X830250D01*
X820750Y2808110D02*
Y2825610D01*
X830250Y2808110D02*
Y2825610D01*
X820750Y2808110D02*
X830250D01*
X820750Y2825610D02*
X830250D01*
X768490Y2769540D02*
X785990D01*
X768490Y2760040D02*
X785990D01*
X768490D02*
Y2769540D01*
X785990Y2760040D02*
Y2769540D01*
X649910Y2862720D02*
Y2880220D01*
X640410Y2862720D02*
Y2880220D01*
X649910D01*
X640410Y2862720D02*
X649910D01*
X259474Y2925140D02*
Y2934640D01*
X276974Y2925140D02*
Y2934640D01*
X259474D02*
X276974D01*
X259474Y2925140D02*
X276974D01*
X480454D02*
Y2934640D01*
X497954Y2925140D02*
Y2934640D01*
X480454D02*
X497954D01*
X480454Y2925140D02*
X497954D01*
X369964D02*
Y2934640D01*
X387464Y2925140D02*
Y2934640D01*
X369964D02*
X387464D01*
X369964Y2925140D02*
X387464D01*
X178194Y2572690D02*
X195694D01*
X178194Y2563190D02*
X195694D01*
X178194D02*
Y2572690D01*
X195694Y2563190D02*
Y2572690D01*
X557924Y2179650D02*
X575424D01*
X557924Y2189150D02*
X575424D01*
Y2179650D02*
Y2189150D01*
X557924Y2179650D02*
Y2189150D01*
X150254Y2925140D02*
Y2934640D01*
X167754Y2925140D02*
Y2934640D01*
X150254D02*
X167754D01*
X150254Y2925140D02*
X167754D01*
X551474Y2168540D02*
X581874D01*
X551474Y2154540D02*
X581874D01*
Y2168540D01*
X551474Y2154540D02*
Y2168540D01*
X549034Y2132000D02*
X566534D01*
X549034Y2122500D02*
X566534D01*
X549034D02*
Y2132000D01*
X566534Y2122500D02*
Y2132000D01*
X195694Y2681300D02*
Y2690800D01*
X178194Y2681300D02*
Y2690800D01*
Y2681300D02*
X195694D01*
X178194Y2690800D02*
X195694D01*
D64*
X348014Y2930170D02*
G03*
X348014Y2930170I-2000J0D01*
G01*
X128014D02*
G03*
X128014Y2930170I-2000J0D01*
G01*
X238014D02*
G03*
X238014Y2930170I-2000J0D01*
G01*
X458014D02*
G03*
X458014Y2930170I-2000J0D01*
G01*
M02*
