G04*
G04 #@! TF.GenerationSoftware,Altium Limited,Altium Designer,24.9.1 (31)*
G04*
G04 Layer_Physical_Order=2*
G04 Layer_Color=16711680*
%FSLAX44Y44*%
%MOMM*%
G71*
G04*
G04 #@! TF.SameCoordinates,08A160DE-048D-4C44-B89D-0D19DBCE6055*
G04*
G04*
G04 #@! TF.FilePolarity,Positive*
G04*
G01*
G75*
%ADD11C,0.2000*%
%ADD44C,0.3000*%
%ADD46C,0.3810*%
%ADD48R,2.0000X2.0000*%
%ADD49C,2.0000*%
%ADD50O,3.3000X1.8000*%
%ADD51O,2.0000X3.8000*%
%ADD52C,1.7000*%
%ADD53R,1.7000X1.7000*%
%ADD54C,1.8669*%
%ADD55R,1.8669X1.8669*%
%ADD56R,1.7000X1.7000*%
%ADD57R,2.0000X2.0000*%
%ADD58C,1.5000*%
%ADD59C,4.6000*%
%ADD60R,2.8000X3.0000*%
%ADD61R,1.4980X1.4980*%
%ADD62C,1.4980*%
%ADD63C,1.2700*%
G36*
X594596Y2887378D02*
X592682Y2886798D01*
X591889Y2887984D01*
X588268Y2891606D01*
X584010Y2894451D01*
X579278Y2896411D01*
X575194Y2897223D01*
Y2871410D01*
Y2845597D01*
X579278Y2846409D01*
X584010Y2848369D01*
X588268Y2851215D01*
X591889Y2854836D01*
X592682Y2856022D01*
X594596Y2855442D01*
Y2051858D01*
X592682Y2051278D01*
X591889Y2052464D01*
X588268Y2056086D01*
X584010Y2058931D01*
X579278Y2060891D01*
X575194Y2061703D01*
Y2035890D01*
X571694D01*
Y2032390D01*
X545881D01*
X546693Y2028306D01*
X548653Y2023574D01*
X551498Y2019316D01*
X555120Y2015694D01*
X556336Y2014882D01*
X555756Y2012968D01*
X92452D01*
X91872Y2014882D01*
X93088Y2015694D01*
X96709Y2019316D01*
X99555Y2023574D01*
X101515Y2028306D01*
X102327Y2032390D01*
X76514D01*
Y2035890D01*
X73014D01*
Y2061703D01*
X68930Y2060891D01*
X64198Y2058931D01*
X59940Y2056086D01*
X56318Y2052464D01*
X55526Y2051278D01*
X53612Y2051858D01*
Y2288970D01*
X55460Y2289736D01*
X59950Y2285246D01*
X59394Y2283172D01*
Y2280408D01*
X60110Y2277737D01*
X61492Y2275343D01*
X63447Y2273388D01*
X65841Y2272006D01*
X68512Y2271290D01*
X71276D01*
X73947Y2272006D01*
X76341Y2273388D01*
X78296Y2275343D01*
X79678Y2277737D01*
X80394Y2280408D01*
Y2283172D01*
X79678Y2285843D01*
X78296Y2288237D01*
X76341Y2290192D01*
X73947Y2291574D01*
X71276Y2292290D01*
X68512D01*
X66438Y2291734D01*
X60395Y2297778D01*
X60519Y2298488D01*
X62668Y2299167D01*
X63447Y2298388D01*
X65841Y2297006D01*
X68512Y2296290D01*
X71276D01*
X73947Y2297006D01*
X76341Y2298388D01*
X78296Y2300343D01*
X79678Y2302737D01*
X80394Y2305408D01*
Y2308172D01*
X79678Y2310843D01*
X78296Y2313237D01*
X76341Y2315192D01*
X73947Y2316574D01*
X71276Y2317290D01*
X68512D01*
X65841Y2316574D01*
X63447Y2315192D01*
X61602Y2313347D01*
X61105Y2313386D01*
X59602Y2313964D01*
Y2437729D01*
X97366Y2475494D01*
X99160Y2474458D01*
X98804Y2473132D01*
Y2469779D01*
X65590Y2436564D01*
X64595Y2435076D01*
X64246Y2433320D01*
Y2341880D01*
X64595Y2340124D01*
X65590Y2338636D01*
X94726Y2309500D01*
Y2298490D01*
X95075Y2296734D01*
X96070Y2295246D01*
X105670Y2285646D01*
X105114Y2283572D01*
Y2280808D01*
X105830Y2278137D01*
X107212Y2275743D01*
X106348Y2273778D01*
X82294D01*
X80538Y2273429D01*
X79050Y2272434D01*
X73350Y2266734D01*
X71276Y2267290D01*
X68512D01*
X65841Y2266574D01*
X63447Y2265192D01*
X61492Y2263237D01*
X60110Y2260843D01*
X59394Y2258172D01*
Y2255408D01*
X60110Y2252737D01*
X61492Y2250343D01*
X63447Y2248388D01*
X65841Y2247006D01*
X68512Y2246290D01*
X71276D01*
X73947Y2247006D01*
X76341Y2248388D01*
X78296Y2250343D01*
X79678Y2252737D01*
X80394Y2255408D01*
Y2258172D01*
X79838Y2260246D01*
X84194Y2264602D01*
X105459D01*
X106614Y2262602D01*
X105830Y2261243D01*
X105114Y2258572D01*
Y2255808D01*
X105830Y2253137D01*
X107212Y2250743D01*
X109167Y2248788D01*
X111561Y2247406D01*
X114232Y2246690D01*
X116996D01*
X119667Y2247406D01*
X122061Y2248788D01*
X124016Y2250743D01*
X125089Y2252602D01*
X175753D01*
X184700Y2243655D01*
X183848Y2242179D01*
X183064Y2239254D01*
Y2236226D01*
X183848Y2233301D01*
X185362Y2230679D01*
X187503Y2228538D01*
X190125Y2227024D01*
X193050Y2226240D01*
X196078D01*
X199003Y2227024D01*
X201625Y2228538D01*
X203766Y2230679D01*
X205280Y2233301D01*
X206064Y2236226D01*
Y2239254D01*
X205280Y2242179D01*
X203766Y2244801D01*
X201625Y2246942D01*
X199003Y2248456D01*
X196078Y2249240D01*
X193050D01*
X192295Y2249038D01*
X180898Y2260434D01*
X179410Y2261429D01*
X177654Y2261778D01*
X126448D01*
X125972Y2262602D01*
X127127Y2264602D01*
X196773D01*
X212571Y2248805D01*
X212497Y2246536D01*
X210762Y2244801D01*
X209248Y2242179D01*
X208464Y2239254D01*
Y2236226D01*
X209248Y2233301D01*
X210762Y2230679D01*
X212903Y2228538D01*
X215525Y2227024D01*
X218450Y2226240D01*
X221478D01*
X224403Y2227024D01*
X227025Y2228538D01*
X229166Y2230679D01*
X230680Y2233301D01*
X231464Y2236226D01*
Y2239254D01*
X230680Y2242179D01*
X229166Y2244801D01*
X227025Y2246942D01*
X224403Y2248456D01*
X223470Y2248706D01*
Y2248983D01*
X223120Y2250738D01*
X222126Y2252227D01*
X201918Y2272434D01*
X200430Y2273429D01*
X198674Y2273778D01*
X124880D01*
X124016Y2275743D01*
X125398Y2278137D01*
X126114Y2280808D01*
Y2283572D01*
X125398Y2286243D01*
X124016Y2288637D01*
X122061Y2290592D01*
X119667Y2291974D01*
X116996Y2292690D01*
X114232D01*
X112158Y2292134D01*
X104005Y2300288D01*
X104178Y2302276D01*
X105714Y2303069D01*
X105902Y2303011D01*
X107212Y2300743D01*
X109167Y2298788D01*
X111561Y2297406D01*
X114232Y2296690D01*
X116996D01*
X119667Y2297406D01*
X122061Y2298788D01*
X124016Y2300743D01*
X125398Y2303137D01*
X126114Y2305808D01*
Y2308572D01*
X125398Y2311243D01*
X124016Y2313637D01*
X122061Y2315592D01*
X119667Y2316974D01*
X116996Y2317690D01*
X114232D01*
X111561Y2316974D01*
X109167Y2315592D01*
X107212Y2313637D01*
X105902Y2311369D01*
X105772Y2311329D01*
X103779Y2312021D01*
X103553Y2313156D01*
X102558Y2314644D01*
X73422Y2343781D01*
Y2431420D01*
X103421Y2461418D01*
X103822Y2461017D01*
X105455Y2460075D01*
Y2457765D01*
X103822Y2456823D01*
X101401Y2454402D01*
X99690Y2451438D01*
X98804Y2448132D01*
Y2444709D01*
X99690Y2441402D01*
X101401Y2438438D01*
X103822Y2436017D01*
X105455Y2435075D01*
Y2432765D01*
X103822Y2431823D01*
X101401Y2429402D01*
X99690Y2426438D01*
X98804Y2423132D01*
Y2419709D01*
X99690Y2416402D01*
X101401Y2413438D01*
X103419Y2411420D01*
X102850Y2409420D01*
X98804D01*
Y2399920D01*
X111804D01*
X124804D01*
Y2409420D01*
X120758D01*
X120189Y2411420D01*
X122207Y2413438D01*
X123918Y2416402D01*
X124804Y2419709D01*
Y2423132D01*
X123918Y2426438D01*
X122207Y2429402D01*
X119786Y2431823D01*
X118153Y2432765D01*
Y2435075D01*
X119786Y2436017D01*
X122207Y2438438D01*
X123918Y2441402D01*
X124804Y2444709D01*
Y2448132D01*
X123918Y2451438D01*
X122207Y2454402D01*
X119786Y2456823D01*
X118153Y2457765D01*
Y2460075D01*
X119786Y2461017D01*
X122207Y2463438D01*
X123918Y2466402D01*
X124804Y2469709D01*
Y2473132D01*
X123918Y2476438D01*
X122207Y2479402D01*
X119786Y2481823D01*
X118153Y2482765D01*
Y2485075D01*
X119786Y2486017D01*
X122207Y2488438D01*
X123918Y2491402D01*
X124804Y2494709D01*
Y2498132D01*
X123918Y2501438D01*
X122207Y2504402D01*
X119786Y2506823D01*
X116822Y2508534D01*
X113516Y2509420D01*
X110092D01*
X106786Y2508534D01*
X103822Y2506823D01*
X101401Y2504402D01*
X99690Y2501438D01*
X98804Y2498132D01*
Y2494709D01*
X99690Y2491402D01*
X99912Y2491017D01*
X55460Y2446564D01*
X53612Y2447330D01*
Y2855442D01*
X55526Y2856022D01*
X56318Y2854836D01*
X59940Y2851215D01*
X64198Y2848369D01*
X68930Y2846409D01*
X73014Y2845597D01*
Y2871410D01*
Y2897223D01*
X68930Y2896411D01*
X64198Y2894451D01*
X59940Y2891606D01*
X56318Y2887984D01*
X55526Y2886798D01*
X53612Y2887378D01*
Y3002772D01*
X594596D01*
Y2887378D01*
D02*
G37*
G36*
X1035032Y2413748D02*
X625588D01*
Y3002262D01*
X1035032D01*
Y2413748D01*
D02*
G37*
%LPC*%
G36*
X522395Y2985660D02*
X519633D01*
X516965Y2984945D01*
X514573Y2983564D01*
X512620Y2981611D01*
X511239Y2979219D01*
X510524Y2976551D01*
Y2973789D01*
X511239Y2971121D01*
X512620Y2968729D01*
X514573Y2966776D01*
X516965Y2965395D01*
X519633Y2964680D01*
X522395D01*
X525063Y2965395D01*
X527455Y2966776D01*
X529408Y2968729D01*
X530789Y2971121D01*
X531504Y2973789D01*
Y2976551D01*
X530789Y2979219D01*
X529408Y2981611D01*
X527455Y2983564D01*
X525063Y2984945D01*
X522395Y2985660D01*
D02*
G37*
G36*
X457395D02*
X454633D01*
X451965Y2984945D01*
X449573Y2983564D01*
X447620Y2981611D01*
X446239Y2979219D01*
X445524Y2976551D01*
Y2973789D01*
X446239Y2971121D01*
X447620Y2968729D01*
X449573Y2966776D01*
X451965Y2965395D01*
X454633Y2964680D01*
X457395D01*
X460063Y2965395D01*
X462455Y2966776D01*
X464408Y2968729D01*
X465789Y2971121D01*
X466504Y2973789D01*
Y2976551D01*
X465789Y2979219D01*
X464408Y2981611D01*
X462455Y2983564D01*
X460063Y2984945D01*
X457395Y2985660D01*
D02*
G37*
G36*
X412395D02*
X409633D01*
X406965Y2984945D01*
X404573Y2983564D01*
X402620Y2981611D01*
X401239Y2979219D01*
X400524Y2976551D01*
Y2973789D01*
X401239Y2971121D01*
X402620Y2968729D01*
X404573Y2966776D01*
X406965Y2965395D01*
X409633Y2964680D01*
X412395D01*
X415063Y2965395D01*
X417455Y2966776D01*
X419408Y2968729D01*
X420789Y2971121D01*
X421504Y2973789D01*
Y2976551D01*
X420789Y2979219D01*
X419408Y2981611D01*
X417455Y2983564D01*
X415063Y2984945D01*
X412395Y2985660D01*
D02*
G37*
G36*
X347395D02*
X344633D01*
X341965Y2984945D01*
X339573Y2983564D01*
X337620Y2981611D01*
X336239Y2979219D01*
X335524Y2976551D01*
Y2973789D01*
X336239Y2971121D01*
X337620Y2968729D01*
X339573Y2966776D01*
X341965Y2965395D01*
X344633Y2964680D01*
X347395D01*
X350063Y2965395D01*
X352455Y2966776D01*
X354408Y2968729D01*
X355789Y2971121D01*
X356504Y2973789D01*
Y2976551D01*
X355789Y2979219D01*
X354408Y2981611D01*
X352455Y2983564D01*
X350063Y2984945D01*
X347395Y2985660D01*
D02*
G37*
G36*
X302395D02*
X299633D01*
X296965Y2984945D01*
X294573Y2983564D01*
X292620Y2981611D01*
X291239Y2979219D01*
X290524Y2976551D01*
Y2973789D01*
X291239Y2971121D01*
X292620Y2968729D01*
X294573Y2966776D01*
X296965Y2965395D01*
X299633Y2964680D01*
X302395D01*
X305063Y2965395D01*
X307455Y2966776D01*
X309408Y2968729D01*
X310789Y2971121D01*
X311504Y2973789D01*
Y2976551D01*
X310789Y2979219D01*
X309408Y2981611D01*
X307455Y2983564D01*
X305063Y2984945D01*
X302395Y2985660D01*
D02*
G37*
G36*
X237395D02*
X234633D01*
X231965Y2984945D01*
X229573Y2983564D01*
X227620Y2981611D01*
X226239Y2979219D01*
X225524Y2976551D01*
Y2973789D01*
X226239Y2971121D01*
X227620Y2968729D01*
X229573Y2966776D01*
X231965Y2965395D01*
X234633Y2964680D01*
X237395D01*
X240063Y2965395D01*
X242455Y2966776D01*
X244408Y2968729D01*
X245789Y2971121D01*
X246504Y2973789D01*
Y2976551D01*
X245789Y2979219D01*
X244408Y2981611D01*
X242455Y2983564D01*
X240063Y2984945D01*
X237395Y2985660D01*
D02*
G37*
G36*
X192395D02*
X189633D01*
X186965Y2984945D01*
X184573Y2983564D01*
X182620Y2981611D01*
X181239Y2979219D01*
X180524Y2976551D01*
Y2973789D01*
X181239Y2971121D01*
X182620Y2968729D01*
X184573Y2966776D01*
X186965Y2965395D01*
X189633Y2964680D01*
X192395D01*
X195063Y2965395D01*
X197455Y2966776D01*
X199408Y2968729D01*
X200789Y2971121D01*
X201504Y2973789D01*
Y2976551D01*
X200789Y2979219D01*
X199408Y2981611D01*
X197455Y2983564D01*
X195063Y2984945D01*
X192395Y2985660D01*
D02*
G37*
G36*
X127395D02*
X124633D01*
X121965Y2984945D01*
X119573Y2983564D01*
X117620Y2981611D01*
X116239Y2979219D01*
X115524Y2976551D01*
Y2973789D01*
X116239Y2971121D01*
X117620Y2968729D01*
X119573Y2966776D01*
X121965Y2965395D01*
X124633Y2964680D01*
X127395D01*
X130063Y2965395D01*
X132455Y2966776D01*
X134408Y2968729D01*
X135789Y2971121D01*
X136504Y2973789D01*
Y2976551D01*
X135789Y2979219D01*
X134408Y2981611D01*
X132455Y2983564D01*
X130063Y2984945D01*
X127395Y2985660D01*
D02*
G37*
G36*
X524514Y2940092D02*
Y2933670D01*
X530936D01*
X530789Y2934219D01*
X529408Y2936611D01*
X527455Y2938564D01*
X525063Y2939945D01*
X524514Y2940092D01*
D02*
G37*
G36*
X517514D02*
X516965Y2939945D01*
X514573Y2938564D01*
X512620Y2936611D01*
X511239Y2934219D01*
X511092Y2933670D01*
X517514D01*
Y2940092D01*
D02*
G37*
G36*
X414514D02*
Y2933670D01*
X420936D01*
X420789Y2934219D01*
X419408Y2936611D01*
X417455Y2938564D01*
X415063Y2939945D01*
X414514Y2940092D01*
D02*
G37*
G36*
X407514D02*
X406965Y2939945D01*
X404573Y2938564D01*
X402620Y2936611D01*
X401239Y2934219D01*
X401092Y2933670D01*
X407514D01*
Y2940092D01*
D02*
G37*
G36*
X304514D02*
Y2933670D01*
X310936D01*
X310789Y2934219D01*
X309408Y2936611D01*
X307455Y2938564D01*
X305063Y2939945D01*
X304514Y2940092D01*
D02*
G37*
G36*
X297514D02*
X296965Y2939945D01*
X294573Y2938564D01*
X292620Y2936611D01*
X291239Y2934219D01*
X291092Y2933670D01*
X297514D01*
Y2940092D01*
D02*
G37*
G36*
X194514D02*
Y2933670D01*
X200936D01*
X200789Y2934219D01*
X199408Y2936611D01*
X197455Y2938564D01*
X195063Y2939945D01*
X194514Y2940092D01*
D02*
G37*
G36*
X187514D02*
X186965Y2939945D01*
X184573Y2938564D01*
X182620Y2936611D01*
X181239Y2934219D01*
X181092Y2933670D01*
X187514D01*
Y2940092D01*
D02*
G37*
G36*
X530936Y2926670D02*
X524514D01*
Y2920248D01*
X525063Y2920395D01*
X527455Y2921776D01*
X529408Y2923729D01*
X530789Y2926121D01*
X530936Y2926670D01*
D02*
G37*
G36*
X517514D02*
X511092D01*
X511239Y2926121D01*
X512620Y2923729D01*
X514573Y2921776D01*
X516965Y2920395D01*
X517514Y2920248D01*
Y2926670D01*
D02*
G37*
G36*
X420936D02*
X414514D01*
Y2920248D01*
X415063Y2920395D01*
X417455Y2921776D01*
X419408Y2923729D01*
X420789Y2926121D01*
X420936Y2926670D01*
D02*
G37*
G36*
X407514D02*
X401092D01*
X401239Y2926121D01*
X402620Y2923729D01*
X404573Y2921776D01*
X406965Y2920395D01*
X407514Y2920248D01*
Y2926670D01*
D02*
G37*
G36*
X310936D02*
X304514D01*
Y2920248D01*
X305063Y2920395D01*
X307455Y2921776D01*
X309408Y2923729D01*
X310789Y2926121D01*
X310936Y2926670D01*
D02*
G37*
G36*
X297514D02*
X291092D01*
X291239Y2926121D01*
X292620Y2923729D01*
X294573Y2921776D01*
X296965Y2920395D01*
X297514Y2920248D01*
Y2926670D01*
D02*
G37*
G36*
X200936D02*
X194514D01*
Y2920248D01*
X195063Y2920395D01*
X197455Y2921776D01*
X199408Y2923729D01*
X200789Y2926121D01*
X200936Y2926670D01*
D02*
G37*
G36*
X187514D02*
X181092D01*
X181239Y2926121D01*
X182620Y2923729D01*
X184573Y2921776D01*
X186965Y2920395D01*
X187514Y2920248D01*
Y2926670D01*
D02*
G37*
G36*
X466504Y2940660D02*
X445524D01*
Y2919680D01*
X466504D01*
Y2940660D01*
D02*
G37*
G36*
X246504D02*
X225524D01*
Y2919680D01*
X246504D01*
Y2940660D01*
D02*
G37*
G36*
X136504D02*
X115524D01*
Y2919680D01*
X136504D01*
Y2940660D01*
D02*
G37*
G36*
X356504D02*
X335524D01*
Y2919680D01*
X341106D01*
Y2902477D01*
X339953Y2901812D01*
X338212Y2900071D01*
X336981Y2897939D01*
X336344Y2895561D01*
Y2893099D01*
X336981Y2890721D01*
X338212Y2888589D01*
X339953Y2886848D01*
X342085Y2885617D01*
X344463Y2884980D01*
X346925D01*
X349303Y2885617D01*
X351435Y2886848D01*
X353176Y2888589D01*
X354407Y2890721D01*
X355044Y2893099D01*
Y2895561D01*
X354407Y2897939D01*
X353176Y2900071D01*
X351435Y2901812D01*
X350282Y2902477D01*
Y2919680D01*
X356504D01*
Y2940660D01*
D02*
G37*
G36*
X568194Y2897223D02*
X564110Y2896411D01*
X559378Y2894451D01*
X555120Y2891606D01*
X551498Y2887984D01*
X548653Y2883726D01*
X546693Y2878994D01*
X545881Y2874910D01*
X568194D01*
Y2897223D01*
D02*
G37*
G36*
X80014D02*
Y2874910D01*
X102327D01*
X101515Y2878994D01*
X99555Y2883726D01*
X96709Y2887984D01*
X93088Y2891606D01*
X88830Y2894451D01*
X84098Y2896411D01*
X80014Y2897223D01*
D02*
G37*
G36*
X507474Y2875110D02*
X493974D01*
Y2860610D01*
X507474D01*
Y2875110D01*
D02*
G37*
G36*
X486974D02*
X473474D01*
Y2860610D01*
X486974D01*
Y2875110D01*
D02*
G37*
G36*
X568194Y2867910D02*
X545881D01*
X546693Y2863826D01*
X548653Y2859095D01*
X551498Y2854836D01*
X555120Y2851215D01*
X559378Y2848369D01*
X564110Y2846409D01*
X568194Y2845597D01*
Y2867910D01*
D02*
G37*
G36*
X102327D02*
X80014D01*
Y2845597D01*
X84098Y2846409D01*
X88830Y2848369D01*
X93088Y2851215D01*
X96709Y2854836D01*
X99555Y2859095D01*
X101515Y2863826D01*
X102327Y2867910D01*
D02*
G37*
G36*
X507474Y2853610D02*
X493974D01*
Y2839110D01*
X507474D01*
Y2853610D01*
D02*
G37*
G36*
X486974D02*
X473474D01*
Y2839110D01*
X486974D01*
Y2853610D01*
D02*
G37*
G36*
X328404Y2875110D02*
X294404D01*
Y2839110D01*
X328404D01*
Y2875110D01*
D02*
G37*
G36*
X115514Y2750241D02*
Y2741220D01*
X124535D01*
X124128Y2742738D01*
X122417Y2745702D01*
X119996Y2748123D01*
X117032Y2749834D01*
X115514Y2750241D01*
D02*
G37*
G36*
X108514Y2750241D02*
X106996Y2749834D01*
X104032Y2748123D01*
X101611Y2745702D01*
X99900Y2742738D01*
X99493Y2741220D01*
X108514D01*
Y2750241D01*
D02*
G37*
G36*
X124535Y2734220D02*
X112014D01*
X99493D01*
X99900Y2732702D01*
X101611Y2729738D01*
X104032Y2727318D01*
X105665Y2726375D01*
Y2724065D01*
X104032Y2723123D01*
X101611Y2720702D01*
X99900Y2717738D01*
X99014Y2714431D01*
Y2711009D01*
X99900Y2707702D01*
X101611Y2704738D01*
X103629Y2702720D01*
X103060Y2700720D01*
X99014D01*
Y2674720D01*
X125014D01*
Y2700720D01*
X120968D01*
X120399Y2702720D01*
X122417Y2704738D01*
X124128Y2707702D01*
X125014Y2711009D01*
Y2714431D01*
X124128Y2717738D01*
X122417Y2720702D01*
X119996Y2723123D01*
X118363Y2724065D01*
Y2726375D01*
X119996Y2727318D01*
X122417Y2729738D01*
X124128Y2732702D01*
X124535Y2734220D01*
D02*
G37*
G36*
X115514Y2630861D02*
Y2621840D01*
X124535D01*
X124128Y2623358D01*
X122417Y2626322D01*
X119996Y2628742D01*
X117032Y2630454D01*
X115514Y2630861D01*
D02*
G37*
G36*
X108514Y2630861D02*
X106996Y2630454D01*
X104032Y2628742D01*
X101611Y2626322D01*
X99900Y2623358D01*
X99493Y2621840D01*
X108514D01*
Y2630861D01*
D02*
G37*
G36*
X124535Y2614840D02*
X112014D01*
X99493D01*
X99900Y2613322D01*
X101611Y2610358D01*
X104032Y2607937D01*
X105665Y2606995D01*
Y2604685D01*
X104032Y2603742D01*
X101611Y2601322D01*
X99900Y2598358D01*
X99014Y2595052D01*
Y2591628D01*
X99900Y2588322D01*
X101611Y2585358D01*
X103629Y2583340D01*
X103060Y2581340D01*
X99014D01*
Y2555340D01*
X125014D01*
Y2581340D01*
X120968D01*
X120399Y2583340D01*
X122417Y2585358D01*
X124128Y2588322D01*
X125014Y2591628D01*
Y2595052D01*
X124128Y2598358D01*
X122417Y2601322D01*
X119996Y2603742D01*
X118363Y2604685D01*
Y2606995D01*
X119996Y2607937D01*
X122417Y2610358D01*
X124128Y2613322D01*
X124535Y2614840D01*
D02*
G37*
G36*
X507474Y2476720D02*
X493974D01*
Y2462220D01*
X507474D01*
Y2476720D01*
D02*
G37*
G36*
X486974D02*
X473474D01*
Y2462220D01*
X486974D01*
Y2476720D01*
D02*
G37*
G36*
X507474Y2455220D02*
X493974D01*
Y2440720D01*
X507474D01*
Y2455220D01*
D02*
G37*
G36*
X486974D02*
X473474D01*
Y2440720D01*
X486974D01*
Y2455220D01*
D02*
G37*
G36*
X328404Y2476720D02*
X294404D01*
Y2440720D01*
X328404D01*
Y2476720D01*
D02*
G37*
G36*
X567944Y2414538D02*
X567944Y2414538D01*
X529844D01*
X529844Y2414538D01*
X528283Y2414228D01*
X526960Y2413344D01*
X526960Y2413344D01*
X521880Y2408264D01*
X520996Y2406941D01*
X520686Y2405380D01*
X520686Y2405380D01*
Y2400953D01*
X520325Y2400856D01*
X517703Y2399342D01*
X515562Y2397201D01*
X514048Y2394579D01*
X513264Y2391654D01*
Y2388626D01*
X514048Y2385701D01*
X515562Y2383079D01*
X517703Y2380938D01*
X520325Y2379424D01*
X523250Y2378640D01*
X526278D01*
X529203Y2379424D01*
X531825Y2380938D01*
X533966Y2383079D01*
X535480Y2385701D01*
X536264Y2388626D01*
Y2391654D01*
X535480Y2394579D01*
X533966Y2397201D01*
X531825Y2399342D01*
X529203Y2400856D01*
X528842Y2400953D01*
Y2403691D01*
X531533Y2406382D01*
X566255D01*
X577836Y2394801D01*
Y2206812D01*
X576173Y2205852D01*
X574432Y2204111D01*
X573201Y2201979D01*
X572564Y2199601D01*
Y2197139D01*
X573201Y2194761D01*
X574432Y2192629D01*
X576173Y2190888D01*
X577836Y2189928D01*
Y2179739D01*
X537045Y2138948D01*
X448564D01*
X448564Y2138948D01*
X447003Y2138638D01*
X445680Y2137754D01*
X445680Y2137754D01*
X390665Y2082738D01*
X389315Y2083100D01*
X385892D01*
X382586Y2082214D01*
X379622Y2080502D01*
X377201Y2078082D01*
X376053Y2076094D01*
X373755D01*
X372607Y2078082D01*
X370186Y2080502D01*
X367222Y2082214D01*
X363915Y2083100D01*
X360493D01*
X357186Y2082214D01*
X354222Y2080502D01*
X351801Y2078082D01*
X350653Y2076094D01*
X348355D01*
X347207Y2078082D01*
X344786Y2080502D01*
X341822Y2082214D01*
X338516Y2083100D01*
X335093D01*
X331786Y2082214D01*
X328822Y2080502D01*
X326401Y2078082D01*
X324690Y2075118D01*
X323804Y2071812D01*
Y2068389D01*
X324690Y2065082D01*
X326401Y2062118D01*
X328822Y2059697D01*
X331786Y2057986D01*
X335093Y2057100D01*
X338516D01*
X341822Y2057986D01*
X344786Y2059697D01*
X347207Y2062118D01*
X348355Y2064106D01*
X350653D01*
X351801Y2062118D01*
X354222Y2059697D01*
X357186Y2057986D01*
X360493Y2057100D01*
X363915D01*
X367222Y2057986D01*
X370186Y2059697D01*
X372607Y2062118D01*
X373755Y2064106D01*
X376053D01*
X377201Y2062118D01*
X379622Y2059697D01*
X382586Y2057986D01*
X385892Y2057100D01*
X389315D01*
X392622Y2057986D01*
X395586Y2059697D01*
X398007Y2062118D01*
X399155Y2064106D01*
X401453D01*
X402601Y2062118D01*
X405022Y2059697D01*
X407986Y2057986D01*
X409504Y2057579D01*
Y2070100D01*
Y2082621D01*
X407986Y2082214D01*
X405022Y2080502D01*
X402601Y2078082D01*
X401453Y2076094D01*
X399155D01*
X398007Y2078082D01*
X397775Y2078313D01*
X450253Y2130792D01*
X538734D01*
X538734Y2130792D01*
X540295Y2131102D01*
X541618Y2131986D01*
X584798Y2175166D01*
X585682Y2176489D01*
X585992Y2178050D01*
X585992Y2178050D01*
Y2189928D01*
X587655Y2190888D01*
X589396Y2192629D01*
X590627Y2194761D01*
X591264Y2197139D01*
Y2199601D01*
X590627Y2201979D01*
X589396Y2204111D01*
X587655Y2205852D01*
X585992Y2206812D01*
Y2396490D01*
X585682Y2398051D01*
X584798Y2399374D01*
X584798Y2399374D01*
X570828Y2413344D01*
X569505Y2414228D01*
X569246Y2414279D01*
X567944Y2414538D01*
D02*
G37*
G36*
X223464Y2401108D02*
Y2393640D01*
X230932D01*
X230680Y2394579D01*
X229166Y2397201D01*
X227025Y2399342D01*
X224403Y2400856D01*
X223464Y2401108D01*
D02*
G37*
G36*
X216464D02*
X215525Y2400856D01*
X212903Y2399342D01*
X210762Y2397201D01*
X209248Y2394579D01*
X208996Y2393640D01*
X216464D01*
Y2401108D01*
D02*
G37*
G36*
X124804Y2392920D02*
X115304D01*
Y2383420D01*
X124804D01*
Y2392920D01*
D02*
G37*
G36*
X108304D02*
X98804D01*
Y2383420D01*
X108304D01*
Y2392920D01*
D02*
G37*
G36*
X230932Y2386640D02*
X223464D01*
Y2379172D01*
X224403Y2379424D01*
X227025Y2380938D01*
X229166Y2383079D01*
X230680Y2385701D01*
X230932Y2386640D01*
D02*
G37*
G36*
X216464D02*
X208996D01*
X209248Y2385701D01*
X210762Y2383079D01*
X212903Y2380938D01*
X215525Y2379424D01*
X216464Y2379172D01*
Y2386640D01*
D02*
G37*
G36*
X561664Y2401640D02*
X538664D01*
Y2378640D01*
X561664D01*
Y2401640D01*
D02*
G37*
G36*
X500878D02*
X497850D01*
X494925Y2400856D01*
X492303Y2399342D01*
X490162Y2397201D01*
X488648Y2394579D01*
X487864Y2391654D01*
Y2388626D01*
X488648Y2385701D01*
X490162Y2383079D01*
X492303Y2380938D01*
X494925Y2379424D01*
X497850Y2378640D01*
X500878D01*
X503803Y2379424D01*
X506425Y2380938D01*
X508566Y2383079D01*
X510080Y2385701D01*
X510864Y2388626D01*
Y2391654D01*
X510080Y2394579D01*
X508566Y2397201D01*
X506425Y2399342D01*
X503803Y2400856D01*
X500878Y2401640D01*
D02*
G37*
G36*
X475478D02*
X472450D01*
X469525Y2400856D01*
X466903Y2399342D01*
X464762Y2397201D01*
X463248Y2394579D01*
X462464Y2391654D01*
Y2388626D01*
X463248Y2385701D01*
X464762Y2383079D01*
X466903Y2380938D01*
X469525Y2379424D01*
X472450Y2378640D01*
X475478D01*
X478403Y2379424D01*
X481025Y2380938D01*
X483166Y2383079D01*
X484680Y2385701D01*
X485464Y2388626D01*
Y2391654D01*
X484680Y2394579D01*
X483166Y2397201D01*
X481025Y2399342D01*
X478403Y2400856D01*
X475478Y2401640D01*
D02*
G37*
G36*
X450078D02*
X447050D01*
X444125Y2400856D01*
X441503Y2399342D01*
X439362Y2397201D01*
X437848Y2394579D01*
X437064Y2391654D01*
Y2388626D01*
X437848Y2385701D01*
X439362Y2383079D01*
X441503Y2380938D01*
X444125Y2379424D01*
X447050Y2378640D01*
X450078D01*
X453003Y2379424D01*
X455625Y2380938D01*
X457766Y2383079D01*
X459280Y2385701D01*
X460064Y2388626D01*
Y2391654D01*
X459280Y2394579D01*
X457766Y2397201D01*
X455625Y2399342D01*
X453003Y2400856D01*
X450078Y2401640D01*
D02*
G37*
G36*
X424678D02*
X421650D01*
X418725Y2400856D01*
X416103Y2399342D01*
X413962Y2397201D01*
X412448Y2394579D01*
X411664Y2391654D01*
Y2388626D01*
X412448Y2385701D01*
X413962Y2383079D01*
X416103Y2380938D01*
X418725Y2379424D01*
X421650Y2378640D01*
X424678D01*
X427603Y2379424D01*
X430225Y2380938D01*
X432366Y2383079D01*
X433880Y2385701D01*
X434664Y2388626D01*
Y2391654D01*
X433880Y2394579D01*
X432366Y2397201D01*
X430225Y2399342D01*
X427603Y2400856D01*
X424678Y2401640D01*
D02*
G37*
G36*
X399278D02*
X396250D01*
X393325Y2400856D01*
X390703Y2399342D01*
X388562Y2397201D01*
X387048Y2394579D01*
X386264Y2391654D01*
Y2388626D01*
X387048Y2385701D01*
X388562Y2383079D01*
X390703Y2380938D01*
X393325Y2379424D01*
X396250Y2378640D01*
X399278D01*
X402203Y2379424D01*
X404825Y2380938D01*
X406966Y2383079D01*
X408480Y2385701D01*
X409264Y2388626D01*
Y2391654D01*
X408480Y2394579D01*
X406966Y2397201D01*
X404825Y2399342D01*
X402203Y2400856D01*
X399278Y2401640D01*
D02*
G37*
G36*
X373878D02*
X370850D01*
X367925Y2400856D01*
X365303Y2399342D01*
X363162Y2397201D01*
X361648Y2394579D01*
X360864Y2391654D01*
Y2388626D01*
X361648Y2385701D01*
X363162Y2383079D01*
X365303Y2380938D01*
X367925Y2379424D01*
X370850Y2378640D01*
X373878D01*
X376803Y2379424D01*
X379425Y2380938D01*
X381566Y2383079D01*
X383080Y2385701D01*
X383864Y2388626D01*
Y2391654D01*
X383080Y2394579D01*
X381566Y2397201D01*
X379425Y2399342D01*
X376803Y2400856D01*
X373878Y2401640D01*
D02*
G37*
G36*
X348478D02*
X345450D01*
X342525Y2400856D01*
X339903Y2399342D01*
X337762Y2397201D01*
X336248Y2394579D01*
X335464Y2391654D01*
Y2388626D01*
X336248Y2385701D01*
X337762Y2383079D01*
X339903Y2380938D01*
X342525Y2379424D01*
X345450Y2378640D01*
X348478D01*
X351403Y2379424D01*
X354025Y2380938D01*
X356166Y2383079D01*
X357680Y2385701D01*
X358464Y2388626D01*
Y2391654D01*
X357680Y2394579D01*
X356166Y2397201D01*
X354025Y2399342D01*
X351403Y2400856D01*
X348478Y2401640D01*
D02*
G37*
G36*
X323078D02*
X320050D01*
X317125Y2400856D01*
X314503Y2399342D01*
X312362Y2397201D01*
X310848Y2394579D01*
X310064Y2391654D01*
Y2388626D01*
X310848Y2385701D01*
X312362Y2383079D01*
X314503Y2380938D01*
X317125Y2379424D01*
X320050Y2378640D01*
X323078D01*
X326003Y2379424D01*
X328625Y2380938D01*
X330766Y2383079D01*
X332280Y2385701D01*
X333064Y2388626D01*
Y2391654D01*
X332280Y2394579D01*
X330766Y2397201D01*
X328625Y2399342D01*
X326003Y2400856D01*
X323078Y2401640D01*
D02*
G37*
G36*
X297678D02*
X294650D01*
X291725Y2400856D01*
X289103Y2399342D01*
X286962Y2397201D01*
X285448Y2394579D01*
X284664Y2391654D01*
Y2388626D01*
X285448Y2385701D01*
X286962Y2383079D01*
X289103Y2380938D01*
X291725Y2379424D01*
X294650Y2378640D01*
X297678D01*
X300603Y2379424D01*
X303225Y2380938D01*
X305366Y2383079D01*
X306880Y2385701D01*
X307664Y2388626D01*
Y2391654D01*
X306880Y2394579D01*
X305366Y2397201D01*
X303225Y2399342D01*
X300603Y2400856D01*
X297678Y2401640D01*
D02*
G37*
G36*
X272278D02*
X269250D01*
X266325Y2400856D01*
X263703Y2399342D01*
X261562Y2397201D01*
X260048Y2394579D01*
X259264Y2391654D01*
Y2388626D01*
X260048Y2385701D01*
X261562Y2383079D01*
X263703Y2380938D01*
X266325Y2379424D01*
X269250Y2378640D01*
X272278D01*
X275203Y2379424D01*
X277825Y2380938D01*
X279966Y2383079D01*
X281480Y2385701D01*
X282264Y2388626D01*
Y2391654D01*
X281480Y2394579D01*
X279966Y2397201D01*
X277825Y2399342D01*
X275203Y2400856D01*
X272278Y2401640D01*
D02*
G37*
G36*
X246878D02*
X243850D01*
X240925Y2400856D01*
X238303Y2399342D01*
X236162Y2397201D01*
X234648Y2394579D01*
X233864Y2391654D01*
Y2388626D01*
X234648Y2385701D01*
X236162Y2383079D01*
X238303Y2380938D01*
X240925Y2379424D01*
X243850Y2378640D01*
X246878D01*
X249803Y2379424D01*
X252425Y2380938D01*
X254566Y2383079D01*
X256080Y2385701D01*
X256864Y2388626D01*
Y2391654D01*
X256080Y2394579D01*
X254566Y2397201D01*
X252425Y2399342D01*
X249803Y2400856D01*
X246878Y2401640D01*
D02*
G37*
G36*
X196078D02*
X193050D01*
X190125Y2400856D01*
X187503Y2399342D01*
X185362Y2397201D01*
X183848Y2394579D01*
X183064Y2391654D01*
Y2388626D01*
X183848Y2385701D01*
X185362Y2383079D01*
X187503Y2380938D01*
X190125Y2379424D01*
X193050Y2378640D01*
X196078D01*
X199003Y2379424D01*
X201625Y2380938D01*
X203766Y2383079D01*
X205280Y2385701D01*
X206064Y2388626D01*
Y2391654D01*
X205280Y2394579D01*
X203766Y2397201D01*
X201625Y2399342D01*
X199003Y2400856D01*
X196078Y2401640D01*
D02*
G37*
G36*
X274264Y2248708D02*
Y2241240D01*
X281732D01*
X281480Y2242179D01*
X279966Y2244801D01*
X277825Y2246942D01*
X275203Y2248456D01*
X274264Y2248708D01*
D02*
G37*
G36*
X267264D02*
X266325Y2248456D01*
X263703Y2246942D01*
X261562Y2244801D01*
X260048Y2242179D01*
X259796Y2241240D01*
X267264D01*
Y2248708D01*
D02*
G37*
G36*
X281732Y2234240D02*
X274264D01*
Y2226772D01*
X275203Y2227024D01*
X277825Y2228538D01*
X279966Y2230679D01*
X281480Y2233301D01*
X281732Y2234240D01*
D02*
G37*
G36*
X267264D02*
X259796D01*
X260048Y2233301D01*
X261562Y2230679D01*
X263703Y2228538D01*
X266325Y2227024D01*
X267264Y2226772D01*
Y2234240D01*
D02*
G37*
G36*
X551678Y2249240D02*
X548650D01*
X545725Y2248456D01*
X543103Y2246942D01*
X540962Y2244801D01*
X539448Y2242179D01*
X538664Y2239254D01*
Y2236226D01*
X539448Y2233301D01*
X540962Y2230679D01*
X543103Y2228538D01*
X545725Y2227024D01*
X548650Y2226240D01*
X551678D01*
X554603Y2227024D01*
X557225Y2228538D01*
X559366Y2230679D01*
X560880Y2233301D01*
X561664Y2236226D01*
Y2239254D01*
X560880Y2242179D01*
X559366Y2244801D01*
X557225Y2246942D01*
X554603Y2248456D01*
X551678Y2249240D01*
D02*
G37*
G36*
X526278D02*
X523250D01*
X520325Y2248456D01*
X517703Y2246942D01*
X515562Y2244801D01*
X514048Y2242179D01*
X513264Y2239254D01*
Y2236226D01*
X514048Y2233301D01*
X515562Y2230679D01*
X517703Y2228538D01*
X520325Y2227024D01*
X523250Y2226240D01*
X526278D01*
X529203Y2227024D01*
X531825Y2228538D01*
X533966Y2230679D01*
X535480Y2233301D01*
X536264Y2236226D01*
Y2239254D01*
X535480Y2242179D01*
X533966Y2244801D01*
X531825Y2246942D01*
X529203Y2248456D01*
X526278Y2249240D01*
D02*
G37*
G36*
X424678D02*
X421650D01*
X418725Y2248456D01*
X416103Y2246942D01*
X413962Y2244801D01*
X412448Y2242179D01*
X411664Y2239254D01*
Y2236226D01*
X412448Y2233301D01*
X413962Y2230679D01*
X416103Y2228538D01*
X418725Y2227024D01*
X421650Y2226240D01*
X424678D01*
X427603Y2227024D01*
X430225Y2228538D01*
X432366Y2230679D01*
X433880Y2233301D01*
X434664Y2236226D01*
Y2239254D01*
X433880Y2242179D01*
X432366Y2244801D01*
X430225Y2246942D01*
X427603Y2248456D01*
X424678Y2249240D01*
D02*
G37*
G36*
X399278D02*
X396250D01*
X393325Y2248456D01*
X390703Y2246942D01*
X388562Y2244801D01*
X387048Y2242179D01*
X386264Y2239254D01*
Y2236226D01*
X387048Y2233301D01*
X388562Y2230679D01*
X390703Y2228538D01*
X393325Y2227024D01*
X396250Y2226240D01*
X399278D01*
X402203Y2227024D01*
X404825Y2228538D01*
X406966Y2230679D01*
X408480Y2233301D01*
X409264Y2236226D01*
Y2239254D01*
X408480Y2242179D01*
X406966Y2244801D01*
X404825Y2246942D01*
X402203Y2248456D01*
X399278Y2249240D01*
D02*
G37*
G36*
X373878D02*
X370850D01*
X367925Y2248456D01*
X365303Y2246942D01*
X363162Y2244801D01*
X361648Y2242179D01*
X360864Y2239254D01*
Y2236226D01*
X361648Y2233301D01*
X363162Y2230679D01*
X365303Y2228538D01*
X367925Y2227024D01*
X370850Y2226240D01*
X373878D01*
X376803Y2227024D01*
X379425Y2228538D01*
X381566Y2230679D01*
X383080Y2233301D01*
X383864Y2236226D01*
Y2239254D01*
X383080Y2242179D01*
X381566Y2244801D01*
X379425Y2246942D01*
X376803Y2248456D01*
X373878Y2249240D01*
D02*
G37*
G36*
X348478D02*
X345450D01*
X342525Y2248456D01*
X339903Y2246942D01*
X337762Y2244801D01*
X336248Y2242179D01*
X335464Y2239254D01*
Y2236226D01*
X336248Y2233301D01*
X337762Y2230679D01*
X339903Y2228538D01*
X342525Y2227024D01*
X345450Y2226240D01*
X348478D01*
X351403Y2227024D01*
X354025Y2228538D01*
X356166Y2230679D01*
X357680Y2233301D01*
X358464Y2236226D01*
Y2239254D01*
X357680Y2242179D01*
X356166Y2244801D01*
X354025Y2246942D01*
X351403Y2248456D01*
X348478Y2249240D01*
D02*
G37*
G36*
X323078D02*
X320050D01*
X317125Y2248456D01*
X314503Y2246942D01*
X312362Y2244801D01*
X310848Y2242179D01*
X310064Y2239254D01*
Y2236226D01*
X310848Y2233301D01*
X312362Y2230679D01*
X314503Y2228538D01*
X317125Y2227024D01*
X320050Y2226240D01*
X323078D01*
X326003Y2227024D01*
X328625Y2228538D01*
X330766Y2230679D01*
X332280Y2233301D01*
X333064Y2236226D01*
Y2239254D01*
X332280Y2242179D01*
X330766Y2244801D01*
X328625Y2246942D01*
X326003Y2248456D01*
X323078Y2249240D01*
D02*
G37*
G36*
X297678D02*
X294650D01*
X291725Y2248456D01*
X289103Y2246942D01*
X286962Y2244801D01*
X285448Y2242179D01*
X284664Y2239254D01*
Y2236226D01*
X285448Y2233301D01*
X286962Y2230679D01*
X289103Y2228538D01*
X291725Y2227024D01*
X294650Y2226240D01*
X297678D01*
X300603Y2227024D01*
X303225Y2228538D01*
X305366Y2230679D01*
X306880Y2233301D01*
X307664Y2236226D01*
Y2239254D01*
X306880Y2242179D01*
X305366Y2244801D01*
X303225Y2246942D01*
X300603Y2248456D01*
X297678Y2249240D01*
D02*
G37*
G36*
X246878D02*
X243850D01*
X240925Y2248456D01*
X238303Y2246942D01*
X236162Y2244801D01*
X234648Y2242179D01*
X233864Y2239254D01*
Y2236226D01*
X234648Y2233301D01*
X236162Y2230679D01*
X238303Y2228538D01*
X240925Y2227024D01*
X243850Y2226240D01*
X246878D01*
X249803Y2227024D01*
X252425Y2228538D01*
X254566Y2230679D01*
X256080Y2233301D01*
X256864Y2236226D01*
Y2239254D01*
X256080Y2242179D01*
X254566Y2244801D01*
X252425Y2246942D01*
X249803Y2248456D01*
X246878Y2249240D01*
D02*
G37*
G36*
X475478D02*
X472450D01*
X469525Y2248456D01*
X466903Y2246942D01*
X464762Y2244801D01*
X463248Y2242179D01*
X462464Y2239254D01*
Y2236226D01*
X463248Y2233301D01*
X464514Y2231107D01*
X460560Y2227153D01*
X459565Y2225664D01*
X459216Y2223909D01*
Y2183929D01*
X458786Y2183814D01*
X455822Y2182103D01*
X453401Y2179682D01*
X452253Y2177694D01*
X449955D01*
X448807Y2179682D01*
X446386Y2182103D01*
X443422Y2183814D01*
X441722Y2184270D01*
Y2220600D01*
X447363Y2226240D01*
X450078D01*
X453003Y2227024D01*
X455625Y2228538D01*
X457766Y2230679D01*
X459280Y2233301D01*
X460064Y2236226D01*
Y2239254D01*
X459280Y2242179D01*
X457766Y2244801D01*
X455625Y2246942D01*
X453003Y2248456D01*
X450078Y2249240D01*
X447050D01*
X444125Y2248456D01*
X441503Y2246942D01*
X439362Y2244801D01*
X437848Y2242179D01*
X437064Y2239254D01*
Y2236226D01*
X437848Y2233301D01*
X439165Y2231020D01*
X433890Y2225744D01*
X432895Y2224256D01*
X432546Y2222500D01*
Y2183329D01*
X430422Y2182103D01*
X428001Y2179682D01*
X426853Y2177694D01*
X424555D01*
X423407Y2179682D01*
X420986Y2182103D01*
X418022Y2183814D01*
X416504Y2184221D01*
Y2171700D01*
Y2159179D01*
X418022Y2159586D01*
X420986Y2161297D01*
X423407Y2163718D01*
X424555Y2165706D01*
X426853D01*
X428001Y2163718D01*
X430422Y2161297D01*
X433386Y2159586D01*
X436693Y2158700D01*
X440116D01*
X443422Y2159586D01*
X446386Y2161297D01*
X448807Y2163718D01*
X449955Y2165706D01*
X452253D01*
X453401Y2163718D01*
X455822Y2161297D01*
X458786Y2159586D01*
X462093Y2158700D01*
X465516D01*
X468822Y2159586D01*
X471786Y2161297D01*
X474207Y2163718D01*
X475918Y2166682D01*
X476804Y2169989D01*
Y2173412D01*
X475918Y2176718D01*
X474207Y2179682D01*
X471786Y2182103D01*
X468822Y2183814D01*
X468392Y2183929D01*
Y2222008D01*
X472624Y2226240D01*
X475478D01*
X478403Y2227024D01*
X481025Y2228538D01*
X483166Y2230679D01*
X484680Y2233301D01*
X485464Y2236226D01*
Y2239254D01*
X484680Y2242179D01*
X483166Y2244801D01*
X481025Y2246942D01*
X478403Y2248456D01*
X475478Y2249240D01*
D02*
G37*
G36*
X500878D02*
X497850D01*
X494925Y2248456D01*
X492303Y2246942D01*
X490162Y2244801D01*
X488648Y2242179D01*
X487864Y2239254D01*
Y2236226D01*
X488648Y2233301D01*
X490162Y2230679D01*
X492303Y2228538D01*
X494925Y2227024D01*
X495286Y2226927D01*
Y2192020D01*
X495286Y2192020D01*
X495596Y2190459D01*
X496480Y2189136D01*
X516800Y2168816D01*
X516800Y2168816D01*
X518123Y2167932D01*
X519684Y2167622D01*
X519684Y2167622D01*
X534102D01*
X535062Y2165959D01*
X536803Y2164218D01*
X538935Y2162987D01*
X541313Y2162350D01*
X543775D01*
X546153Y2162987D01*
X548285Y2164218D01*
X550026Y2165959D01*
X551257Y2168091D01*
X551894Y2170469D01*
Y2172931D01*
X551257Y2175309D01*
X550026Y2177441D01*
X548285Y2179182D01*
X546153Y2180413D01*
X543775Y2181050D01*
X541313D01*
X538935Y2180413D01*
X536803Y2179182D01*
X535062Y2177441D01*
X534102Y2175778D01*
X521373D01*
X503442Y2193709D01*
Y2226927D01*
X503803Y2227024D01*
X506425Y2228538D01*
X508566Y2230679D01*
X510080Y2233301D01*
X510864Y2236226D01*
Y2239254D01*
X510080Y2242179D01*
X508566Y2244801D01*
X506425Y2246942D01*
X503803Y2248456D01*
X500878Y2249240D01*
D02*
G37*
G36*
X311313Y2203962D02*
X308851D01*
X306473Y2203325D01*
X304341Y2202094D01*
X302600Y2200353D01*
X301369Y2198221D01*
X300732Y2195843D01*
Y2193381D01*
X301369Y2191003D01*
X302600Y2188871D01*
X304341Y2187130D01*
X306473Y2185899D01*
X308851Y2185262D01*
X311313D01*
X311896Y2184815D01*
Y2164238D01*
X312245Y2162482D01*
X313240Y2160994D01*
X323558Y2150676D01*
X325046Y2149681D01*
X326802Y2149332D01*
X344424D01*
X346180Y2149681D01*
X347668Y2150676D01*
X356801Y2159808D01*
X357186Y2159586D01*
X360493Y2158700D01*
X363915D01*
X367222Y2159586D01*
X370186Y2161297D01*
X372607Y2163718D01*
X373755Y2165706D01*
X376053D01*
X377201Y2163718D01*
X379622Y2161297D01*
X382586Y2159586D01*
X385892Y2158700D01*
X389315D01*
X392622Y2159586D01*
X395586Y2161297D01*
X398007Y2163718D01*
X399155Y2165706D01*
X401453D01*
X402601Y2163718D01*
X405022Y2161297D01*
X407986Y2159586D01*
X409504Y2159179D01*
Y2171700D01*
Y2184221D01*
X407986Y2183814D01*
X405022Y2182103D01*
X402601Y2179682D01*
X401453Y2177694D01*
X399155D01*
X398007Y2179682D01*
X395586Y2182103D01*
X392622Y2183814D01*
X389315Y2184700D01*
X385892D01*
X382586Y2183814D01*
X379622Y2182103D01*
X377201Y2179682D01*
X376053Y2177694D01*
X373755D01*
X372607Y2179682D01*
X370186Y2182103D01*
X367222Y2183814D01*
X363915Y2184700D01*
X360493D01*
X357186Y2183814D01*
X354222Y2182103D01*
X351801Y2179682D01*
X350653Y2177694D01*
X348355D01*
X347207Y2179682D01*
X344786Y2182103D01*
X341822Y2183814D01*
X338516Y2184700D01*
X335093D01*
X331786Y2183814D01*
X328822Y2182103D01*
X326401Y2179682D01*
X324690Y2176718D01*
X323804Y2173412D01*
Y2169989D01*
X324690Y2166682D01*
X326401Y2163718D01*
X328480Y2161639D01*
X328351Y2160203D01*
X328027Y2159447D01*
X327819Y2159392D01*
X321072Y2166139D01*
Y2188155D01*
X320723Y2189911D01*
X319728Y2191400D01*
X319076Y2192052D01*
X319432Y2193381D01*
Y2195843D01*
X318795Y2198221D01*
X317564Y2200353D01*
X315823Y2202094D01*
X313691Y2203325D01*
X311313Y2203962D01*
D02*
G37*
G36*
X274535Y2200100D02*
X272073D01*
X269695Y2199463D01*
X267563Y2198232D01*
X265822Y2196491D01*
X264591Y2194359D01*
X263954Y2191981D01*
Y2189519D01*
X264591Y2187141D01*
X265822Y2185009D01*
X267563Y2183268D01*
X269695Y2182037D01*
X272073Y2181400D01*
X274535D01*
X276913Y2182037D01*
X277645Y2182460D01*
X295386Y2164720D01*
Y2127250D01*
X295735Y2125494D01*
X296730Y2124006D01*
X302399Y2118337D01*
X302054Y2117051D01*
Y2114589D01*
X302691Y2112211D01*
X303922Y2110079D01*
X305663Y2108338D01*
X307795Y2107107D01*
X310173Y2106470D01*
X312635D01*
X315013Y2107107D01*
X317145Y2108338D01*
X318886Y2110079D01*
X320117Y2112211D01*
X320754Y2114589D01*
Y2117051D01*
X320117Y2119429D01*
X318886Y2121561D01*
X317145Y2123302D01*
X315013Y2124533D01*
X312635Y2125170D01*
X310173D01*
X308887Y2124825D01*
X304562Y2129151D01*
Y2166620D01*
X304213Y2168376D01*
X303218Y2169864D01*
X282654Y2190429D01*
Y2191981D01*
X282017Y2194359D01*
X280786Y2196491D01*
X279045Y2198232D01*
X276913Y2199463D01*
X274535Y2200100D01*
D02*
G37*
G36*
X282155Y2167380D02*
X279693D01*
X277315Y2166743D01*
X275183Y2165512D01*
X273442Y2163771D01*
X272211Y2161639D01*
X271574Y2159261D01*
Y2156799D01*
X272211Y2154421D01*
X273442Y2152289D01*
X275183Y2150548D01*
X276336Y2149883D01*
Y2123967D01*
X275183Y2123302D01*
X273442Y2121561D01*
X272211Y2119429D01*
X271574Y2117051D01*
Y2114589D01*
X272211Y2112211D01*
X273442Y2110079D01*
X275183Y2108338D01*
X277315Y2107107D01*
X279693Y2106470D01*
X282155D01*
X284533Y2107107D01*
X286665Y2108338D01*
X288406Y2110079D01*
X289637Y2112211D01*
X290274Y2114589D01*
Y2117051D01*
X289637Y2119429D01*
X288406Y2121561D01*
X286665Y2123302D01*
X285512Y2123967D01*
Y2149883D01*
X286665Y2150548D01*
X288406Y2152289D01*
X289637Y2154421D01*
X290274Y2156799D01*
Y2159261D01*
X289637Y2161639D01*
X288406Y2163771D01*
X286665Y2165512D01*
X284533Y2166743D01*
X282155Y2167380D01*
D02*
G37*
G36*
X465516Y2083100D02*
X462093D01*
X458786Y2082214D01*
X455822Y2080502D01*
X453401Y2078082D01*
X452253Y2076094D01*
X449955D01*
X448807Y2078082D01*
X446386Y2080502D01*
X443422Y2082214D01*
X440116Y2083100D01*
X436693D01*
X433386Y2082214D01*
X430422Y2080502D01*
X428001Y2078082D01*
X426853Y2076094D01*
X424555D01*
X423407Y2078082D01*
X420986Y2080502D01*
X418022Y2082214D01*
X416504Y2082621D01*
Y2070100D01*
Y2057579D01*
X418022Y2057986D01*
X420986Y2059697D01*
X423407Y2062118D01*
X424555Y2064106D01*
X426853D01*
X428001Y2062118D01*
X430422Y2059697D01*
X433386Y2057986D01*
X436693Y2057100D01*
X440116D01*
X443422Y2057986D01*
X446386Y2059697D01*
X448807Y2062118D01*
X449924Y2064053D01*
X451810Y2064045D01*
X452756Y2062315D01*
X445223Y2054781D01*
X404114D01*
X402200Y2054400D01*
X400578Y2053316D01*
X389412Y2042151D01*
X389118Y2042230D01*
X386090D01*
X383165Y2041446D01*
X380543Y2039932D01*
X378402Y2037791D01*
X376888Y2035169D01*
X376104Y2032244D01*
Y2029216D01*
X376888Y2026291D01*
X378402Y2023669D01*
X380543Y2021528D01*
X383165Y2020014D01*
X386090Y2019230D01*
X389118D01*
X392043Y2020014D01*
X394665Y2021528D01*
X396806Y2023669D01*
X398320Y2026291D01*
X399104Y2029216D01*
Y2032244D01*
X398320Y2035169D01*
X397682Y2036275D01*
X406185Y2044779D01*
X447294D01*
X449208Y2045160D01*
X450830Y2046244D01*
X461772Y2057186D01*
X462093Y2057100D01*
X465516D01*
X468822Y2057986D01*
X471786Y2059697D01*
X474207Y2062118D01*
X475918Y2065082D01*
X476804Y2068389D01*
Y2071812D01*
X475918Y2075118D01*
X474207Y2078082D01*
X471786Y2080502D01*
X468822Y2082214D01*
X465516Y2083100D01*
D02*
G37*
G36*
X568194Y2061703D02*
X564110Y2060891D01*
X559378Y2058931D01*
X555120Y2056086D01*
X551498Y2052464D01*
X548653Y2048206D01*
X546693Y2043474D01*
X545881Y2039390D01*
X568194D01*
Y2061703D01*
D02*
G37*
G36*
X80014D02*
Y2039390D01*
X102327D01*
X101515Y2043474D01*
X99555Y2048206D01*
X96709Y2052464D01*
X93088Y2056086D01*
X88830Y2058931D01*
X84098Y2060891D01*
X80014Y2061703D01*
D02*
G37*
G36*
X467304Y2041698D02*
Y2034230D01*
X474772D01*
X474520Y2035169D01*
X473006Y2037791D01*
X470865Y2039932D01*
X468243Y2041446D01*
X467304Y2041698D01*
D02*
G37*
G36*
X460304D02*
X459365Y2041446D01*
X456743Y2039932D01*
X454602Y2037791D01*
X453088Y2035169D01*
X452836Y2034230D01*
X460304D01*
Y2041698D01*
D02*
G37*
G36*
X474772Y2027230D02*
X467304D01*
Y2019762D01*
X468243Y2020014D01*
X470865Y2021528D01*
X473006Y2023669D01*
X474520Y2026291D01*
X474772Y2027230D01*
D02*
G37*
G36*
X460304D02*
X452836D01*
X453088Y2026291D01*
X454602Y2023669D01*
X456743Y2021528D01*
X459365Y2020014D01*
X460304Y2019762D01*
Y2027230D01*
D02*
G37*
G36*
X500704Y2042230D02*
X477704D01*
Y2019230D01*
X500704D01*
Y2042230D01*
D02*
G37*
G36*
X439918D02*
X436890D01*
X433965Y2041446D01*
X431343Y2039932D01*
X429202Y2037791D01*
X427688Y2035169D01*
X426904Y2032244D01*
Y2029216D01*
X427688Y2026291D01*
X429202Y2023669D01*
X431343Y2021528D01*
X433965Y2020014D01*
X436890Y2019230D01*
X439918D01*
X442843Y2020014D01*
X445465Y2021528D01*
X447606Y2023669D01*
X449120Y2026291D01*
X449904Y2029216D01*
Y2032244D01*
X449120Y2035169D01*
X447606Y2037791D01*
X445465Y2039932D01*
X442843Y2041446D01*
X439918Y2042230D01*
D02*
G37*
G36*
X414518D02*
X411490D01*
X408565Y2041446D01*
X405943Y2039932D01*
X403802Y2037791D01*
X402288Y2035169D01*
X401504Y2032244D01*
Y2029216D01*
X402288Y2026291D01*
X403802Y2023669D01*
X405943Y2021528D01*
X408565Y2020014D01*
X411490Y2019230D01*
X414518D01*
X417443Y2020014D01*
X420065Y2021528D01*
X422206Y2023669D01*
X423720Y2026291D01*
X424504Y2029216D01*
Y2032244D01*
X423720Y2035169D01*
X422206Y2037791D01*
X420065Y2039932D01*
X417443Y2041446D01*
X414518Y2042230D01*
D02*
G37*
G36*
X363718D02*
X360690D01*
X357765Y2041446D01*
X355143Y2039932D01*
X353002Y2037791D01*
X351488Y2035169D01*
X350704Y2032244D01*
Y2029216D01*
X351488Y2026291D01*
X353002Y2023669D01*
X355143Y2021528D01*
X357765Y2020014D01*
X360690Y2019230D01*
X363718D01*
X366643Y2020014D01*
X369265Y2021528D01*
X371406Y2023669D01*
X372920Y2026291D01*
X373704Y2029216D01*
Y2032244D01*
X372920Y2035169D01*
X371406Y2037791D01*
X369265Y2039932D01*
X366643Y2041446D01*
X363718Y2042230D01*
D02*
G37*
G36*
X338318D02*
X335290D01*
X332365Y2041446D01*
X329743Y2039932D01*
X327602Y2037791D01*
X326088Y2035169D01*
X325304Y2032244D01*
Y2029216D01*
X326088Y2026291D01*
X327602Y2023669D01*
X329743Y2021528D01*
X332365Y2020014D01*
X335290Y2019230D01*
X338318D01*
X341243Y2020014D01*
X343865Y2021528D01*
X346006Y2023669D01*
X347520Y2026291D01*
X348304Y2029216D01*
Y2032244D01*
X347520Y2035169D01*
X346006Y2037791D01*
X343865Y2039932D01*
X341243Y2041446D01*
X338318Y2042230D01*
D02*
G37*
G36*
X312918D02*
X309890D01*
X306965Y2041446D01*
X304343Y2039932D01*
X302202Y2037791D01*
X300688Y2035169D01*
X299904Y2032244D01*
Y2029216D01*
X300688Y2026291D01*
X302202Y2023669D01*
X304343Y2021528D01*
X306965Y2020014D01*
X309890Y2019230D01*
X312918D01*
X315843Y2020014D01*
X318465Y2021528D01*
X320606Y2023669D01*
X322120Y2026291D01*
X322904Y2029216D01*
Y2032244D01*
X322120Y2035169D01*
X320606Y2037791D01*
X318465Y2039932D01*
X315843Y2041446D01*
X312918Y2042230D01*
D02*
G37*
G36*
X287518D02*
X284490D01*
X281565Y2041446D01*
X278943Y2039932D01*
X276802Y2037791D01*
X275288Y2035169D01*
X274504Y2032244D01*
Y2029216D01*
X275288Y2026291D01*
X276802Y2023669D01*
X278943Y2021528D01*
X281565Y2020014D01*
X284490Y2019230D01*
X287518D01*
X290443Y2020014D01*
X293065Y2021528D01*
X295206Y2023669D01*
X296720Y2026291D01*
X297504Y2029216D01*
Y2032244D01*
X296720Y2035169D01*
X295206Y2037791D01*
X293065Y2039932D01*
X290443Y2041446D01*
X287518Y2042230D01*
D02*
G37*
G36*
X262118D02*
X259090D01*
X256165Y2041446D01*
X253543Y2039932D01*
X251402Y2037791D01*
X249888Y2035169D01*
X249104Y2032244D01*
Y2029216D01*
X249888Y2026291D01*
X251402Y2023669D01*
X253543Y2021528D01*
X256165Y2020014D01*
X259090Y2019230D01*
X262118D01*
X265043Y2020014D01*
X267665Y2021528D01*
X269806Y2023669D01*
X271320Y2026291D01*
X272104Y2029216D01*
Y2032244D01*
X271320Y2035169D01*
X269806Y2037791D01*
X267665Y2039932D01*
X265043Y2041446D01*
X262118Y2042230D01*
D02*
G37*
G36*
X236718D02*
X233690D01*
X230765Y2041446D01*
X228143Y2039932D01*
X226002Y2037791D01*
X224488Y2035169D01*
X223704Y2032244D01*
Y2029216D01*
X224488Y2026291D01*
X226002Y2023669D01*
X228143Y2021528D01*
X230765Y2020014D01*
X233690Y2019230D01*
X236718D01*
X239643Y2020014D01*
X242265Y2021528D01*
X244406Y2023669D01*
X245920Y2026291D01*
X246704Y2029216D01*
Y2032244D01*
X245920Y2035169D01*
X244406Y2037791D01*
X242265Y2039932D01*
X239643Y2041446D01*
X236718Y2042230D01*
D02*
G37*
G36*
X211318D02*
X208290D01*
X205365Y2041446D01*
X202743Y2039932D01*
X200602Y2037791D01*
X199088Y2035169D01*
X198304Y2032244D01*
Y2029216D01*
X199088Y2026291D01*
X200602Y2023669D01*
X202743Y2021528D01*
X205365Y2020014D01*
X208290Y2019230D01*
X211318D01*
X214243Y2020014D01*
X216865Y2021528D01*
X219006Y2023669D01*
X220520Y2026291D01*
X221304Y2029216D01*
Y2032244D01*
X220520Y2035169D01*
X219006Y2037791D01*
X216865Y2039932D01*
X214243Y2041446D01*
X211318Y2042230D01*
D02*
G37*
G36*
X185918D02*
X182890D01*
X179965Y2041446D01*
X177343Y2039932D01*
X175202Y2037791D01*
X173688Y2035169D01*
X172904Y2032244D01*
Y2029216D01*
X173688Y2026291D01*
X175202Y2023669D01*
X177343Y2021528D01*
X179965Y2020014D01*
X182890Y2019230D01*
X185918D01*
X188843Y2020014D01*
X191465Y2021528D01*
X193606Y2023669D01*
X195120Y2026291D01*
X195904Y2029216D01*
Y2032244D01*
X195120Y2035169D01*
X193606Y2037791D01*
X191465Y2039932D01*
X188843Y2041446D01*
X185918Y2042230D01*
D02*
G37*
G36*
X160518D02*
X157490D01*
X154565Y2041446D01*
X151943Y2039932D01*
X149802Y2037791D01*
X148288Y2035169D01*
X147504Y2032244D01*
Y2029216D01*
X148288Y2026291D01*
X149802Y2023669D01*
X151943Y2021528D01*
X154565Y2020014D01*
X157490Y2019230D01*
X160518D01*
X163443Y2020014D01*
X166065Y2021528D01*
X168206Y2023669D01*
X169720Y2026291D01*
X170504Y2029216D01*
Y2032244D01*
X169720Y2035169D01*
X168206Y2037791D01*
X166065Y2039932D01*
X163443Y2041446D01*
X160518Y2042230D01*
D02*
G37*
G36*
X817570Y2986892D02*
Y2981650D01*
X822812D01*
X822783Y2981759D01*
X821552Y2983891D01*
X819811Y2985632D01*
X817679Y2986863D01*
X817570Y2986892D01*
D02*
G37*
G36*
X810570D02*
X810461Y2986863D01*
X808329Y2985632D01*
X806588Y2983891D01*
X805357Y2981759D01*
X805328Y2981650D01*
X810570D01*
Y2986892D01*
D02*
G37*
G36*
X937700Y2989763D02*
X933700D01*
Y2981160D01*
X949239D01*
X948182Y2983712D01*
X946258Y2986219D01*
X943752Y2988142D01*
X940833Y2989351D01*
X937700Y2989763D01*
D02*
G37*
G36*
X926700D02*
X922700D01*
X919567Y2989351D01*
X916648Y2988142D01*
X914141Y2986219D01*
X912218Y2983712D01*
X911161Y2981160D01*
X926700D01*
Y2989763D01*
D02*
G37*
G36*
X822812Y2974650D02*
X817570D01*
Y2969408D01*
X817679Y2969437D01*
X819811Y2970668D01*
X821552Y2972409D01*
X822783Y2974541D01*
X822812Y2974650D01*
D02*
G37*
G36*
X810570D02*
X805328D01*
X805357Y2974541D01*
X806588Y2972409D01*
X808329Y2970668D01*
X810461Y2969437D01*
X810570Y2969408D01*
Y2974650D01*
D02*
G37*
G36*
X949239Y2974160D02*
X933700D01*
Y2965557D01*
X937700D01*
X940833Y2965969D01*
X943752Y2967178D01*
X946258Y2969102D01*
X948182Y2971608D01*
X949239Y2974160D01*
D02*
G37*
G36*
X926700D02*
X911161D01*
X912218Y2971608D01*
X914141Y2969102D01*
X916648Y2967178D01*
X919567Y2965969D01*
X922700Y2965557D01*
X926700D01*
Y2974160D01*
D02*
G37*
G36*
X688640Y2962410D02*
X679140D01*
Y2952910D01*
X688640D01*
Y2962410D01*
D02*
G37*
G36*
X672140D02*
X662640D01*
Y2952910D01*
X672140D01*
Y2962410D01*
D02*
G37*
G36*
X802352D02*
X798929D01*
X795622Y2961524D01*
X792658Y2959813D01*
X790237Y2957392D01*
X788526Y2954428D01*
X787640Y2951122D01*
Y2947698D01*
X788526Y2944392D01*
X790237Y2941428D01*
X792658Y2939007D01*
X795622Y2937296D01*
X798929Y2936410D01*
X802352D01*
X805658Y2937296D01*
X808622Y2939007D01*
X811043Y2941428D01*
X812754Y2944392D01*
X813640Y2947698D01*
Y2951122D01*
X812754Y2954428D01*
X811043Y2957392D01*
X808622Y2959813D01*
X805658Y2961524D01*
X802352Y2962410D01*
D02*
G37*
G36*
X688640Y2945910D02*
X679140D01*
Y2936410D01*
X688640D01*
Y2945910D01*
D02*
G37*
G36*
X672140D02*
X662640D01*
Y2936410D01*
X672140D01*
Y2945910D01*
D02*
G37*
G36*
X968700Y2952781D02*
Y2934660D01*
X978312D01*
Y2940160D01*
X977865Y2943554D01*
X976555Y2946716D01*
X974472Y2949432D01*
X971756Y2951516D01*
X968700Y2952781D01*
D02*
G37*
G36*
X961700D02*
X958644Y2951516D01*
X955928Y2949432D01*
X953845Y2946716D01*
X952535Y2943554D01*
X952088Y2940160D01*
Y2934660D01*
X961700D01*
Y2952781D01*
D02*
G37*
G36*
X978312Y2927660D02*
X968700D01*
Y2909539D01*
X971756Y2910804D01*
X974472Y2912888D01*
X976555Y2915604D01*
X977865Y2918766D01*
X978312Y2922160D01*
Y2927660D01*
D02*
G37*
G36*
X961700D02*
X952088D01*
Y2922160D01*
X952535Y2918766D01*
X953845Y2915604D01*
X955928Y2912888D01*
X958644Y2910804D01*
X961700Y2909539D01*
Y2927660D01*
D02*
G37*
G36*
X905200Y2953272D02*
X901806Y2952825D01*
X898644Y2951516D01*
X895928Y2949432D01*
X893845Y2946716D01*
X892535Y2943554D01*
X892088Y2940160D01*
Y2922160D01*
X892535Y2918766D01*
X893845Y2915604D01*
X895928Y2912888D01*
X898644Y2910804D01*
X901806Y2909495D01*
X905200Y2909048D01*
X908594Y2909495D01*
X911756Y2910804D01*
X914472Y2912888D01*
X916555Y2915604D01*
X917865Y2918766D01*
X918312Y2922160D01*
Y2940160D01*
X917865Y2943554D01*
X916555Y2946716D01*
X914472Y2949432D01*
X911756Y2951516D01*
X908594Y2952825D01*
X905200Y2953272D01*
D02*
G37*
G36*
X802352Y2912410D02*
X798929D01*
X795622Y2911524D01*
X792658Y2909813D01*
X790237Y2907392D01*
X788526Y2904428D01*
X787640Y2901122D01*
Y2897698D01*
X788526Y2894392D01*
X790237Y2891428D01*
X792658Y2889007D01*
X795622Y2887296D01*
X798929Y2886410D01*
X802352D01*
X805658Y2887296D01*
X808622Y2889007D01*
X811043Y2891428D01*
X812754Y2894392D01*
X813640Y2897698D01*
Y2901122D01*
X812754Y2904428D01*
X811043Y2907392D01*
X808622Y2909813D01*
X805658Y2911524D01*
X802352Y2912410D01*
D02*
G37*
G36*
X677352D02*
X673929D01*
X670622Y2911524D01*
X667658Y2909813D01*
X665237Y2907392D01*
X663526Y2904428D01*
X662640Y2901122D01*
Y2897698D01*
X663526Y2894392D01*
X665237Y2891428D01*
X667658Y2889007D01*
X670622Y2887296D01*
X673929Y2886410D01*
X677352D01*
X680658Y2887296D01*
X683622Y2889007D01*
X686043Y2891428D01*
X687754Y2894392D01*
X688640Y2897698D01*
Y2901122D01*
X687754Y2904428D01*
X686043Y2907392D01*
X683622Y2909813D01*
X680658Y2911524D01*
X677352Y2912410D01*
D02*
G37*
G36*
X1020054Y2841060D02*
X1017026D01*
X1014101Y2840276D01*
X1011479Y2838762D01*
X1009338Y2836621D01*
X1007824Y2833999D01*
X1007040Y2831074D01*
Y2828046D01*
X1007824Y2825121D01*
X1009338Y2822499D01*
X1011479Y2820358D01*
X1014101Y2818844D01*
X1017026Y2818060D01*
X1020054D01*
X1022979Y2818844D01*
X1025601Y2820358D01*
X1027742Y2822499D01*
X1029256Y2825121D01*
X1030040Y2828046D01*
Y2831074D01*
X1029256Y2833999D01*
X1027742Y2836621D01*
X1025601Y2838762D01*
X1022979Y2840276D01*
X1020054Y2841060D01*
D02*
G37*
G36*
X867654D02*
X864626D01*
X861701Y2840276D01*
X859079Y2838762D01*
X856938Y2836621D01*
X855424Y2833999D01*
X854640Y2831074D01*
Y2828046D01*
X855424Y2825121D01*
X856938Y2822499D01*
X859079Y2820358D01*
X861701Y2818844D01*
X864626Y2818060D01*
X867654D01*
X870579Y2818844D01*
X873201Y2820358D01*
X875342Y2822499D01*
X876856Y2825121D01*
X877640Y2828046D01*
Y2831074D01*
X876856Y2833999D01*
X875342Y2836621D01*
X873201Y2838762D01*
X870579Y2840276D01*
X867654Y2841060D01*
D02*
G37*
G36*
X1022040Y2815128D02*
Y2807660D01*
X1029508D01*
X1029256Y2808599D01*
X1027742Y2811221D01*
X1025601Y2813362D01*
X1022979Y2814876D01*
X1022040Y2815128D01*
D02*
G37*
G36*
X1015040D02*
X1014101Y2814876D01*
X1011479Y2813362D01*
X1009338Y2811221D01*
X1007824Y2808599D01*
X1007572Y2807660D01*
X1015040D01*
Y2815128D01*
D02*
G37*
G36*
X766164Y2805064D02*
X762916D01*
X759779Y2804224D01*
X756966Y2802600D01*
X754670Y2800304D01*
X753046Y2797491D01*
X752875Y2796854D01*
X750805D01*
X750634Y2797491D01*
X749010Y2800304D01*
X746713Y2802600D01*
X743901Y2804224D01*
X740764Y2805064D01*
X737516D01*
X734379Y2804224D01*
X731566Y2802600D01*
X729270Y2800304D01*
X728074Y2798233D01*
X726075Y2798769D01*
Y2805064D01*
X717240D01*
Y2792730D01*
Y2780396D01*
X726075D01*
Y2786691D01*
X728074Y2787227D01*
X729270Y2785157D01*
X731566Y2782860D01*
X734379Y2781236D01*
X737516Y2780396D01*
X740764D01*
X743901Y2781236D01*
X746713Y2782860D01*
X749010Y2785157D01*
X750634Y2787969D01*
X750805Y2788607D01*
X752875D01*
X753046Y2787969D01*
X754670Y2785157D01*
X756966Y2782860D01*
X759779Y2781236D01*
X762916Y2780396D01*
X766164D01*
X769301Y2781236D01*
X772113Y2782860D01*
X774410Y2785157D01*
X776034Y2787969D01*
X776874Y2791106D01*
Y2794354D01*
X776034Y2797491D01*
X774410Y2800304D01*
X772113Y2802600D01*
X769301Y2804224D01*
X766164Y2805064D01*
D02*
G37*
G36*
X710240D02*
X701405D01*
Y2796230D01*
X710240D01*
Y2805064D01*
D02*
G37*
G36*
X1029508Y2800660D02*
X1022040D01*
Y2793192D01*
X1022979Y2793444D01*
X1025601Y2794958D01*
X1027742Y2797099D01*
X1029256Y2799721D01*
X1029508Y2800660D01*
D02*
G37*
G36*
X1015040D02*
X1007572D01*
X1007824Y2799721D01*
X1009338Y2797099D01*
X1011479Y2794958D01*
X1014101Y2793444D01*
X1015040Y2793192D01*
Y2800660D01*
D02*
G37*
G36*
X867654Y2815660D02*
X864626D01*
X861701Y2814876D01*
X859079Y2813362D01*
X856938Y2811221D01*
X855424Y2808599D01*
X854640Y2805674D01*
Y2802646D01*
X855424Y2799721D01*
X856938Y2797099D01*
X859079Y2794958D01*
X861701Y2793444D01*
X864626Y2792660D01*
X867654D01*
X870579Y2793444D01*
X873201Y2794958D01*
X875342Y2797099D01*
X876856Y2799721D01*
X877640Y2802646D01*
Y2805674D01*
X876856Y2808599D01*
X875342Y2811221D01*
X873201Y2813362D01*
X870579Y2814876D01*
X867654Y2815660D01*
D02*
G37*
G36*
X710240Y2789230D02*
X701405D01*
Y2780396D01*
X710240D01*
Y2789230D01*
D02*
G37*
G36*
X1020054Y2790260D02*
X1017026D01*
X1014101Y2789476D01*
X1011479Y2787962D01*
X1009338Y2785821D01*
X1007824Y2783199D01*
X1007040Y2780274D01*
Y2777246D01*
X1007824Y2774321D01*
X1009338Y2771699D01*
X1011479Y2769558D01*
X1014101Y2768044D01*
X1017026Y2767260D01*
X1020054D01*
X1022979Y2768044D01*
X1025601Y2769558D01*
X1027742Y2771699D01*
X1029256Y2774321D01*
X1030040Y2777246D01*
Y2780274D01*
X1029256Y2783199D01*
X1027742Y2785821D01*
X1025601Y2787962D01*
X1022979Y2789476D01*
X1020054Y2790260D01*
D02*
G37*
G36*
X867654D02*
X864626D01*
X861701Y2789476D01*
X859079Y2787962D01*
X856938Y2785821D01*
X855424Y2783199D01*
X854640Y2780274D01*
Y2777246D01*
X855424Y2774321D01*
X856938Y2771699D01*
X859079Y2769558D01*
X861701Y2768044D01*
X864626Y2767260D01*
X867654D01*
X870579Y2768044D01*
X873201Y2769558D01*
X875342Y2771699D01*
X876856Y2774321D01*
X877640Y2777246D01*
Y2780274D01*
X876856Y2783199D01*
X875342Y2785821D01*
X873201Y2787962D01*
X870579Y2789476D01*
X867654Y2790260D01*
D02*
G37*
G36*
X869640Y2764328D02*
Y2756860D01*
X877108D01*
X876856Y2757799D01*
X875342Y2760421D01*
X873201Y2762562D01*
X870579Y2764076D01*
X869640Y2764328D01*
D02*
G37*
G36*
X862640D02*
X861701Y2764076D01*
X859079Y2762562D01*
X856938Y2760421D01*
X855424Y2757799D01*
X855172Y2756860D01*
X862640D01*
Y2764328D01*
D02*
G37*
G36*
X684840Y2752400D02*
X679598D01*
X679627Y2752291D01*
X680858Y2750159D01*
X682599Y2748418D01*
X684731Y2747187D01*
X684840Y2747158D01*
Y2752400D01*
D02*
G37*
G36*
X877108Y2749860D02*
X869640D01*
Y2742392D01*
X870579Y2742644D01*
X873201Y2744158D01*
X875342Y2746299D01*
X876856Y2748921D01*
X877108Y2749860D01*
D02*
G37*
G36*
X862640D02*
X855172D01*
X855424Y2748921D01*
X856938Y2746299D01*
X859079Y2744158D01*
X861701Y2742644D01*
X862640Y2742392D01*
Y2749860D01*
D02*
G37*
G36*
X1020054Y2764860D02*
X1017026D01*
X1014101Y2764076D01*
X1011479Y2762562D01*
X1009338Y2760421D01*
X1007824Y2757799D01*
X1007040Y2754874D01*
Y2751846D01*
X1007824Y2748921D01*
X1009338Y2746299D01*
X1011479Y2744158D01*
X1014101Y2742644D01*
X1017026Y2741860D01*
X1020054D01*
X1022979Y2742644D01*
X1025601Y2744158D01*
X1027742Y2746299D01*
X1029256Y2748921D01*
X1030040Y2751846D01*
Y2754874D01*
X1029256Y2757799D01*
X1027742Y2760421D01*
X1025601Y2762562D01*
X1022979Y2764076D01*
X1020054Y2764860D01*
D02*
G37*
G36*
Y2739460D02*
X1017026D01*
X1014101Y2738676D01*
X1011479Y2737162D01*
X1009338Y2735021D01*
X1007824Y2732399D01*
X1007040Y2729474D01*
Y2726446D01*
X1007824Y2723521D01*
X1009338Y2720899D01*
X1011479Y2718758D01*
X1014101Y2717244D01*
X1017026Y2716460D01*
X1020054D01*
X1022979Y2717244D01*
X1025601Y2718758D01*
X1027742Y2720899D01*
X1029256Y2723521D01*
X1030040Y2726446D01*
Y2729474D01*
X1029256Y2732399D01*
X1027742Y2735021D01*
X1025601Y2737162D01*
X1022979Y2738676D01*
X1020054Y2739460D01*
D02*
G37*
G36*
X646391Y2843990D02*
X643929D01*
X641551Y2843353D01*
X639419Y2842122D01*
X637678Y2840381D01*
X636447Y2838249D01*
X635810Y2835871D01*
Y2833409D01*
X636447Y2831031D01*
X637678Y2828899D01*
X639419Y2827158D01*
X640572Y2826493D01*
Y2816860D01*
X640921Y2815104D01*
X641916Y2813616D01*
X688281Y2767250D01*
X687453Y2765250D01*
X687109D01*
X684731Y2764613D01*
X682599Y2763382D01*
X680858Y2761641D01*
X679627Y2759509D01*
X679598Y2759400D01*
X688340D01*
Y2755900D01*
X691840D01*
Y2747158D01*
X691949Y2747187D01*
X694081Y2748418D01*
X695822Y2750159D01*
X697053Y2752291D01*
X697690Y2754669D01*
Y2755013D01*
X699690Y2755841D01*
X730816Y2724716D01*
X732304Y2723721D01*
X734060Y2723372D01*
X855510D01*
X856938Y2720899D01*
X859079Y2718758D01*
X861701Y2717244D01*
X864626Y2716460D01*
X867654D01*
X870579Y2717244D01*
X873201Y2718758D01*
X875342Y2720899D01*
X876856Y2723521D01*
X877640Y2726446D01*
Y2729474D01*
X876856Y2732399D01*
X875342Y2735021D01*
X873201Y2737162D01*
X870579Y2738676D01*
X867654Y2739460D01*
X864626D01*
X861701Y2738676D01*
X859079Y2737162D01*
X856938Y2735021D01*
X855510Y2732548D01*
X735960D01*
X649748Y2818760D01*
Y2826493D01*
X650901Y2827158D01*
X652642Y2828899D01*
X653873Y2831031D01*
X654510Y2833409D01*
Y2835871D01*
X653873Y2838249D01*
X652642Y2840381D01*
X650901Y2842122D01*
X648769Y2843353D01*
X646391Y2843990D01*
D02*
G37*
G36*
X819933Y2714768D02*
X784860D01*
X783104Y2714419D01*
X781616Y2713424D01*
X772483Y2704292D01*
X772098Y2704514D01*
X768792Y2705400D01*
X765368D01*
X762062Y2704514D01*
X759098Y2702803D01*
X756677Y2700382D01*
X755529Y2698394D01*
X753231D01*
X752083Y2700382D01*
X749662Y2702803D01*
X746698Y2704514D01*
X743391Y2705400D01*
X739968D01*
X739188Y2705191D01*
X730954Y2713424D01*
X729466Y2714419D01*
X727710Y2714768D01*
X693420D01*
X691664Y2714419D01*
X690176Y2713424D01*
X672396Y2695644D01*
X671401Y2694156D01*
X671052Y2692400D01*
Y2570480D01*
X671401Y2568724D01*
X672396Y2567236D01*
X789236Y2450396D01*
X790724Y2449401D01*
X792480Y2449052D01*
X998220D01*
X999976Y2449401D01*
X1001464Y2450396D01*
X1013529Y2462460D01*
X1030040D01*
Y2485460D01*
X1007040D01*
Y2468949D01*
X996320Y2458228D01*
X794380D01*
X680228Y2572380D01*
Y2690500D01*
X695321Y2705592D01*
X709129D01*
X709665Y2703592D01*
X708298Y2702803D01*
X705877Y2700382D01*
X704166Y2697418D01*
X703280Y2694112D01*
Y2690688D01*
X704166Y2687382D01*
X705877Y2684418D01*
X708298Y2681997D01*
X710286Y2680849D01*
Y2678551D01*
X708298Y2677403D01*
X705877Y2674982D01*
X704166Y2672018D01*
X703280Y2668712D01*
Y2665288D01*
X704166Y2661982D01*
X705877Y2659018D01*
X708298Y2656597D01*
X711262Y2654886D01*
X714568Y2654000D01*
X717991D01*
X721298Y2654886D01*
X724262Y2656597D01*
X726683Y2659018D01*
X727831Y2661006D01*
X730129D01*
X731277Y2659018D01*
X733698Y2656597D01*
X736662Y2654886D01*
X739968Y2654000D01*
X743391D01*
X746698Y2654886D01*
X749662Y2656597D01*
X752083Y2659018D01*
X753231Y2661006D01*
X755529D01*
X756677Y2659018D01*
X759098Y2656597D01*
X762062Y2654886D01*
X765368Y2654000D01*
X768792D01*
X772098Y2654886D01*
X775062Y2656597D01*
X777483Y2659018D01*
X778631Y2661006D01*
X780929D01*
X782077Y2659018D01*
X784498Y2656597D01*
X787462Y2654886D01*
X790769Y2654000D01*
X794192D01*
X797498Y2654886D01*
X800462Y2656597D01*
X802883Y2659018D01*
X804594Y2661982D01*
X805480Y2665288D01*
Y2668712D01*
X804594Y2672018D01*
X802883Y2674982D01*
X800462Y2677403D01*
X798474Y2678551D01*
Y2680849D01*
X800462Y2681997D01*
X802883Y2684418D01*
X804594Y2687382D01*
X805001Y2688900D01*
X792480D01*
Y2695900D01*
X805001D01*
X804594Y2697418D01*
X802883Y2700382D01*
X800462Y2702803D01*
X799095Y2703592D01*
X799631Y2705592D01*
X818032D01*
X838379Y2685245D01*
Y2624133D01*
X838728Y2622377D01*
X839723Y2620889D01*
X855379Y2605232D01*
X854640Y2602474D01*
Y2599446D01*
X855424Y2596521D01*
X856938Y2593899D01*
X859079Y2591758D01*
X861701Y2590244D01*
X864626Y2589460D01*
X867654D01*
X870579Y2590244D01*
X873201Y2591758D01*
X875342Y2593899D01*
X876856Y2596521D01*
X877640Y2599446D01*
Y2602474D01*
X876856Y2605399D01*
X875342Y2608021D01*
X873201Y2610162D01*
X870579Y2611676D01*
X867654Y2612460D01*
X864626D01*
X861868Y2611721D01*
X858278Y2615311D01*
X859506Y2616911D01*
X861701Y2615644D01*
X864626Y2614860D01*
X867654D01*
X870579Y2615644D01*
X873201Y2617158D01*
X875342Y2619299D01*
X876856Y2621921D01*
X877640Y2624846D01*
Y2627874D01*
X876856Y2630799D01*
X875342Y2633421D01*
X873201Y2635562D01*
X870579Y2637076D01*
X867654Y2637860D01*
X864626D01*
X861701Y2637076D01*
X859079Y2635562D01*
X856938Y2633421D01*
X855424Y2630799D01*
X854640Y2627874D01*
Y2624846D01*
X855424Y2621921D01*
X856691Y2619726D01*
X855091Y2618498D01*
X847555Y2626034D01*
Y2687146D01*
X847206Y2688901D01*
X846211Y2690390D01*
X823177Y2713424D01*
X821689Y2714419D01*
X819933Y2714768D01*
D02*
G37*
G36*
X855941Y2931620D02*
X853479D01*
X851101Y2930983D01*
X848969Y2929752D01*
X847228Y2928011D01*
X845997Y2925879D01*
X845360Y2923501D01*
Y2921039D01*
X845997Y2918661D01*
X847228Y2916529D01*
X848969Y2914788D01*
X850122Y2914123D01*
Y2880360D01*
X850471Y2878604D01*
X851466Y2877116D01*
X983472Y2745110D01*
Y2707640D01*
X983821Y2705884D01*
X984816Y2704396D01*
X1007779Y2681432D01*
X1007040Y2678674D01*
Y2675646D01*
X1007824Y2672721D01*
X1009338Y2670099D01*
X1011479Y2667958D01*
X1014101Y2666444D01*
X1017026Y2665660D01*
X1020054D01*
X1022979Y2666444D01*
X1025601Y2667958D01*
X1027742Y2670099D01*
X1029256Y2672721D01*
X1030040Y2675646D01*
Y2678674D01*
X1029256Y2681599D01*
X1027742Y2684221D01*
X1025601Y2686362D01*
X1022979Y2687876D01*
X1020054Y2688660D01*
X1017026D01*
X1014268Y2687921D01*
X1010678Y2691511D01*
X1011906Y2693111D01*
X1014101Y2691844D01*
X1017026Y2691060D01*
X1020054D01*
X1022979Y2691844D01*
X1025601Y2693358D01*
X1027742Y2695499D01*
X1029256Y2698121D01*
X1030040Y2701046D01*
Y2704074D01*
X1029256Y2706999D01*
X1027742Y2709621D01*
X1025601Y2711762D01*
X1022979Y2713276D01*
X1020054Y2714060D01*
X1017026D01*
X1014101Y2713276D01*
X1011479Y2711762D01*
X1009338Y2709621D01*
X1007824Y2706999D01*
X1007040Y2704074D01*
Y2701046D01*
X1007824Y2698121D01*
X1009091Y2695926D01*
X1007491Y2694698D01*
X992648Y2709540D01*
Y2747010D01*
X992299Y2748766D01*
X991304Y2750254D01*
X859298Y2882260D01*
Y2914123D01*
X860451Y2914788D01*
X862192Y2916529D01*
X863423Y2918661D01*
X864060Y2921039D01*
Y2923501D01*
X863423Y2925879D01*
X862192Y2928011D01*
X860451Y2929752D01*
X858319Y2930983D01*
X855941Y2931620D01*
D02*
G37*
G36*
X867654Y2714060D02*
X864626D01*
X861701Y2713276D01*
X859079Y2711762D01*
X856938Y2709621D01*
X855424Y2706999D01*
X854640Y2704074D01*
Y2701046D01*
X855424Y2698121D01*
X856938Y2695499D01*
X859079Y2693358D01*
X861701Y2691844D01*
X864626Y2691060D01*
X867654D01*
X870579Y2691844D01*
X873201Y2693358D01*
X875342Y2695499D01*
X876856Y2698121D01*
X877640Y2701046D01*
Y2704074D01*
X876856Y2706999D01*
X875342Y2709621D01*
X873201Y2711762D01*
X870579Y2713276D01*
X867654Y2714060D01*
D02*
G37*
G36*
Y2688660D02*
X864626D01*
X861701Y2687876D01*
X859079Y2686362D01*
X856938Y2684221D01*
X855424Y2681599D01*
X854640Y2678674D01*
Y2675646D01*
X855424Y2672721D01*
X856938Y2670099D01*
X859079Y2667958D01*
X861701Y2666444D01*
X864626Y2665660D01*
X867654D01*
X870579Y2666444D01*
X873201Y2667958D01*
X875342Y2670099D01*
X876856Y2672721D01*
X877640Y2675646D01*
Y2678674D01*
X876856Y2681599D01*
X875342Y2684221D01*
X873201Y2686362D01*
X870579Y2687876D01*
X867654Y2688660D01*
D02*
G37*
G36*
X1020054Y2663260D02*
X1017026D01*
X1014101Y2662476D01*
X1011479Y2660962D01*
X1009338Y2658821D01*
X1007824Y2656199D01*
X1007040Y2653274D01*
Y2650246D01*
X1007824Y2647321D01*
X1009338Y2644699D01*
X1011479Y2642558D01*
X1014101Y2641044D01*
X1017026Y2640260D01*
X1020054D01*
X1022979Y2641044D01*
X1025601Y2642558D01*
X1027742Y2644699D01*
X1029256Y2647321D01*
X1030040Y2650246D01*
Y2653274D01*
X1029256Y2656199D01*
X1027742Y2658821D01*
X1025601Y2660962D01*
X1022979Y2662476D01*
X1020054Y2663260D01*
D02*
G37*
G36*
X867654D02*
X864626D01*
X861701Y2662476D01*
X859079Y2660962D01*
X856938Y2658821D01*
X855424Y2656199D01*
X854640Y2653274D01*
Y2650246D01*
X855424Y2647321D01*
X856938Y2644699D01*
X859079Y2642558D01*
X861701Y2641044D01*
X864626Y2640260D01*
X867654D01*
X870579Y2641044D01*
X873201Y2642558D01*
X875342Y2644699D01*
X876856Y2647321D01*
X877640Y2650246D01*
Y2653274D01*
X876856Y2656199D01*
X875342Y2658821D01*
X873201Y2660962D01*
X870579Y2662476D01*
X867654Y2663260D01*
D02*
G37*
G36*
X1020054Y2637860D02*
X1017026D01*
X1014101Y2637076D01*
X1011479Y2635562D01*
X1009338Y2633421D01*
X1007824Y2630799D01*
X1007040Y2627874D01*
Y2624846D01*
X1007824Y2621921D01*
X1009338Y2619299D01*
X1011479Y2617158D01*
X1014101Y2615644D01*
X1017026Y2614860D01*
X1020054D01*
X1022979Y2615644D01*
X1025601Y2617158D01*
X1027742Y2619299D01*
X1029256Y2621921D01*
X1030040Y2624846D01*
Y2627874D01*
X1029256Y2630799D01*
X1027742Y2633421D01*
X1025601Y2635562D01*
X1022979Y2637076D01*
X1020054Y2637860D01*
D02*
G37*
G36*
Y2612460D02*
X1017026D01*
X1014101Y2611676D01*
X1011479Y2610162D01*
X1009338Y2608021D01*
X1007824Y2605399D01*
X1007040Y2602474D01*
Y2599446D01*
X1007824Y2596521D01*
X1009338Y2593899D01*
X1011479Y2591758D01*
X1014101Y2590244D01*
X1017026Y2589460D01*
X1020054D01*
X1022979Y2590244D01*
X1025601Y2591758D01*
X1027742Y2593899D01*
X1029256Y2596521D01*
X1030040Y2599446D01*
Y2602474D01*
X1029256Y2605399D01*
X1027742Y2608021D01*
X1025601Y2610162D01*
X1022979Y2611676D01*
X1020054Y2612460D01*
D02*
G37*
G36*
Y2587060D02*
X1017026D01*
X1014101Y2586276D01*
X1011479Y2584762D01*
X1009338Y2582621D01*
X1007824Y2579999D01*
X1007040Y2577074D01*
Y2574046D01*
X1007824Y2571121D01*
X1009338Y2568499D01*
X1011479Y2566358D01*
X1014101Y2564844D01*
X1017026Y2564060D01*
X1020054D01*
X1022979Y2564844D01*
X1025601Y2566358D01*
X1027742Y2568499D01*
X1029256Y2571121D01*
X1030040Y2574046D01*
Y2577074D01*
X1029256Y2579999D01*
X1027742Y2582621D01*
X1025601Y2584762D01*
X1022979Y2586276D01*
X1020054Y2587060D01*
D02*
G37*
G36*
X867654D02*
X864626D01*
X861701Y2586276D01*
X859079Y2584762D01*
X856938Y2582621D01*
X855424Y2579999D01*
X854640Y2577074D01*
Y2574046D01*
X855424Y2571121D01*
X856938Y2568499D01*
X859079Y2566358D01*
X861701Y2564844D01*
X864626Y2564060D01*
X867654D01*
X870579Y2564844D01*
X873201Y2566358D01*
X875342Y2568499D01*
X876856Y2571121D01*
X877640Y2574046D01*
Y2577074D01*
X876856Y2579999D01*
X875342Y2582621D01*
X873201Y2584762D01*
X870579Y2586276D01*
X867654Y2587060D01*
D02*
G37*
G36*
X1020054Y2561660D02*
X1017026D01*
X1014101Y2560876D01*
X1011479Y2559362D01*
X1009338Y2557221D01*
X1007824Y2554599D01*
X1007040Y2551674D01*
Y2548646D01*
X1007824Y2545721D01*
X1009338Y2543099D01*
X1011479Y2540958D01*
X1014101Y2539444D01*
X1017026Y2538660D01*
X1020054D01*
X1022979Y2539444D01*
X1025601Y2540958D01*
X1027742Y2543099D01*
X1029256Y2545721D01*
X1030040Y2548646D01*
Y2551674D01*
X1029256Y2554599D01*
X1027742Y2557221D01*
X1025601Y2559362D01*
X1022979Y2560876D01*
X1020054Y2561660D01*
D02*
G37*
G36*
X867654D02*
X864626D01*
X861701Y2560876D01*
X859079Y2559362D01*
X856938Y2557221D01*
X855424Y2554599D01*
X854640Y2551674D01*
Y2548646D01*
X855424Y2545721D01*
X856938Y2543099D01*
X859079Y2540958D01*
X861701Y2539444D01*
X864626Y2538660D01*
X867654D01*
X870579Y2539444D01*
X873201Y2540958D01*
X875342Y2543099D01*
X876856Y2545721D01*
X877640Y2548646D01*
Y2551674D01*
X876856Y2554599D01*
X875342Y2557221D01*
X873201Y2559362D01*
X870579Y2560876D01*
X867654Y2561660D01*
D02*
G37*
G36*
X1020054Y2536260D02*
X1017026D01*
X1014101Y2535476D01*
X1011479Y2533962D01*
X1009338Y2531821D01*
X1007824Y2529199D01*
X1007040Y2526274D01*
Y2523246D01*
X1007824Y2520321D01*
X1009338Y2517699D01*
X1011479Y2515558D01*
X1014101Y2514044D01*
X1017026Y2513260D01*
X1020054D01*
X1022979Y2514044D01*
X1025601Y2515558D01*
X1027742Y2517699D01*
X1029256Y2520321D01*
X1030040Y2523246D01*
Y2526274D01*
X1029256Y2529199D01*
X1027742Y2531821D01*
X1025601Y2533962D01*
X1022979Y2535476D01*
X1020054Y2536260D01*
D02*
G37*
G36*
X867654D02*
X864626D01*
X861701Y2535476D01*
X859079Y2533962D01*
X856938Y2531821D01*
X855424Y2529199D01*
X854640Y2526274D01*
Y2523246D01*
X855424Y2520321D01*
X856938Y2517699D01*
X859079Y2515558D01*
X861701Y2514044D01*
X864626Y2513260D01*
X867654D01*
X870579Y2514044D01*
X873201Y2515558D01*
X875342Y2517699D01*
X876856Y2520321D01*
X877640Y2523246D01*
Y2526274D01*
X876856Y2529199D01*
X875342Y2531821D01*
X873201Y2533962D01*
X870579Y2535476D01*
X867654Y2536260D01*
D02*
G37*
G36*
X1020054Y2510860D02*
X1017026D01*
X1014101Y2510076D01*
X1011479Y2508562D01*
X1009338Y2506421D01*
X1007824Y2503799D01*
X1007040Y2500874D01*
Y2497846D01*
X1007824Y2494921D01*
X1009338Y2492299D01*
X1011479Y2490158D01*
X1014101Y2488644D01*
X1017026Y2487860D01*
X1020054D01*
X1022979Y2488644D01*
X1025601Y2490158D01*
X1027742Y2492299D01*
X1029256Y2494921D01*
X1030040Y2497846D01*
Y2500874D01*
X1029256Y2503799D01*
X1027742Y2506421D01*
X1025601Y2508562D01*
X1022979Y2510076D01*
X1020054Y2510860D01*
D02*
G37*
G36*
X867654D02*
X864626D01*
X861701Y2510076D01*
X859079Y2508562D01*
X856938Y2506421D01*
X855424Y2503799D01*
X854640Y2500874D01*
Y2497846D01*
X855424Y2494921D01*
X856938Y2492299D01*
X859079Y2490158D01*
X861701Y2488644D01*
X864626Y2487860D01*
X867654D01*
X870579Y2488644D01*
X873201Y2490158D01*
X875342Y2492299D01*
X876856Y2494921D01*
X877640Y2497846D01*
Y2500874D01*
X876856Y2503799D01*
X875342Y2506421D01*
X873201Y2508562D01*
X870579Y2510076D01*
X867654Y2510860D01*
D02*
G37*
G36*
Y2485460D02*
X864626D01*
X861701Y2484676D01*
X859079Y2483162D01*
X856938Y2481021D01*
X855424Y2478399D01*
X854640Y2475474D01*
Y2472446D01*
X855424Y2469521D01*
X856938Y2466899D01*
X859079Y2464758D01*
X861701Y2463244D01*
X864626Y2462460D01*
X867654D01*
X870579Y2463244D01*
X873201Y2464758D01*
X875342Y2466899D01*
X876856Y2469521D01*
X877640Y2472446D01*
Y2475474D01*
X876856Y2478399D01*
X875342Y2481021D01*
X873201Y2483162D01*
X870579Y2484676D01*
X867654Y2485460D01*
D02*
G37*
%LPD*%
D11*
X448564Y2134870D02*
X538734D01*
X499364Y2192020D02*
X519684Y2171700D01*
X542544D01*
X538734Y2134870D02*
X581914Y2178050D01*
Y2198370D01*
X499364Y2192020D02*
Y2237740D01*
X387604Y2073910D02*
X448564Y2134870D01*
X524764Y2405380D02*
X529844Y2410460D01*
X581914Y2198370D02*
Y2396490D01*
X529844Y2410460D02*
X567944D01*
X581914Y2396490D01*
X524764Y2390140D02*
Y2405380D01*
X387604Y2070100D02*
Y2073910D01*
D44*
X693420Y2710180D02*
X727710D01*
X675640Y2692400D02*
X693420Y2710180D01*
X675640Y2570480D02*
Y2692400D01*
X842967Y2624133D02*
X866140Y2600960D01*
X819933Y2710180D02*
X842967Y2687146D01*
Y2624133D02*
Y2687146D01*
X734060Y2727960D02*
X866140D01*
X784860Y2710180D02*
X819933D01*
X854710Y2880360D02*
Y2922270D01*
X741680Y2692400D02*
Y2696210D01*
X727710Y2710180D02*
X741680Y2696210D01*
X767080Y2692400D02*
X784860Y2710180D01*
X645160Y2816860D02*
Y2834640D01*
Y2816860D02*
X734060Y2727960D01*
X988060Y2707640D02*
X1018540Y2677160D01*
X988060Y2707640D02*
Y2747010D01*
X854710Y2880360D02*
X988060Y2747010D01*
X998220Y2453640D02*
X1018540Y2473960D01*
X675640Y2570480D02*
X792480Y2453640D01*
X998220D01*
X345694Y2929850D02*
X346014Y2930170D01*
X345694Y2894330D02*
Y2929850D01*
X344424Y2153920D02*
X362204Y2171700D01*
X437134Y2172970D02*
X438404Y2171700D01*
X437134Y2172970D02*
Y2222500D01*
X473964Y2234069D02*
Y2237740D01*
X448564Y2233952D02*
Y2237740D01*
X444277Y2229664D02*
X448564Y2233952D01*
X444277Y2229643D02*
Y2229664D01*
X437134Y2222500D02*
X444277Y2229643D01*
X463804Y2171700D02*
Y2223909D01*
X473964Y2234069D01*
X299974Y2127250D02*
X311404Y2115820D01*
X273304Y2190750D02*
X275844D01*
X299974Y2127250D02*
Y2166620D01*
X280924Y2115820D02*
Y2158030D01*
X326802Y2153920D02*
X344424D01*
X316484Y2164238D02*
X326802Y2153920D01*
X316484Y2164238D02*
Y2188155D01*
X275844Y2190750D02*
X299974Y2166620D01*
X310082Y2194557D02*
X316484Y2188155D01*
X310082Y2194557D02*
Y2194612D01*
X194564Y2237740D02*
Y2240280D01*
X218881Y2238823D02*
Y2248983D01*
X198674Y2269190D02*
X218881Y2248983D01*
Y2238823D02*
X219964Y2237740D01*
X55014Y2296670D02*
Y2439630D01*
X99314Y2298490D02*
Y2311400D01*
Y2298490D02*
X115614Y2282190D01*
X55014Y2296670D02*
X69894Y2281790D01*
X68834Y2341880D02*
X99314Y2311400D01*
X68834Y2341880D02*
Y2433320D01*
X55014Y2439630D02*
X111804Y2496420D01*
X68834Y2433320D02*
X102116Y2466602D01*
X102386D02*
X107204Y2471420D01*
X111804D01*
X102116Y2466602D02*
X102386D01*
X82294Y2269190D02*
X198674D01*
X177654Y2257190D02*
X194564Y2240280D01*
X69894Y2256790D02*
X82294Y2269190D01*
X115614Y2257190D02*
X177654D01*
D46*
X447294Y2049780D02*
X462047Y2064533D01*
X404114Y2049780D02*
X447294D01*
X387604Y2033270D02*
X404114Y2049780D01*
X387604Y2030730D02*
Y2033270D01*
D48*
X675640Y2949410D02*
D03*
D49*
X800640D02*
D03*
X675640Y2899410D02*
D03*
X800640D02*
D03*
X716280Y2667000D02*
D03*
Y2692400D02*
D03*
X741680Y2667000D02*
D03*
Y2692400D02*
D03*
X767080Y2667000D02*
D03*
Y2692400D02*
D03*
X792480Y2667000D02*
D03*
Y2692400D02*
D03*
X111804Y2496420D02*
D03*
Y2471420D02*
D03*
Y2446420D02*
D03*
Y2421420D02*
D03*
X463804Y2070100D02*
D03*
Y2171700D02*
D03*
X362204Y2070100D02*
D03*
X336804D02*
D03*
X413004D02*
D03*
X387604D02*
D03*
X438404D02*
D03*
X362204Y2171700D02*
D03*
X336804D02*
D03*
X413004D02*
D03*
X387604D02*
D03*
X438404D02*
D03*
X112014Y2737720D02*
D03*
Y2712720D02*
D03*
Y2618340D02*
D03*
Y2593340D02*
D03*
D50*
X930200Y2977660D02*
D03*
D51*
X965200Y2931160D02*
D03*
X905200D02*
D03*
D52*
X866140Y2473960D02*
D03*
Y2499360D02*
D03*
Y2524760D02*
D03*
Y2550160D02*
D03*
Y2575560D02*
D03*
Y2600960D02*
D03*
Y2626360D02*
D03*
Y2651760D02*
D03*
Y2677160D02*
D03*
Y2702560D02*
D03*
Y2727960D02*
D03*
Y2753360D02*
D03*
Y2778760D02*
D03*
Y2804160D02*
D03*
Y2829560D02*
D03*
X1018540D02*
D03*
Y2804160D02*
D03*
Y2778760D02*
D03*
Y2753360D02*
D03*
Y2727960D02*
D03*
Y2702560D02*
D03*
Y2677160D02*
D03*
Y2651760D02*
D03*
Y2626360D02*
D03*
Y2600960D02*
D03*
Y2575560D02*
D03*
Y2550160D02*
D03*
Y2524760D02*
D03*
Y2499360D02*
D03*
X463804Y2030730D02*
D03*
X438404D02*
D03*
X413004D02*
D03*
X387604D02*
D03*
X362204D02*
D03*
X336804D02*
D03*
X311404D02*
D03*
X286004D02*
D03*
X260604D02*
D03*
X235204D02*
D03*
X209804D02*
D03*
X184404D02*
D03*
X159004D02*
D03*
X550164Y2237740D02*
D03*
X524764D02*
D03*
X499364D02*
D03*
X473964D02*
D03*
X448564D02*
D03*
X423164D02*
D03*
X397764D02*
D03*
X372364D02*
D03*
X346964D02*
D03*
X321564D02*
D03*
X296164D02*
D03*
X270764D02*
D03*
X245364D02*
D03*
X219964D02*
D03*
X194564D02*
D03*
Y2390140D02*
D03*
X219964D02*
D03*
X245364D02*
D03*
X270764D02*
D03*
X296164D02*
D03*
X321564D02*
D03*
X346964D02*
D03*
X372364D02*
D03*
X397764D02*
D03*
X423164D02*
D03*
X448564D02*
D03*
X473964D02*
D03*
X499364D02*
D03*
X524764D02*
D03*
D53*
X1018540Y2473960D02*
D03*
D54*
X764540Y2792730D02*
D03*
X739140D02*
D03*
D55*
X713740D02*
D03*
D56*
X489204Y2030730D02*
D03*
X550164Y2390140D02*
D03*
D57*
X111804Y2396420D02*
D03*
X112014Y2687720D02*
D03*
Y2568340D02*
D03*
D58*
X115614Y2257190D02*
D03*
Y2282190D02*
D03*
Y2307190D02*
D03*
X69894Y2256790D02*
D03*
Y2281790D02*
D03*
Y2306790D02*
D03*
D59*
X76514Y2035890D02*
D03*
X571694D02*
D03*
Y2871410D02*
D03*
X76514D02*
D03*
D60*
X311404Y2458720D02*
D03*
X490474Y2857110D02*
D03*
X311404D02*
D03*
X490474Y2458720D02*
D03*
D61*
X346014Y2930170D02*
D03*
X126014D02*
D03*
X236014D02*
D03*
X456014D02*
D03*
D62*
X411014D02*
D03*
X346014Y2975170D02*
D03*
X411014D02*
D03*
X191014Y2930170D02*
D03*
X126014Y2975170D02*
D03*
X191014D02*
D03*
X301014Y2930170D02*
D03*
X236014Y2975170D02*
D03*
X301014D02*
D03*
X521014Y2930170D02*
D03*
X456014Y2975170D02*
D03*
X521014D02*
D03*
D63*
X854710Y2922270D02*
D03*
X814070Y2978150D02*
D03*
X688340Y2755900D02*
D03*
X645160Y2834640D02*
D03*
X581914Y2198370D02*
D03*
X542544Y2171700D02*
D03*
X280924Y2115820D02*
D03*
Y2158030D02*
D03*
X273304Y2190750D02*
D03*
X310082Y2194612D02*
D03*
X311404Y2115820D02*
D03*
X345694Y2894330D02*
D03*
M02*
