G04*
G04 #@! TF.GenerationSoftware,Altium Limited,Altium Designer,24.9.1 (31)*
G04*
G04 Layer_Color=32896*
%FSLAX44Y44*%
%MOMM*%
G71*
G04*
G04 #@! TF.SameCoordinates,08A160DE-048D-4C44-B89D-0D19DBCE6055*
G04*
G04*
G04 #@! TF.FilePolarity,Positive*
G04*
G01*
G75*
%ADD10C,0.1270*%
%ADD13C,0.2540*%
%ADD64C,0.4000*%
D10*
X396014Y2952670D02*
G03*
X396014Y2952670I-17500J0D01*
G01*
X176014D02*
G03*
X176014Y2952670I-17500J0D01*
G01*
X286014D02*
G03*
X286014Y2952670I-17500J0D01*
G01*
X506014D02*
G03*
X506014Y2952670I-17500J0D01*
G01*
X501904Y2018030D02*
Y2043430D01*
X146304D02*
X501904D01*
X146304Y2018030D02*
X501904D01*
X146304D02*
Y2043430D01*
X348514Y2942670D02*
Y2962670D01*
X408514Y2942670D02*
Y2962670D01*
X358514Y2922670D02*
X398514D01*
X358514Y2982670D02*
X398514D01*
X128514Y2942670D02*
Y2962670D01*
X188514Y2942670D02*
Y2962670D01*
X138514Y2922670D02*
X178514D01*
X138514Y2982670D02*
X178514D01*
X238514Y2942670D02*
Y2962670D01*
X298514Y2942670D02*
Y2962670D01*
X248514Y2922670D02*
X288514D01*
X248514Y2982670D02*
X288514D01*
X458514Y2942670D02*
Y2962670D01*
X518514Y2942670D02*
Y2962670D01*
X468514Y2922670D02*
X508514D01*
X468514Y2982670D02*
X508514D01*
D13*
X599104Y2008260D02*
Y2900260D01*
X49104Y2008260D02*
Y2900260D01*
X599104D01*
X49104Y2008260D02*
X599104D01*
X75692Y2924805D02*
Y2912109D01*
X73153Y2909570D01*
X68074D01*
X65535Y2912109D01*
Y2924805D01*
X50300Y2909570D02*
X60457D01*
X50300Y2919727D01*
Y2922266D01*
X52839Y2924805D01*
X57918D01*
X60457Y2922266D01*
X359921Y3005578D02*
X362461Y3008117D01*
X367539D01*
X370078Y3005578D01*
Y3003039D01*
X367539Y3000500D01*
X362461D01*
X359921Y2997960D01*
Y2995421D01*
X362461Y2992882D01*
X367539D01*
X370078Y2995421D01*
X354843Y3008117D02*
Y2992882D01*
X349765Y2997960D01*
X344686Y2992882D01*
Y3008117D01*
X329451D02*
X334529Y3005578D01*
X339608Y3000500D01*
Y2995421D01*
X337069Y2992882D01*
X331990D01*
X329451Y2995421D01*
Y2997960D01*
X331990Y3000500D01*
X339608D01*
X134877Y3005578D02*
X137416Y3008117D01*
X142495D01*
X145034Y3005578D01*
Y3003039D01*
X142495Y3000500D01*
X137416D01*
X134877Y2997960D01*
Y2995421D01*
X137416Y2992882D01*
X142495D01*
X145034Y2995421D01*
X129799Y3008117D02*
Y2992882D01*
X124721Y2997960D01*
X119642Y2992882D01*
Y3008117D01*
X114564Y2992882D02*
X109486D01*
X112025D01*
Y3008117D01*
X114564Y3005578D01*
X249939D02*
X252479Y3008117D01*
X257557D01*
X260096Y3005578D01*
Y3003039D01*
X257557Y3000500D01*
X252479D01*
X249939Y2997960D01*
Y2995421D01*
X252479Y2992882D01*
X257557D01*
X260096Y2995421D01*
X244861Y3008117D02*
Y2992882D01*
X239783Y2997960D01*
X234704Y2992882D01*
Y3008117D01*
X222008Y2992882D02*
Y3008117D01*
X229626Y3000500D01*
X219469D01*
X469903Y3005578D02*
X472443Y3008117D01*
X477521D01*
X480060Y3005578D01*
Y3003039D01*
X477521Y3000500D01*
X472443D01*
X469903Y2997960D01*
Y2995421D01*
X472443Y2992882D01*
X477521D01*
X480060Y2995421D01*
X464825Y3008117D02*
Y2992882D01*
X459747Y2997960D01*
X454668Y2992882D01*
Y3008117D01*
X439433D02*
X449590D01*
Y3000500D01*
X444511Y3003039D01*
X441972D01*
X439433Y3000500D01*
Y2995421D01*
X441972Y2992882D01*
X447051D01*
X449590Y2995421D01*
D64*
X333014Y2930170D02*
G03*
X333014Y2930170I-2000J0D01*
G01*
X113014D02*
G03*
X113014Y2930170I-2000J0D01*
G01*
X223014D02*
G03*
X223014Y2930170I-2000J0D01*
G01*
X443014D02*
G03*
X443014Y2930170I-2000J0D01*
G01*
M02*
