G04*
G04 #@! TF.GenerationSoftware,Altium Limited,Altium Designer,24.9.1 (31)*
G04*
G04 Layer_Color=255*
%FSLAX44Y44*%
%MOMM*%
G71*
G04*
G04 #@! TF.SameCoordinates,08A160DE-048D-4C44-B89D-0D19DBCE6055*
G04*
G04*
G04 #@! TF.FilePolarity,Positive*
G04*
G01*
G75*
G04:AMPARAMS|DCode=16|XSize=1.1mm|YSize=2mm|CornerRadius=0.055mm|HoleSize=0mm|Usage=FLASHONLY|Rotation=0.000|XOffset=0mm|YOffset=0mm|HoleType=Round|Shape=RoundedRectangle|*
%AMROUNDEDRECTD16*
21,1,1.1000,1.8900,0,0,0.0*
21,1,0.9900,2.0000,0,0,0.0*
1,1,0.1100,0.4950,-0.9450*
1,1,0.1100,-0.4950,-0.9450*
1,1,0.1100,-0.4950,0.9450*
1,1,0.1100,0.4950,0.9450*
%
%ADD16ROUNDEDRECTD16*%
G04:AMPARAMS|DCode=17|XSize=0.8mm|YSize=1mm|CornerRadius=0.04mm|HoleSize=0mm|Usage=FLASHONLY|Rotation=180.000|XOffset=0mm|YOffset=0mm|HoleType=Round|Shape=RoundedRectangle|*
%AMROUNDEDRECTD17*
21,1,0.8000,0.9200,0,0,180.0*
21,1,0.7200,1.0000,0,0,180.0*
1,1,0.0800,-0.3600,0.4600*
1,1,0.0800,0.3600,0.4600*
1,1,0.0800,0.3600,-0.4600*
1,1,0.0800,-0.3600,-0.4600*
%
%ADD17ROUNDEDRECTD17*%
%ADD18R,0.8000X0.8000*%
G04:AMPARAMS|DCode=19|XSize=1.1mm|YSize=2mm|CornerRadius=0.055mm|HoleSize=0mm|Usage=FLASHONLY|Rotation=90.000|XOffset=0mm|YOffset=0mm|HoleType=Round|Shape=RoundedRectangle|*
%AMROUNDEDRECTD19*
21,1,1.1000,1.8900,0,0,90.0*
21,1,0.9900,2.0000,0,0,90.0*
1,1,0.1100,0.9450,0.4950*
1,1,0.1100,0.9450,-0.4950*
1,1,0.1100,-0.9450,-0.4950*
1,1,0.1100,-0.9450,0.4950*
%
%ADD19ROUNDEDRECTD19*%
G04:AMPARAMS|DCode=20|XSize=0.8mm|YSize=1mm|CornerRadius=0.04mm|HoleSize=0mm|Usage=FLASHONLY|Rotation=270.000|XOffset=0mm|YOffset=0mm|HoleType=Round|Shape=RoundedRectangle|*
%AMROUNDEDRECTD20*
21,1,0.8000,0.9200,0,0,270.0*
21,1,0.7200,1.0000,0,0,270.0*
1,1,0.0800,-0.4600,-0.3600*
1,1,0.0800,-0.4600,0.3600*
1,1,0.0800,0.4600,0.3600*
1,1,0.0800,0.4600,-0.3600*
%
%ADD20ROUNDEDRECTD20*%
G04:AMPARAMS|DCode=21|XSize=0.8mm|YSize=0.9mm|CornerRadius=0.04mm|HoleSize=0mm|Usage=FLASHONLY|Rotation=0.000|XOffset=0mm|YOffset=0mm|HoleType=Round|Shape=RoundedRectangle|*
%AMROUNDEDRECTD21*
21,1,0.8000,0.8200,0,0,0.0*
21,1,0.7200,0.9000,0,0,0.0*
1,1,0.0800,0.3600,-0.4100*
1,1,0.0800,-0.3600,-0.4100*
1,1,0.0800,-0.3600,0.4100*
1,1,0.0800,0.3600,0.4100*
%
%ADD21ROUNDEDRECTD21*%
%ADD48R,2.0000X2.0000*%
%ADD49C,2.0000*%
%ADD50O,3.3000X1.8000*%
%ADD51O,2.0000X3.8000*%
%ADD52C,1.7000*%
%ADD53R,1.7000X1.7000*%
%ADD54C,1.8669*%
%ADD55R,1.8669X1.8669*%
%ADD56R,1.7000X1.7000*%
%ADD57R,2.0000X2.0000*%
%ADD58C,1.5000*%
%ADD59C,4.6000*%
%ADD60R,2.8000X3.0000*%
%ADD61R,1.4980X1.4980*%
%ADD62C,1.4980*%
D16*
X858820Y2976880D02*
D03*
X832820D02*
D03*
X738170Y2763520D02*
D03*
X712170D02*
D03*
X764240Y2764790D02*
D03*
X790240D02*
D03*
D17*
X830960Y2923540D02*
D03*
X814960D02*
D03*
X260224Y2929890D02*
D03*
X276224D02*
D03*
X481204D02*
D03*
X497204D02*
D03*
X370714D02*
D03*
X386714D02*
D03*
X178944Y2567940D02*
D03*
X194944D02*
D03*
X574674Y2184400D02*
D03*
X558674D02*
D03*
X151004Y2929890D02*
D03*
X167004D02*
D03*
X549784Y2127250D02*
D03*
X565784D02*
D03*
X194944Y2686050D02*
D03*
X178944D02*
D03*
D18*
X645160Y2938660D02*
D03*
Y2923660D02*
D03*
X825500Y2790070D02*
D03*
Y2775070D02*
D03*
D19*
Y2692700D02*
D03*
Y2666700D02*
D03*
D20*
Y2808860D02*
D03*
Y2824860D02*
D03*
X645160Y2879470D02*
D03*
Y2863470D02*
D03*
D21*
X576474Y2171540D02*
D03*
X556874D02*
D03*
X566674Y2151540D02*
D03*
D48*
X675640Y2949410D02*
D03*
D49*
X800640D02*
D03*
X675640Y2899410D02*
D03*
X800640D02*
D03*
X716280Y2667000D02*
D03*
Y2692400D02*
D03*
X741680Y2667000D02*
D03*
Y2692400D02*
D03*
X767080Y2667000D02*
D03*
Y2692400D02*
D03*
X792480Y2667000D02*
D03*
Y2692400D02*
D03*
X111804Y2496420D02*
D03*
Y2471420D02*
D03*
Y2446420D02*
D03*
Y2421420D02*
D03*
X463804Y2070100D02*
D03*
Y2171700D02*
D03*
X362204Y2070100D02*
D03*
X336804D02*
D03*
X413004D02*
D03*
X387604D02*
D03*
X438404D02*
D03*
X362204Y2171700D02*
D03*
X336804D02*
D03*
X413004D02*
D03*
X387604D02*
D03*
X438404D02*
D03*
X112014Y2737720D02*
D03*
Y2712720D02*
D03*
Y2618340D02*
D03*
Y2593340D02*
D03*
D50*
X930200Y2977660D02*
D03*
D51*
X965200Y2931160D02*
D03*
X905200D02*
D03*
D52*
X866140Y2473960D02*
D03*
Y2499360D02*
D03*
Y2524760D02*
D03*
Y2550160D02*
D03*
Y2575560D02*
D03*
Y2600960D02*
D03*
Y2626360D02*
D03*
Y2651760D02*
D03*
Y2677160D02*
D03*
Y2702560D02*
D03*
Y2727960D02*
D03*
Y2753360D02*
D03*
Y2778760D02*
D03*
Y2804160D02*
D03*
Y2829560D02*
D03*
X1018540D02*
D03*
Y2804160D02*
D03*
Y2778760D02*
D03*
Y2753360D02*
D03*
Y2727960D02*
D03*
Y2702560D02*
D03*
Y2677160D02*
D03*
Y2651760D02*
D03*
Y2626360D02*
D03*
Y2600960D02*
D03*
Y2575560D02*
D03*
Y2550160D02*
D03*
Y2524760D02*
D03*
Y2499360D02*
D03*
X463804Y2030730D02*
D03*
X438404D02*
D03*
X413004D02*
D03*
X387604D02*
D03*
X362204D02*
D03*
X336804D02*
D03*
X311404D02*
D03*
X286004D02*
D03*
X260604D02*
D03*
X235204D02*
D03*
X209804D02*
D03*
X184404D02*
D03*
X159004D02*
D03*
X550164Y2237740D02*
D03*
X524764D02*
D03*
X499364D02*
D03*
X473964D02*
D03*
X448564D02*
D03*
X423164D02*
D03*
X397764D02*
D03*
X372364D02*
D03*
X346964D02*
D03*
X321564D02*
D03*
X296164D02*
D03*
X270764D02*
D03*
X245364D02*
D03*
X219964D02*
D03*
X194564D02*
D03*
Y2390140D02*
D03*
X219964D02*
D03*
X245364D02*
D03*
X270764D02*
D03*
X296164D02*
D03*
X321564D02*
D03*
X346964D02*
D03*
X372364D02*
D03*
X397764D02*
D03*
X423164D02*
D03*
X448564D02*
D03*
X473964D02*
D03*
X499364D02*
D03*
X524764D02*
D03*
D53*
X1018540Y2473960D02*
D03*
D54*
X764540Y2792730D02*
D03*
X739140D02*
D03*
D55*
X713740D02*
D03*
D56*
X489204Y2030730D02*
D03*
X550164Y2390140D02*
D03*
D57*
X111804Y2396420D02*
D03*
X112014Y2687720D02*
D03*
Y2568340D02*
D03*
D58*
X115614Y2257190D02*
D03*
Y2282190D02*
D03*
Y2307190D02*
D03*
X69894Y2256790D02*
D03*
Y2281790D02*
D03*
Y2306790D02*
D03*
D59*
X76514Y2035890D02*
D03*
X571694D02*
D03*
Y2871410D02*
D03*
X76514D02*
D03*
D60*
X311404Y2458720D02*
D03*
X490474Y2857110D02*
D03*
X311404D02*
D03*
X490474Y2458720D02*
D03*
D61*
X346014Y2930170D02*
D03*
X126014D02*
D03*
X236014D02*
D03*
X456014D02*
D03*
D62*
X411014D02*
D03*
X346014Y2975170D02*
D03*
X411014D02*
D03*
X191014Y2930170D02*
D03*
X126014Y2975170D02*
D03*
X191014D02*
D03*
X301014Y2930170D02*
D03*
X236014Y2975170D02*
D03*
X301014D02*
D03*
X521014Y2930170D02*
D03*
X456014Y2975170D02*
D03*
X521014D02*
D03*
M02*
