M48
;Layer_Color=9474304
;FILE_FORMAT=4:4
METRIC,LZ
;TYPE=PLATED
T01F00S00C0.7112
T02F00S00C0.9000
T03F00S00C0.9900
T04F00S00C1.0000
T06F00S00C1.0160
T07F00S00C1.1000
T09F00S00C1.2446
T10F00S00C1.3000
T11F00S00C1.4000
T12F00S00C3.3008
%
T01
X00542544Y021717
X00581914Y0219837
X00310082Y02194612
X00273304Y0219075
X00280924Y0215803
Y0211582
X00311404
X0068834Y027559
X0085471Y0292227
X0081407Y0297815
X0064516Y0283464
X00345694Y0289433
T02
X00413004Y020701
X00438404
X00463804
Y021717
X00438404
X00413004
X00387604
X00362204
X00336804
Y020701
X00362204
X00387604
T03
X00411014Y0293017
X00456014
Y0297517
X00411014
X00521014
Y0293017
X00346014
X00301014
Y0297517
X00346014
X00236014
X00191014
Y0293017
X00236014
X00126014
Y0297517
T04
X00069894Y0225679
Y0228179
Y0230679
X00115614Y0230719
Y0228219
Y0225719
T06
X00413004Y0203073
X00438404
X00463804
X00489204
X00499364Y0223774
X00524764
X00550164
X00473964
X00448564
X00423164
X00397764
X00372364
X00346964
X00321564
X00296164
X00270764
X00245364
X00219964
X00194564
X00184404Y0203073
X00209804
X00235204
X00260604
X00286004
X00311404
X00336804
X00362204
X00387604
X00159004
X00194564Y0239014
X00219964
X00245364
X00270764
X00296164
X00321564
X00346964
X00372364
X00397764
X00423164
X00448564
X00473964
X00499364
X00524764
X00550164
X0086614Y0247396
Y0249936
Y0252476
Y0255016
Y0257556
Y0260096
Y0262636
Y0265176
Y0267716
Y0270256
Y0272796
Y0275336
X0101854
Y0272796
Y0270256
Y0267716
Y0265176
Y0262636
Y0260096
Y0257556
Y0255016
Y0252476
Y0249936
Y0247396
Y0277876
Y0280416
Y0282956
X0086614
Y0280416
Y0277876
T07
X00111804Y0239642
Y0242142
Y0244642
Y0247142
Y0249642
X00112014Y0256834
Y0259334
Y0261834
Y0268772
Y0271272
Y0273772
X0071628Y026924
Y02667
X0074168
Y026924
X0076708
Y02667
X0079248
Y026924
T09
X0071374Y0279273
X0073914
X0076454
T10
X0080064Y0289941
Y0294941
X0067564
Y0289941
T11
X00311404Y0245872
X00490474
Y0285711
X00311404
T12
X00571694Y0203589
X00076514
X00571694Y0287141
X00076514
M30
