G04*
G04 #@! TF.GenerationSoftware,Altium Limited,Altium Designer,24.9.1 (31)*
G04*
G04 Layer_Color=32768*
%FSLAX44Y44*%
%MOMM*%
G71*
G04*
G04 #@! TF.SameCoordinates,08A160DE-048D-4C44-B89D-0D19DBCE6055*
G04*
G04*
G04 #@! TF.FilePolarity,Positive*
G04*
G01*
G75*
%ADD11C,0.2000*%
%ADD12C,0.1500*%
%ADD15C,0.1000*%
%ADD65C,0.0500*%
%ADD66C,0.0038*%
D11*
X95614Y2340190D02*
X135614D01*
X95614Y2224190D02*
Y2340190D01*
Y2224190D02*
X135614D01*
Y2340190D01*
X49894Y2339790D02*
X89894D01*
X49894Y2223790D02*
Y2339790D01*
Y2223790D02*
X89894D01*
Y2339790D01*
X324104Y2057400D02*
X476504D01*
X324104Y2184400D02*
X476504D01*
Y2057400D02*
Y2184400D01*
X324104Y2057400D02*
Y2184400D01*
D12*
X19804Y2520920D02*
X134804D01*
X19804Y2371920D02*
Y2520920D01*
D15*
X679640Y2981910D02*
X796640D01*
Y2866910D02*
Y2981910D01*
X679640Y2866910D02*
X796640D01*
X679640D02*
Y2981910D01*
X845820Y2972130D02*
Y2981630D01*
X841070Y2976880D02*
X850570D01*
X818210Y2923540D02*
X827710D01*
X822960Y2918790D02*
Y2928290D01*
X725170Y2758770D02*
Y2768270D01*
X720420Y2763520D02*
X729920D01*
X820750Y2679700D02*
X830250D01*
X825500Y2674950D02*
Y2684450D01*
X820750Y2816860D02*
X830250D01*
X825500Y2812110D02*
Y2821610D01*
X777240Y2760040D02*
Y2769540D01*
X772490Y2764790D02*
X781990D01*
X640410Y2871470D02*
X649910D01*
X645160Y2866720D02*
Y2876220D01*
X134804Y2371920D02*
Y2520920D01*
X263474Y2929890D02*
X272974D01*
X268224Y2925140D02*
Y2934640D01*
X484454Y2929890D02*
X493954D01*
X489204Y2925140D02*
Y2934640D01*
X373964Y2929890D02*
X383464D01*
X378714Y2925140D02*
Y2934640D01*
X186944Y2563190D02*
Y2572690D01*
X182194Y2567940D02*
X191694D01*
X566674Y2179650D02*
Y2189150D01*
X561924Y2184400D02*
X571424D01*
X154254Y2929890D02*
X163754D01*
X159004Y2925140D02*
Y2934640D01*
X566674Y2156540D02*
Y2166540D01*
X561674Y2161540D02*
X571674D01*
X557784Y2122500D02*
Y2132000D01*
X553034Y2127250D02*
X562534D01*
X182194Y2686050D02*
X191694D01*
X186944Y2681300D02*
Y2690800D01*
D65*
X853440Y2424430D02*
X1031240D01*
X853440D02*
Y2867660D01*
X1031240D01*
Y2424430D02*
Y2867660D01*
X684887Y2776895D02*
Y2826345D01*
Y2776895D02*
X793392D01*
Y2826345D01*
X684887D02*
X793392D01*
X660400Y2424430D02*
Y2713990D01*
X810400Y2424430D02*
Y2713990D01*
X660400Y2424430D02*
X810400D01*
X660400Y2713990D02*
X810400D01*
X826320Y2965880D02*
X865320D01*
X826320D02*
Y2987880D01*
X865320Y2965880D02*
Y2987880D01*
X826320D02*
X865320D01*
X835960Y2917540D02*
Y2929540D01*
X809960Y2917540D02*
X835960D01*
X809960Y2929540D02*
X835960D01*
X809960Y2917540D02*
Y2929540D01*
X705670Y2752520D02*
X744670D01*
X705670D02*
Y2774520D01*
X744670Y2752520D02*
Y2774520D01*
X705670D02*
X744670D01*
X836500Y2660200D02*
Y2699200D01*
X814500Y2660200D02*
X836500D01*
X814500Y2699200D02*
X836500D01*
X814500Y2660200D02*
Y2699200D01*
X757740Y2775790D02*
X796740D01*
Y2753790D02*
Y2775790D01*
X757740Y2753790D02*
Y2775790D01*
Y2753790D02*
X796740D01*
X146304Y2018030D02*
X501904D01*
X146304D02*
Y2043430D01*
X501904D01*
Y2018030D02*
Y2043430D01*
X599694Y2225040D02*
Y2402840D01*
X156464Y2225040D02*
X599694D01*
X156464D02*
Y2402840D01*
X599694D01*
X295404Y2874010D02*
X506404D01*
X295404Y2441700D02*
Y2874010D01*
X506404Y2441700D02*
Y2873700D01*
X295404Y2441700D02*
X506404D01*
X336014Y2920170D02*
X421014D01*
Y2985120D01*
X336014D02*
X421014D01*
X336014Y2920170D02*
Y2985120D01*
X116014Y2920170D02*
X201014D01*
Y2985120D01*
X116014D02*
X201014D01*
X116014Y2920170D02*
Y2985120D01*
X226014Y2920170D02*
X311014D01*
Y2985120D01*
X226014D02*
X311014D01*
X226014Y2920170D02*
Y2985120D01*
X446014Y2920170D02*
X531014D01*
Y2985120D01*
X446014D02*
X531014D01*
X446014Y2920170D02*
Y2985120D01*
X20364Y2663190D02*
Y2762250D01*
X134664D01*
Y2663190D02*
Y2762250D01*
X20364Y2663190D02*
X134664D01*
X20364Y2543810D02*
Y2642870D01*
X134664D01*
Y2543810D02*
Y2642870D01*
X20364Y2543810D02*
X134664D01*
X255224Y2923890D02*
Y2935890D01*
X281224D01*
X255224Y2923890D02*
X281224D01*
Y2935890D01*
X476204Y2923890D02*
Y2935890D01*
X502204D01*
X476204Y2923890D02*
X502204D01*
Y2935890D01*
X365714Y2923890D02*
Y2935890D01*
X391714D01*
X365714Y2923890D02*
X391714D01*
Y2935890D01*
X146004Y2923890D02*
Y2935890D01*
X172004D01*
X146004Y2923890D02*
X172004D01*
Y2935890D01*
X550674Y2177540D02*
X582674D01*
X550674Y2145540D02*
X582674D01*
Y2177540D01*
X550674Y2145540D02*
Y2177540D01*
D66*
X19804Y2371920D02*
X134804D01*
M02*
