G04*
G04 #@! TF.GenerationSoftware,Altium Limited,Altium Designer,24.9.1 (31)*
G04*
G04 Layer_Color=65535*
%FSLAX44Y44*%
%MOMM*%
G71*
G04*
G04 #@! TF.SameCoordinates,08A160DE-048D-4C44-B89D-0D19DBCE6055*
G04*
G04*
G04 #@! TF.FilePolarity,Positive*
G04*
G01*
G75*
%ADD10C,0.1270*%
%ADD11C,0.2000*%
%ADD12C,0.1500*%
%ADD13C,0.2540*%
%ADD14C,0.1524*%
%ADD15C,0.1000*%
D10*
X955292Y2424430D02*
G03*
X929389Y2424430I-12952J0D01*
G01*
X599694Y2326891D02*
G03*
X599694Y2300988I0J-12952D01*
G01*
X897970Y2980160D02*
X910026D01*
X897970Y2953258D02*
Y2980160D01*
X1041970Y2886160D02*
Y2980160D01*
X897970Y2886160D02*
X1041970D01*
X897970D02*
Y2907030D01*
X952470Y2980160D02*
X1041970D01*
X853440Y2424430D02*
Y2867660D01*
X1031240D01*
Y2424430D02*
Y2867660D01*
X853440Y2424430D02*
X1031240D01*
X687387Y2779395D02*
Y2823845D01*
Y2779395D02*
X790892D01*
Y2823845D01*
X687387D02*
X790892D01*
X156464Y2225040D02*
X599694D01*
X156464D02*
Y2402840D01*
X599694D01*
Y2225040D02*
Y2402840D01*
X20014Y2712720D02*
X26107D01*
X20014Y2663220D02*
Y2762220D01*
X135014D01*
Y2663220D02*
Y2762220D01*
X20014Y2663220D02*
X135014D01*
X20014Y2593340D02*
X26107D01*
X20014Y2543840D02*
Y2642840D01*
X135014D01*
Y2543840D02*
Y2642840D01*
X20014Y2543840D02*
X135014D01*
D11*
X680140Y2792730D02*
G03*
X680140Y2792730I-1000J0D01*
G01*
X620000Y2413000D02*
X620000Y3003550D01*
X600000Y2413000D02*
Y3003550D01*
X679640Y2964410D02*
Y2981910D01*
X796640D01*
Y2866910D02*
Y2884410D01*
X679640Y2866910D02*
X796640D01*
X679640D02*
Y2884410D01*
Y2911410D02*
Y2936910D01*
X796640Y2911410D02*
Y2937410D01*
Y2964410D02*
Y2981910D01*
X660400Y2423990D02*
Y2713990D01*
X810400Y2423990D02*
Y2713990D01*
X660400Y2423990D02*
X810400D01*
X660400Y2713990D02*
X810400D01*
X324104Y2057400D02*
X476504D01*
X324104Y2184400D02*
X476504D01*
Y2057400D02*
Y2184400D01*
X324104Y2057400D02*
Y2184400D01*
X295404Y2441700D02*
X506404D01*
X295404D02*
Y2873700D01*
X506404D01*
Y2441700D02*
Y2873700D01*
X581674Y2154540D02*
Y2162540D01*
X573674Y2154540D02*
X581674D01*
X551674D02*
Y2162540D01*
Y2154540D02*
X559674D01*
D12*
X1030700Y2933160D02*
X1041970D01*
X845820Y2966380D02*
Y2986880D01*
X840320Y2987380D02*
X851320D01*
X840320Y2966380D02*
X851320D01*
X820960Y2929040D02*
X824960D01*
X820960Y2918040D02*
X824960D01*
X822960D02*
Y2929040D01*
X725170Y2753020D02*
Y2773520D01*
X719670Y2774020D02*
X730670D01*
X719670Y2753020D02*
X730670D01*
X815500Y2679700D02*
X836000D01*
X815000Y2674200D02*
Y2685200D01*
X836000Y2674200D02*
Y2685200D01*
X831000Y2814860D02*
Y2818860D01*
X820000Y2814860D02*
Y2818860D01*
X777240Y2754790D02*
Y2775290D01*
X771740Y2754290D02*
X782740D01*
X771740Y2775290D02*
X782740D01*
X639660Y2869470D02*
Y2873470D01*
X650660Y2869470D02*
Y2873470D01*
X19804Y2446420D02*
X33304D01*
X19804Y2520920D02*
X134804D01*
X19804Y2371920D02*
Y2520920D01*
Y2371920D02*
X134664D01*
X266224Y2924390D02*
X270224D01*
X266224Y2935390D02*
X270224D01*
X268224Y2924390D02*
Y2935390D01*
X487204Y2924390D02*
X491204D01*
X487204Y2935390D02*
X491204D01*
X489204Y2924390D02*
Y2935390D01*
X376714Y2924390D02*
X380714D01*
X376714Y2935390D02*
X380714D01*
X378714Y2924390D02*
Y2935390D01*
X184944Y2562440D02*
X188944D01*
X184944Y2573440D02*
X188944D01*
X564674Y2189900D02*
X568674D01*
X564674Y2178900D02*
X568674D01*
X157004Y2924390D02*
X161004D01*
X157004Y2935390D02*
X161004D01*
X159004Y2924390D02*
Y2935390D01*
X555784Y2121750D02*
X559784D01*
X555784Y2132750D02*
X559784D01*
X184944Y2691550D02*
X188944D01*
X184944Y2680550D02*
X188944D01*
X714279Y2957373D02*
X713446Y2958206D01*
X711780D01*
X710947Y2957373D01*
Y2956540D01*
X711780Y2955706D01*
X713446D01*
X714279Y2954873D01*
Y2954041D01*
X713446Y2953207D01*
X711780D01*
X710947Y2954041D01*
X715945Y2958206D02*
Y2953207D01*
X717611Y2954873D01*
X719277Y2953207D01*
Y2958206D01*
X720944Y2953207D02*
X722610D01*
X721777D01*
Y2958206D01*
X720944Y2957373D01*
X725109Y2952374D02*
X728441D01*
X730107Y2953207D02*
X731773D01*
X730940D01*
Y2958206D01*
X730107Y2957373D01*
X956808Y2993766D02*
X955142D01*
X955975D01*
Y2989601D01*
X955142Y2988767D01*
X954309D01*
X953476Y2989601D01*
X958474Y2988767D02*
X960140D01*
X959307D01*
Y2993766D01*
X958474Y2992933D01*
X962640Y2987934D02*
X965972D01*
X967638Y2988767D02*
X969304D01*
X968471D01*
Y2993766D01*
X967638Y2992933D01*
X854202Y2880786D02*
Y2876621D01*
X855035Y2875788D01*
X856701D01*
X857534Y2876621D01*
Y2880786D01*
X862533Y2875788D02*
X859200D01*
X862533Y2879120D01*
Y2879953D01*
X861700Y2880786D01*
X860033D01*
X859200Y2879953D01*
X864199Y2874955D02*
X867531D01*
X869197Y2875788D02*
X870863D01*
X870030D01*
Y2880786D01*
X869197Y2879953D01*
X678688Y2839130D02*
Y2834965D01*
X679521Y2834132D01*
X681187D01*
X682020Y2834965D01*
Y2839130D01*
X683686Y2834132D02*
X685352D01*
X684519D01*
Y2839130D01*
X683686Y2838297D01*
X687852Y2833299D02*
X691184D01*
X692850Y2834132D02*
X694516D01*
X693683D01*
Y2839130D01*
X692850Y2838297D01*
X658419Y2737226D02*
Y2733060D01*
X659252Y2732227D01*
X660919D01*
X661752Y2733060D01*
Y2737226D01*
X663418Y2736393D02*
X664251Y2737226D01*
X665917D01*
X666750Y2736393D01*
Y2735560D01*
X665917Y2734727D01*
X665084D01*
X665917D01*
X666750Y2733893D01*
Y2733060D01*
X665917Y2732227D01*
X664251D01*
X663418Y2733060D01*
X668416Y2731394D02*
X671748D01*
X673415Y2732227D02*
X675081D01*
X674248D01*
Y2737226D01*
X673415Y2736393D01*
X875528Y2995473D02*
X874695Y2996306D01*
X873029D01*
X872196Y2995473D01*
Y2992141D01*
X873029Y2991307D01*
X874695D01*
X875528Y2992141D01*
X877194Y2991307D02*
X878860D01*
X878027D01*
Y2996306D01*
X877194Y2995473D01*
X881360Y2990474D02*
X884692D01*
X886358Y2991307D02*
X888024D01*
X887191D01*
Y2996306D01*
X886358Y2995473D01*
X814608Y2940659D02*
X813775Y2941492D01*
X812109D01*
X811276Y2940659D01*
Y2937327D01*
X812109Y2936494D01*
X813775D01*
X814608Y2937327D01*
X819607Y2941492D02*
X816274D01*
Y2938993D01*
X817941Y2939826D01*
X818773D01*
X819607Y2938993D01*
Y2937327D01*
X818773Y2936494D01*
X817107D01*
X816274Y2937327D01*
X720172Y2788463D02*
X719339Y2789296D01*
X717673D01*
X716839Y2788463D01*
Y2785130D01*
X717673Y2784297D01*
X719339D01*
X720172Y2785130D01*
X725170Y2784297D02*
X721838D01*
X725170Y2787630D01*
Y2788463D01*
X724337Y2789296D01*
X722671D01*
X721838Y2788463D01*
X726836Y2783464D02*
X730168D01*
X731834Y2784297D02*
X733501D01*
X732668D01*
Y2789296D01*
X731834Y2788463D01*
X641076Y2965289D02*
Y2960291D01*
X644409D01*
X649407Y2965289D02*
X646075D01*
Y2960291D01*
X649407D01*
X646075Y2962790D02*
X647741D01*
X651073Y2965289D02*
Y2960291D01*
X653572D01*
X654405Y2961124D01*
Y2964456D01*
X653572Y2965289D01*
X651073D01*
X659404Y2960291D02*
X656071D01*
X659404Y2963623D01*
Y2964456D01*
X658571Y2965289D01*
X656905D01*
X656071Y2964456D01*
X819180Y2711043D02*
X818347Y2711877D01*
X816681D01*
X815848Y2711043D01*
Y2707711D01*
X816681Y2706878D01*
X818347D01*
X819180Y2707711D01*
X823345Y2706878D02*
Y2711877D01*
X820846Y2709377D01*
X824179D01*
X825845Y2706045D02*
X829177D01*
X830843Y2706878D02*
X832509D01*
X831676D01*
Y2711877D01*
X830843Y2711043D01*
X840446Y2840177D02*
Y2845176D01*
X842945D01*
X843778Y2844343D01*
Y2842676D01*
X842945Y2841844D01*
X840446D01*
X842112D02*
X843778Y2840177D01*
X845444D02*
X847110D01*
X846277D01*
Y2845176D01*
X845444Y2844343D01*
X849610Y2839344D02*
X852942D01*
X854608Y2840177D02*
X856274D01*
X855441D01*
Y2845176D01*
X854608Y2844343D01*
X733349Y2861269D02*
Y2856271D01*
X736682D01*
X741680Y2861269D02*
X738348D01*
Y2856271D01*
X741680D01*
X738348Y2858770D02*
X740014D01*
X743346Y2861269D02*
Y2856271D01*
X745845D01*
X746678Y2857104D01*
Y2860436D01*
X745845Y2861269D01*
X743346D01*
X748344Y2856271D02*
X750011D01*
X749178D01*
Y2861269D01*
X748344Y2860436D01*
X773512Y2785923D02*
X772679Y2786756D01*
X771012D01*
X770179Y2785923D01*
Y2782590D01*
X771012Y2781758D01*
X772679D01*
X773512Y2782590D01*
X775178Y2785923D02*
X776011Y2786756D01*
X777677D01*
X778510Y2785923D01*
Y2785090D01*
X777677Y2784257D01*
X776844D01*
X777677D01*
X778510Y2783423D01*
Y2782590D01*
X777677Y2781758D01*
X776011D01*
X775178Y2782590D01*
X780176Y2780924D02*
X783508D01*
X785174Y2781758D02*
X786841D01*
X786008D01*
Y2786756D01*
X785174Y2785923D01*
X626669Y2889707D02*
Y2894706D01*
X629169D01*
X630002Y2893873D01*
Y2892206D01*
X629169Y2891374D01*
X626669D01*
X628335D02*
X630002Y2889707D01*
X635000D02*
X631668D01*
X635000Y2893040D01*
Y2893873D01*
X634167Y2894706D01*
X632501D01*
X631668Y2893873D01*
X636666Y2888874D02*
X639998D01*
X641665Y2889707D02*
X643331D01*
X642498D01*
Y2894706D01*
X641665Y2893873D01*
D13*
X964890Y2931160D02*
X964970D01*
X640842Y2947162D02*
X649478D01*
X821182Y2766568D02*
X829818D01*
X321568Y2426967D02*
Y2414272D01*
X324107Y2411732D01*
X329186D01*
X331725Y2414272D01*
Y2426967D01*
X336803Y2424428D02*
X339342Y2426967D01*
X344421D01*
X346960Y2424428D01*
Y2421889D01*
X344421Y2419350D01*
X341881D01*
X344421D01*
X346960Y2416811D01*
Y2414272D01*
X344421Y2411732D01*
X339342D01*
X336803Y2414272D01*
X31747Y2544567D02*
X26668D01*
X29207D01*
Y2531871D01*
X26668Y2529332D01*
X24129D01*
X21590Y2531871D01*
X36825Y2529332D02*
X41903D01*
X39364D01*
Y2544567D01*
X36825Y2542028D01*
X107185Y2361434D02*
X104646Y2363973D01*
X99567D01*
X97028Y2361434D01*
Y2358895D01*
X99567Y2356355D01*
X104646D01*
X107185Y2353816D01*
Y2351277D01*
X104646Y2348738D01*
X99567D01*
X97028Y2351277D01*
X112263Y2363973D02*
Y2348738D01*
X117341Y2353816D01*
X122420Y2348738D01*
Y2363973D01*
X137655Y2348738D02*
X127498D01*
X137655Y2358895D01*
Y2361434D01*
X135116Y2363973D01*
X130037D01*
X127498Y2361434D01*
X61465Y2361180D02*
X58925Y2363719D01*
X53847D01*
X51308Y2361180D01*
Y2358641D01*
X53847Y2356102D01*
X58925D01*
X61465Y2353562D01*
Y2351023D01*
X58925Y2348484D01*
X53847D01*
X51308Y2351023D01*
X66543Y2363719D02*
Y2348484D01*
X71621Y2353562D01*
X76700Y2348484D01*
Y2363719D01*
X81778Y2361180D02*
X84317Y2363719D01*
X89396D01*
X91935Y2361180D01*
Y2358641D01*
X89396Y2356102D01*
X86856D01*
X89396D01*
X91935Y2353562D01*
Y2351023D01*
X89396Y2348484D01*
X84317D01*
X81778Y2351023D01*
X55880Y2094484D02*
Y2109719D01*
X60958Y2104641D01*
X66037Y2109719D01*
Y2094484D01*
X71115Y2109719D02*
Y2094484D01*
Y2102101D01*
X81272D01*
Y2109719D01*
Y2094484D01*
X93968D02*
Y2109719D01*
X86350Y2102101D01*
X96507D01*
X521970Y2095754D02*
Y2110989D01*
X527048Y2105911D01*
X532127Y2110989D01*
Y2095754D01*
X537205Y2110989D02*
Y2095754D01*
Y2103371D01*
X547362D01*
Y2110989D01*
Y2095754D01*
X552440Y2108450D02*
X554979Y2110989D01*
X560058D01*
X562597Y2108450D01*
Y2105911D01*
X560058Y2103371D01*
X557519D01*
X560058D01*
X562597Y2100832D01*
Y2098293D01*
X560058Y2095754D01*
X554979D01*
X552440Y2098293D01*
X559060Y2919732D02*
Y2934968D01*
X564138Y2929889D01*
X569216Y2934968D01*
Y2919732D01*
X574295Y2934968D02*
Y2919732D01*
Y2927350D01*
X584452D01*
Y2934968D01*
Y2919732D01*
X589530D02*
X594608D01*
X592069D01*
Y2934968D01*
X589530Y2932428D01*
X325374Y2208525D02*
Y2195829D01*
X327913Y2193290D01*
X332991D01*
X335531Y2195829D01*
Y2208525D01*
X348227Y2193290D02*
Y2208525D01*
X340609Y2200907D01*
X350766D01*
X296926Y2898135D02*
Y2885439D01*
X299465Y2882900D01*
X304543D01*
X307083Y2885439D01*
Y2898135D01*
X312161Y2882900D02*
X317239D01*
X314700D01*
Y2898135D01*
X312161Y2895596D01*
X63761Y2910842D02*
Y2926078D01*
X68839Y2920999D01*
X73917Y2926078D01*
Y2910842D01*
X78996Y2926078D02*
Y2910842D01*
Y2918460D01*
X89152D01*
Y2926078D01*
Y2910842D01*
X104387D02*
X94231D01*
X104387Y2920999D01*
Y2923538D01*
X101848Y2926078D01*
X96770D01*
X94231Y2923538D01*
X32001Y2785613D02*
X26922D01*
X29462D01*
Y2772917D01*
X26922Y2770378D01*
X24383D01*
X21844Y2772917D01*
X37079Y2783074D02*
X39618Y2785613D01*
X44697D01*
X47236Y2783074D01*
Y2780535D01*
X44697Y2777996D01*
X42157D01*
X44697D01*
X47236Y2775456D01*
Y2772917D01*
X44697Y2770378D01*
X39618D01*
X37079Y2772917D01*
X32001Y2666233D02*
X26922D01*
X29462D01*
Y2653537D01*
X26922Y2650998D01*
X24383D01*
X21844Y2653537D01*
X47236Y2650998D02*
X37079D01*
X47236Y2661155D01*
Y2663694D01*
X44697Y2666233D01*
X39618D01*
X37079Y2663694D01*
X267713Y2956556D02*
X265173Y2959095D01*
X260095D01*
X257556Y2956556D01*
Y2946399D01*
X260095Y2943860D01*
X265173D01*
X267713Y2946399D01*
X280409Y2943860D02*
Y2959095D01*
X272791Y2951477D01*
X282948D01*
X488693Y2956556D02*
X486153Y2959095D01*
X481075D01*
X478536Y2956556D01*
Y2946399D01*
X481075Y2943860D01*
X486153D01*
X488693Y2946399D01*
X493771Y2943860D02*
X498849D01*
X496310D01*
Y2959095D01*
X493771Y2956556D01*
X378203D02*
X375663Y2959095D01*
X370585D01*
X368046Y2956556D01*
Y2946399D01*
X370585Y2943860D01*
X375663D01*
X378203Y2946399D01*
X393438Y2943860D02*
X383281D01*
X393438Y2954017D01*
Y2956556D01*
X390899Y2959095D01*
X385820D01*
X383281Y2956556D01*
X176276Y2581910D02*
Y2597145D01*
X183894D01*
X186433Y2594606D01*
Y2589528D01*
X183894Y2586988D01*
X176276D01*
X181354D02*
X186433Y2581910D01*
X191511Y2594606D02*
X194050Y2597145D01*
X199129D01*
X201668Y2594606D01*
Y2592067D01*
X199129Y2589528D01*
X196589D01*
X199129D01*
X201668Y2586988D01*
Y2584449D01*
X199129Y2581910D01*
X194050D01*
X191511Y2584449D01*
X556006Y2198370D02*
Y2213605D01*
X563624D01*
X566163Y2211066D01*
Y2205988D01*
X563624Y2203448D01*
X556006D01*
X561084D02*
X566163Y2198370D01*
X571241D02*
X576319D01*
X573780D01*
Y2213605D01*
X571241Y2211066D01*
X158493Y2956556D02*
X155954Y2959095D01*
X150875D01*
X148336Y2956556D01*
Y2946399D01*
X150875Y2943860D01*
X155954D01*
X158493Y2946399D01*
X163571Y2956556D02*
X166110Y2959095D01*
X171189D01*
X173728Y2956556D01*
Y2954017D01*
X171189Y2951477D01*
X168649D01*
X171189D01*
X173728Y2948938D01*
Y2946399D01*
X171189Y2943860D01*
X166110D01*
X163571Y2946399D01*
X581909Y2200912D02*
X576830D01*
X579370D01*
Y2216147D01*
X581909D01*
X576830D01*
X559056Y2203452D02*
X561595Y2200912D01*
X566674D01*
X569213Y2203452D01*
Y2213608D01*
X566674Y2216147D01*
X561595D01*
X559056Y2213608D01*
X553978Y2216147D02*
X548899D01*
X551438D01*
Y2200912D01*
X553978Y2203452D01*
X547116Y2141220D02*
Y2156455D01*
X554734D01*
X557273Y2153916D01*
Y2148837D01*
X554734Y2146298D01*
X547116D01*
X552194D02*
X557273Y2141220D01*
X572508D02*
X562351D01*
X572508Y2151377D01*
Y2153916D01*
X569969Y2156455D01*
X564890D01*
X562351Y2153916D01*
X176276Y2700020D02*
Y2715255D01*
X183894D01*
X186433Y2712716D01*
Y2707638D01*
X183894Y2705098D01*
X176276D01*
X181354D02*
X186433Y2700020D01*
X199129D02*
Y2715255D01*
X191511Y2707638D01*
X201668D01*
D14*
X653542Y2921254D02*
Y2941320D01*
X636778Y2921000D02*
Y2941066D01*
X833882Y2772664D02*
Y2792730D01*
X817118Y2772410D02*
Y2792476D01*
D15*
X95614Y2340190D02*
X135614D01*
X95614Y2224190D02*
Y2340190D01*
Y2224190D02*
X135614D01*
Y2340190D01*
X49894Y2339790D02*
X89894D01*
X49894Y2223790D02*
Y2339790D01*
Y2223790D02*
X89894D01*
Y2339790D01*
M02*
