G04*
G04 #@! TF.GenerationSoftware,Altium Limited,Altium Designer,24.9.1 (31)*
G04*
G04 Layer_Color=16711935*
%FSLAX44Y44*%
%MOMM*%
G71*
G04*
G04 #@! TF.SameCoordinates,08A160DE-048D-4C44-B89D-0D19DBCE6055*
G04*
G04*
G04 #@! TF.FilePolarity,Negative*
G04*
G01*
G75*
%ADD28R,2.0800X2.0800*%
%ADD29C,2.0800*%
%ADD30O,3.3800X1.8800*%
%ADD31O,2.0800X3.8800*%
%ADD32C,1.7800*%
%ADD33R,1.7800X1.7800*%
%ADD34C,1.9469*%
%ADD35R,1.9469X1.9469*%
%ADD36R,1.7800X1.7800*%
%ADD37R,2.0800X2.0800*%
%ADD38C,1.5800*%
%ADD39C,4.6800*%
%ADD40R,2.8800X3.0800*%
%ADD41R,1.5780X1.5780*%
%ADD42C,1.5780*%
D28*
X675640Y2949410D02*
D03*
D29*
X800640D02*
D03*
X675640Y2899410D02*
D03*
X800640D02*
D03*
X716280Y2667000D02*
D03*
Y2692400D02*
D03*
X741680Y2667000D02*
D03*
Y2692400D02*
D03*
X767080Y2667000D02*
D03*
Y2692400D02*
D03*
X792480Y2667000D02*
D03*
Y2692400D02*
D03*
X111804Y2496420D02*
D03*
Y2471420D02*
D03*
Y2446420D02*
D03*
Y2421420D02*
D03*
X463804Y2070100D02*
D03*
Y2171700D02*
D03*
X362204Y2070100D02*
D03*
X336804D02*
D03*
X413004D02*
D03*
X387604D02*
D03*
X438404D02*
D03*
X362204Y2171700D02*
D03*
X336804D02*
D03*
X413004D02*
D03*
X387604D02*
D03*
X438404D02*
D03*
X112014Y2737720D02*
D03*
Y2712720D02*
D03*
Y2618340D02*
D03*
Y2593340D02*
D03*
D30*
X930200Y2977660D02*
D03*
D31*
X965200Y2931160D02*
D03*
X905200D02*
D03*
D32*
X866140Y2473960D02*
D03*
Y2499360D02*
D03*
Y2524760D02*
D03*
Y2550160D02*
D03*
Y2575560D02*
D03*
Y2600960D02*
D03*
Y2626360D02*
D03*
Y2651760D02*
D03*
Y2677160D02*
D03*
Y2702560D02*
D03*
Y2727960D02*
D03*
Y2753360D02*
D03*
Y2778760D02*
D03*
Y2804160D02*
D03*
Y2829560D02*
D03*
X1018540D02*
D03*
Y2804160D02*
D03*
Y2778760D02*
D03*
Y2753360D02*
D03*
Y2727960D02*
D03*
Y2702560D02*
D03*
Y2677160D02*
D03*
Y2651760D02*
D03*
Y2626360D02*
D03*
Y2600960D02*
D03*
Y2575560D02*
D03*
Y2550160D02*
D03*
Y2524760D02*
D03*
Y2499360D02*
D03*
X463804Y2030730D02*
D03*
X438404D02*
D03*
X413004D02*
D03*
X387604D02*
D03*
X362204D02*
D03*
X336804D02*
D03*
X311404D02*
D03*
X286004D02*
D03*
X260604D02*
D03*
X235204D02*
D03*
X209804D02*
D03*
X184404D02*
D03*
X159004D02*
D03*
X550164Y2237740D02*
D03*
X524764D02*
D03*
X499364D02*
D03*
X473964D02*
D03*
X448564D02*
D03*
X423164D02*
D03*
X397764D02*
D03*
X372364D02*
D03*
X346964D02*
D03*
X321564D02*
D03*
X296164D02*
D03*
X270764D02*
D03*
X245364D02*
D03*
X219964D02*
D03*
X194564D02*
D03*
Y2390140D02*
D03*
X219964D02*
D03*
X245364D02*
D03*
X270764D02*
D03*
X296164D02*
D03*
X321564D02*
D03*
X346964D02*
D03*
X372364D02*
D03*
X397764D02*
D03*
X423164D02*
D03*
X448564D02*
D03*
X473964D02*
D03*
X499364D02*
D03*
X524764D02*
D03*
D33*
X1018540Y2473960D02*
D03*
D34*
X764540Y2792730D02*
D03*
X739140D02*
D03*
D35*
X713740D02*
D03*
D36*
X489204Y2030730D02*
D03*
X550164Y2390140D02*
D03*
D37*
X111804Y2396420D02*
D03*
X112014Y2687720D02*
D03*
Y2568340D02*
D03*
D38*
X115614Y2257190D02*
D03*
Y2282190D02*
D03*
Y2307190D02*
D03*
X69894Y2256790D02*
D03*
Y2281790D02*
D03*
Y2306790D02*
D03*
D39*
X76514Y2035890D02*
D03*
X571694D02*
D03*
Y2871410D02*
D03*
X76514D02*
D03*
D40*
X311404Y2458720D02*
D03*
X490474Y2857110D02*
D03*
X311404D02*
D03*
X490474Y2458720D02*
D03*
D41*
X346014Y2930170D02*
D03*
X126014D02*
D03*
X236014D02*
D03*
X456014D02*
D03*
D42*
X411014D02*
D03*
X346014Y2975170D02*
D03*
X411014D02*
D03*
X191014Y2930170D02*
D03*
X126014Y2975170D02*
D03*
X191014D02*
D03*
X301014Y2930170D02*
D03*
X236014Y2975170D02*
D03*
X301014D02*
D03*
X521014Y2930170D02*
D03*
X456014Y2975170D02*
D03*
X521014D02*
D03*
M02*
